<?xml version="1.0" encoding="utf-8" standalone="no"?>
<!DOCTYPE svg PUBLIC "-//W3C//DTD SVG 1.1//EN"
  "http://www.w3.org/Graphics/SVG/1.1/DTD/svg11.dtd">
<svg xmlns:xlink="http://www.w3.org/1999/xlink" width="460.8pt" height="345.6pt" viewBox="0 0 460.8 345.6" xmlns="http://www.w3.org/2000/svg" version="1.1">
 <metadata>
  <rdf:RDF xmlns:dc="http://purl.org/dc/elements/1.1/" xmlns:cc="http://creativecommons.org/ns#" xmlns:rdf="http://www.w3.org/1999/02/22-rdf-syntax-ns#">
   <cc:Work>
    <dc:type rdf:resource="http://purl.org/dc/dcmitype/StillImage"/>
    <dc:date>2024-05-29T10:58:33.846927</dc:date>
    <dc:format>image/svg+xml</dc:format>
    <dc:creator>
     <cc:Agent>
      <dc:title>Matplotlib v3.7.2, https://matplotlib.org/</dc:title>
     </cc:Agent>
    </dc:creator>
   </cc:Work>
  </rdf:RDF>
 </metadata>
 <defs>
  <style type="text/css">*{stroke-linejoin: round; stroke-linecap: butt}</style>
 </defs>
 <g id="figure_1">
  <g id="patch_1">
   <path d="M 0 345.6 
L 460.8 345.6 
L 460.8 0 
L 0 0 
z
" style="fill: #ffffff"/>
  </g>
  <g id="axes_1">
   <g id="patch_2">
    <path d="M 57.6 307.584 
L 414.72 307.584 
L 414.72 41.472 
L 57.6 41.472 
z
" style="fill: #eaeaf2"/>
   </g>
   <g id="matplotlib.axis_1">
    <g id="xtick_1">
     <g id="text_1">
      <!-- 0 -->
      <g style="fill: #262626" transform="translate(70.448441 322.182437) scale(0.1 -0.1)">
       <defs>
        <path id="DejaVuSans-30" d="M 2034 4250 
Q 1547 4250 1301 3770 
Q 1056 3291 1056 2328 
Q 1056 1369 1301 889 
Q 1547 409 2034 409 
Q 2525 409 2770 889 
Q 3016 1369 3016 2328 
Q 3016 3291 2770 3770 
Q 2525 4250 2034 4250 
z
M 2034 4750 
Q 2819 4750 3233 4129 
Q 3647 3509 3647 2328 
Q 3647 1150 3233 529 
Q 2819 -91 2034 -91 
Q 1250 -91 836 529 
Q 422 1150 422 2328 
Q 422 3509 836 4129 
Q 1250 4750 2034 4750 
z
" transform="scale(0.015625)"/>
       </defs>
       <use xlink:href="#DejaVuSans-30"/>
      </g>
     </g>
    </g>
    <g id="xtick_2">
     <g id="text_2">
      <!-- 200 -->
      <g style="fill: #262626" transform="translate(104.693139 322.182437) scale(0.1 -0.1)">
       <defs>
        <path id="DejaVuSans-32" d="M 1228 531 
L 3431 531 
L 3431 0 
L 469 0 
L 469 531 
Q 828 903 1448 1529 
Q 2069 2156 2228 2338 
Q 2531 2678 2651 2914 
Q 2772 3150 2772 3378 
Q 2772 3750 2511 3984 
Q 2250 4219 1831 4219 
Q 1534 4219 1204 4116 
Q 875 4013 500 3803 
L 500 4441 
Q 881 4594 1212 4672 
Q 1544 4750 1819 4750 
Q 2544 4750 2975 4387 
Q 3406 4025 3406 3419 
Q 3406 3131 3298 2873 
Q 3191 2616 2906 2266 
Q 2828 2175 2409 1742 
Q 1991 1309 1228 531 
z
" transform="scale(0.015625)"/>
       </defs>
       <use xlink:href="#DejaVuSans-32"/>
       <use xlink:href="#DejaVuSans-30" x="63.623047"/>
       <use xlink:href="#DejaVuSans-30" x="127.246094"/>
      </g>
     </g>
    </g>
    <g id="xtick_3">
     <g id="text_3">
      <!-- 400 -->
      <g style="fill: #262626" transform="translate(145.300337 322.182437) scale(0.1 -0.1)">
       <defs>
        <path id="DejaVuSans-34" d="M 2419 4116 
L 825 1625 
L 2419 1625 
L 2419 4116 
z
M 2253 4666 
L 3047 4666 
L 3047 1625 
L 3713 1625 
L 3713 1100 
L 3047 1100 
L 3047 0 
L 2419 0 
L 2419 1100 
L 313 1100 
L 313 1709 
L 2253 4666 
z
" transform="scale(0.015625)"/>
       </defs>
       <use xlink:href="#DejaVuSans-34"/>
       <use xlink:href="#DejaVuSans-30" x="63.623047"/>
       <use xlink:href="#DejaVuSans-30" x="127.246094"/>
      </g>
     </g>
    </g>
    <g id="xtick_4">
     <g id="text_4">
      <!-- 600 -->
      <g style="fill: #262626" transform="translate(185.907534 322.182437) scale(0.1 -0.1)">
       <defs>
        <path id="DejaVuSans-36" d="M 2113 2584 
Q 1688 2584 1439 2293 
Q 1191 2003 1191 1497 
Q 1191 994 1439 701 
Q 1688 409 2113 409 
Q 2538 409 2786 701 
Q 3034 994 3034 1497 
Q 3034 2003 2786 2293 
Q 2538 2584 2113 2584 
z
M 3366 4563 
L 3366 3988 
Q 3128 4100 2886 4159 
Q 2644 4219 2406 4219 
Q 1781 4219 1451 3797 
Q 1122 3375 1075 2522 
Q 1259 2794 1537 2939 
Q 1816 3084 2150 3084 
Q 2853 3084 3261 2657 
Q 3669 2231 3669 1497 
Q 3669 778 3244 343 
Q 2819 -91 2113 -91 
Q 1303 -91 875 529 
Q 447 1150 447 2328 
Q 447 3434 972 4092 
Q 1497 4750 2381 4750 
Q 2619 4750 2861 4703 
Q 3103 4656 3366 4563 
z
" transform="scale(0.015625)"/>
       </defs>
       <use xlink:href="#DejaVuSans-36"/>
       <use xlink:href="#DejaVuSans-30" x="63.623047"/>
       <use xlink:href="#DejaVuSans-30" x="127.246094"/>
      </g>
     </g>
    </g>
    <g id="xtick_5">
     <g id="text_5">
      <!-- 800 -->
      <g style="fill: #262626" transform="translate(226.514732 322.182437) scale(0.1 -0.1)">
       <defs>
        <path id="DejaVuSans-38" d="M 2034 2216 
Q 1584 2216 1326 1975 
Q 1069 1734 1069 1313 
Q 1069 891 1326 650 
Q 1584 409 2034 409 
Q 2484 409 2743 651 
Q 3003 894 3003 1313 
Q 3003 1734 2745 1975 
Q 2488 2216 2034 2216 
z
M 1403 2484 
Q 997 2584 770 2862 
Q 544 3141 544 3541 
Q 544 4100 942 4425 
Q 1341 4750 2034 4750 
Q 2731 4750 3128 4425 
Q 3525 4100 3525 3541 
Q 3525 3141 3298 2862 
Q 3072 2584 2669 2484 
Q 3125 2378 3379 2068 
Q 3634 1759 3634 1313 
Q 3634 634 3220 271 
Q 2806 -91 2034 -91 
Q 1263 -91 848 271 
Q 434 634 434 1313 
Q 434 1759 690 2068 
Q 947 2378 1403 2484 
z
M 1172 3481 
Q 1172 3119 1398 2916 
Q 1625 2713 2034 2713 
Q 2441 2713 2670 2916 
Q 2900 3119 2900 3481 
Q 2900 3844 2670 4047 
Q 2441 4250 2034 4250 
Q 1625 4250 1398 4047 
Q 1172 3844 1172 3481 
z
" transform="scale(0.015625)"/>
       </defs>
       <use xlink:href="#DejaVuSans-38"/>
       <use xlink:href="#DejaVuSans-30" x="63.623047"/>
       <use xlink:href="#DejaVuSans-30" x="127.246094"/>
      </g>
     </g>
    </g>
    <g id="xtick_6">
     <g id="text_6">
      <!-- 1000 -->
      <g style="fill: #262626" transform="translate(263.94068 322.182437) scale(0.1 -0.1)">
       <defs>
        <path id="DejaVuSans-31" d="M 794 531 
L 1825 531 
L 1825 4091 
L 703 3866 
L 703 4441 
L 1819 4666 
L 2450 4666 
L 2450 531 
L 3481 531 
L 3481 0 
L 794 0 
L 794 531 
z
" transform="scale(0.015625)"/>
       </defs>
       <use xlink:href="#DejaVuSans-31"/>
       <use xlink:href="#DejaVuSans-30" x="63.623047"/>
       <use xlink:href="#DejaVuSans-30" x="127.246094"/>
       <use xlink:href="#DejaVuSans-30" x="190.869141"/>
      </g>
     </g>
    </g>
    <g id="xtick_7">
     <g id="text_7">
      <!-- 1200 -->
      <g style="fill: #262626" transform="translate(304.547877 322.182437) scale(0.1 -0.1)">
       <use xlink:href="#DejaVuSans-31"/>
       <use xlink:href="#DejaVuSans-32" x="63.623047"/>
       <use xlink:href="#DejaVuSans-30" x="127.246094"/>
       <use xlink:href="#DejaVuSans-30" x="190.869141"/>
      </g>
     </g>
    </g>
    <g id="xtick_8">
     <g id="text_8">
      <!-- 1400 -->
      <g style="fill: #262626" transform="translate(345.155075 322.182437) scale(0.1 -0.1)">
       <use xlink:href="#DejaVuSans-31"/>
       <use xlink:href="#DejaVuSans-34" x="63.623047"/>
       <use xlink:href="#DejaVuSans-30" x="127.246094"/>
       <use xlink:href="#DejaVuSans-30" x="190.869141"/>
      </g>
     </g>
    </g>
    <g id="xtick_9">
     <g id="text_9">
      <!-- 1600 -->
      <g style="fill: #262626" transform="translate(385.762273 322.182437) scale(0.1 -0.1)">
       <use xlink:href="#DejaVuSans-31"/>
       <use xlink:href="#DejaVuSans-36" x="63.623047"/>
       <use xlink:href="#DejaVuSans-30" x="127.246094"/>
       <use xlink:href="#DejaVuSans-30" x="190.869141"/>
      </g>
     </g>
    </g>
    <g id="text_10">
     <!-- epoch -->
     <g style="fill: #262626" transform="translate(220.931875 335.860562) scale(0.1 -0.1)">
      <defs>
       <path id="DejaVuSans-65" d="M 3597 1894 
L 3597 1613 
L 953 1613 
Q 991 1019 1311 708 
Q 1631 397 2203 397 
Q 2534 397 2845 478 
Q 3156 559 3463 722 
L 3463 178 
Q 3153 47 2828 -22 
Q 2503 -91 2169 -91 
Q 1331 -91 842 396 
Q 353 884 353 1716 
Q 353 2575 817 3079 
Q 1281 3584 2069 3584 
Q 2775 3584 3186 3129 
Q 3597 2675 3597 1894 
z
M 3022 2063 
Q 3016 2534 2758 2815 
Q 2500 3097 2075 3097 
Q 1594 3097 1305 2825 
Q 1016 2553 972 2059 
L 3022 2063 
z
" transform="scale(0.015625)"/>
       <path id="DejaVuSans-70" d="M 1159 525 
L 1159 -1331 
L 581 -1331 
L 581 3500 
L 1159 3500 
L 1159 2969 
Q 1341 3281 1617 3432 
Q 1894 3584 2278 3584 
Q 2916 3584 3314 3078 
Q 3713 2572 3713 1747 
Q 3713 922 3314 415 
Q 2916 -91 2278 -91 
Q 1894 -91 1617 61 
Q 1341 213 1159 525 
z
M 3116 1747 
Q 3116 2381 2855 2742 
Q 2594 3103 2138 3103 
Q 1681 3103 1420 2742 
Q 1159 2381 1159 1747 
Q 1159 1113 1420 752 
Q 1681 391 2138 391 
Q 2594 391 2855 752 
Q 3116 1113 3116 1747 
z
" transform="scale(0.015625)"/>
       <path id="DejaVuSans-6f" d="M 1959 3097 
Q 1497 3097 1228 2736 
Q 959 2375 959 1747 
Q 959 1119 1226 758 
Q 1494 397 1959 397 
Q 2419 397 2687 759 
Q 2956 1122 2956 1747 
Q 2956 2369 2687 2733 
Q 2419 3097 1959 3097 
z
M 1959 3584 
Q 2709 3584 3137 3096 
Q 3566 2609 3566 1747 
Q 3566 888 3137 398 
Q 2709 -91 1959 -91 
Q 1206 -91 779 398 
Q 353 888 353 1747 
Q 353 2609 779 3096 
Q 1206 3584 1959 3584 
z
" transform="scale(0.015625)"/>
       <path id="DejaVuSans-63" d="M 3122 3366 
L 3122 2828 
Q 2878 2963 2633 3030 
Q 2388 3097 2138 3097 
Q 1578 3097 1268 2742 
Q 959 2388 959 1747 
Q 959 1106 1268 751 
Q 1578 397 2138 397 
Q 2388 397 2633 464 
Q 2878 531 3122 666 
L 3122 134 
Q 2881 22 2623 -34 
Q 2366 -91 2075 -91 
Q 1284 -91 818 406 
Q 353 903 353 1747 
Q 353 2603 823 3093 
Q 1294 3584 2113 3584 
Q 2378 3584 2631 3529 
Q 2884 3475 3122 3366 
z
" transform="scale(0.015625)"/>
       <path id="DejaVuSans-68" d="M 3513 2113 
L 3513 0 
L 2938 0 
L 2938 2094 
Q 2938 2591 2744 2837 
Q 2550 3084 2163 3084 
Q 1697 3084 1428 2787 
Q 1159 2491 1159 1978 
L 1159 0 
L 581 0 
L 581 4863 
L 1159 4863 
L 1159 2956 
Q 1366 3272 1645 3428 
Q 1925 3584 2291 3584 
Q 2894 3584 3203 3211 
Q 3513 2838 3513 2113 
z
" transform="scale(0.015625)"/>
      </defs>
      <use xlink:href="#DejaVuSans-65"/>
      <use xlink:href="#DejaVuSans-70" x="61.523438"/>
      <use xlink:href="#DejaVuSans-6f" x="125"/>
      <use xlink:href="#DejaVuSans-63" x="186.181641"/>
      <use xlink:href="#DejaVuSans-68" x="241.162109"/>
     </g>
    </g>
   </g>
   <g id="matplotlib.axis_2">
    <g id="ytick_1">
     <g id="text_11">
      <!-- 0.0 -->
      <g style="fill: #262626" transform="translate(34.696875 299.598179) scale(0.1 -0.1)">
       <defs>
        <path id="DejaVuSans-2e" d="M 684 794 
L 1344 794 
L 1344 0 
L 684 0 
L 684 794 
z
" transform="scale(0.015625)"/>
       </defs>
       <use xlink:href="#DejaVuSans-30"/>
       <use xlink:href="#DejaVuSans-2e" x="63.623047"/>
       <use xlink:href="#DejaVuSans-30" x="95.410156"/>
      </g>
     </g>
    </g>
    <g id="ytick_2">
     <g id="text_12">
      <!-- 0.5 -->
      <g style="fill: #262626" transform="translate(34.696875 258.801586) scale(0.1 -0.1)">
       <defs>
        <path id="DejaVuSans-35" d="M 691 4666 
L 3169 4666 
L 3169 4134 
L 1269 4134 
L 1269 2991 
Q 1406 3038 1543 3061 
Q 1681 3084 1819 3084 
Q 2600 3084 3056 2656 
Q 3513 2228 3513 1497 
Q 3513 744 3044 326 
Q 2575 -91 1722 -91 
Q 1428 -91 1123 -41 
Q 819 9 494 109 
L 494 744 
Q 775 591 1075 516 
Q 1375 441 1709 441 
Q 2250 441 2565 725 
Q 2881 1009 2881 1497 
Q 2881 1984 2565 2268 
Q 2250 2553 1709 2553 
Q 1456 2553 1204 2497 
Q 953 2441 691 2322 
L 691 4666 
z
" transform="scale(0.015625)"/>
       </defs>
       <use xlink:href="#DejaVuSans-30"/>
       <use xlink:href="#DejaVuSans-2e" x="63.623047"/>
       <use xlink:href="#DejaVuSans-35" x="95.410156"/>
      </g>
     </g>
    </g>
    <g id="ytick_3">
     <g id="text_13">
      <!-- 1.0 -->
      <g style="fill: #262626" transform="translate(34.696875 218.004994) scale(0.1 -0.1)">
       <use xlink:href="#DejaVuSans-31"/>
       <use xlink:href="#DejaVuSans-2e" x="63.623047"/>
       <use xlink:href="#DejaVuSans-30" x="95.410156"/>
      </g>
     </g>
    </g>
    <g id="ytick_4">
     <g id="text_14">
      <!-- 1.5 -->
      <g style="fill: #262626" transform="translate(34.696875 177.208402) scale(0.1 -0.1)">
       <use xlink:href="#DejaVuSans-31"/>
       <use xlink:href="#DejaVuSans-2e" x="63.623047"/>
       <use xlink:href="#DejaVuSans-35" x="95.410156"/>
      </g>
     </g>
    </g>
    <g id="ytick_5">
     <g id="text_15">
      <!-- 2.0 -->
      <g style="fill: #262626" transform="translate(34.696875 136.41181) scale(0.1 -0.1)">
       <use xlink:href="#DejaVuSans-32"/>
       <use xlink:href="#DejaVuSans-2e" x="63.623047"/>
       <use xlink:href="#DejaVuSans-30" x="95.410156"/>
      </g>
     </g>
    </g>
    <g id="ytick_6">
     <g id="text_16">
      <!-- 2.5 -->
      <g style="fill: #262626" transform="translate(34.696875 95.615217) scale(0.1 -0.1)">
       <use xlink:href="#DejaVuSans-32"/>
       <use xlink:href="#DejaVuSans-2e" x="63.623047"/>
       <use xlink:href="#DejaVuSans-35" x="95.410156"/>
      </g>
     </g>
    </g>
    <g id="ytick_7">
     <g id="text_17">
      <!-- 3.0 -->
      <g style="fill: #262626" transform="translate(34.696875 54.818625) scale(0.1 -0.1)">
       <defs>
        <path id="DejaVuSans-33" d="M 2597 2516 
Q 3050 2419 3304 2112 
Q 3559 1806 3559 1356 
Q 3559 666 3084 287 
Q 2609 -91 1734 -91 
Q 1441 -91 1130 -33 
Q 819 25 488 141 
L 488 750 
Q 750 597 1062 519 
Q 1375 441 1716 441 
Q 2309 441 2620 675 
Q 2931 909 2931 1356 
Q 2931 1769 2642 2001 
Q 2353 2234 1838 2234 
L 1294 2234 
L 1294 2753 
L 1863 2753 
Q 2328 2753 2575 2939 
Q 2822 3125 2822 3475 
Q 2822 3834 2567 4026 
Q 2313 4219 1838 4219 
Q 1578 4219 1281 4162 
Q 984 4106 628 3988 
L 628 4550 
Q 988 4650 1302 4700 
Q 1616 4750 1894 4750 
Q 2613 4750 3031 4423 
Q 3450 4097 3450 3541 
Q 3450 3153 3228 2886 
Q 3006 2619 2597 2516 
z
" transform="scale(0.015625)"/>
       </defs>
       <use xlink:href="#DejaVuSans-33"/>
       <use xlink:href="#DejaVuSans-2e" x="63.623047"/>
       <use xlink:href="#DejaVuSans-30" x="95.410156"/>
      </g>
     </g>
    </g>
   </g>
   <g id="line2d_1">
    <path d="M 73.832727 82.648224 
L 74.035763 53.568 
L 74.238799 100.284736 
L 74.441835 107.248011 
L 74.644871 109.480231 
L 76.066123 110.442316 
L 76.269159 110.620235 
L 76.675231 111.597516 
L 76.878267 111.656064 
L 77.284339 112.630439 
L 77.690411 113.979355 
L 78.096483 114.428994 
L 78.502555 115.526064 
L 78.705591 115.828414 
L 78.908627 115.674635 
L 79.517735 118.646885 
L 79.720771 118.882859 
L 80.938987 126.70119 
L 81.142023 128.400093 
L 81.345059 127.757106 
L 81.548095 128.896532 
L 81.954167 134.859177 
L 82.360239 136.244128 
L 82.563275 138.305612 
L 82.969347 143.972855 
L 83.172383 145.33638 
L 83.375419 148.768742 
L 83.578455 149.188196 
L 83.984527 152.619935 
L 84.187563 152.694451 
L 84.390599 157.65984 
L 85.202743 166.144583 
L 85.405779 170.12501 
L 85.608815 169.426371 
L 85.811851 172.540964 
L 86.014887 177.372763 
L 86.217923 176.477147 
L 86.623995 179.904409 
L 87.030067 182.45608 
L 87.233103 183.904218 
L 87.436138 184.450406 
L 87.639174 190.430667 
L 88.451318 198.458597 
L 88.85739 207.289313 
L 89.060426 206.482362 
L 89.263462 208.807952 
L 89.466498 209.842127 
L 89.87257 208.692055 
L 90.075606 203.360535 
L 90.278642 202.947147 
L 90.684714 208.744797 
L 91.496858 228.745988 
L 92.309002 240.800773 
L 92.512038 241.981264 
L 92.91811 237.854396 
L 93.527218 239.570513 
L 93.93329 247.868738 
L 94.136326 246.51974 
L 94.542398 250.304724 
L 94.745434 249.876729 
L 95.151506 249.803305 
L 95.557578 252.655353 
L 95.96365 249.915398 
L 96.166686 250.57471 
L 96.97883 258.00634 
L 97.181866 263.232412 
L 97.587938 266.594098 
L 97.790974 269.205482 
L 98.603118 272.548092 
L 99.00919 269.141427 
L 99.212226 264.572752 
L 99.415262 268.26169 
L 99.618298 266.425942 
L 99.821334 267.263642 
L 100.02437 272.146381 
L 100.430442 275.922501 
L 100.633478 276.619118 
L 100.836514 276.576233 
L 101.242586 280.612228 
L 101.445622 280.24541 
L 101.648658 278.26337 
L 102.05473 280.815012 
L 102.257766 281.302876 
L 102.460802 280.880587 
L 102.663838 281.194854 
L 103.272946 283.919439 
L 103.679018 282.554777 
L 104.08509 282.368415 
L 104.288126 283.713687 
L 104.694198 280.758043 
L 104.897233 279.959193 
L 105.303305 285.010631 
L 105.506341 286.298678 
L 105.709377 285.763796 
L 106.115449 285.600439 
L 106.318485 287.178101 
L 106.521521 287.079053 
L 106.724557 286.685122 
L 106.927593 287.669222 
L 107.130629 287.136495 
L 107.333665 287.162235 
L 107.536701 287.002487 
L 107.739737 286.112614 
L 107.942773 284.592617 
L 108.348845 285.928541 
L 108.551881 285.323187 
L 108.754917 286.880095 
L 108.957953 286.676722 
L 109.160989 287.528332 
L 109.364025 286.926945 
L 109.567061 287.936221 
L 109.770097 287.614354 
L 109.973133 287.526655 
L 110.379205 288.787912 
L 110.582241 288.918286 
L 111.191349 290.124552 
L 111.597421 289.200572 
L 111.800457 290.794337 
L 112.003493 290.517915 
L 112.206529 288.662329 
L 112.409565 288.291955 
L 112.612601 289.021645 
L 112.815637 288.002424 
L 113.018673 288.386584 
L 113.221709 288.279807 
L 113.424745 289.558196 
L 113.627781 289.542301 
L 113.830817 287.976618 
L 114.033853 288.190113 
L 114.439925 290.17433 
L 114.845997 283.236797 
L 115.049033 285.132454 
L 115.252069 285.50688 
L 115.658141 288.633581 
L 115.861177 289.846405 
L 116.064213 289.953257 
L 116.267249 291.190269 
L 116.470285 291.525783 
L 116.673321 291.575514 
L 117.079393 289.115942 
L 117.282429 289.74487 
L 117.485465 287.851679 
L 117.688501 288.357216 
L 118.297609 292.628892 
L 118.500645 292.533397 
L 118.906717 291.312279 
L 119.109753 291.438183 
L 119.515825 287.451633 
L 119.921897 275.121098 
L 120.124933 253.458186 
L 120.327969 248.758351 
L 120.937077 276.623692 
L 121.140113 276.723181 
L 121.343149 272.593857 
L 122.155293 288.874188 
L 122.358329 290.715201 
L 122.7644 291.369515 
L 122.967436 290.519474 
L 123.170472 288.294482 
L 123.373508 288.383443 
L 123.576544 288.861153 
L 123.77958 288.366812 
L 123.982616 288.503357 
L 124.185652 290.027676 
L 124.388688 289.387892 
L 124.591724 289.431436 
L 124.79476 288.370196 
L 124.997796 288.014926 
L 125.200832 288.083425 
L 125.403868 288.455036 
L 125.606904 290.584215 
L 126.216012 292.574873 
L 126.622084 292.788312 
L 126.82512 292.565406 
L 127.028156 293.354928 
L 127.637264 293.617505 
L 127.8403 293.785859 
L 128.043336 293.77189 
L 128.246372 293.956541 
L 129.261552 293.622715 
L 129.464588 294.018268 
L 129.667624 293.960752 
L 129.87066 293.737517 
L 130.073696 293.24012 
L 130.682804 293.831472 
L 130.88584 293.768912 
L 131.088876 294.11568 
L 131.494948 294.262969 
L 131.697984 293.935679 
L 132.104056 294.433299 
L 132.9162 294.301069 
L 133.119236 294.353148 
L 133.322272 294.035933 
L 133.525308 294.332639 
L 133.728344 294.110497 
L 133.93138 294.332939 
L 134.743524 294.17734 
L 134.94656 294.197145 
L 135.149596 294.477036 
L 135.96174 293.600561 
L 136.164776 293.994905 
L 136.570848 294.136318 
L 137.586028 294.583743 
L 137.789064 294.305672 
L 138.195136 294.290794 
L 138.398172 294.433635 
L 138.601208 294.237362 
L 138.804244 294.505647 
L 139.210316 294.38781 
L 139.413352 294.310823 
L 139.616388 294.641809 
L 140.022459 294.433952 
L 140.225495 294.422043 
L 140.631567 293.625623 
L 141.037639 293.085765 
L 141.443711 292.232132 
L 141.646747 292.190743 
L 141.849783 291.849021 
L 142.052819 292.51977 
L 143.880143 294.616849 
L 144.083179 294.290874 
L 144.286215 294.268452 
L 144.489251 293.877964 
L 144.692287 294.35086 
L 144.895323 294.514979 
L 145.098359 294.45342 
L 145.301395 294.58665 
L 145.504431 294.536407 
L 145.910503 294.7674 
L 146.113539 294.627324 
L 146.316575 294.052846 
L 146.925683 294.458037 
L 147.128719 294.840638 
L 147.534791 294.544244 
L 147.940863 294.837882 
L 148.143899 294.752559 
L 148.346935 294.822284 
L 148.549971 294.734651 
L 148.753007 294.778271 
L 149.159079 294.495067 
L 149.362115 294.714602 
L 149.768187 294.697871 
L 149.971223 294.444944 
L 150.174259 294.702271 
L 150.986403 293.951017 
L 151.189439 294.558117 
L 151.392475 294.697369 
L 151.798547 294.656159 
L 152.001583 294.86089 
L 152.204619 294.887598 
L 152.610691 294.66596 
L 152.813727 294.895235 
L 153.016763 294.883738 
L 153.219799 294.658483 
L 153.625871 294.687592 
L 153.828907 294.64458 
L 154.031943 294.106595 
L 154.438015 292.512658 
L 154.641051 293.24395 
L 155.047123 293.316332 
L 155.250159 293.105933 
L 155.453195 292.389262 
L 155.656231 261.454704 
L 155.859267 210.519041 
L 156.062303 195.52179 
L 156.671411 261.516403 
L 156.874447 270.258619 
L 157.077483 268.199163 
L 157.483554 283.382468 
L 157.889626 289.021603 
L 158.70177 292.248995 
L 158.904806 292.578065 
L 159.107842 292.671707 
L 159.310878 292.935689 
L 159.513914 292.870642 
L 159.71695 293.270234 
L 160.123022 293.270365 
L 160.326058 293.059584 
L 161.138202 293.949532 
L 161.341238 293.801515 
L 161.544274 293.813922 
L 161.74731 294.001572 
L 161.950346 294.014774 
L 162.153382 294.201332 
L 162.356418 293.814565 
L 162.559454 293.706877 
L 162.965526 294.124698 
L 163.371598 294.109807 
L 163.574634 294.481761 
L 163.77767 294.264995 
L 163.980706 294.249433 
L 164.183742 294.35819 
L 164.386778 294.04684 
L 164.79285 294.036919 
L 164.995886 294.492403 
L 165.198922 294.426564 
L 165.401958 294.616468 
L 165.604994 294.524784 
L 166.011066 294.606171 
L 166.417138 294.444951 
L 166.82321 294.740722 
L 167.229282 293.874028 
L 167.432318 293.973696 
L 167.635354 294.447812 
L 167.83839 294.277759 
L 168.041426 294.542135 
L 168.244462 294.44181 
L 168.650534 294.466986 
L 168.85357 294.297979 
L 169.056606 294.387441 
L 169.462678 294.391347 
L 170.071786 294.627295 
L 170.274822 294.621923 
L 170.477858 294.755074 
L 170.680894 294.541013 
L 170.88393 294.785896 
L 171.493038 294.841016 
L 171.89911 294.705326 
L 172.102146 294.959506 
L 172.508218 294.539687 
L 173.726434 294.85095 
L 173.92947 294.901413 
L 174.538578 294.574986 
L 175.147685 294.912005 
L 175.350721 294.750698 
L 175.553757 294.804518 
L 175.756793 294.612614 
L 175.959829 294.697235 
L 176.162865 294.966959 
L 176.771973 294.86145 
L 176.975009 294.970987 
L 177.178045 294.805824 
L 177.381081 294.973715 
L 178.396261 294.961191 
L 178.599297 295.091712 
L 178.802333 294.964899 
L 179.005369 294.66285 
L 179.208405 294.791192 
L 179.411441 294.427831 
L 179.817513 293.566688 
L 180.223585 294.018443 
L 180.426621 294.5586 
L 180.629657 294.519721 
L 181.035729 294.835478 
L 181.238765 294.803266 
L 181.644837 294.46729 
L 182.050909 294.770537 
L 182.253945 294.80986 
L 182.456981 294.659768 
L 182.863053 294.75969 
L 183.066089 294.780277 
L 183.269125 294.99436 
L 183.675197 295.080861 
L 184.081269 294.76758 
L 184.487341 294.983062 
L 184.893413 294.820994 
L 185.299485 294.584691 
L 186.111629 295.061782 
L 186.517701 294.854783 
L 186.720737 295.150005 
L 187.126809 295.084546 
L 187.329845 295.069405 
L 187.735917 294.8141 
L 187.938953 294.841237 
L 188.548061 295.198288 
L 189.360205 294.585795 
L 189.766277 295.063574 
L 189.969313 294.977771 
L 190.578421 295.024576 
L 190.781457 294.886066 
L 191.187529 295.068748 
L 191.593601 295.093897 
L 191.796637 295.145833 
L 191.999673 294.974864 
L 192.202709 295.016968 
L 192.60878 294.935885 
L 193.217888 295.021902 
L 193.420924 295.077313 
L 194.030032 294.743136 
L 194.842176 294.880203 
L 195.045212 294.883504 
L 195.248248 295.026221 
L 195.451284 294.937125 
L 195.857356 295.127017 
L 196.263428 294.948146 
L 196.6695 294.994825 
L 196.872536 294.974918 
L 197.278608 295.139963 
L 197.887716 294.934669 
L 198.090752 295.024244 
L 198.293788 294.992186 
L 198.496824 295.107666 
L 198.902896 295.02939 
L 199.105932 295.125044 
L 199.308968 294.971296 
L 199.512004 295.137131 
L 199.918076 294.88836 
L 200.121112 294.990028 
L 200.73022 294.971205 
L 200.933256 295.075096 
L 201.136292 294.927074 
L 201.339328 294.600073 
L 201.7454 290.327116 
L 201.948436 290.094441 
L 202.354508 292.005097 
L 202.557544 292.147839 
L 202.76058 293.369026 
L 203.166652 294.197109 
L 203.369688 294.290949 
L 203.77576 294.970044 
L 204.384868 295.026848 
L 205.80612 294.980855 
L 206.212192 294.807312 
L 206.618264 294.989159 
L 206.8213 295.079206 
L 207.024336 294.927686 
L 207.227372 295.07897 
L 208.039516 295.024601 
L 208.85166 295.228624 
L 209.054696 295.003073 
L 209.460768 295.170406 
L 209.663804 295.09865 
L 209.86684 295.312633 
L 210.272911 295.046868 
L 210.475947 295.171222 
L 210.678983 295.088295 
L 211.085055 295.135275 
L 211.288091 294.919051 
L 211.694163 295.125286 
L 212.303271 294.897344 
L 212.506307 295.134849 
L 213.115415 295.034267 
L 213.521487 295.017471 
L 213.927559 295.206374 
L 214.333631 295.128055 
L 214.942739 295.161383 
L 215.754883 295.161569 
L 216.160955 295.2681 
L 216.973099 295.253334 
L 217.379171 295.083525 
L 217.582207 295.263528 
L 218.191315 295.163545 
L 218.597387 295.001696 
L 219.003459 295.212478 
L 219.409531 295.188595 
L 220.018639 295.280186 
L 221.642927 295.265828 
L 222.252035 295.136449 
L 222.455071 294.975278 
L 222.658107 295.210535 
L 223.876323 295.28043 
L 224.079359 295.399345 
L 225.500611 295.284079 
L 225.703647 295.335714 
L 225.906683 295.253716 
L 226.312755 295.296066 
L 226.718827 295.230943 
L 227.124899 295.29596 
L 227.734006 295.309236 
L 228.140078 295.098353 
L 229.358294 295.301787 
L 229.56133 295.099365 
L 230.57651 295.309806 
L 230.982582 295.033999 
L 231.185618 295.122676 
L 231.388654 294.963567 
L 233.012942 295.318444 
L 234.028122 295.268787 
L 234.434194 295.388911 
L 234.63723 295.288034 
L 234.840266 295.379985 
L 235.043302 295.182712 
L 235.449374 295.367995 
L 235.855446 295.312386 
L 236.464554 295.206461 
L 236.870626 295.256478 
L 237.073662 295.291619 
L 237.276698 295.198027 
L 237.68277 295.342753 
L 238.900986 295.307289 
L 239.104022 295.14799 
L 239.307058 295.226573 
L 239.71313 295.1513 
L 240.119202 295.338657 
L 241.337418 295.227477 
L 241.540454 295.368493 
L 242.352598 295.267493 
L 242.75867 295.319342 
L 243.367778 295.307806 
L 243.77385 295.285837 
L 248.240641 295.345543 
L 249.052785 295.43188 
L 249.661893 295.368735 
L 250.271001 295.369307 
L 250.474037 295.433083 
L 251.083145 295.205091 
L 251.489217 295.387454 
L 252.098325 295.3413 
L 252.504397 295.396751 
L 253.316541 295.225184 
L 253.519577 295.338713 
L 254.128685 295.212084 
L 255.346901 295.36393 
L 255.752973 295.300107 
L 256.362081 295.240103 
L 256.565117 295.096809 
L 257.174225 295.277381 
L 257.986369 295.202871 
L 258.392441 295.181863 
L 260.422801 295.39797 
L 261.031909 295.395303 
L 261.234945 295.426058 
L 261.641017 295.333918 
L 261.844053 295.424089 
L 262.45316 295.319324 
L 262.859232 295.357602 
L 270.371564 295.423303 
L 270.777636 295.378471 
L 271.792816 295.404441 
L 271.995852 295.193341 
L 272.401924 295.392264 
L 273.823176 295.237165 
L 274.432284 295.426586 
L 275.447464 295.319643 
L 275.853536 295.374503 
L 276.259608 295.362354 
L 277.477824 295.414717 
L 278.086932 295.328692 
L 278.493004 295.373023 
L 288.644803 295.397795 
L 288.847839 295.233104 
L 289.659983 295.385293 
L 290.878199 295.407209 
L 291.487307 295.431601 
L 292.096415 295.350277 
L 292.502487 295.456922 
L 293.111595 295.399684 
L 293.314631 295.467645 
L 293.720703 295.394523 
L 296.969279 295.353378 
L 297.375351 295.029381 
L 297.781422 295.298349 
L 298.187494 295.361885 
L 298.999638 295.449111 
L 299.608746 295.437494 
L 305.49679 295.341196 
L 305.699826 295.295188 
L 305.902862 295.390335 
L 306.308934 295.310734 
L 307.121078 295.437317 
L 308.745366 295.422483 
L 310.978762 295.406423 
L 311.790906 295.420152 
L 312.196978 295.43198 
L 312.60305 295.353776 
L 313.212158 295.439651 
L 314.227338 295.375818 
L 314.63341 295.411634 
L 317.475913 295.414423 
L 318.085021 295.433159 
L 319.303237 295.452737 
L 320.521453 295.369691 
L 320.927525 295.383443 
L 321.942705 295.447879 
L 323.566993 295.442998 
L 324.176101 295.447872 
L 327.424677 295.417963 
L 328.845929 295.469028 
L 329.252001 295.434393 
L 330.470217 295.477443 
L 331.079325 295.439407 
L 331.891469 295.436578 
L 336.35826 295.479413 
L 336.764332 295.417231 
L 338.185584 295.447844 
L 338.591656 295.422846 
L 351.382923 295.411158 
L 351.585959 295.475138 
L 351.992031 295.448005 
L 355.037571 295.449631 
L 360.519543 295.434353 
L 361.331687 295.436079 
L 364.580263 295.434658 
L 366.610623 295.419363 
L 367.219731 295.458466 
L 372.498666 295.451235 
L 373.107774 295.427704 
L 373.919918 295.46665 
L 374.935098 295.419203 
L 375.747242 295.453677 
L 376.35635 295.441071 
L 377.777602 295.422572 
L 378.589746 295.464285 
L 378.995818 295.416219 
L 379.807962 295.442793 
L 386.914221 295.462067 
L 387.320293 295.421611 
L 387.929401 295.487227 
L 388.538509 295.432423 
L 390.162797 295.453869 
L 390.568869 295.441569 
L 391.787085 295.435865 
L 392.802265 295.471244 
L 393.208337 295.33508 
L 393.411373 295.444483 
L 394.426553 295.423416 
L 395.644769 295.471893 
L 395.847805 295.462085 
L 396.050841 295.333504 
L 398.487273 295.432078 
L 398.487273 295.432078 
" clip-path="url(#pbf4ff27316)" style="fill: none; stroke: #1f77b4; stroke-width: 0.5; stroke-linecap: round"/>
   </g>
   <g id="patch_3">
    <path d="M 57.6 307.584 
L 57.6 41.472 
" style="fill: none; stroke: #ffffff; stroke-width: 0.8; stroke-linejoin: miter; stroke-linecap: square"/>
   </g>
   <g id="patch_4">
    <path d="M 414.72 307.584 
L 414.72 41.472 
" style="fill: none; stroke: #ffffff; stroke-width: 0.8; stroke-linejoin: miter; stroke-linecap: square"/>
   </g>
   <g id="patch_5">
    <path d="M 57.6 307.584 
L 414.72 307.584 
" style="fill: none; stroke: #ffffff; stroke-width: 0.8; stroke-linejoin: miter; stroke-linecap: square"/>
   </g>
   <g id="patch_6">
    <path d="M 57.6 41.472 
L 414.72 41.472 
" style="fill: none; stroke: #ffffff; stroke-width: 0.8; stroke-linejoin: miter; stroke-linecap: square"/>
   </g>
   <g id="text_18">
    <!-- loss terhadap epoch -->
    <g style="fill: #262626" transform="translate(175.303125 35.472) scale(0.12 -0.12)">
     <defs>
      <path id="DejaVuSans-6c" d="M 603 4863 
L 1178 4863 
L 1178 0 
L 603 0 
L 603 4863 
z
" transform="scale(0.015625)"/>
      <path id="DejaVuSans-73" d="M 2834 3397 
L 2834 2853 
Q 2591 2978 2328 3040 
Q 2066 3103 1784 3103 
Q 1356 3103 1142 2972 
Q 928 2841 928 2578 
Q 928 2378 1081 2264 
Q 1234 2150 1697 2047 
L 1894 2003 
Q 2506 1872 2764 1633 
Q 3022 1394 3022 966 
Q 3022 478 2636 193 
Q 2250 -91 1575 -91 
Q 1294 -91 989 -36 
Q 684 19 347 128 
L 347 722 
Q 666 556 975 473 
Q 1284 391 1588 391 
Q 1994 391 2212 530 
Q 2431 669 2431 922 
Q 2431 1156 2273 1281 
Q 2116 1406 1581 1522 
L 1381 1569 
Q 847 1681 609 1914 
Q 372 2147 372 2553 
Q 372 3047 722 3315 
Q 1072 3584 1716 3584 
Q 2034 3584 2315 3537 
Q 2597 3491 2834 3397 
z
" transform="scale(0.015625)"/>
      <path id="DejaVuSans-20" transform="scale(0.015625)"/>
      <path id="DejaVuSans-74" d="M 1172 4494 
L 1172 3500 
L 2356 3500 
L 2356 3053 
L 1172 3053 
L 1172 1153 
Q 1172 725 1289 603 
Q 1406 481 1766 481 
L 2356 481 
L 2356 0 
L 1766 0 
Q 1100 0 847 248 
Q 594 497 594 1153 
L 594 3053 
L 172 3053 
L 172 3500 
L 594 3500 
L 594 4494 
L 1172 4494 
z
" transform="scale(0.015625)"/>
      <path id="DejaVuSans-72" d="M 2631 2963 
Q 2534 3019 2420 3045 
Q 2306 3072 2169 3072 
Q 1681 3072 1420 2755 
Q 1159 2438 1159 1844 
L 1159 0 
L 581 0 
L 581 3500 
L 1159 3500 
L 1159 2956 
Q 1341 3275 1631 3429 
Q 1922 3584 2338 3584 
Q 2397 3584 2469 3576 
Q 2541 3569 2628 3553 
L 2631 2963 
z
" transform="scale(0.015625)"/>
      <path id="DejaVuSans-61" d="M 2194 1759 
Q 1497 1759 1228 1600 
Q 959 1441 959 1056 
Q 959 750 1161 570 
Q 1363 391 1709 391 
Q 2188 391 2477 730 
Q 2766 1069 2766 1631 
L 2766 1759 
L 2194 1759 
z
M 3341 1997 
L 3341 0 
L 2766 0 
L 2766 531 
Q 2569 213 2275 61 
Q 1981 -91 1556 -91 
Q 1019 -91 701 211 
Q 384 513 384 1019 
Q 384 1609 779 1909 
Q 1175 2209 1959 2209 
L 2766 2209 
L 2766 2266 
Q 2766 2663 2505 2880 
Q 2244 3097 1772 3097 
Q 1472 3097 1187 3025 
Q 903 2953 641 2809 
L 641 3341 
Q 956 3463 1253 3523 
Q 1550 3584 1831 3584 
Q 2591 3584 2966 3190 
Q 3341 2797 3341 1997 
z
" transform="scale(0.015625)"/>
      <path id="DejaVuSans-64" d="M 2906 2969 
L 2906 4863 
L 3481 4863 
L 3481 0 
L 2906 0 
L 2906 525 
Q 2725 213 2448 61 
Q 2172 -91 1784 -91 
Q 1150 -91 751 415 
Q 353 922 353 1747 
Q 353 2572 751 3078 
Q 1150 3584 1784 3584 
Q 2172 3584 2448 3432 
Q 2725 3281 2906 2969 
z
M 947 1747 
Q 947 1113 1208 752 
Q 1469 391 1925 391 
Q 2381 391 2643 752 
Q 2906 1113 2906 1747 
Q 2906 2381 2643 2742 
Q 2381 3103 1925 3103 
Q 1469 3103 1208 2742 
Q 947 2381 947 1747 
z
" transform="scale(0.015625)"/>
     </defs>
     <use xlink:href="#DejaVuSans-6c"/>
     <use xlink:href="#DejaVuSans-6f" x="27.783203"/>
     <use xlink:href="#DejaVuSans-73" x="88.964844"/>
     <use xlink:href="#DejaVuSans-73" x="141.064453"/>
     <use xlink:href="#DejaVuSans-20" x="193.164062"/>
     <use xlink:href="#DejaVuSans-74" x="224.951172"/>
     <use xlink:href="#DejaVuSans-65" x="264.160156"/>
     <use xlink:href="#DejaVuSans-72" x="325.683594"/>
     <use xlink:href="#DejaVuSans-68" x="365.046875"/>
     <use xlink:href="#DejaVuSans-61" x="428.425781"/>
     <use xlink:href="#DejaVuSans-64" x="489.705078"/>
     <use xlink:href="#DejaVuSans-61" x="553.181641"/>
     <use xlink:href="#DejaVuSans-70" x="614.460938"/>
     <use xlink:href="#DejaVuSans-20" x="677.9375"/>
     <use xlink:href="#DejaVuSans-65" x="709.724609"/>
     <use xlink:href="#DejaVuSans-70" x="771.248047"/>
     <use xlink:href="#DejaVuSans-6f" x="834.724609"/>
     <use xlink:href="#DejaVuSans-63" x="895.90625"/>
     <use xlink:href="#DejaVuSans-68" x="950.886719"/>
    </g>
   </g>
   <g id="legend_1">
    <g id="patch_7">
     <path d="M 242.360625 64.42825 
L 407.72 64.42825 
Q 409.72 64.42825 409.72 62.42825 
L 409.72 48.472 
Q 409.72 46.472 407.72 46.472 
L 242.360625 46.472 
Q 240.360625 46.472 240.360625 48.472 
L 240.360625 62.42825 
Q 240.360625 64.42825 242.360625 64.42825 
z
" style="fill: #eaeaf2; opacity: 0.8; stroke: #cccccc; stroke-linejoin: miter"/>
    </g>
    <g id="line2d_2">
     <path d="M 244.360625 54.570437 
L 254.360625 54.570437 
L 264.360625 54.570437 
" style="fill: none; stroke: #1f77b4; stroke-width: 0.5; stroke-linecap: round"/>
    </g>
    <g id="text_19">
     <!-- best-490/top1-0.8126_loss -->
     <g style="fill: #262626" transform="translate(272.360625 58.070437) scale(0.1 -0.1)">
      <defs>
       <path id="DejaVuSans-62" d="M 3116 1747 
Q 3116 2381 2855 2742 
Q 2594 3103 2138 3103 
Q 1681 3103 1420 2742 
Q 1159 2381 1159 1747 
Q 1159 1113 1420 752 
Q 1681 391 2138 391 
Q 2594 391 2855 752 
Q 3116 1113 3116 1747 
z
M 1159 2969 
Q 1341 3281 1617 3432 
Q 1894 3584 2278 3584 
Q 2916 3584 3314 3078 
Q 3713 2572 3713 1747 
Q 3713 922 3314 415 
Q 2916 -91 2278 -91 
Q 1894 -91 1617 61 
Q 1341 213 1159 525 
L 1159 0 
L 581 0 
L 581 4863 
L 1159 4863 
L 1159 2969 
z
" transform="scale(0.015625)"/>
       <path id="DejaVuSans-2d" d="M 313 2009 
L 1997 2009 
L 1997 1497 
L 313 1497 
L 313 2009 
z
" transform="scale(0.015625)"/>
       <path id="DejaVuSans-39" d="M 703 97 
L 703 672 
Q 941 559 1184 500 
Q 1428 441 1663 441 
Q 2288 441 2617 861 
Q 2947 1281 2994 2138 
Q 2813 1869 2534 1725 
Q 2256 1581 1919 1581 
Q 1219 1581 811 2004 
Q 403 2428 403 3163 
Q 403 3881 828 4315 
Q 1253 4750 1959 4750 
Q 2769 4750 3195 4129 
Q 3622 3509 3622 2328 
Q 3622 1225 3098 567 
Q 2575 -91 1691 -91 
Q 1453 -91 1209 -44 
Q 966 3 703 97 
z
M 1959 2075 
Q 2384 2075 2632 2365 
Q 2881 2656 2881 3163 
Q 2881 3666 2632 3958 
Q 2384 4250 1959 4250 
Q 1534 4250 1286 3958 
Q 1038 3666 1038 3163 
Q 1038 2656 1286 2365 
Q 1534 2075 1959 2075 
z
" transform="scale(0.015625)"/>
       <path id="DejaVuSans-2f" d="M 1625 4666 
L 2156 4666 
L 531 -594 
L 0 -594 
L 1625 4666 
z
" transform="scale(0.015625)"/>
       <path id="DejaVuSans-5f" d="M 3263 -1063 
L 3263 -1509 
L -63 -1509 
L -63 -1063 
L 3263 -1063 
z
" transform="scale(0.015625)"/>
      </defs>
      <use xlink:href="#DejaVuSans-62"/>
      <use xlink:href="#DejaVuSans-65" x="63.476562"/>
      <use xlink:href="#DejaVuSans-73" x="125"/>
      <use xlink:href="#DejaVuSans-74" x="177.099609"/>
      <use xlink:href="#DejaVuSans-2d" x="216.308594"/>
      <use xlink:href="#DejaVuSans-34" x="252.392578"/>
      <use xlink:href="#DejaVuSans-39" x="316.015625"/>
      <use xlink:href="#DejaVuSans-30" x="379.638672"/>
      <use xlink:href="#DejaVuSans-2f" x="443.261719"/>
      <use xlink:href="#DejaVuSans-74" x="476.953125"/>
      <use xlink:href="#DejaVuSans-6f" x="516.162109"/>
      <use xlink:href="#DejaVuSans-70" x="577.34375"/>
      <use xlink:href="#DejaVuSans-31" x="640.820312"/>
      <use xlink:href="#DejaVuSans-2d" x="704.443359"/>
      <use xlink:href="#DejaVuSans-30" x="740.527344"/>
      <use xlink:href="#DejaVuSans-2e" x="804.150391"/>
      <use xlink:href="#DejaVuSans-38" x="835.9375"/>
      <use xlink:href="#DejaVuSans-31" x="899.560547"/>
      <use xlink:href="#DejaVuSans-32" x="963.183594"/>
      <use xlink:href="#DejaVuSans-36" x="1026.806641"/>
      <use xlink:href="#DejaVuSans-5f" x="1090.429688"/>
      <use xlink:href="#DejaVuSans-6c" x="1140.429688"/>
      <use xlink:href="#DejaVuSans-6f" x="1168.212891"/>
      <use xlink:href="#DejaVuSans-73" x="1229.394531"/>
      <use xlink:href="#DejaVuSans-73" x="1281.494141"/>
     </g>
    </g>
   </g>
  </g>
 </g>
 <defs>
  <clipPath id="pbf4ff27316">
   <rect x="57.6" y="41.472" width="357.12" height="266.112"/>
  </clipPath>
 </defs>
</svg>
