<?xml version="1.0" encoding="utf-8" standalone="no"?>
<!DOCTYPE svg PUBLIC "-//W3C//DTD SVG 1.1//EN"
  "http://www.w3.org/Graphics/SVG/1.1/DTD/svg11.dtd">
<svg xmlns:xlink="http://www.w3.org/1999/xlink" width="460.8pt" height="345.6pt" viewBox="0 0 460.8 345.6" xmlns="http://www.w3.org/2000/svg" version="1.1">
 <metadata>
  <rdf:RDF xmlns:dc="http://purl.org/dc/elements/1.1/" xmlns:cc="http://creativecommons.org/ns#" xmlns:rdf="http://www.w3.org/1999/02/22-rdf-syntax-ns#">
   <cc:Work>
    <dc:type rdf:resource="http://purl.org/dc/dcmitype/StillImage"/>
    <dc:date>2024-05-19T12:00:11.508878</dc:date>
    <dc:format>image/svg+xml</dc:format>
    <dc:creator>
     <cc:Agent>
      <dc:title>Matplotlib v3.7.2, https://matplotlib.org/</dc:title>
     </cc:Agent>
    </dc:creator>
   </cc:Work>
  </rdf:RDF>
 </metadata>
 <defs>
  <style type="text/css">*{stroke-linejoin: round; stroke-linecap: butt}</style>
 </defs>
 <g id="figure_1">
  <g id="patch_1">
   <path d="M 0 345.6 
L 460.8 345.6 
L 460.8 0 
L 0 0 
z
" style="fill: #ffffff"/>
  </g>
  <g id="axes_1">
   <g id="patch_2">
    <path d="M 57.6 307.584 
L 414.72 307.584 
L 414.72 41.472 
L 57.6 41.472 
z
" style="fill: #eaeaf2"/>
   </g>
   <g id="matplotlib.axis_1">
    <g id="xtick_1">
     <g id="text_1">
      <!-- 0 -->
      <g style="fill: #262626" transform="translate(69.600815 322.182437) scale(0.1 -0.1)">
       <defs>
        <path id="DejaVuSans-30" d="M 2034 4250 
Q 1547 4250 1301 3770 
Q 1056 3291 1056 2328 
Q 1056 1369 1301 889 
Q 1547 409 2034 409 
Q 2525 409 2770 889 
Q 3016 1369 3016 2328 
Q 3016 3291 2770 3770 
Q 2525 4250 2034 4250 
z
M 2034 4750 
Q 2819 4750 3233 4129 
Q 3647 3509 3647 2328 
Q 3647 1150 3233 529 
Q 2819 -91 2034 -91 
Q 1250 -91 836 529 
Q 422 1150 422 2328 
Q 422 3509 836 4129 
Q 1250 4750 2034 4750 
z
" transform="scale(0.015625)"/>
       </defs>
       <use xlink:href="#DejaVuSans-30"/>
      </g>
     </g>
    </g>
    <g id="xtick_2">
     <g id="text_2">
      <!-- 50 -->
      <g style="fill: #262626" transform="translate(118.952663 322.182437) scale(0.1 -0.1)">
       <defs>
        <path id="DejaVuSans-35" d="M 691 4666 
L 3169 4666 
L 3169 4134 
L 1269 4134 
L 1269 2991 
Q 1406 3038 1543 3061 
Q 1681 3084 1819 3084 
Q 2600 3084 3056 2656 
Q 3513 2228 3513 1497 
Q 3513 744 3044 326 
Q 2575 -91 1722 -91 
Q 1428 -91 1123 -41 
Q 819 9 494 109 
L 494 744 
Q 775 591 1075 516 
Q 1375 441 1709 441 
Q 2250 441 2565 725 
Q 2881 1009 2881 1497 
Q 2881 1984 2565 2268 
Q 2250 2553 1709 2553 
Q 1456 2553 1204 2497 
Q 953 2441 691 2322 
L 691 4666 
z
" transform="scale(0.015625)"/>
       </defs>
       <use xlink:href="#DejaVuSans-35"/>
       <use xlink:href="#DejaVuSans-30" x="63.623047"/>
      </g>
     </g>
    </g>
    <g id="xtick_3">
     <g id="text_3">
      <!-- 100 -->
      <g style="fill: #262626" transform="translate(168.304511 322.182437) scale(0.1 -0.1)">
       <defs>
        <path id="DejaVuSans-31" d="M 794 531 
L 1825 531 
L 1825 4091 
L 703 3866 
L 703 4441 
L 1819 4666 
L 2450 4666 
L 2450 531 
L 3481 531 
L 3481 0 
L 794 0 
L 794 531 
z
" transform="scale(0.015625)"/>
       </defs>
       <use xlink:href="#DejaVuSans-31"/>
       <use xlink:href="#DejaVuSans-30" x="63.623047"/>
       <use xlink:href="#DejaVuSans-30" x="127.246094"/>
      </g>
     </g>
    </g>
    <g id="xtick_4">
     <g id="text_4">
      <!-- 150 -->
      <g style="fill: #262626" transform="translate(220.837609 322.182437) scale(0.1 -0.1)">
       <use xlink:href="#DejaVuSans-31"/>
       <use xlink:href="#DejaVuSans-35" x="63.623047"/>
       <use xlink:href="#DejaVuSans-30" x="127.246094"/>
      </g>
     </g>
    </g>
    <g id="xtick_5">
     <g id="text_5">
      <!-- 200 -->
      <g style="fill: #262626" transform="translate(273.370707 322.182437) scale(0.1 -0.1)">
       <defs>
        <path id="DejaVuSans-32" d="M 1228 531 
L 3431 531 
L 3431 0 
L 469 0 
L 469 531 
Q 828 903 1448 1529 
Q 2069 2156 2228 2338 
Q 2531 2678 2651 2914 
Q 2772 3150 2772 3378 
Q 2772 3750 2511 3984 
Q 2250 4219 1831 4219 
Q 1534 4219 1204 4116 
Q 875 4013 500 3803 
L 500 4441 
Q 881 4594 1212 4672 
Q 1544 4750 1819 4750 
Q 2544 4750 2975 4387 
Q 3406 4025 3406 3419 
Q 3406 3131 3298 2873 
Q 3191 2616 2906 2266 
Q 2828 2175 2409 1742 
Q 1991 1309 1228 531 
z
" transform="scale(0.015625)"/>
       </defs>
       <use xlink:href="#DejaVuSans-32"/>
       <use xlink:href="#DejaVuSans-30" x="63.623047"/>
       <use xlink:href="#DejaVuSans-30" x="127.246094"/>
      </g>
     </g>
    </g>
    <g id="xtick_6">
     <g id="text_6">
      <!-- 250 -->
      <g style="fill: #262626" transform="translate(325.903805 322.182437) scale(0.1 -0.1)">
       <use xlink:href="#DejaVuSans-32"/>
       <use xlink:href="#DejaVuSans-35" x="63.623047"/>
       <use xlink:href="#DejaVuSans-30" x="127.246094"/>
      </g>
     </g>
    </g>
    <g id="xtick_7">
     <g id="text_7">
      <!-- 300 -->
      <g style="fill: #262626" transform="translate(378.436903 322.182437) scale(0.1 -0.1)">
       <defs>
        <path id="DejaVuSans-33" d="M 2597 2516 
Q 3050 2419 3304 2112 
Q 3559 1806 3559 1356 
Q 3559 666 3084 287 
Q 2609 -91 1734 -91 
Q 1441 -91 1130 -33 
Q 819 25 488 141 
L 488 750 
Q 750 597 1062 519 
Q 1375 441 1716 441 
Q 2309 441 2620 675 
Q 2931 909 2931 1356 
Q 2931 1769 2642 2001 
Q 2353 2234 1838 2234 
L 1294 2234 
L 1294 2753 
L 1863 2753 
Q 2328 2753 2575 2939 
Q 2822 3125 2822 3475 
Q 2822 3834 2567 4026 
Q 2313 4219 1838 4219 
Q 1578 4219 1281 4162 
Q 984 4106 628 3988 
L 628 4550 
Q 988 4650 1302 4700 
Q 1616 4750 1894 4750 
Q 2613 4750 3031 4423 
Q 3450 4097 3450 3541 
Q 3450 3153 3228 2886 
Q 3006 2619 2597 2516 
z
" transform="scale(0.015625)"/>
       </defs>
       <use xlink:href="#DejaVuSans-33"/>
       <use xlink:href="#DejaVuSans-30" x="63.623047"/>
       <use xlink:href="#DejaVuSans-30" x="127.246094"/>
      </g>
     </g>
    </g>
    <g id="text_8">
     <!-- epoch -->
     <g style="fill: #262626" transform="translate(220.931875 335.860562) scale(0.1 -0.1)">
      <defs>
       <path id="DejaVuSans-65" d="M 3597 1894 
L 3597 1613 
L 953 1613 
Q 991 1019 1311 708 
Q 1631 397 2203 397 
Q 2534 397 2845 478 
Q 3156 559 3463 722 
L 3463 178 
Q 3153 47 2828 -22 
Q 2503 -91 2169 -91 
Q 1331 -91 842 396 
Q 353 884 353 1716 
Q 353 2575 817 3079 
Q 1281 3584 2069 3584 
Q 2775 3584 3186 3129 
Q 3597 2675 3597 1894 
z
M 3022 2063 
Q 3016 2534 2758 2815 
Q 2500 3097 2075 3097 
Q 1594 3097 1305 2825 
Q 1016 2553 972 2059 
L 3022 2063 
z
" transform="scale(0.015625)"/>
       <path id="DejaVuSans-70" d="M 1159 525 
L 1159 -1331 
L 581 -1331 
L 581 3500 
L 1159 3500 
L 1159 2969 
Q 1341 3281 1617 3432 
Q 1894 3584 2278 3584 
Q 2916 3584 3314 3078 
Q 3713 2572 3713 1747 
Q 3713 922 3314 415 
Q 2916 -91 2278 -91 
Q 1894 -91 1617 61 
Q 1341 213 1159 525 
z
M 3116 1747 
Q 3116 2381 2855 2742 
Q 2594 3103 2138 3103 
Q 1681 3103 1420 2742 
Q 1159 2381 1159 1747 
Q 1159 1113 1420 752 
Q 1681 391 2138 391 
Q 2594 391 2855 752 
Q 3116 1113 3116 1747 
z
" transform="scale(0.015625)"/>
       <path id="DejaVuSans-6f" d="M 1959 3097 
Q 1497 3097 1228 2736 
Q 959 2375 959 1747 
Q 959 1119 1226 758 
Q 1494 397 1959 397 
Q 2419 397 2687 759 
Q 2956 1122 2956 1747 
Q 2956 2369 2687 2733 
Q 2419 3097 1959 3097 
z
M 1959 3584 
Q 2709 3584 3137 3096 
Q 3566 2609 3566 1747 
Q 3566 888 3137 398 
Q 2709 -91 1959 -91 
Q 1206 -91 779 398 
Q 353 888 353 1747 
Q 353 2609 779 3096 
Q 1206 3584 1959 3584 
z
" transform="scale(0.015625)"/>
       <path id="DejaVuSans-63" d="M 3122 3366 
L 3122 2828 
Q 2878 2963 2633 3030 
Q 2388 3097 2138 3097 
Q 1578 3097 1268 2742 
Q 959 2388 959 1747 
Q 959 1106 1268 751 
Q 1578 397 2138 397 
Q 2388 397 2633 464 
Q 2878 531 3122 666 
L 3122 134 
Q 2881 22 2623 -34 
Q 2366 -91 2075 -91 
Q 1284 -91 818 406 
Q 353 903 353 1747 
Q 353 2603 823 3093 
Q 1294 3584 2113 3584 
Q 2378 3584 2631 3529 
Q 2884 3475 3122 3366 
z
" transform="scale(0.015625)"/>
       <path id="DejaVuSans-68" d="M 3513 2113 
L 3513 0 
L 2938 0 
L 2938 2094 
Q 2938 2591 2744 2837 
Q 2550 3084 2163 3084 
Q 1697 3084 1428 2787 
Q 1159 2491 1159 1978 
L 1159 0 
L 581 0 
L 581 4863 
L 1159 4863 
L 1159 2956 
Q 1366 3272 1645 3428 
Q 1925 3584 2291 3584 
Q 2894 3584 3203 3211 
Q 3513 2838 3513 2113 
z
" transform="scale(0.015625)"/>
      </defs>
      <use xlink:href="#DejaVuSans-65"/>
      <use xlink:href="#DejaVuSans-70" x="61.523438"/>
      <use xlink:href="#DejaVuSans-6f" x="125"/>
      <use xlink:href="#DejaVuSans-63" x="186.181641"/>
      <use xlink:href="#DejaVuSans-68" x="241.162109"/>
     </g>
    </g>
   </g>
   <g id="matplotlib.axis_2">
    <g id="ytick_1">
     <g id="text_9">
      <!-- 0.5 -->
      <g style="fill: #262626" transform="translate(34.696875 255.106889) scale(0.1 -0.1)">
       <defs>
        <path id="DejaVuSans-2e" d="M 684 794 
L 1344 794 
L 1344 0 
L 684 0 
L 684 794 
z
" transform="scale(0.015625)"/>
       </defs>
       <use xlink:href="#DejaVuSans-30"/>
       <use xlink:href="#DejaVuSans-2e" x="63.623047"/>
       <use xlink:href="#DejaVuSans-35" x="95.410156"/>
      </g>
     </g>
    </g>
    <g id="ytick_2">
     <g id="text_10">
      <!-- 1.0 -->
      <g style="fill: #262626" transform="translate(34.696875 196.050342) scale(0.1 -0.1)">
       <use xlink:href="#DejaVuSans-31"/>
       <use xlink:href="#DejaVuSans-2e" x="63.623047"/>
       <use xlink:href="#DejaVuSans-30" x="95.410156"/>
      </g>
     </g>
    </g>
    <g id="ytick_3">
     <g id="text_11">
      <!-- 1.5 -->
      <g style="fill: #262626" transform="translate(34.696875 136.993795) scale(0.1 -0.1)">
       <use xlink:href="#DejaVuSans-31"/>
       <use xlink:href="#DejaVuSans-2e" x="63.623047"/>
       <use xlink:href="#DejaVuSans-35" x="95.410156"/>
      </g>
     </g>
    </g>
    <g id="ytick_4">
     <g id="text_12">
      <!-- 2.0 -->
      <g style="fill: #262626" transform="translate(34.696875 77.937248) scale(0.1 -0.1)">
       <use xlink:href="#DejaVuSans-32"/>
       <use xlink:href="#DejaVuSans-2e" x="63.623047"/>
       <use xlink:href="#DejaVuSans-30" x="95.410156"/>
      </g>
     </g>
    </g>
   </g>
   <g id="line2d_1">
    <path d="M 73.832727 53.568 
L 74.883389 69.012743 
L 75.934051 81.011043 
L 78.035375 111.723137 
L 79.086037 131.695207 
L 81.187361 179.203784 
L 82.238023 197.716959 
L 83.288685 213.732227 
L 84.339347 227.618023 
L 85.390009 224.55578 
L 86.440671 242.668327 
L 87.491333 247.963724 
L 88.541995 240.071567 
L 89.592657 258.536537 
L 91.693981 262.673902 
L 92.744643 266.30753 
L 93.795305 268.147081 
L 94.845966 273.452223 
L 95.896628 272.495436 
L 96.94729 277.302869 
L 97.997952 279.844466 
L 99.048614 278.982396 
L 100.099276 279.358181 
L 101.149938 276.557819 
L 102.2006 283.483202 
L 103.251262 283.054237 
L 104.301924 284.522541 
L 105.352586 284.357197 
L 106.403248 285.029264 
L 107.45391 287.597304 
L 110.605896 287.906913 
L 111.656558 288.968567 
L 112.70722 288.321455 
L 114.808544 287.849484 
L 115.859206 288.508254 
L 116.909868 290.062904 
L 117.96053 289.993748 
L 119.011192 289.28832 
L 120.061853 289.971511 
L 121.112515 290.49712 
L 122.163177 290.216174 
L 123.213839 287.826698 
L 124.264501 289.94926 
L 125.315163 290.593722 
L 126.365825 291.938156 
L 127.416487 291.151812 
L 128.467149 291.472844 
L 129.517811 291.264089 
L 131.619135 292.142443 
L 132.669797 289.734829 
L 133.720459 291.496233 
L 134.771121 291.924948 
L 135.821783 291.253573 
L 136.872445 291.720954 
L 137.923107 291.751019 
L 138.973769 291.194255 
L 140.024431 291.970153 
L 141.075093 292.055549 
L 142.125755 293.003855 
L 143.176417 292.969598 
L 144.227079 291.116554 
L 145.277741 269.40903 
L 146.328402 251.00543 
L 147.379064 286.58913 
L 148.429726 289.976275 
L 149.480388 290.515039 
L 150.53105 291.602315 
L 151.581712 291.585683 
L 152.632374 292.203273 
L 153.683036 292.484 
L 154.733698 292.437253 
L 155.78436 292.144931 
L 156.835022 292.683454 
L 157.885684 292.555734 
L 158.936346 292.895244 
L 164.189656 293.274301 
L 165.240318 293.729031 
L 166.29098 293.280331 
L 167.341642 293.643926 
L 168.392304 292.726882 
L 169.442966 293.267424 
L 170.493628 293.06967 
L 171.544289 293.74069 
L 172.594951 293.22638 
L 173.645613 293.7287 
L 175.746937 293.366444 
L 176.797599 294.133486 
L 177.848261 293.645989 
L 178.898923 293.031856 
L 179.949585 293.976564 
L 181.000247 294.239534 
L 182.050909 293.654827 
L 183.101571 293.564967 
L 184.152233 294.055881 
L 185.202895 293.741218 
L 186.253557 293.707832 
L 187.304219 294.132612 
L 188.354881 293.20778 
L 189.405543 293.749277 
L 190.456205 293.957135 
L 191.506867 293.066521 
L 192.557529 293.926458 
L 193.608191 293.78864 
L 194.658853 294.257514 
L 195.709515 294.067787 
L 196.760177 294.001953 
L 198.8615 294.236774 
L 199.912162 294.28812 
L 200.962824 294.177309 
L 202.013486 294.261476 
L 203.064148 294.204858 
L 204.11481 294.289131 
L 205.165472 293.899097 
L 206.216134 293.749559 
L 207.266796 294.388604 
L 208.317458 294.127667 
L 209.36812 294.31976 
L 210.418782 293.956918 
L 211.469444 294.58148 
L 212.520106 294.259192 
L 213.570768 293.325071 
L 214.62143 293.807802 
L 215.672092 294.521803 
L 217.773416 294.738541 
L 218.824078 294.560914 
L 219.87474 292.67786 
L 220.925402 294.261396 
L 221.976064 294.382398 
L 223.026726 294.29272 
L 224.077387 293.979547 
L 225.128049 293.388082 
L 226.178711 293.801071 
L 227.229373 295.032174 
L 228.280035 294.619678 
L 229.330697 294.731049 
L 230.381359 294.655573 
L 231.432021 294.433313 
L 233.533345 294.787854 
L 234.584007 294.477768 
L 235.634669 294.648317 
L 236.685331 294.596274 
L 237.735993 294.979212 
L 238.786655 294.518693 
L 239.837317 294.806073 
L 240.887979 294.063804 
L 241.938641 103.116081 
L 242.989303 219.823377 
L 244.039965 255.964123 
L 245.090627 271.18809 
L 246.141289 279.03963 
L 247.191951 285.933643 
L 248.242613 288.56402 
L 249.293274 289.938761 
L 250.343936 287.471554 
L 251.394598 291.157474 
L 252.44526 290.525117 
L 254.546584 292.45528 
L 255.597246 291.939339 
L 256.647908 292.675661 
L 257.69857 292.339858 
L 258.749232 293.287577 
L 259.799894 293.321189 
L 260.850556 292.876166 
L 261.901218 293.280143 
L 262.95188 293.464206 
L 264.002542 293.327434 
L 265.053204 293.64394 
L 266.103866 293.663135 
L 267.154528 293.275425 
L 268.20519 293.912307 
L 270.306514 293.308143 
L 271.357176 294.040901 
L 272.407838 293.841881 
L 273.4585 293.968022 
L 274.509162 294.26778 
L 275.559823 294.393606 
L 276.610485 293.722842 
L 277.661147 293.869728 
L 278.711809 294.526264 
L 279.762471 294.416512 
L 280.813133 292.802118 
L 281.863795 294.350649 
L 282.914457 294.41959 
L 283.965119 294.274614 
L 285.015781 294.492813 
L 286.066443 294.263422 
L 287.117105 292.084934 
L 288.167767 294.041032 
L 289.218429 294.370773 
L 293.421077 294.802794 
L 294.471739 294.669773 
L 295.522401 294.718476 
L 296.573063 294.593007 
L 297.623725 294.824943 
L 299.725049 294.682546 
L 300.775711 294.707326 
L 302.877034 294.998613 
L 303.927696 294.533503 
L 304.978358 295.021896 
L 306.02902 294.683824 
L 307.079682 294.986622 
L 308.130344 294.79812 
L 309.181006 294.847836 
L 310.231668 181.622196 
L 311.28233 285.420714 
L 312.332992 291.443813 
L 313.383654 291.931923 
L 314.434316 293.025667 
L 315.484978 293.594235 
L 316.53564 293.506844 
L 319.687626 294.252056 
L 320.738288 294.088112 
L 321.78895 294.417267 
L 322.839612 294.611838 
L 323.890274 294.588384 
L 324.940936 294.41227 
L 325.991598 294.518953 
L 327.042259 294.196445 
L 328.092921 295.000238 
L 329.143583 294.568588 
L 330.194245 294.708551 
L 332.295569 294.755406 
L 333.346231 294.477919 
L 334.396893 294.897033 
L 335.447555 294.631775 
L 336.498217 294.904236 
L 337.548879 294.850851 
L 338.599541 294.929349 
L 339.650203 294.758501 
L 340.700865 294.914181 
L 342.802189 294.932087 
L 343.852851 295.230167 
L 344.903513 294.861558 
L 345.954175 294.804878 
L 348.055499 295.009933 
L 349.106161 293.515582 
L 350.156823 293.052407 
L 351.207485 293.705035 
L 352.258147 294.682943 
L 353.308808 295.084448 
L 354.35947 295.132775 
L 355.410132 294.989828 
L 357.511456 295.151974 
L 358.562118 295.047579 
L 359.61278 295.101882 
L 361.714104 294.634416 
L 362.764766 295.049657 
L 363.815428 295.118951 
L 364.86609 294.890593 
L 366.967414 295.106378 
L 368.018076 295.02448 
L 369.068738 295.128023 
L 372.220724 294.77125 
L 373.271386 295.101507 
L 375.37271 294.929982 
L 376.423372 295.282384 
L 377.474034 294.869753 
L 378.524695 295.071156 
L 380.626019 295.113731 
L 381.676681 295.031323 
L 382.727343 295.188172 
L 383.778005 295.10625 
L 384.828667 294.669596 
L 385.879329 295.242921 
L 386.929991 295.013732 
L 387.980653 295.078743 
L 389.031315 294.929607 
L 392.183301 295.111151 
L 394.284625 295.090688 
L 395.335287 295.191968 
L 396.385949 295.087461 
L 398.487273 295.488 
L 398.487273 295.488 
" clip-path="url(#pdeb7a4dfa3)" style="fill: none; stroke: #1f77b4; stroke-width: 0.5; stroke-linecap: round"/>
   </g>
   <g id="patch_3">
    <path d="M 57.6 307.584 
L 57.6 41.472 
" style="fill: none; stroke: #ffffff; stroke-width: 0.8; stroke-linejoin: miter; stroke-linecap: square"/>
   </g>
   <g id="patch_4">
    <path d="M 414.72 307.584 
L 414.72 41.472 
" style="fill: none; stroke: #ffffff; stroke-width: 0.8; stroke-linejoin: miter; stroke-linecap: square"/>
   </g>
   <g id="patch_5">
    <path d="M 57.6 307.584 
L 414.72 307.584 
" style="fill: none; stroke: #ffffff; stroke-width: 0.8; stroke-linejoin: miter; stroke-linecap: square"/>
   </g>
   <g id="patch_6">
    <path d="M 57.6 41.472 
L 414.72 41.472 
" style="fill: none; stroke: #ffffff; stroke-width: 0.8; stroke-linejoin: miter; stroke-linecap: square"/>
   </g>
   <g id="text_13">
    <!-- loss terhadap epoch -->
    <g style="fill: #262626" transform="translate(175.303125 35.472) scale(0.12 -0.12)">
     <defs>
      <path id="DejaVuSans-6c" d="M 603 4863 
L 1178 4863 
L 1178 0 
L 603 0 
L 603 4863 
z
" transform="scale(0.015625)"/>
      <path id="DejaVuSans-73" d="M 2834 3397 
L 2834 2853 
Q 2591 2978 2328 3040 
Q 2066 3103 1784 3103 
Q 1356 3103 1142 2972 
Q 928 2841 928 2578 
Q 928 2378 1081 2264 
Q 1234 2150 1697 2047 
L 1894 2003 
Q 2506 1872 2764 1633 
Q 3022 1394 3022 966 
Q 3022 478 2636 193 
Q 2250 -91 1575 -91 
Q 1294 -91 989 -36 
Q 684 19 347 128 
L 347 722 
Q 666 556 975 473 
Q 1284 391 1588 391 
Q 1994 391 2212 530 
Q 2431 669 2431 922 
Q 2431 1156 2273 1281 
Q 2116 1406 1581 1522 
L 1381 1569 
Q 847 1681 609 1914 
Q 372 2147 372 2553 
Q 372 3047 722 3315 
Q 1072 3584 1716 3584 
Q 2034 3584 2315 3537 
Q 2597 3491 2834 3397 
z
" transform="scale(0.015625)"/>
      <path id="DejaVuSans-20" transform="scale(0.015625)"/>
      <path id="DejaVuSans-74" d="M 1172 4494 
L 1172 3500 
L 2356 3500 
L 2356 3053 
L 1172 3053 
L 1172 1153 
Q 1172 725 1289 603 
Q 1406 481 1766 481 
L 2356 481 
L 2356 0 
L 1766 0 
Q 1100 0 847 248 
Q 594 497 594 1153 
L 594 3053 
L 172 3053 
L 172 3500 
L 594 3500 
L 594 4494 
L 1172 4494 
z
" transform="scale(0.015625)"/>
      <path id="DejaVuSans-72" d="M 2631 2963 
Q 2534 3019 2420 3045 
Q 2306 3072 2169 3072 
Q 1681 3072 1420 2755 
Q 1159 2438 1159 1844 
L 1159 0 
L 581 0 
L 581 3500 
L 1159 3500 
L 1159 2956 
Q 1341 3275 1631 3429 
Q 1922 3584 2338 3584 
Q 2397 3584 2469 3576 
Q 2541 3569 2628 3553 
L 2631 2963 
z
" transform="scale(0.015625)"/>
      <path id="DejaVuSans-61" d="M 2194 1759 
Q 1497 1759 1228 1600 
Q 959 1441 959 1056 
Q 959 750 1161 570 
Q 1363 391 1709 391 
Q 2188 391 2477 730 
Q 2766 1069 2766 1631 
L 2766 1759 
L 2194 1759 
z
M 3341 1997 
L 3341 0 
L 2766 0 
L 2766 531 
Q 2569 213 2275 61 
Q 1981 -91 1556 -91 
Q 1019 -91 701 211 
Q 384 513 384 1019 
Q 384 1609 779 1909 
Q 1175 2209 1959 2209 
L 2766 2209 
L 2766 2266 
Q 2766 2663 2505 2880 
Q 2244 3097 1772 3097 
Q 1472 3097 1187 3025 
Q 903 2953 641 2809 
L 641 3341 
Q 956 3463 1253 3523 
Q 1550 3584 1831 3584 
Q 2591 3584 2966 3190 
Q 3341 2797 3341 1997 
z
" transform="scale(0.015625)"/>
      <path id="DejaVuSans-64" d="M 2906 2969 
L 2906 4863 
L 3481 4863 
L 3481 0 
L 2906 0 
L 2906 525 
Q 2725 213 2448 61 
Q 2172 -91 1784 -91 
Q 1150 -91 751 415 
Q 353 922 353 1747 
Q 353 2572 751 3078 
Q 1150 3584 1784 3584 
Q 2172 3584 2448 3432 
Q 2725 3281 2906 2969 
z
M 947 1747 
Q 947 1113 1208 752 
Q 1469 391 1925 391 
Q 2381 391 2643 752 
Q 2906 1113 2906 1747 
Q 2906 2381 2643 2742 
Q 2381 3103 1925 3103 
Q 1469 3103 1208 2742 
Q 947 2381 947 1747 
z
" transform="scale(0.015625)"/>
     </defs>
     <use xlink:href="#DejaVuSans-6c"/>
     <use xlink:href="#DejaVuSans-6f" x="27.783203"/>
     <use xlink:href="#DejaVuSans-73" x="88.964844"/>
     <use xlink:href="#DejaVuSans-73" x="141.064453"/>
     <use xlink:href="#DejaVuSans-20" x="193.164062"/>
     <use xlink:href="#DejaVuSans-74" x="224.951172"/>
     <use xlink:href="#DejaVuSans-65" x="264.160156"/>
     <use xlink:href="#DejaVuSans-72" x="325.683594"/>
     <use xlink:href="#DejaVuSans-68" x="365.046875"/>
     <use xlink:href="#DejaVuSans-61" x="428.425781"/>
     <use xlink:href="#DejaVuSans-64" x="489.705078"/>
     <use xlink:href="#DejaVuSans-61" x="553.181641"/>
     <use xlink:href="#DejaVuSans-70" x="614.460938"/>
     <use xlink:href="#DejaVuSans-20" x="677.9375"/>
     <use xlink:href="#DejaVuSans-65" x="709.724609"/>
     <use xlink:href="#DejaVuSans-70" x="771.248047"/>
     <use xlink:href="#DejaVuSans-6f" x="834.724609"/>
     <use xlink:href="#DejaVuSans-63" x="895.90625"/>
     <use xlink:href="#DejaVuSans-68" x="950.886719"/>
    </g>
   </g>
   <g id="legend_1">
    <g id="patch_7">
     <path d="M 239.190313 64.42825 
L 407.72 64.42825 
Q 409.72 64.42825 409.72 62.42825 
L 409.72 48.472 
Q 409.72 46.472 407.72 46.472 
L 239.190313 46.472 
Q 237.190313 46.472 237.190313 48.472 
L 237.190313 62.42825 
Q 237.190313 64.42825 239.190313 64.42825 
z
" style="fill: #eaeaf2; opacity: 0.8; stroke: #cccccc; stroke-linejoin: miter"/>
    </g>
    <g id="line2d_2">
     <path d="M 241.190313 54.570437 
L 251.190313 54.570437 
L 261.190313 54.570437 
" style="fill: none; stroke: #1f77b4; stroke-width: 0.5; stroke-linecap: round"/>
    </g>
    <g id="text_14">
     <!-- best-230/top1-0d7610_loss -->
     <g style="fill: #262626" transform="translate(269.190313 58.070437) scale(0.1 -0.1)">
      <defs>
       <path id="DejaVuSans-62" d="M 3116 1747 
Q 3116 2381 2855 2742 
Q 2594 3103 2138 3103 
Q 1681 3103 1420 2742 
Q 1159 2381 1159 1747 
Q 1159 1113 1420 752 
Q 1681 391 2138 391 
Q 2594 391 2855 752 
Q 3116 1113 3116 1747 
z
M 1159 2969 
Q 1341 3281 1617 3432 
Q 1894 3584 2278 3584 
Q 2916 3584 3314 3078 
Q 3713 2572 3713 1747 
Q 3713 922 3314 415 
Q 2916 -91 2278 -91 
Q 1894 -91 1617 61 
Q 1341 213 1159 525 
L 1159 0 
L 581 0 
L 581 4863 
L 1159 4863 
L 1159 2969 
z
" transform="scale(0.015625)"/>
       <path id="DejaVuSans-2d" d="M 313 2009 
L 1997 2009 
L 1997 1497 
L 313 1497 
L 313 2009 
z
" transform="scale(0.015625)"/>
       <path id="DejaVuSans-2f" d="M 1625 4666 
L 2156 4666 
L 531 -594 
L 0 -594 
L 1625 4666 
z
" transform="scale(0.015625)"/>
       <path id="DejaVuSans-37" d="M 525 4666 
L 3525 4666 
L 3525 4397 
L 1831 0 
L 1172 0 
L 2766 4134 
L 525 4134 
L 525 4666 
z
" transform="scale(0.015625)"/>
       <path id="DejaVuSans-36" d="M 2113 2584 
Q 1688 2584 1439 2293 
Q 1191 2003 1191 1497 
Q 1191 994 1439 701 
Q 1688 409 2113 409 
Q 2538 409 2786 701 
Q 3034 994 3034 1497 
Q 3034 2003 2786 2293 
Q 2538 2584 2113 2584 
z
M 3366 4563 
L 3366 3988 
Q 3128 4100 2886 4159 
Q 2644 4219 2406 4219 
Q 1781 4219 1451 3797 
Q 1122 3375 1075 2522 
Q 1259 2794 1537 2939 
Q 1816 3084 2150 3084 
Q 2853 3084 3261 2657 
Q 3669 2231 3669 1497 
Q 3669 778 3244 343 
Q 2819 -91 2113 -91 
Q 1303 -91 875 529 
Q 447 1150 447 2328 
Q 447 3434 972 4092 
Q 1497 4750 2381 4750 
Q 2619 4750 2861 4703 
Q 3103 4656 3366 4563 
z
" transform="scale(0.015625)"/>
       <path id="DejaVuSans-5f" d="M 3263 -1063 
L 3263 -1509 
L -63 -1509 
L -63 -1063 
L 3263 -1063 
z
" transform="scale(0.015625)"/>
      </defs>
      <use xlink:href="#DejaVuSans-62"/>
      <use xlink:href="#DejaVuSans-65" x="63.476562"/>
      <use xlink:href="#DejaVuSans-73" x="125"/>
      <use xlink:href="#DejaVuSans-74" x="177.099609"/>
      <use xlink:href="#DejaVuSans-2d" x="216.308594"/>
      <use xlink:href="#DejaVuSans-32" x="252.392578"/>
      <use xlink:href="#DejaVuSans-33" x="316.015625"/>
      <use xlink:href="#DejaVuSans-30" x="379.638672"/>
      <use xlink:href="#DejaVuSans-2f" x="443.261719"/>
      <use xlink:href="#DejaVuSans-74" x="476.953125"/>
      <use xlink:href="#DejaVuSans-6f" x="516.162109"/>
      <use xlink:href="#DejaVuSans-70" x="577.34375"/>
      <use xlink:href="#DejaVuSans-31" x="640.820312"/>
      <use xlink:href="#DejaVuSans-2d" x="704.443359"/>
      <use xlink:href="#DejaVuSans-30" x="740.527344"/>
      <use xlink:href="#DejaVuSans-64" x="804.150391"/>
      <use xlink:href="#DejaVuSans-37" x="867.626953"/>
      <use xlink:href="#DejaVuSans-36" x="931.25"/>
      <use xlink:href="#DejaVuSans-31" x="994.873047"/>
      <use xlink:href="#DejaVuSans-30" x="1058.496094"/>
      <use xlink:href="#DejaVuSans-5f" x="1122.119141"/>
      <use xlink:href="#DejaVuSans-6c" x="1172.119141"/>
      <use xlink:href="#DejaVuSans-6f" x="1199.902344"/>
      <use xlink:href="#DejaVuSans-73" x="1261.083984"/>
      <use xlink:href="#DejaVuSans-73" x="1313.183594"/>
     </g>
    </g>
   </g>
  </g>
 </g>
 <defs>
  <clipPath id="pdeb7a4dfa3">
   <rect x="57.6" y="41.472" width="357.12" height="266.112"/>
  </clipPath>
 </defs>
</svg>
