<?xml version="1.0" encoding="utf-8" standalone="no"?>
<!DOCTYPE svg PUBLIC "-//W3C//DTD SVG 1.1//EN"
  "http://www.w3.org/Graphics/SVG/1.1/DTD/svg11.dtd">
<svg xmlns:xlink="http://www.w3.org/1999/xlink" width="460.8pt" height="345.6pt" viewBox="0 0 460.8 345.6" xmlns="http://www.w3.org/2000/svg" version="1.1">
 <metadata>
  <rdf:RDF xmlns:dc="http://purl.org/dc/elements/1.1/" xmlns:cc="http://creativecommons.org/ns#" xmlns:rdf="http://www.w3.org/1999/02/22-rdf-syntax-ns#">
   <cc:Work>
    <dc:type rdf:resource="http://purl.org/dc/dcmitype/StillImage"/>
    <dc:date>2024-05-16T06:32:00.103663</dc:date>
    <dc:format>image/svg+xml</dc:format>
    <dc:creator>
     <cc:Agent>
      <dc:title>Matplotlib v3.7.2, https://matplotlib.org/</dc:title>
     </cc:Agent>
    </dc:creator>
   </cc:Work>
  </rdf:RDF>
 </metadata>
 <defs>
  <style type="text/css">*{stroke-linejoin: round; stroke-linecap: butt}</style>
 </defs>
 <g id="figure_1">
  <g id="patch_1">
   <path d="M 0 345.6 
L 460.8 345.6 
L 460.8 0 
L 0 0 
z
" style="fill: #ffffff"/>
  </g>
  <g id="axes_1">
   <g id="patch_2">
    <path d="M 57.6 307.584 
L 414.72 307.584 
L 414.72 41.472 
L 57.6 41.472 
z
" style="fill: #eaeaf2"/>
   </g>
   <g id="matplotlib.axis_1">
    <g id="xtick_1">
     <g id="text_1">
      <!-- 0 -->
      <g style="fill: #262626" transform="translate(69.973702 322.182437) scale(0.1 -0.1)">
       <defs>
        <path id="DejaVuSans-30" d="M 2034 4250 
Q 1547 4250 1301 3770 
Q 1056 3291 1056 2328 
Q 1056 1369 1301 889 
Q 1547 409 2034 409 
Q 2525 409 2770 889 
Q 3016 1369 3016 2328 
Q 3016 3291 2770 3770 
Q 2525 4250 2034 4250 
z
M 2034 4750 
Q 2819 4750 3233 4129 
Q 3647 3509 3647 2328 
Q 3647 1150 3233 529 
Q 2819 -91 2034 -91 
Q 1250 -91 836 529 
Q 422 1150 422 2328 
Q 422 3509 836 4129 
Q 1250 4750 2034 4750 
z
" transform="scale(0.015625)"/>
       </defs>
       <use xlink:href="#DejaVuSans-30"/>
      </g>
     </g>
    </g>
    <g id="xtick_2">
     <g id="text_2">
      <!-- 100 -->
      <g style="fill: #262626" transform="translate(131.388769 322.182437) scale(0.1 -0.1)">
       <defs>
        <path id="DejaVuSans-31" d="M 794 531 
L 1825 531 
L 1825 4091 
L 703 3866 
L 703 4441 
L 1819 4666 
L 2450 4666 
L 2450 531 
L 3481 531 
L 3481 0 
L 794 0 
L 794 531 
z
" transform="scale(0.015625)"/>
       </defs>
       <use xlink:href="#DejaVuSans-31"/>
       <use xlink:href="#DejaVuSans-30" x="63.623047"/>
       <use xlink:href="#DejaVuSans-30" x="127.246094"/>
      </g>
     </g>
    </g>
    <g id="xtick_3">
     <g id="text_3">
      <!-- 200 -->
      <g style="fill: #262626" transform="translate(199.166335 322.182437) scale(0.1 -0.1)">
       <defs>
        <path id="DejaVuSans-32" d="M 1228 531 
L 3431 531 
L 3431 0 
L 469 0 
L 469 531 
Q 828 903 1448 1529 
Q 2069 2156 2228 2338 
Q 2531 2678 2651 2914 
Q 2772 3150 2772 3378 
Q 2772 3750 2511 3984 
Q 2250 4219 1831 4219 
Q 1534 4219 1204 4116 
Q 875 4013 500 3803 
L 500 4441 
Q 881 4594 1212 4672 
Q 1544 4750 1819 4750 
Q 2544 4750 2975 4387 
Q 3406 4025 3406 3419 
Q 3406 3131 3298 2873 
Q 3191 2616 2906 2266 
Q 2828 2175 2409 1742 
Q 1991 1309 1228 531 
z
" transform="scale(0.015625)"/>
       </defs>
       <use xlink:href="#DejaVuSans-32"/>
       <use xlink:href="#DejaVuSans-30" x="63.623047"/>
       <use xlink:href="#DejaVuSans-30" x="127.246094"/>
      </g>
     </g>
    </g>
    <g id="xtick_4">
     <g id="text_4">
      <!-- 300 -->
      <g style="fill: #262626" transform="translate(266.943902 322.182437) scale(0.1 -0.1)">
       <defs>
        <path id="DejaVuSans-33" d="M 2597 2516 
Q 3050 2419 3304 2112 
Q 3559 1806 3559 1356 
Q 3559 666 3084 287 
Q 2609 -91 1734 -91 
Q 1441 -91 1130 -33 
Q 819 25 488 141 
L 488 750 
Q 750 597 1062 519 
Q 1375 441 1716 441 
Q 2309 441 2620 675 
Q 2931 909 2931 1356 
Q 2931 1769 2642 2001 
Q 2353 2234 1838 2234 
L 1294 2234 
L 1294 2753 
L 1863 2753 
Q 2328 2753 2575 2939 
Q 2822 3125 2822 3475 
Q 2822 3834 2567 4026 
Q 2313 4219 1838 4219 
Q 1578 4219 1281 4162 
Q 984 4106 628 3988 
L 628 4550 
Q 988 4650 1302 4700 
Q 1616 4750 1894 4750 
Q 2613 4750 3031 4423 
Q 3450 4097 3450 3541 
Q 3450 3153 3228 2886 
Q 3006 2619 2597 2516 
z
" transform="scale(0.015625)"/>
       </defs>
       <use xlink:href="#DejaVuSans-33"/>
       <use xlink:href="#DejaVuSans-30" x="63.623047"/>
       <use xlink:href="#DejaVuSans-30" x="127.246094"/>
      </g>
     </g>
    </g>
    <g id="xtick_5">
     <g id="text_5">
      <!-- 400 -->
      <g style="fill: #262626" transform="translate(334.721469 322.182437) scale(0.1 -0.1)">
       <defs>
        <path id="DejaVuSans-34" d="M 2419 4116 
L 825 1625 
L 2419 1625 
L 2419 4116 
z
M 2253 4666 
L 3047 4666 
L 3047 1625 
L 3713 1625 
L 3713 1100 
L 3047 1100 
L 3047 0 
L 2419 0 
L 2419 1100 
L 313 1100 
L 313 1709 
L 2253 4666 
z
" transform="scale(0.015625)"/>
       </defs>
       <use xlink:href="#DejaVuSans-34"/>
       <use xlink:href="#DejaVuSans-30" x="63.623047"/>
       <use xlink:href="#DejaVuSans-30" x="127.246094"/>
      </g>
     </g>
    </g>
    <g id="xtick_6">
     <g id="text_6">
      <!-- 500 -->
      <g style="fill: #262626" transform="translate(402.499036 322.182437) scale(0.1 -0.1)">
       <defs>
        <path id="DejaVuSans-35" d="M 691 4666 
L 3169 4666 
L 3169 4134 
L 1269 4134 
L 1269 2991 
Q 1406 3038 1543 3061 
Q 1681 3084 1819 3084 
Q 2600 3084 3056 2656 
Q 3513 2228 3513 1497 
Q 3513 744 3044 326 
Q 2575 -91 1722 -91 
Q 1428 -91 1123 -41 
Q 819 9 494 109 
L 494 744 
Q 775 591 1075 516 
Q 1375 441 1709 441 
Q 2250 441 2565 725 
Q 2881 1009 2881 1497 
Q 2881 1984 2565 2268 
Q 2250 2553 1709 2553 
Q 1456 2553 1204 2497 
Q 953 2441 691 2322 
L 691 4666 
z
" transform="scale(0.015625)"/>
       </defs>
       <use xlink:href="#DejaVuSans-35"/>
       <use xlink:href="#DejaVuSans-30" x="63.623047"/>
       <use xlink:href="#DejaVuSans-30" x="127.246094"/>
      </g>
     </g>
    </g>
    <g id="text_7">
     <!-- epoch -->
     <g style="fill: #262626" transform="translate(220.931875 335.860562) scale(0.1 -0.1)">
      <defs>
       <path id="DejaVuSans-65" d="M 3597 1894 
L 3597 1613 
L 953 1613 
Q 991 1019 1311 708 
Q 1631 397 2203 397 
Q 2534 397 2845 478 
Q 3156 559 3463 722 
L 3463 178 
Q 3153 47 2828 -22 
Q 2503 -91 2169 -91 
Q 1331 -91 842 396 
Q 353 884 353 1716 
Q 353 2575 817 3079 
Q 1281 3584 2069 3584 
Q 2775 3584 3186 3129 
Q 3597 2675 3597 1894 
z
M 3022 2063 
Q 3016 2534 2758 2815 
Q 2500 3097 2075 3097 
Q 1594 3097 1305 2825 
Q 1016 2553 972 2059 
L 3022 2063 
z
" transform="scale(0.015625)"/>
       <path id="DejaVuSans-70" d="M 1159 525 
L 1159 -1331 
L 581 -1331 
L 581 3500 
L 1159 3500 
L 1159 2969 
Q 1341 3281 1617 3432 
Q 1894 3584 2278 3584 
Q 2916 3584 3314 3078 
Q 3713 2572 3713 1747 
Q 3713 922 3314 415 
Q 2916 -91 2278 -91 
Q 1894 -91 1617 61 
Q 1341 213 1159 525 
z
M 3116 1747 
Q 3116 2381 2855 2742 
Q 2594 3103 2138 3103 
Q 1681 3103 1420 2742 
Q 1159 2381 1159 1747 
Q 1159 1113 1420 752 
Q 1681 391 2138 391 
Q 2594 391 2855 752 
Q 3116 1113 3116 1747 
z
" transform="scale(0.015625)"/>
       <path id="DejaVuSans-6f" d="M 1959 3097 
Q 1497 3097 1228 2736 
Q 959 2375 959 1747 
Q 959 1119 1226 758 
Q 1494 397 1959 397 
Q 2419 397 2687 759 
Q 2956 1122 2956 1747 
Q 2956 2369 2687 2733 
Q 2419 3097 1959 3097 
z
M 1959 3584 
Q 2709 3584 3137 3096 
Q 3566 2609 3566 1747 
Q 3566 888 3137 398 
Q 2709 -91 1959 -91 
Q 1206 -91 779 398 
Q 353 888 353 1747 
Q 353 2609 779 3096 
Q 1206 3584 1959 3584 
z
" transform="scale(0.015625)"/>
       <path id="DejaVuSans-63" d="M 3122 3366 
L 3122 2828 
Q 2878 2963 2633 3030 
Q 2388 3097 2138 3097 
Q 1578 3097 1268 2742 
Q 959 2388 959 1747 
Q 959 1106 1268 751 
Q 1578 397 2138 397 
Q 2388 397 2633 464 
Q 2878 531 3122 666 
L 3122 134 
Q 2881 22 2623 -34 
Q 2366 -91 2075 -91 
Q 1284 -91 818 406 
Q 353 903 353 1747 
Q 353 2603 823 3093 
Q 1294 3584 2113 3584 
Q 2378 3584 2631 3529 
Q 2884 3475 3122 3366 
z
" transform="scale(0.015625)"/>
       <path id="DejaVuSans-68" d="M 3513 2113 
L 3513 0 
L 2938 0 
L 2938 2094 
Q 2938 2591 2744 2837 
Q 2550 3084 2163 3084 
Q 1697 3084 1428 2787 
Q 1159 2491 1159 1978 
L 1159 0 
L 581 0 
L 581 4863 
L 1159 4863 
L 1159 2956 
Q 1366 3272 1645 3428 
Q 1925 3584 2291 3584 
Q 2894 3584 3203 3211 
Q 3513 2838 3513 2113 
z
" transform="scale(0.015625)"/>
      </defs>
      <use xlink:href="#DejaVuSans-65"/>
      <use xlink:href="#DejaVuSans-70" x="61.523438"/>
      <use xlink:href="#DejaVuSans-6f" x="125"/>
      <use xlink:href="#DejaVuSans-63" x="186.181641"/>
      <use xlink:href="#DejaVuSans-68" x="241.162109"/>
     </g>
    </g>
   </g>
   <g id="matplotlib.axis_2">
    <g id="ytick_1">
     <g id="text_8">
      <!-- 0.2 -->
      <g style="fill: #262626" transform="translate(34.696875 302.883778) scale(0.1 -0.1)">
       <defs>
        <path id="DejaVuSans-2e" d="M 684 794 
L 1344 794 
L 1344 0 
L 684 0 
L 684 794 
z
" transform="scale(0.015625)"/>
       </defs>
       <use xlink:href="#DejaVuSans-30"/>
       <use xlink:href="#DejaVuSans-2e" x="63.623047"/>
       <use xlink:href="#DejaVuSans-32" x="95.410156"/>
      </g>
     </g>
    </g>
    <g id="ytick_2">
     <g id="text_9">
      <!-- 0.4 -->
      <g style="fill: #262626" transform="translate(34.696875 268.50757) scale(0.1 -0.1)">
       <use xlink:href="#DejaVuSans-30"/>
       <use xlink:href="#DejaVuSans-2e" x="63.623047"/>
       <use xlink:href="#DejaVuSans-34" x="95.410156"/>
      </g>
     </g>
    </g>
    <g id="ytick_3">
     <g id="text_10">
      <!-- 0.6 -->
      <g style="fill: #262626" transform="translate(34.696875 234.131362) scale(0.1 -0.1)">
       <defs>
        <path id="DejaVuSans-36" d="M 2113 2584 
Q 1688 2584 1439 2293 
Q 1191 2003 1191 1497 
Q 1191 994 1439 701 
Q 1688 409 2113 409 
Q 2538 409 2786 701 
Q 3034 994 3034 1497 
Q 3034 2003 2786 2293 
Q 2538 2584 2113 2584 
z
M 3366 4563 
L 3366 3988 
Q 3128 4100 2886 4159 
Q 2644 4219 2406 4219 
Q 1781 4219 1451 3797 
Q 1122 3375 1075 2522 
Q 1259 2794 1537 2939 
Q 1816 3084 2150 3084 
Q 2853 3084 3261 2657 
Q 3669 2231 3669 1497 
Q 3669 778 3244 343 
Q 2819 -91 2113 -91 
Q 1303 -91 875 529 
Q 447 1150 447 2328 
Q 447 3434 972 4092 
Q 1497 4750 2381 4750 
Q 2619 4750 2861 4703 
Q 3103 4656 3366 4563 
z
" transform="scale(0.015625)"/>
       </defs>
       <use xlink:href="#DejaVuSans-30"/>
       <use xlink:href="#DejaVuSans-2e" x="63.623047"/>
       <use xlink:href="#DejaVuSans-36" x="95.410156"/>
      </g>
     </g>
    </g>
    <g id="ytick_4">
     <g id="text_11">
      <!-- 0.8 -->
      <g style="fill: #262626" transform="translate(34.696875 199.755154) scale(0.1 -0.1)">
       <defs>
        <path id="DejaVuSans-38" d="M 2034 2216 
Q 1584 2216 1326 1975 
Q 1069 1734 1069 1313 
Q 1069 891 1326 650 
Q 1584 409 2034 409 
Q 2484 409 2743 651 
Q 3003 894 3003 1313 
Q 3003 1734 2745 1975 
Q 2488 2216 2034 2216 
z
M 1403 2484 
Q 997 2584 770 2862 
Q 544 3141 544 3541 
Q 544 4100 942 4425 
Q 1341 4750 2034 4750 
Q 2731 4750 3128 4425 
Q 3525 4100 3525 3541 
Q 3525 3141 3298 2862 
Q 3072 2584 2669 2484 
Q 3125 2378 3379 2068 
Q 3634 1759 3634 1313 
Q 3634 634 3220 271 
Q 2806 -91 2034 -91 
Q 1263 -91 848 271 
Q 434 634 434 1313 
Q 434 1759 690 2068 
Q 947 2378 1403 2484 
z
M 1172 3481 
Q 1172 3119 1398 2916 
Q 1625 2713 2034 2713 
Q 2441 2713 2670 2916 
Q 2900 3119 2900 3481 
Q 2900 3844 2670 4047 
Q 2441 4250 2034 4250 
Q 1625 4250 1398 4047 
Q 1172 3844 1172 3481 
z
" transform="scale(0.015625)"/>
       </defs>
       <use xlink:href="#DejaVuSans-30"/>
       <use xlink:href="#DejaVuSans-2e" x="63.623047"/>
       <use xlink:href="#DejaVuSans-38" x="95.410156"/>
      </g>
     </g>
    </g>
    <g id="ytick_5">
     <g id="text_12">
      <!-- 1.0 -->
      <g style="fill: #262626" transform="translate(34.696875 165.378945) scale(0.1 -0.1)">
       <use xlink:href="#DejaVuSans-31"/>
       <use xlink:href="#DejaVuSans-2e" x="63.623047"/>
       <use xlink:href="#DejaVuSans-30" x="95.410156"/>
      </g>
     </g>
    </g>
    <g id="ytick_6">
     <g id="text_13">
      <!-- 1.2 -->
      <g style="fill: #262626" transform="translate(34.696875 131.002737) scale(0.1 -0.1)">
       <use xlink:href="#DejaVuSans-31"/>
       <use xlink:href="#DejaVuSans-2e" x="63.623047"/>
       <use xlink:href="#DejaVuSans-32" x="95.410156"/>
      </g>
     </g>
    </g>
    <g id="ytick_7">
     <g id="text_14">
      <!-- 1.4 -->
      <g style="fill: #262626" transform="translate(34.696875 96.626529) scale(0.1 -0.1)">
       <use xlink:href="#DejaVuSans-31"/>
       <use xlink:href="#DejaVuSans-2e" x="63.623047"/>
       <use xlink:href="#DejaVuSans-34" x="95.410156"/>
      </g>
     </g>
    </g>
    <g id="ytick_8">
     <g id="text_15">
      <!-- 1.6 -->
      <g style="fill: #262626" transform="translate(34.696875 62.250321) scale(0.1 -0.1)">
       <use xlink:href="#DejaVuSans-31"/>
       <use xlink:href="#DejaVuSans-2e" x="63.623047"/>
       <use xlink:href="#DejaVuSans-36" x="95.410156"/>
      </g>
     </g>
    </g>
   </g>
   <g id="line2d_1">
    <path d="M 73.832727 78.813767 
L 74.510503 53.568 
L 75.188279 74.93584 
L 75.866054 73.274727 
L 76.54383 102.21364 
L 77.221606 81.052381 
L 77.899381 96.156377 
L 78.577157 97.655806 
L 79.254933 90.152286 
L 79.932708 83.894459 
L 80.610484 113.061501 
L 81.28826 122.013232 
L 81.966035 126.5256 
L 82.643811 136.389574 
L 83.321587 112.891573 
L 83.999362 153.001666 
L 84.677138 155.953022 
L 85.354914 155.648884 
L 86.032689 169.51316 
L 86.710465 157.77951 
L 87.388241 176.938802 
L 88.066016 177.505486 
L 88.743792 166.455979 
L 89.421568 185.211905 
L 90.099343 209.446318 
L 90.777119 207.813834 
L 91.454895 214.054518 
L 92.13267 214.827467 
L 92.810446 224.191907 
L 93.488222 224.084224 
L 94.165997 240.674808 
L 94.843773 218.668863 
L 95.521549 229.017098 
L 96.199324 242.655164 
L 96.8771 229.753311 
L 97.554876 231.619518 
L 98.232651 238.34781 
L 99.588203 253.912808 
L 100.265978 259.354818 
L 100.943754 248.868715 
L 101.62153 258.365234 
L 102.299305 246.919368 
L 102.977081 261.055007 
L 103.654857 252.145838 
L 104.332632 261.159123 
L 105.010408 245.133341 
L 105.688184 253.382287 
L 106.365959 246.245259 
L 107.043735 247.207415 
L 107.721511 256.570455 
L 108.399286 258.331763 
L 109.077062 245.684777 
L 109.754838 256.136616 
L 110.432613 257.518599 
L 111.110389 253.017169 
L 111.788165 258.954774 
L 112.46594 259.510982 
L 113.143716 251.63659 
L 113.821492 265.140958 
L 114.499267 266.062957 
L 115.177043 263.727233 
L 115.854819 262.532837 
L 116.532594 250.647565 
L 117.21037 265.17856 
L 117.888146 265.003601 
L 118.565921 261.382272 
L 119.243697 264.355683 
L 119.921473 258.532486 
L 120.599248 261.805121 
L 121.277024 259.087055 
L 121.9548 259.245889 
L 122.632575 272.426312 
L 123.310351 242.054185 
L 123.988127 254.715626 
L 124.665902 262.273049 
L 125.343678 250.265076 
L 126.021454 266.944255 
L 126.699229 268.642603 
L 127.377005 252.68819 
L 128.054781 261.884092 
L 128.732556 262.542825 
L 129.410332 269.177467 
L 130.088108 257.398965 
L 130.765883 263.544484 
L 131.443659 248.554906 
L 132.121435 267.962613 
L 132.79921 257.427668 
L 133.476986 256.205375 
L 134.154762 258.591403 
L 134.832537 251.753105 
L 135.510313 252.345072 
L 136.188089 261.911967 
L 136.865864 263.226057 
L 137.54364 253.968211 
L 138.221416 261.982799 
L 138.899191 251.894295 
L 139.576967 264.817493 
L 140.254743 256.298013 
L 140.932519 244.988561 
L 141.610294 257.409174 
L 142.28807 246.780404 
L 142.965846 254.066358 
L 143.643621 257.691515 
L 144.321397 259.680322 
L 144.999173 259.439644 
L 145.676948 260.76772 
L 146.354724 270.462017 
L 147.0325 254.747275 
L 147.710275 264.117581 
L 148.388051 264.585677 
L 149.065827 255.608651 
L 149.743602 258.925349 
L 150.421378 260.816278 
L 151.099154 266.818721 
L 151.776929 262.899237 
L 152.454705 275.031008 
L 153.132481 261.316177 
L 153.810256 267.570763 
L 154.488032 271.740386 
L 155.165808 261.108061 
L 155.843583 271.423205 
L 156.521359 260.561951 
L 157.199135 263.382709 
L 157.87691 266.852362 
L 158.554686 259.955083 
L 159.232462 272.005602 
L 159.910237 252.34473 
L 160.588013 263.852044 
L 161.265789 261.942375 
L 161.943564 264.351782 
L 162.62134 272.11516 
L 163.299116 269.272075 
L 163.976891 269.18592 
L 164.654667 265.772576 
L 165.332443 264.777263 
L 166.010218 270.779728 
L 166.687994 269.490998 
L 167.36577 261.067032 
L 168.721321 268.342883 
L 169.399097 261.216645 
L 170.076872 257.531239 
L 170.754648 268.632465 
L 171.432424 257.465664 
L 172.110199 275.340034 
L 172.787975 263.681289 
L 173.465751 266.638713 
L 174.143526 265.476127 
L 174.821302 269.378789 
L 175.499078 258.87021 
L 176.176853 271.955461 
L 176.854629 268.119318 
L 177.532405 268.391012 
L 178.21018 273.59003 
L 178.887956 258.889938 
L 179.565732 266.562179 
L 180.243507 265.701369 
L 180.921283 266.561464 
L 181.599059 269.750656 
L 182.276834 268.314596 
L 182.95461 267.181708 
L 183.632386 270.787212 
L 184.310161 269.593767 
L 184.987937 269.609934 
L 185.665713 262.069861 
L 186.343488 276.677408 
L 187.021264 274.521596 
L 188.376815 263.904827 
L 189.054591 270.54223 
L 189.732367 268.539803 
L 190.410142 270.396522 
L 191.087918 254.885138 
L 191.765694 266.175874 
L 192.443469 258.667122 
L 193.121245 264.043025 
L 194.476796 270.342904 
L 195.154572 258.181517 
L 195.832348 277.936315 
L 196.510123 269.17786 
L 197.187899 266.150055 
L 197.865675 272.964144 
L 199.221226 270.761416 
L 199.899002 262.836396 
L 200.576777 265.877049 
L 201.254553 267.829686 
L 201.932329 272.528311 
L 202.610104 273.357154 
L 203.28788 265.139337 
L 204.643431 273.5694 
L 205.321207 265.770408 
L 205.998983 263.583795 
L 206.676758 271.44959 
L 207.354534 269.779461 
L 208.710085 270.373985 
L 209.387861 269.908791 
L 210.065637 266.831499 
L 210.743412 279.277461 
L 212.098964 265.282168 
L 212.776739 274.212541 
L 213.454515 266.390693 
L 214.132291 272.661896 
L 214.810066 275.271092 
L 215.487842 271.118573 
L 216.165618 267.74382 
L 216.843393 272.151965 
L 217.521169 267.449056 
L 218.198945 268.82329 
L 218.87672 271.526817 
L 219.554496 268.136578 
L 220.232272 270.81169 
L 220.910047 278.016359 
L 221.587823 275.40235 
L 222.265599 281.076102 
L 222.943374 273.282704 
L 223.62115 275.986942 
L 224.298926 272.856955 
L 224.976701 277.470591 
L 225.654477 273.6164 
L 226.332253 278.156962 
L 227.010028 276.654511 
L 227.687804 271.679849 
L 228.36558 280.443038 
L 229.043355 272.215253 
L 229.721131 276.331549 
L 230.398907 272.165751 
L 231.076682 277.381752 
L 231.754458 277.429456 
L 232.432234 264.766488 
L 233.787785 276.644537 
L 234.465561 275.05627 
L 235.143336 282.144639 
L 235.821112 280.53531 
L 236.498888 282.737589 
L 237.176664 280.769601 
L 237.854439 275.05981 
L 238.532215 257.036212 
L 239.209991 273.868513 
L 239.887766 274.538446 
L 240.565542 274.520955 
L 241.243318 275.017342 
L 241.921093 284.619142 
L 243.276645 271.446107 
L 243.95442 272.088428 
L 244.632196 278.291551 
L 245.309972 279.479104 
L 245.987747 272.670851 
L 246.665523 269.243798 
L 247.343299 276.893967 
L 248.021074 275.621027 
L 248.69885 276.023523 
L 249.376626 277.694731 
L 250.732177 275.07621 
L 251.409953 276.977582 
L 252.087728 274.95789 
L 252.765504 268.84936 
L 253.44328 282.370214 
L 254.121055 278.825737 
L 254.798831 276.035194 
L 255.476607 277.998233 
L 256.154382 278.217902 
L 257.509934 284.649319 
L 258.187709 276.38264 
L 258.865485 276.872803 
L 259.543261 284.889697 
L 260.221036 277.111984 
L 260.898812 278.136868 
L 261.576588 273.263032 
L 262.254363 277.443314 
L 262.932139 278.05193 
L 263.609915 276.090877 
L 264.28769 282.901897 
L 264.965466 285.972527 
L 265.643242 282.290553 
L 266.321017 282.543981 
L 266.998793 286.282904 
L 267.676569 282.482937 
L 268.354344 277.726399 
L 269.03212 279.1221 
L 269.709896 281.925688 
L 270.387671 278.216831 
L 271.065447 280.068491 
L 271.743223 277.972186 
L 272.420998 275.223059 
L 273.098774 277.485251 
L 273.77655 278.468776 
L 274.454325 276.883219 
L 275.132101 279.929976 
L 275.809877 279.638587 
L 276.487652 283.666646 
L 277.843204 281.804484 
L 278.520979 281.978425 
L 279.198755 283.608253 
L 279.876531 262.17096 
L 280.554306 271.722655 
L 281.232082 278.39449 
L 281.909858 277.53209 
L 283.265409 285.639804 
L 283.943185 282.13753 
L 284.62096 284.912572 
L 285.298736 278.525047 
L 285.976512 281.870135 
L 286.654287 281.11743 
L 287.332063 284.38754 
L 288.009839 285.842908 
L 288.687614 286.335819 
L 289.36539 281.904231 
L 290.043166 285.056879 
L 290.720941 285.954118 
L 291.398717 288.627984 
L 292.076493 285.199785 
L 292.754268 282.801362 
L 293.432044 285.894199 
L 294.10982 282.460865 
L 294.787595 288.278384 
L 295.465371 287.182486 
L 296.143147 288.8606 
L 296.820922 285.380954 
L 297.498698 280.767114 
L 298.176474 281.603267 
L 298.854249 283.427224 
L 299.532025 284.812633 
L 300.209801 278.306234 
L 300.887576 288.603002 
L 301.565352 286.933531 
L 302.243128 286.581356 
L 302.920903 285.711152 
L 303.598679 289.56252 
L 304.276455 289.306979 
L 304.95423 284.93545 
L 305.632006 285.993579 
L 306.309782 284.401442 
L 306.987557 290.400604 
L 307.665333 286.230794 
L 308.343109 288.073191 
L 309.020884 284.648423 
L 309.69866 285.716643 
L 310.376436 288.786022 
L 311.054211 287.613113 
L 311.731987 281.856557 
L 312.409763 283.844963 
L 313.087538 292.746948 
L 313.765314 286.315917 
L 314.44309 285.083851 
L 315.120865 286.05404 
L 315.798641 285.747584 
L 316.476417 287.585819 
L 317.154192 288.552266 
L 317.831968 290.073427 
L 318.509744 287.916442 
L 319.187519 288.668654 
L 319.865295 278.98952 
L 320.543071 289.810303 
L 321.220846 287.115655 
L 321.898622 283.555498 
L 322.576398 289.002185 
L 323.254173 288.366597 
L 323.931949 288.028973 
L 324.609725 284.146966 
L 326.643052 291.326465 
L 327.320827 288.673494 
L 327.998603 289.976895 
L 328.676379 285.932101 
L 329.354154 289.371209 
L 330.03193 288.817044 
L 330.709706 289.514895 
L 331.387481 291.708026 
L 332.065257 290.105563 
L 332.743033 289.262092 
L 333.420809 292.282482 
L 334.098584 286.034443 
L 334.77636 289.138047 
L 335.454136 291.367237 
L 336.131911 288.471001 
L 336.809687 292.265215 
L 337.487463 290.419898 
L 338.165238 290.704038 
L 338.843014 287.218468 
L 339.52079 291.723084 
L 340.198565 291.697285 
L 340.876341 289.641914 
L 341.554117 288.770287 
L 342.231892 292.581027 
L 342.909668 293.66063 
L 343.587444 290.946831 
L 344.265219 290.384044 
L 344.942995 294.351429 
L 345.620771 292.130051 
L 346.298546 288.295272 
L 346.976322 291.548281 
L 347.654098 291.46204 
L 348.331873 291.04154 
L 349.009649 290.104105 
L 349.687425 291.202459 
L 350.3652 292.551841 
L 351.042976 293.540548 
L 351.720752 292.064999 
L 352.398527 294.734498 
L 353.076303 289.150953 
L 353.754079 290.704245 
L 354.431854 290.080473 
L 355.10963 292.320668 
L 355.787406 288.9392 
L 356.465181 288.772413 
L 357.142957 291.020918 
L 357.820733 292.402039 
L 358.498508 291.661272 
L 359.176284 293.052734 
L 359.85406 291.50436 
L 360.531835 292.117898 
L 361.209611 293.29371 
L 361.887387 289.575029 
L 362.565162 294.76402 
L 363.242938 293.861698 
L 363.920714 293.435454 
L 365.276265 291.854923 
L 365.954041 294.345762 
L 366.631816 293.068659 
L 367.309592 292.923998 
L 367.987368 293.577836 
L 368.665143 295.30517 
L 369.342919 293.847739 
L 370.020695 287.587282 
L 370.69847 293.237833 
L 371.376246 293.159385 
L 372.054022 293.924188 
L 372.731797 294.001015 
L 373.409573 293.960281 
L 374.087349 292.45841 
L 374.765124 295.152981 
L 375.4429 293.576691 
L 376.120676 292.84634 
L 376.798451 293.372624 
L 377.476227 292.906789 
L 378.154003 295.399759 
L 378.831778 291.348575 
L 379.509554 293.77478 
L 380.18733 291.461209 
L 380.865105 294.996637 
L 382.220657 294.1839 
L 382.898432 295.41441 
L 383.576208 294.954435 
L 384.253984 293.492663 
L 384.931759 293.274683 
L 385.609535 294.671893 
L 386.287311 293.049311 
L 386.965086 294.530684 
L 387.642862 294.751351 
L 388.320638 293.785624 
L 388.998413 294.278232 
L 389.676189 294.194137 
L 390.353965 294.939027 
L 391.03174 294.967785 
L 391.709516 295.488 
L 392.387292 295.202929 
L 393.065067 293.645401 
L 393.742843 294.846552 
L 394.420619 294.176579 
L 395.77617 294.227113 
L 396.453946 294.422407 
L 397.131721 293.23696 
L 397.809497 294.466073 
L 398.487273 294.45655 
L 398.487273 294.45655 
" clip-path="url(#pb141b7185f)" style="fill: none; stroke: #1f77b4; stroke-width: 0.5; stroke-linecap: round"/>
   </g>
   <g id="patch_3">
    <path d="M 57.6 307.584 
L 57.6 41.472 
" style="fill: none; stroke: #ffffff; stroke-width: 0.8; stroke-linejoin: miter; stroke-linecap: square"/>
   </g>
   <g id="patch_4">
    <path d="M 414.72 307.584 
L 414.72 41.472 
" style="fill: none; stroke: #ffffff; stroke-width: 0.8; stroke-linejoin: miter; stroke-linecap: square"/>
   </g>
   <g id="patch_5">
    <path d="M 57.6 307.584 
L 414.72 307.584 
" style="fill: none; stroke: #ffffff; stroke-width: 0.8; stroke-linejoin: miter; stroke-linecap: square"/>
   </g>
   <g id="patch_6">
    <path d="M 57.6 41.472 
L 414.72 41.472 
" style="fill: none; stroke: #ffffff; stroke-width: 0.8; stroke-linejoin: miter; stroke-linecap: square"/>
   </g>
   <g id="text_16">
    <!-- loss terhadap epoch -->
    <g style="fill: #262626" transform="translate(175.303125 35.472) scale(0.12 -0.12)">
     <defs>
      <path id="DejaVuSans-6c" d="M 603 4863 
L 1178 4863 
L 1178 0 
L 603 0 
L 603 4863 
z
" transform="scale(0.015625)"/>
      <path id="DejaVuSans-73" d="M 2834 3397 
L 2834 2853 
Q 2591 2978 2328 3040 
Q 2066 3103 1784 3103 
Q 1356 3103 1142 2972 
Q 928 2841 928 2578 
Q 928 2378 1081 2264 
Q 1234 2150 1697 2047 
L 1894 2003 
Q 2506 1872 2764 1633 
Q 3022 1394 3022 966 
Q 3022 478 2636 193 
Q 2250 -91 1575 -91 
Q 1294 -91 989 -36 
Q 684 19 347 128 
L 347 722 
Q 666 556 975 473 
Q 1284 391 1588 391 
Q 1994 391 2212 530 
Q 2431 669 2431 922 
Q 2431 1156 2273 1281 
Q 2116 1406 1581 1522 
L 1381 1569 
Q 847 1681 609 1914 
Q 372 2147 372 2553 
Q 372 3047 722 3315 
Q 1072 3584 1716 3584 
Q 2034 3584 2315 3537 
Q 2597 3491 2834 3397 
z
" transform="scale(0.015625)"/>
      <path id="DejaVuSans-20" transform="scale(0.015625)"/>
      <path id="DejaVuSans-74" d="M 1172 4494 
L 1172 3500 
L 2356 3500 
L 2356 3053 
L 1172 3053 
L 1172 1153 
Q 1172 725 1289 603 
Q 1406 481 1766 481 
L 2356 481 
L 2356 0 
L 1766 0 
Q 1100 0 847 248 
Q 594 497 594 1153 
L 594 3053 
L 172 3053 
L 172 3500 
L 594 3500 
L 594 4494 
L 1172 4494 
z
" transform="scale(0.015625)"/>
      <path id="DejaVuSans-72" d="M 2631 2963 
Q 2534 3019 2420 3045 
Q 2306 3072 2169 3072 
Q 1681 3072 1420 2755 
Q 1159 2438 1159 1844 
L 1159 0 
L 581 0 
L 581 3500 
L 1159 3500 
L 1159 2956 
Q 1341 3275 1631 3429 
Q 1922 3584 2338 3584 
Q 2397 3584 2469 3576 
Q 2541 3569 2628 3553 
L 2631 2963 
z
" transform="scale(0.015625)"/>
      <path id="DejaVuSans-61" d="M 2194 1759 
Q 1497 1759 1228 1600 
Q 959 1441 959 1056 
Q 959 750 1161 570 
Q 1363 391 1709 391 
Q 2188 391 2477 730 
Q 2766 1069 2766 1631 
L 2766 1759 
L 2194 1759 
z
M 3341 1997 
L 3341 0 
L 2766 0 
L 2766 531 
Q 2569 213 2275 61 
Q 1981 -91 1556 -91 
Q 1019 -91 701 211 
Q 384 513 384 1019 
Q 384 1609 779 1909 
Q 1175 2209 1959 2209 
L 2766 2209 
L 2766 2266 
Q 2766 2663 2505 2880 
Q 2244 3097 1772 3097 
Q 1472 3097 1187 3025 
Q 903 2953 641 2809 
L 641 3341 
Q 956 3463 1253 3523 
Q 1550 3584 1831 3584 
Q 2591 3584 2966 3190 
Q 3341 2797 3341 1997 
z
" transform="scale(0.015625)"/>
      <path id="DejaVuSans-64" d="M 2906 2969 
L 2906 4863 
L 3481 4863 
L 3481 0 
L 2906 0 
L 2906 525 
Q 2725 213 2448 61 
Q 2172 -91 1784 -91 
Q 1150 -91 751 415 
Q 353 922 353 1747 
Q 353 2572 751 3078 
Q 1150 3584 1784 3584 
Q 2172 3584 2448 3432 
Q 2725 3281 2906 2969 
z
M 947 1747 
Q 947 1113 1208 752 
Q 1469 391 1925 391 
Q 2381 391 2643 752 
Q 2906 1113 2906 1747 
Q 2906 2381 2643 2742 
Q 2381 3103 1925 3103 
Q 1469 3103 1208 2742 
Q 947 2381 947 1747 
z
" transform="scale(0.015625)"/>
     </defs>
     <use xlink:href="#DejaVuSans-6c"/>
     <use xlink:href="#DejaVuSans-6f" x="27.783203"/>
     <use xlink:href="#DejaVuSans-73" x="88.964844"/>
     <use xlink:href="#DejaVuSans-73" x="141.064453"/>
     <use xlink:href="#DejaVuSans-20" x="193.164062"/>
     <use xlink:href="#DejaVuSans-74" x="224.951172"/>
     <use xlink:href="#DejaVuSans-65" x="264.160156"/>
     <use xlink:href="#DejaVuSans-72" x="325.683594"/>
     <use xlink:href="#DejaVuSans-68" x="365.046875"/>
     <use xlink:href="#DejaVuSans-61" x="428.425781"/>
     <use xlink:href="#DejaVuSans-64" x="489.705078"/>
     <use xlink:href="#DejaVuSans-61" x="553.181641"/>
     <use xlink:href="#DejaVuSans-70" x="614.460938"/>
     <use xlink:href="#DejaVuSans-20" x="677.9375"/>
     <use xlink:href="#DejaVuSans-65" x="709.724609"/>
     <use xlink:href="#DejaVuSans-70" x="771.248047"/>
     <use xlink:href="#DejaVuSans-6f" x="834.724609"/>
     <use xlink:href="#DejaVuSans-63" x="895.90625"/>
     <use xlink:href="#DejaVuSans-68" x="950.886719"/>
    </g>
   </g>
   <g id="legend_1">
    <g id="patch_7">
     <path d="M 267.252813 64.42825 
L 407.72 64.42825 
Q 409.72 64.42825 409.72 62.42825 
L 409.72 48.472 
Q 409.72 46.472 407.72 46.472 
L 267.252813 46.472 
Q 265.252813 46.472 265.252813 48.472 
L 265.252813 62.42825 
Q 265.252813 64.42825 267.252813 64.42825 
z
" style="fill: #eaeaf2; opacity: 0.8; stroke: #cccccc; stroke-linejoin: miter"/>
    </g>
    <g id="line2d_2">
     <path d="M 269.252813 54.570437 
L 279.252813 54.570437 
L 289.252813 54.570437 
" style="fill: none; stroke: #1f77b4; stroke-width: 0.5; stroke-linecap: round"/>
    </g>
    <g id="text_17">
     <!-- ciis/top1-0d6588_loss -->
     <g style="fill: #262626" transform="translate(297.252813 58.070437) scale(0.1 -0.1)">
      <defs>
       <path id="DejaVuSans-69" d="M 603 3500 
L 1178 3500 
L 1178 0 
L 603 0 
L 603 3500 
z
M 603 4863 
L 1178 4863 
L 1178 4134 
L 603 4134 
L 603 4863 
z
" transform="scale(0.015625)"/>
       <path id="DejaVuSans-2f" d="M 1625 4666 
L 2156 4666 
L 531 -594 
L 0 -594 
L 1625 4666 
z
" transform="scale(0.015625)"/>
       <path id="DejaVuSans-2d" d="M 313 2009 
L 1997 2009 
L 1997 1497 
L 313 1497 
L 313 2009 
z
" transform="scale(0.015625)"/>
       <path id="DejaVuSans-5f" d="M 3263 -1063 
L 3263 -1509 
L -63 -1509 
L -63 -1063 
L 3263 -1063 
z
" transform="scale(0.015625)"/>
      </defs>
      <use xlink:href="#DejaVuSans-63"/>
      <use xlink:href="#DejaVuSans-69" x="54.980469"/>
      <use xlink:href="#DejaVuSans-69" x="82.763672"/>
      <use xlink:href="#DejaVuSans-73" x="110.546875"/>
      <use xlink:href="#DejaVuSans-2f" x="162.646484"/>
      <use xlink:href="#DejaVuSans-74" x="196.337891"/>
      <use xlink:href="#DejaVuSans-6f" x="235.546875"/>
      <use xlink:href="#DejaVuSans-70" x="296.728516"/>
      <use xlink:href="#DejaVuSans-31" x="360.205078"/>
      <use xlink:href="#DejaVuSans-2d" x="423.828125"/>
      <use xlink:href="#DejaVuSans-30" x="459.912109"/>
      <use xlink:href="#DejaVuSans-64" x="523.535156"/>
      <use xlink:href="#DejaVuSans-36" x="587.011719"/>
      <use xlink:href="#DejaVuSans-35" x="650.634766"/>
      <use xlink:href="#DejaVuSans-38" x="714.257812"/>
      <use xlink:href="#DejaVuSans-38" x="777.880859"/>
      <use xlink:href="#DejaVuSans-5f" x="841.503906"/>
      <use xlink:href="#DejaVuSans-6c" x="891.503906"/>
      <use xlink:href="#DejaVuSans-6f" x="919.287109"/>
      <use xlink:href="#DejaVuSans-73" x="980.46875"/>
      <use xlink:href="#DejaVuSans-73" x="1032.568359"/>
     </g>
    </g>
   </g>
  </g>
 </g>
 <defs>
  <clipPath id="pb141b7185f">
   <rect x="57.6" y="41.472" width="357.12" height="266.112"/>
  </clipPath>
 </defs>
</svg>
