<?xml version="1.0" encoding="utf-8" standalone="no"?>
<!DOCTYPE svg PUBLIC "-//W3C//DTD SVG 1.1//EN"
  "http://www.w3.org/Graphics/SVG/1.1/DTD/svg11.dtd">
<svg xmlns:xlink="http://www.w3.org/1999/xlink" width="460.8pt" height="345.6pt" viewBox="0 0 460.8 345.6" xmlns="http://www.w3.org/2000/svg" version="1.1">
 <metadata>
  <rdf:RDF xmlns:dc="http://purl.org/dc/elements/1.1/" xmlns:cc="http://creativecommons.org/ns#" xmlns:rdf="http://www.w3.org/1999/02/22-rdf-syntax-ns#">
   <cc:Work>
    <dc:type rdf:resource="http://purl.org/dc/dcmitype/StillImage"/>
    <dc:date>2024-05-30T14:33:07.675044</dc:date>
    <dc:format>image/svg+xml</dc:format>
    <dc:creator>
     <cc:Agent>
      <dc:title>Matplotlib v3.7.2, https://matplotlib.org/</dc:title>
     </cc:Agent>
    </dc:creator>
   </cc:Work>
  </rdf:RDF>
 </metadata>
 <defs>
  <style type="text/css">*{stroke-linejoin: round; stroke-linecap: butt}</style>
 </defs>
 <g id="figure_1">
  <g id="patch_1">
   <path d="M 0 345.6 
L 460.8 345.6 
L 460.8 0 
L 0 0 
z
" style="fill: #ffffff"/>
  </g>
  <g id="axes_1">
   <g id="patch_2">
    <path d="M 57.6 307.584 
L 414.72 307.584 
L 414.72 41.472 
L 57.6 41.472 
z
" style="fill: #eaeaf2"/>
   </g>
   <g id="matplotlib.axis_1">
    <g id="xtick_1">
     <g id="text_1">
      <!-- 0 -->
      <g style="fill: #262626" transform="translate(70.490678 322.182437) scale(0.1 -0.1)">
       <defs>
        <path id="DejaVuSans-30" d="M 2034 4250 
Q 1547 4250 1301 3770 
Q 1056 3291 1056 2328 
Q 1056 1369 1301 889 
Q 1547 409 2034 409 
Q 2525 409 2770 889 
Q 3016 1369 3016 2328 
Q 3016 3291 2770 3770 
Q 2525 4250 2034 4250 
z
M 2034 4750 
Q 2819 4750 3233 4129 
Q 3647 3509 3647 2328 
Q 3647 1150 3233 529 
Q 2819 -91 2034 -91 
Q 1250 -91 836 529 
Q 422 1150 422 2328 
Q 422 3509 836 4129 
Q 1250 4750 2034 4750 
z
" transform="scale(0.015625)"/>
       </defs>
       <use xlink:href="#DejaVuSans-30"/>
      </g>
     </g>
    </g>
    <g id="xtick_2">
     <g id="text_2">
      <!-- 250 -->
      <g style="fill: #262626" transform="translate(104.328097 322.182437) scale(0.1 -0.1)">
       <defs>
        <path id="DejaVuSans-32" d="M 1228 531 
L 3431 531 
L 3431 0 
L 469 0 
L 469 531 
Q 828 903 1448 1529 
Q 2069 2156 2228 2338 
Q 2531 2678 2651 2914 
Q 2772 3150 2772 3378 
Q 2772 3750 2511 3984 
Q 2250 4219 1831 4219 
Q 1534 4219 1204 4116 
Q 875 4013 500 3803 
L 500 4441 
Q 881 4594 1212 4672 
Q 1544 4750 1819 4750 
Q 2544 4750 2975 4387 
Q 3406 4025 3406 3419 
Q 3406 3131 3298 2873 
Q 3191 2616 2906 2266 
Q 2828 2175 2409 1742 
Q 1991 1309 1228 531 
z
" transform="scale(0.015625)"/>
        <path id="DejaVuSans-35" d="M 691 4666 
L 3169 4666 
L 3169 4134 
L 1269 4134 
L 1269 2991 
Q 1406 3038 1543 3061 
Q 1681 3084 1819 3084 
Q 2600 3084 3056 2656 
Q 3513 2228 3513 1497 
Q 3513 744 3044 326 
Q 2575 -91 1722 -91 
Q 1428 -91 1123 -41 
Q 819 9 494 109 
L 494 744 
Q 775 591 1075 516 
Q 1375 441 1709 441 
Q 2250 441 2565 725 
Q 2881 1009 2881 1497 
Q 2881 1984 2565 2268 
Q 2250 2553 1709 2553 
Q 1456 2553 1204 2497 
Q 953 2441 691 2322 
L 691 4666 
z
" transform="scale(0.015625)"/>
       </defs>
       <use xlink:href="#DejaVuSans-32"/>
       <use xlink:href="#DejaVuSans-35" x="63.623047"/>
       <use xlink:href="#DejaVuSans-30" x="127.246094"/>
      </g>
     </g>
    </g>
    <g id="xtick_3">
     <g id="text_3">
      <!-- 500 -->
      <g style="fill: #262626" transform="translate(144.528016 322.182437) scale(0.1 -0.1)">
       <use xlink:href="#DejaVuSans-35"/>
       <use xlink:href="#DejaVuSans-30" x="63.623047"/>
       <use xlink:href="#DejaVuSans-30" x="127.246094"/>
      </g>
     </g>
    </g>
    <g id="xtick_4">
     <g id="text_4">
      <!-- 750 -->
      <g style="fill: #262626" transform="translate(184.727934 322.182437) scale(0.1 -0.1)">
       <defs>
        <path id="DejaVuSans-37" d="M 525 4666 
L 3525 4666 
L 3525 4397 
L 1831 0 
L 1172 0 
L 2766 4134 
L 525 4134 
L 525 4666 
z
" transform="scale(0.015625)"/>
       </defs>
       <use xlink:href="#DejaVuSans-37"/>
       <use xlink:href="#DejaVuSans-35" x="63.623047"/>
       <use xlink:href="#DejaVuSans-30" x="127.246094"/>
      </g>
     </g>
    </g>
    <g id="xtick_5">
     <g id="text_5">
      <!-- 1000 -->
      <g style="fill: #262626" transform="translate(221.746603 322.182437) scale(0.1 -0.1)">
       <defs>
        <path id="DejaVuSans-31" d="M 794 531 
L 1825 531 
L 1825 4091 
L 703 3866 
L 703 4441 
L 1819 4666 
L 2450 4666 
L 2450 531 
L 3481 531 
L 3481 0 
L 794 0 
L 794 531 
z
" transform="scale(0.015625)"/>
       </defs>
       <use xlink:href="#DejaVuSans-31"/>
       <use xlink:href="#DejaVuSans-30" x="63.623047"/>
       <use xlink:href="#DejaVuSans-30" x="127.246094"/>
       <use xlink:href="#DejaVuSans-30" x="190.869141"/>
      </g>
     </g>
    </g>
    <g id="xtick_6">
     <g id="text_6">
      <!-- 1250 -->
      <g style="fill: #262626" transform="translate(261.946522 322.182437) scale(0.1 -0.1)">
       <use xlink:href="#DejaVuSans-31"/>
       <use xlink:href="#DejaVuSans-32" x="63.623047"/>
       <use xlink:href="#DejaVuSans-35" x="127.246094"/>
       <use xlink:href="#DejaVuSans-30" x="190.869141"/>
      </g>
     </g>
    </g>
    <g id="xtick_7">
     <g id="text_7">
      <!-- 1500 -->
      <g style="fill: #262626" transform="translate(302.146441 322.182437) scale(0.1 -0.1)">
       <use xlink:href="#DejaVuSans-31"/>
       <use xlink:href="#DejaVuSans-35" x="63.623047"/>
       <use xlink:href="#DejaVuSans-30" x="127.246094"/>
       <use xlink:href="#DejaVuSans-30" x="190.869141"/>
      </g>
     </g>
    </g>
    <g id="xtick_8">
     <g id="text_8">
      <!-- 1750 -->
      <g style="fill: #262626" transform="translate(342.34636 322.182437) scale(0.1 -0.1)">
       <use xlink:href="#DejaVuSans-31"/>
       <use xlink:href="#DejaVuSans-37" x="63.623047"/>
       <use xlink:href="#DejaVuSans-35" x="127.246094"/>
       <use xlink:href="#DejaVuSans-30" x="190.869141"/>
      </g>
     </g>
    </g>
    <g id="xtick_9">
     <g id="text_9">
      <!-- 2000 -->
      <g style="fill: #262626" transform="translate(382.546279 322.182437) scale(0.1 -0.1)">
       <use xlink:href="#DejaVuSans-32"/>
       <use xlink:href="#DejaVuSans-30" x="63.623047"/>
       <use xlink:href="#DejaVuSans-30" x="127.246094"/>
       <use xlink:href="#DejaVuSans-30" x="190.869141"/>
      </g>
     </g>
    </g>
    <g id="text_10">
     <!-- epoch -->
     <g style="fill: #262626" transform="translate(220.931875 335.860562) scale(0.1 -0.1)">
      <defs>
       <path id="DejaVuSans-65" d="M 3597 1894 
L 3597 1613 
L 953 1613 
Q 991 1019 1311 708 
Q 1631 397 2203 397 
Q 2534 397 2845 478 
Q 3156 559 3463 722 
L 3463 178 
Q 3153 47 2828 -22 
Q 2503 -91 2169 -91 
Q 1331 -91 842 396 
Q 353 884 353 1716 
Q 353 2575 817 3079 
Q 1281 3584 2069 3584 
Q 2775 3584 3186 3129 
Q 3597 2675 3597 1894 
z
M 3022 2063 
Q 3016 2534 2758 2815 
Q 2500 3097 2075 3097 
Q 1594 3097 1305 2825 
Q 1016 2553 972 2059 
L 3022 2063 
z
" transform="scale(0.015625)"/>
       <path id="DejaVuSans-70" d="M 1159 525 
L 1159 -1331 
L 581 -1331 
L 581 3500 
L 1159 3500 
L 1159 2969 
Q 1341 3281 1617 3432 
Q 1894 3584 2278 3584 
Q 2916 3584 3314 3078 
Q 3713 2572 3713 1747 
Q 3713 922 3314 415 
Q 2916 -91 2278 -91 
Q 1894 -91 1617 61 
Q 1341 213 1159 525 
z
M 3116 1747 
Q 3116 2381 2855 2742 
Q 2594 3103 2138 3103 
Q 1681 3103 1420 2742 
Q 1159 2381 1159 1747 
Q 1159 1113 1420 752 
Q 1681 391 2138 391 
Q 2594 391 2855 752 
Q 3116 1113 3116 1747 
z
" transform="scale(0.015625)"/>
       <path id="DejaVuSans-6f" d="M 1959 3097 
Q 1497 3097 1228 2736 
Q 959 2375 959 1747 
Q 959 1119 1226 758 
Q 1494 397 1959 397 
Q 2419 397 2687 759 
Q 2956 1122 2956 1747 
Q 2956 2369 2687 2733 
Q 2419 3097 1959 3097 
z
M 1959 3584 
Q 2709 3584 3137 3096 
Q 3566 2609 3566 1747 
Q 3566 888 3137 398 
Q 2709 -91 1959 -91 
Q 1206 -91 779 398 
Q 353 888 353 1747 
Q 353 2609 779 3096 
Q 1206 3584 1959 3584 
z
" transform="scale(0.015625)"/>
       <path id="DejaVuSans-63" d="M 3122 3366 
L 3122 2828 
Q 2878 2963 2633 3030 
Q 2388 3097 2138 3097 
Q 1578 3097 1268 2742 
Q 959 2388 959 1747 
Q 959 1106 1268 751 
Q 1578 397 2138 397 
Q 2388 397 2633 464 
Q 2878 531 3122 666 
L 3122 134 
Q 2881 22 2623 -34 
Q 2366 -91 2075 -91 
Q 1284 -91 818 406 
Q 353 903 353 1747 
Q 353 2603 823 3093 
Q 1294 3584 2113 3584 
Q 2378 3584 2631 3529 
Q 2884 3475 3122 3366 
z
" transform="scale(0.015625)"/>
       <path id="DejaVuSans-68" d="M 3513 2113 
L 3513 0 
L 2938 0 
L 2938 2094 
Q 2938 2591 2744 2837 
Q 2550 3084 2163 3084 
Q 1697 3084 1428 2787 
Q 1159 2491 1159 1978 
L 1159 0 
L 581 0 
L 581 4863 
L 1159 4863 
L 1159 2956 
Q 1366 3272 1645 3428 
Q 1925 3584 2291 3584 
Q 2894 3584 3203 3211 
Q 3513 2838 3513 2113 
z
" transform="scale(0.015625)"/>
      </defs>
      <use xlink:href="#DejaVuSans-65"/>
      <use xlink:href="#DejaVuSans-70" x="61.523438"/>
      <use xlink:href="#DejaVuSans-6f" x="125"/>
      <use xlink:href="#DejaVuSans-63" x="186.181641"/>
      <use xlink:href="#DejaVuSans-68" x="241.162109"/>
     </g>
    </g>
   </g>
   <g id="matplotlib.axis_2">
    <g id="ytick_1">
     <g id="text_11">
      <!-- 0.0 -->
      <g style="fill: #262626" transform="translate(34.696875 299.873294) scale(0.1 -0.1)">
       <defs>
        <path id="DejaVuSans-2e" d="M 684 794 
L 1344 794 
L 1344 0 
L 684 0 
L 684 794 
z
" transform="scale(0.015625)"/>
       </defs>
       <use xlink:href="#DejaVuSans-30"/>
       <use xlink:href="#DejaVuSans-2e" x="63.623047"/>
       <use xlink:href="#DejaVuSans-30" x="95.410156"/>
      </g>
     </g>
    </g>
    <g id="ytick_2">
     <g id="text_12">
      <!-- 0.5 -->
      <g style="fill: #262626" transform="translate(34.696875 259.486365) scale(0.1 -0.1)">
       <use xlink:href="#DejaVuSans-30"/>
       <use xlink:href="#DejaVuSans-2e" x="63.623047"/>
       <use xlink:href="#DejaVuSans-35" x="95.410156"/>
      </g>
     </g>
    </g>
    <g id="ytick_3">
     <g id="text_13">
      <!-- 1.0 -->
      <g style="fill: #262626" transform="translate(34.696875 219.099436) scale(0.1 -0.1)">
       <use xlink:href="#DejaVuSans-31"/>
       <use xlink:href="#DejaVuSans-2e" x="63.623047"/>
       <use xlink:href="#DejaVuSans-30" x="95.410156"/>
      </g>
     </g>
    </g>
    <g id="ytick_4">
     <g id="text_14">
      <!-- 1.5 -->
      <g style="fill: #262626" transform="translate(34.696875 178.712507) scale(0.1 -0.1)">
       <use xlink:href="#DejaVuSans-31"/>
       <use xlink:href="#DejaVuSans-2e" x="63.623047"/>
       <use xlink:href="#DejaVuSans-35" x="95.410156"/>
      </g>
     </g>
    </g>
    <g id="ytick_5">
     <g id="text_15">
      <!-- 2.0 -->
      <g style="fill: #262626" transform="translate(34.696875 138.325578) scale(0.1 -0.1)">
       <use xlink:href="#DejaVuSans-32"/>
       <use xlink:href="#DejaVuSans-2e" x="63.623047"/>
       <use xlink:href="#DejaVuSans-30" x="95.410156"/>
      </g>
     </g>
    </g>
    <g id="ytick_6">
     <g id="text_16">
      <!-- 2.5 -->
      <g style="fill: #262626" transform="translate(34.696875 97.938649) scale(0.1 -0.1)">
       <use xlink:href="#DejaVuSans-32"/>
       <use xlink:href="#DejaVuSans-2e" x="63.623047"/>
       <use xlink:href="#DejaVuSans-35" x="95.410156"/>
      </g>
     </g>
    </g>
    <g id="ytick_7">
     <g id="text_17">
      <!-- 3.0 -->
      <g style="fill: #262626" transform="translate(34.696875 57.55172) scale(0.1 -0.1)">
       <defs>
        <path id="DejaVuSans-33" d="M 2597 2516 
Q 3050 2419 3304 2112 
Q 3559 1806 3559 1356 
Q 3559 666 3084 287 
Q 2609 -91 1734 -91 
Q 1441 -91 1130 -33 
Q 819 25 488 141 
L 488 750 
Q 750 597 1062 519 
Q 1375 441 1716 441 
Q 2309 441 2620 675 
Q 2931 909 2931 1356 
Q 2931 1769 2642 2001 
Q 2353 2234 1838 2234 
L 1294 2234 
L 1294 2753 
L 1863 2753 
Q 2328 2753 2575 2939 
Q 2822 3125 2822 3475 
Q 2822 3834 2567 4026 
Q 2313 4219 1838 4219 
Q 1578 4219 1281 4162 
Q 984 4106 628 3988 
L 628 4550 
Q 988 4650 1302 4700 
Q 1616 4750 1894 4750 
Q 2613 4750 3031 4423 
Q 3450 4097 3450 3541 
Q 3450 3153 3228 2886 
Q 3006 2619 2597 2516 
z
" transform="scale(0.015625)"/>
       </defs>
       <use xlink:href="#DejaVuSans-33"/>
       <use xlink:href="#DejaVuSans-2e" x="63.623047"/>
       <use xlink:href="#DejaVuSans-30" x="95.410156"/>
      </g>
     </g>
    </g>
   </g>
   <g id="line2d_1">
    <path d="M 73.832727 78.824436 
L 73.993527 53.568 
L 74.154327 68.89829 
L 74.315126 110.516903 
L 74.475926 111.048093 
L 74.636726 110.745335 
L 76.083923 113.38011 
L 76.566322 114.778011 
L 76.727121 115.016304 
L 77.20952 116.970201 
L 77.691919 120.079032 
L 78.013519 121.945752 
L 78.656718 130.012003 
L 78.817517 134.343842 
L 78.978317 134.334276 
L 79.139117 136.312617 
L 79.299916 140.22172 
L 79.460716 141.037312 
L 79.782315 147.953741 
L 79.943115 148.741485 
L 80.103915 151.264413 
L 80.586314 164.30358 
L 81.229512 172.544084 
L 81.551112 179.354982 
L 81.872711 184.111378 
L 82.19431 192.011764 
L 82.35511 191.917229 
L 82.998309 201.742378 
L 83.319908 210.293687 
L 83.641507 216.896649 
L 83.802307 217.531291 
L 83.963107 219.398246 
L 84.284706 217.620541 
L 84.927905 229.487099 
L 85.088705 230.921186 
L 85.571104 231.792534 
L 85.731903 232.998296 
L 86.375102 246.583947 
L 86.535902 246.913668 
L 86.857501 238.311742 
L 87.1791 242.994262 
L 87.5007 242.865673 
L 88.143898 255.987503 
L 88.304698 256.047931 
L 88.626297 259.505172 
L 88.787097 259.466726 
L 88.947897 258.725647 
L 89.591096 264.691757 
L 89.751895 264.101989 
L 90.073495 260.384072 
L 90.395094 257.873745 
L 90.555894 254.956697 
L 90.716693 254.252298 
L 91.199092 269.092985 
L 91.359892 271.973406 
L 91.520692 272.720415 
L 91.681491 272.099684 
L 92.16389 276.228141 
L 92.32469 277.14725 
L 92.646289 275.310643 
L 93.128688 263.116304 
L 93.289488 264.413137 
L 93.932687 277.537631 
L 94.254286 280.373779 
L 94.415086 279.595809 
L 94.575885 279.915599 
L 94.736685 279.898152 
L 94.897485 278.496557 
L 95.058284 278.554487 
L 95.379884 275.209995 
L 95.701483 276.425463 
L 95.862283 277.541627 
L 96.183882 282.232428 
L 96.344682 282.468612 
L 96.505482 283.050835 
L 96.827081 283.288242 
L 96.987881 283.542794 
L 97.14868 283.342847 
L 97.47028 284.61297 
L 97.791879 283.678068 
L 97.952679 284.062276 
L 98.435078 287.275343 
L 98.595877 287.549114 
L 98.756677 286.907067 
L 99.078276 287.752217 
L 99.239076 286.793361 
L 99.399876 286.94444 
L 99.560675 287.472374 
L 99.721475 286.88201 
L 99.882275 287.060491 
L 100.043074 287.823236 
L 100.203874 287.766092 
L 101.007872 289.362758 
L 101.329472 288.687992 
L 101.811871 286.475722 
L 101.972671 284.045777 
L 102.29427 277.174783 
L 103.098268 286.874627 
L 103.419868 287.889896 
L 103.741467 289.347876 
L 103.902267 289.756434 
L 104.063066 289.713186 
L 104.384666 290.842433 
L 104.706265 290.394266 
L 105.027864 278.950363 
L 105.349464 283.422066 
L 105.671063 288.682172 
L 105.992662 290.719939 
L 106.314262 291.519998 
L 106.635861 291.223071 
L 106.95746 292.177742 
L 107.27906 292.691653 
L 107.43986 292.353115 
L 107.600659 292.345569 
L 107.922259 293.014702 
L 108.243858 292.968052 
L 108.404658 293.012838 
L 108.726257 292.725862 
L 108.887057 292.813657 
L 109.208656 293.484841 
L 109.530255 293.217356 
L 109.691055 293.414786 
L 109.851855 293.336116 
L 110.173454 292.649513 
L 110.334254 292.814509 
L 110.495053 293.14889 
L 110.816653 293.113248 
L 111.138252 293.825018 
L 111.459851 293.74759 
L 111.620651 293.724702 
L 111.781451 293.426333 
L 111.94225 293.477704 
L 112.10305 293.717217 
L 112.26385 293.535731 
L 112.585449 293.922111 
L 112.907048 293.774019 
L 113.067848 293.874822 
L 113.389448 293.349247 
L 113.711047 293.81955 
L 113.871847 293.819496 
L 114.193446 293.707137 
L 114.515045 293.693356 
L 114.675845 292.681507 
L 114.836645 292.725504 
L 114.997444 293.68239 
L 115.319044 293.743617 
L 115.479843 293.477791 
L 115.640643 293.558939 
L 115.801443 294.103597 
L 115.962242 294.171308 
L 116.283842 293.977274 
L 116.444641 293.995954 
L 116.605441 293.857098 
L 116.766241 293.260942 
L 116.92704 293.501679 
L 117.08784 293.990098 
L 117.570239 293.853212 
L 117.731039 293.349738 
L 117.891838 293.377356 
L 118.213438 292.624291 
L 118.374237 292.846599 
L 118.695837 292.639891 
L 119.017436 292.163458 
L 119.178236 291.397232 
L 119.339036 289.696427 
L 119.499835 284.105236 
L 119.821435 224.584292 
L 119.982234 223.76394 
L 120.625433 272.814688 
L 120.947032 281.549874 
L 121.268632 284.911399 
L 121.429431 285.046285 
L 121.751031 287.320166 
L 122.07263 285.684046 
L 122.23343 286.187005 
L 122.555029 285.505109 
L 122.876628 287.623788 
L 123.037428 287.987257 
L 123.359027 291.351212 
L 123.841426 293.036801 
L 124.323825 293.118231 
L 124.484625 292.923725 
L 124.806225 293.421192 
L 125.127824 292.640834 
L 125.449423 293.235776 
L 125.610223 293.260372 
L 125.931822 293.75935 
L 126.253422 293.867332 
L 126.575021 293.735841 
L 127.05742 294.058789 
L 127.21822 293.911962 
L 127.700619 294.27408 
L 127.861418 294.18651 
L 128.183018 293.486805 
L 128.504617 294.192289 
L 128.665417 294.202381 
L 128.987016 293.623193 
L 129.308615 294.270446 
L 129.630215 293.991209 
L 130.273413 294.327692 
L 130.434213 294.316794 
L 130.755813 294.63677 
L 130.916612 294.341072 
L 131.077412 294.319005 
L 131.238212 294.658637 
L 131.399011 294.706213 
L 131.720611 294.338445 
L 131.88141 294.299119 
L 132.20301 294.585681 
L 132.524609 294.187752 
L 132.685409 294.017524 
L 132.846208 294.185759 
L 133.167808 293.822756 
L 133.489407 294.334333 
L 133.650207 294.398679 
L 133.811006 294.229313 
L 134.454205 294.475464 
L 134.615005 294.384858 
L 134.936604 294.677401 
L 135.419003 294.605941 
L 135.579803 294.316646 
L 135.740602 294.279378 
L 136.223001 294.59544 
L 136.544601 294.200332 
L 136.705401 294.311378 
L 136.8662 294.216149 
L 137.027 293.941273 
L 137.670199 294.115862 
L 137.991798 294.398555 
L 138.474197 294.489758 
L 138.634997 294.510013 
L 138.956596 293.562581 
L 139.278195 293.459181 
L 139.599795 294.424611 
L 139.760594 294.220895 
L 140.725392 294.717691 
L 140.886192 294.532379 
L 141.046992 294.560361 
L 141.207791 294.741459 
L 141.368591 294.724733 
L 141.69019 294.466195 
L 142.172589 294.757723 
L 142.333389 294.636241 
L 142.654989 294.660732 
L 142.815788 294.641676 
L 142.976588 294.853609 
L 143.298187 294.837817 
L 143.619787 294.961316 
L 143.780586 295.024272 
L 144.423785 294.671776 
L 144.906184 295.074088 
L 145.227783 294.623431 
L 145.549383 294.92404 
L 145.710182 294.937252 
L 146.192581 294.170987 
L 146.353381 293.304489 
L 146.514181 293.17656 
L 146.67498 293.892294 
L 146.99658 294.178956 
L 147.478979 294.638886 
L 147.800578 294.94925 
L 148.282977 294.569792 
L 148.443777 294.6482 
L 148.765376 294.584853 
L 149.247775 294.929868 
L 149.408575 294.859002 
L 149.730174 294.883733 
L 150.373373 294.920296 
L 150.534173 294.94877 
L 150.694972 295.109946 
L 150.855772 295.07052 
L 151.338171 294.243119 
L 151.65977 292.663796 
L 152.142169 292.438601 
L 152.302969 293.072931 
L 152.463769 293.151994 
L 153.106967 294.449406 
L 153.267767 294.446517 
L 153.428567 294.710272 
L 153.750166 294.369288 
L 154.071766 294.651412 
L 154.393365 294.557863 
L 155.036564 294.919912 
L 155.518963 294.902821 
L 155.840562 295.108322 
L 156.162161 295.059614 
L 156.322961 295.056007 
L 156.64456 294.76337 
L 156.96616 294.860769 
L 158.252557 295.027482 
L 158.734956 294.620946 
L 158.895756 294.955966 
L 159.860554 295.029356 
L 160.503753 294.836295 
L 160.825352 295.013348 
L 161.307751 294.992587 
L 161.62935 295.086831 
L 161.79015 294.985096 
L 162.111749 295.060548 
L 162.433349 294.975311 
L 162.754948 295.064947 
L 164.202145 295.023952 
L 164.362945 295.090712 
L 164.684544 294.881802 
L 164.845344 295.06065 
L 165.006143 294.84423 
L 165.166943 294.894781 
L 165.327743 295.087487 
L 165.649342 295.093997 
L 166.292541 294.992233 
L 166.61414 295.128317 
L 166.93574 295.010159 
L 167.257339 294.856811 
L 167.578938 295.046844 
L 167.739738 295.049865 
L 167.900538 295.187045 
L 169.026135 295.070979 
L 169.347735 295.132071 
L 169.990933 295.172276 
L 170.312533 295.242973 
L 170.794932 295.319153 
L 171.116531 295.110453 
L 171.43813 295.191326 
L 172.724528 295.043839 
L 173.046127 295.191481 
L 173.367727 295.141286 
L 173.528526 295.23317 
L 173.850126 295.151447 
L 174.010925 294.972461 
L 174.493324 293.580551 
L 174.654124 293.55285 
L 175.136523 294.841757 
L 175.297323 294.823763 
L 175.458122 294.562084 
L 176.262121 295.188346 
L 176.58372 295.176889 
L 176.905319 295.097909 
L 177.387718 295.116872 
L 177.709318 293.524855 
L 177.870118 293.689941 
L 178.030917 292.463506 
L 178.352517 275.38661 
L 178.674116 245.250324 
L 178.834916 243.213807 
L 178.995715 248.499798 
L 179.317315 276.607773 
L 179.478114 281.68778 
L 179.960513 286.462443 
L 180.282113 290.928486 
L 180.603712 292.237468 
L 181.086111 293.83669 
L 181.40771 293.863743 
L 181.56851 294.140678 
L 181.890109 293.850581 
L 182.050909 294.234696 
L 182.694108 294.334156 
L 182.854907 294.529142 
L 183.176507 294.60684 
L 183.498106 294.716615 
L 183.819706 294.539118 
L 184.302105 294.68922 
L 184.623704 294.394401 
L 184.784504 294.59907 
L 184.945303 294.515608 
L 185.266903 294.65856 
L 185.427702 294.498758 
L 186.070901 294.759195 
L 186.231701 294.990696 
L 186.3925 294.972041 
L 186.7141 294.774468 
L 187.196499 294.944316 
L 188.000497 295.016514 
L 188.161297 294.892555 
L 188.804495 295.126758 
L 189.769294 294.896946 
L 189.930093 295.026764 
L 190.251693 294.814909 
L 190.573292 295.153979 
L 190.894891 294.989137 
L 191.216491 295.036531 
L 191.37729 295.152188 
L 191.69889 295.005165 
L 192.020489 295.115478 
L 192.181289 295.076927 
L 192.502888 295.164798 
L 192.824487 295.115198 
L 192.985287 295.154621 
L 193.306886 294.910526 
L 193.789285 295.185426 
L 194.110885 294.943771 
L 194.593284 295.156 
L 195.075683 295.227878 
L 195.558082 295.144321 
L 196.52288 294.986709 
L 196.68368 295.094606 
L 197.166079 294.936426 
L 197.648478 295.131455 
L 198.291676 295.132135 
L 198.613276 295.247681 
L 198.934875 294.922153 
L 199.095675 294.495598 
L 199.256474 294.431982 
L 199.738873 295.013172 
L 199.899673 294.901693 
L 200.382072 295.145774 
L 200.703671 295.113702 
L 200.864471 295.209332 
L 201.34687 294.959649 
L 201.66847 295.100829 
L 203.115667 295.043574 
L 203.276466 295.216304 
L 203.758865 295.299231 
L 204.080465 294.678872 
L 204.402064 293.867943 
L 204.723663 294.78984 
L 204.884463 294.775843 
L 205.206062 295.074662 
L 205.366862 294.859107 
L 206.010061 295.116482 
L 206.17086 294.959557 
L 206.49246 295.034816 
L 206.814059 294.860968 
L 207.296458 295.0568 
L 207.457258 294.945569 
L 208.743655 295.302865 
L 209.065255 295.085825 
L 209.386854 295.191931 
L 209.869253 294.89592 
L 210.190852 295.017574 
L 210.512452 295.004116 
L 210.673251 295.062841 
L 211.15565 294.97921 
L 211.47725 295.139336 
L 211.638049 294.951565 
L 211.798849 294.958391 
L 212.120448 295.135563 
L 212.442048 295.245339 
L 212.924447 295.240426 
L 213.246046 295.159758 
L 213.567646 295.258235 
L 213.889245 295.077814 
L 214.371644 295.221596 
L 214.854043 295.2798 
L 215.336442 295.046903 
L 215.818841 295.050423 
L 216.14044 295.078809 
L 216.30124 295.236818 
L 217.105238 295.218183 
L 217.266038 295.120379 
L 218.230836 295.330073 
L 218.874035 295.299877 
L 219.195634 295.271033 
L 220.321232 295.274773 
L 220.642831 295.237989 
L 221.768429 295.31963 
L 222.250828 295.170045 
L 223.215626 295.238159 
L 223.858825 295.158061 
L 224.180424 294.688196 
L 224.984423 295.1409 
L 225.788421 295.266915 
L 226.11002 295.283841 
L 226.43162 295.336416 
L 226.914019 295.122958 
L 227.557217 295.347204 
L 228.361216 295.315424 
L 228.682815 295.336746 
L 229.004414 295.298675 
L 229.808413 295.355471 
L 230.130012 295.286052 
L 230.451612 295.220262 
L 230.773211 295.220564 
L 231.09481 295.195082 
L 232.059608 295.259872 
L 232.702807 295.310184 
L 233.024406 295.30579 
L 233.506805 295.330793 
L 233.828405 295.335395 
L 234.150004 295.265601 
L 234.471603 295.341311 
L 234.632403 295.169676 
L 234.793203 295.183007 
L 235.114802 295.330294 
L 235.436401 295.284251 
L 235.758001 294.731256 
L 236.0796 294.957789 
L 236.561999 295.103474 
L 236.722799 294.927628 
L 237.205198 295.130285 
L 238.169996 295.272694 
L 238.491595 295.229273 
L 238.652395 295.07181 
L 238.973994 295.135259 
L 239.134794 295.050593 
L 239.295594 295.119918 
L 239.456393 295.029376 
L 239.617193 293.965726 
L 239.777993 293.869166 
L 239.938792 294.825553 
L 240.260392 295.193235 
L 240.742791 295.301091 
L 241.22519 295.321788 
L 241.546789 295.295754 
L 241.868388 295.25437 
L 242.833187 295.352791 
L 243.637185 295.266626 
L 243.958784 295.35089 
L 244.280384 295.311342 
L 244.601983 295.392794 
L 244.923582 295.313714 
L 245.245182 295.405524 
L 246.370779 295.281858 
L 246.853178 295.325916 
L 247.817976 295.407332 
L 248.461175 295.235483 
L 248.782775 295.339031 
L 249.586773 295.298624 
L 250.712371 295.372504 
L 251.03397 295.343417 
L 251.355569 295.376984 
L 251.677169 295.364404 
L 251.998768 295.424269 
L 252.802766 295.229684 
L 253.124366 295.40618 
L 253.445965 295.288597 
L 253.928364 295.351899 
L 254.410763 295.29546 
L 254.893162 295.234596 
L 255.375561 295.31872 
L 255.85796 295.34111 
L 256.17956 295.224497 
L 256.501159 295.318873 
L 257.144358 295.165509 
L 257.465957 295.084979 
L 257.948356 295.314619 
L 259.395553 295.355936 
L 259.556353 295.263881 
L 260.038752 295.355768 
L 261.00355 295.379318 
L 261.325149 295.374917 
L 261.968348 295.248189 
L 262.611547 295.247748 
L 262.933146 295.349911 
L 263.254745 295.280244 
L 264.380343 295.340167 
L 266.792338 295.309839 
L 267.274737 295.338985 
L 267.757136 295.293335 
L 268.078736 295.349695 
L 268.239535 295.393498 
L 268.561135 295.223068 
L 268.721934 295.267184 
L 269.043534 295.193695 
L 269.525933 295.336182 
L 271.294729 295.379862 
L 271.777128 295.14919 
L 271.937928 295.332745 
L 272.259527 295.352756 
L 274.028324 295.398131 
L 274.349923 295.366683 
L 274.671522 295.388536 
L 278.691514 295.372475 
L 279.173913 295.377763 
L 280.138711 295.431262 
L 280.460311 295.44579 
L 280.78191 295.420999 
L 281.103509 295.416764 
L 281.425109 295.431389 
L 281.746708 295.424087 
L 282.389907 295.434594 
L 283.193905 295.348748 
L 283.515505 295.398247 
L 283.837104 295.325798 
L 284.319503 295.386369 
L 284.641102 295.221421 
L 284.962702 295.364658 
L 285.445101 295.413907 
L 285.9275 295.373552 
L 286.249099 295.349951 
L 286.892298 295.382381 
L 287.696296 295.415985 
L 291.073089 295.413532 
L 295.89708 295.237843 
L 296.218679 295.36043 
L 297.022677 295.326744 
L 297.344277 295.404394 
L 297.826676 295.389197 
L 298.791474 295.418272 
L 299.113073 295.414865 
L 299.273873 295.44767 
L 299.595472 295.18224 
L 299.756272 295.313105 
L 300.39947 295.156704 
L 300.56027 294.414314 
L 300.72107 294.354932 
L 300.88187 294.953407 
L 301.685868 295.083522 
L 301.846668 294.962552 
L 302.007467 294.656426 
L 302.168267 291.468341 
L 302.650666 231.597094 
L 303.293865 278.837634 
L 303.615464 286.032491 
L 304.258663 291.709484 
L 304.580262 293.341793 
L 304.901861 293.777184 
L 305.062661 293.984477 
L 305.38426 293.97477 
L 305.70586 294.421041 
L 306.027459 294.467264 
L 306.831458 294.88849 
L 307.153057 294.437438 
L 308.278655 294.823343 
L 308.600254 294.968186 
L 309.725852 295.190879 
L 310.047451 295.0712 
L 310.52985 295.071957 
L 310.851449 294.863447 
L 311.333848 293.517635 
L 311.494648 293.385691 
L 311.977047 294.873108 
L 312.620246 295.02363 
L 312.941845 294.765319 
L 313.263445 294.966482 
L 313.585044 295.218604 
L 313.906643 295.082431 
L 314.549842 295.196775 
L 314.871441 295.142073 
L 315.193041 295.142071 
L 315.35384 295.086683 
L 315.67544 295.255911 
L 315.997039 295.191164 
L 316.318638 295.207804 
L 316.640238 295.141414 
L 316.801037 295.023345 
L 317.444236 295.230336 
L 317.765835 295.245627 
L 318.248234 295.023089 
L 318.569834 295.316579 
L 319.052233 295.247946 
L 319.856231 295.31067 
L 320.66023 295.276857 
L 321.625028 295.34774 
L 321.946627 295.301043 
L 322.750625 295.348615 
L 323.072225 295.274795 
L 324.680222 295.229561 
L 325.001821 295.254943 
L 325.966619 295.334708 
L 326.288218 295.391673 
L 326.770617 295.419381 
L 327.092217 295.462802 
L 327.574616 295.302013 
L 327.896215 295.334044 
L 328.057015 295.406335 
L 328.700213 295.305526 
L 330.147411 295.410734 
L 330.46901 295.358364 
L 330.790609 295.351588 
L 331.755407 295.385512 
L 332.237806 295.424832 
L 332.720205 295.268087 
L 333.363404 295.299057 
L 333.685003 295.230981 
L 334.006603 295.276237 
L 334.489002 295.330075 
L 335.293 295.31637 
L 335.936199 295.345161 
L 336.418598 295.221973 
L 336.579398 295.145518 
L 336.900997 295.379456 
L 338.026595 295.349321 
L 339.634591 295.343944 
L 339.795391 295.277898 
L 340.43859 295.400071 
L 340.920989 295.332944 
L 341.724987 295.352585 
L 342.046587 295.344382 
L 342.528986 295.250621 
L 343.011385 295.414472 
L 343.332984 295.416779 
L 343.654583 295.376028 
L 343.976183 295.425362 
L 344.297782 295.323619 
L 344.780181 295.399766 
L 346.388178 295.390738 
L 346.709777 295.411522 
L 347.031376 295.336595 
L 347.352976 295.386813 
L 347.996175 295.254785 
L 349.443372 295.332093 
L 349.925771 295.345754 
L 350.568969 295.350845 
L 353.463364 295.352219 
L 353.945763 295.398257 
L 354.588961 295.410499 
L 354.910561 295.354763 
L 355.23216 295.308844 
L 356.196958 295.436219 
L 356.518557 295.279447 
L 358.126554 295.418048 
L 362.468145 295.426446 
L 366.648937 295.407274 
L 367.131336 295.405632 
L 367.613735 295.414276 
L 370.18653 295.43629 
L 371.151328 295.374002 
L 371.633727 295.449876 
L 373.884922 295.411046 
L 374.367321 295.429232 
L 374.84972 295.428846 
L 375.814518 295.442933 
L 376.940116 295.376944 
L 377.744115 295.453865 
L 378.226514 295.261458 
L 378.708913 295.345866 
L 379.030512 295.289269 
L 379.352111 295.408579 
L 379.83451 295.377681 
L 381.442507 295.367036 
L 381.764106 295.202102 
L 381.924906 295.387118 
L 382.246505 295.316723 
L 382.568105 295.337177 
L 385.623299 295.374762 
L 385.944898 295.307145 
L 386.427297 295.367271 
L 387.552895 295.285045 
L 387.874494 294.704899 
L 388.517693 295.36167 
L 388.839292 295.342241 
L 389.96489 295.381455 
L 390.286489 295.354256 
L 390.768888 295.449738 
L 391.572887 295.393054 
L 391.894486 295.43325 
L 392.376885 295.361461 
L 392.537685 294.765966 
L 392.698484 293.452313 
L 392.859284 287.288188 
L 393.341683 253.78823 
L 393.502483 258.613639 
L 393.824082 281.937449 
L 394.145681 290.527238 
L 394.467281 293.173059 
L 394.628081 293.404252 
L 394.94968 294.287126 
L 396.396877 294.71728 
L 396.557677 294.622611 
L 396.718476 294.673829 
L 397.040076 295.026054 
L 397.522475 294.901711 
L 398.165673 295.071595 
L 398.487273 295.062186 
L 398.487273 295.062186 
" clip-path="url(#pb434950467)" style="fill: none; stroke: #1f77b4; stroke-width: 0.5; stroke-linecap: round"/>
   </g>
   <g id="patch_3">
    <path d="M 57.6 307.584 
L 57.6 41.472 
" style="fill: none; stroke: #ffffff; stroke-width: 0.8; stroke-linejoin: miter; stroke-linecap: square"/>
   </g>
   <g id="patch_4">
    <path d="M 414.72 307.584 
L 414.72 41.472 
" style="fill: none; stroke: #ffffff; stroke-width: 0.8; stroke-linejoin: miter; stroke-linecap: square"/>
   </g>
   <g id="patch_5">
    <path d="M 57.6 307.584 
L 414.72 307.584 
" style="fill: none; stroke: #ffffff; stroke-width: 0.8; stroke-linejoin: miter; stroke-linecap: square"/>
   </g>
   <g id="patch_6">
    <path d="M 57.6 41.472 
L 414.72 41.472 
" style="fill: none; stroke: #ffffff; stroke-width: 0.8; stroke-linejoin: miter; stroke-linecap: square"/>
   </g>
   <g id="text_18">
    <!-- loss terhadap epoch -->
    <g style="fill: #262626" transform="translate(175.303125 35.472) scale(0.12 -0.12)">
     <defs>
      <path id="DejaVuSans-6c" d="M 603 4863 
L 1178 4863 
L 1178 0 
L 603 0 
L 603 4863 
z
" transform="scale(0.015625)"/>
      <path id="DejaVuSans-73" d="M 2834 3397 
L 2834 2853 
Q 2591 2978 2328 3040 
Q 2066 3103 1784 3103 
Q 1356 3103 1142 2972 
Q 928 2841 928 2578 
Q 928 2378 1081 2264 
Q 1234 2150 1697 2047 
L 1894 2003 
Q 2506 1872 2764 1633 
Q 3022 1394 3022 966 
Q 3022 478 2636 193 
Q 2250 -91 1575 -91 
Q 1294 -91 989 -36 
Q 684 19 347 128 
L 347 722 
Q 666 556 975 473 
Q 1284 391 1588 391 
Q 1994 391 2212 530 
Q 2431 669 2431 922 
Q 2431 1156 2273 1281 
Q 2116 1406 1581 1522 
L 1381 1569 
Q 847 1681 609 1914 
Q 372 2147 372 2553 
Q 372 3047 722 3315 
Q 1072 3584 1716 3584 
Q 2034 3584 2315 3537 
Q 2597 3491 2834 3397 
z
" transform="scale(0.015625)"/>
      <path id="DejaVuSans-20" transform="scale(0.015625)"/>
      <path id="DejaVuSans-74" d="M 1172 4494 
L 1172 3500 
L 2356 3500 
L 2356 3053 
L 1172 3053 
L 1172 1153 
Q 1172 725 1289 603 
Q 1406 481 1766 481 
L 2356 481 
L 2356 0 
L 1766 0 
Q 1100 0 847 248 
Q 594 497 594 1153 
L 594 3053 
L 172 3053 
L 172 3500 
L 594 3500 
L 594 4494 
L 1172 4494 
z
" transform="scale(0.015625)"/>
      <path id="DejaVuSans-72" d="M 2631 2963 
Q 2534 3019 2420 3045 
Q 2306 3072 2169 3072 
Q 1681 3072 1420 2755 
Q 1159 2438 1159 1844 
L 1159 0 
L 581 0 
L 581 3500 
L 1159 3500 
L 1159 2956 
Q 1341 3275 1631 3429 
Q 1922 3584 2338 3584 
Q 2397 3584 2469 3576 
Q 2541 3569 2628 3553 
L 2631 2963 
z
" transform="scale(0.015625)"/>
      <path id="DejaVuSans-61" d="M 2194 1759 
Q 1497 1759 1228 1600 
Q 959 1441 959 1056 
Q 959 750 1161 570 
Q 1363 391 1709 391 
Q 2188 391 2477 730 
Q 2766 1069 2766 1631 
L 2766 1759 
L 2194 1759 
z
M 3341 1997 
L 3341 0 
L 2766 0 
L 2766 531 
Q 2569 213 2275 61 
Q 1981 -91 1556 -91 
Q 1019 -91 701 211 
Q 384 513 384 1019 
Q 384 1609 779 1909 
Q 1175 2209 1959 2209 
L 2766 2209 
L 2766 2266 
Q 2766 2663 2505 2880 
Q 2244 3097 1772 3097 
Q 1472 3097 1187 3025 
Q 903 2953 641 2809 
L 641 3341 
Q 956 3463 1253 3523 
Q 1550 3584 1831 3584 
Q 2591 3584 2966 3190 
Q 3341 2797 3341 1997 
z
" transform="scale(0.015625)"/>
      <path id="DejaVuSans-64" d="M 2906 2969 
L 2906 4863 
L 3481 4863 
L 3481 0 
L 2906 0 
L 2906 525 
Q 2725 213 2448 61 
Q 2172 -91 1784 -91 
Q 1150 -91 751 415 
Q 353 922 353 1747 
Q 353 2572 751 3078 
Q 1150 3584 1784 3584 
Q 2172 3584 2448 3432 
Q 2725 3281 2906 2969 
z
M 947 1747 
Q 947 1113 1208 752 
Q 1469 391 1925 391 
Q 2381 391 2643 752 
Q 2906 1113 2906 1747 
Q 2906 2381 2643 2742 
Q 2381 3103 1925 3103 
Q 1469 3103 1208 2742 
Q 947 2381 947 1747 
z
" transform="scale(0.015625)"/>
     </defs>
     <use xlink:href="#DejaVuSans-6c"/>
     <use xlink:href="#DejaVuSans-6f" x="27.783203"/>
     <use xlink:href="#DejaVuSans-73" x="88.964844"/>
     <use xlink:href="#DejaVuSans-73" x="141.064453"/>
     <use xlink:href="#DejaVuSans-20" x="193.164062"/>
     <use xlink:href="#DejaVuSans-74" x="224.951172"/>
     <use xlink:href="#DejaVuSans-65" x="264.160156"/>
     <use xlink:href="#DejaVuSans-72" x="325.683594"/>
     <use xlink:href="#DejaVuSans-68" x="365.046875"/>
     <use xlink:href="#DejaVuSans-61" x="428.425781"/>
     <use xlink:href="#DejaVuSans-64" x="489.705078"/>
     <use xlink:href="#DejaVuSans-61" x="553.181641"/>
     <use xlink:href="#DejaVuSans-70" x="614.460938"/>
     <use xlink:href="#DejaVuSans-20" x="677.9375"/>
     <use xlink:href="#DejaVuSans-65" x="709.724609"/>
     <use xlink:href="#DejaVuSans-70" x="771.248047"/>
     <use xlink:href="#DejaVuSans-6f" x="834.724609"/>
     <use xlink:href="#DejaVuSans-63" x="895.90625"/>
     <use xlink:href="#DejaVuSans-68" x="950.886719"/>
    </g>
   </g>
   <g id="legend_1">
    <g id="patch_7">
     <path d="M 232.827812 64.42825 
L 407.72 64.42825 
Q 409.72 64.42825 409.72 62.42825 
L 409.72 48.472 
Q 409.72 46.472 407.72 46.472 
L 232.827812 46.472 
Q 230.827812 46.472 230.827812 48.472 
L 230.827812 62.42825 
Q 230.827812 64.42825 232.827812 64.42825 
z
" style="fill: #eaeaf2; opacity: 0.8; stroke: #cccccc; stroke-linejoin: miter"/>
    </g>
    <g id="line2d_2">
     <path d="M 234.827812 54.570437 
L 244.827812 54.570437 
L 254.827812 54.570437 
" style="fill: none; stroke: #1f77b4; stroke-width: 0.5; stroke-linecap: round"/>
    </g>
    <g id="text_19">
     <!-- best-1450/top1-0d8926_loss -->
     <g style="fill: #262626" transform="translate(262.827812 58.070437) scale(0.1 -0.1)">
      <defs>
       <path id="DejaVuSans-62" d="M 3116 1747 
Q 3116 2381 2855 2742 
Q 2594 3103 2138 3103 
Q 1681 3103 1420 2742 
Q 1159 2381 1159 1747 
Q 1159 1113 1420 752 
Q 1681 391 2138 391 
Q 2594 391 2855 752 
Q 3116 1113 3116 1747 
z
M 1159 2969 
Q 1341 3281 1617 3432 
Q 1894 3584 2278 3584 
Q 2916 3584 3314 3078 
Q 3713 2572 3713 1747 
Q 3713 922 3314 415 
Q 2916 -91 2278 -91 
Q 1894 -91 1617 61 
Q 1341 213 1159 525 
L 1159 0 
L 581 0 
L 581 4863 
L 1159 4863 
L 1159 2969 
z
" transform="scale(0.015625)"/>
       <path id="DejaVuSans-2d" d="M 313 2009 
L 1997 2009 
L 1997 1497 
L 313 1497 
L 313 2009 
z
" transform="scale(0.015625)"/>
       <path id="DejaVuSans-34" d="M 2419 4116 
L 825 1625 
L 2419 1625 
L 2419 4116 
z
M 2253 4666 
L 3047 4666 
L 3047 1625 
L 3713 1625 
L 3713 1100 
L 3047 1100 
L 3047 0 
L 2419 0 
L 2419 1100 
L 313 1100 
L 313 1709 
L 2253 4666 
z
" transform="scale(0.015625)"/>
       <path id="DejaVuSans-2f" d="M 1625 4666 
L 2156 4666 
L 531 -594 
L 0 -594 
L 1625 4666 
z
" transform="scale(0.015625)"/>
       <path id="DejaVuSans-38" d="M 2034 2216 
Q 1584 2216 1326 1975 
Q 1069 1734 1069 1313 
Q 1069 891 1326 650 
Q 1584 409 2034 409 
Q 2484 409 2743 651 
Q 3003 894 3003 1313 
Q 3003 1734 2745 1975 
Q 2488 2216 2034 2216 
z
M 1403 2484 
Q 997 2584 770 2862 
Q 544 3141 544 3541 
Q 544 4100 942 4425 
Q 1341 4750 2034 4750 
Q 2731 4750 3128 4425 
Q 3525 4100 3525 3541 
Q 3525 3141 3298 2862 
Q 3072 2584 2669 2484 
Q 3125 2378 3379 2068 
Q 3634 1759 3634 1313 
Q 3634 634 3220 271 
Q 2806 -91 2034 -91 
Q 1263 -91 848 271 
Q 434 634 434 1313 
Q 434 1759 690 2068 
Q 947 2378 1403 2484 
z
M 1172 3481 
Q 1172 3119 1398 2916 
Q 1625 2713 2034 2713 
Q 2441 2713 2670 2916 
Q 2900 3119 2900 3481 
Q 2900 3844 2670 4047 
Q 2441 4250 2034 4250 
Q 1625 4250 1398 4047 
Q 1172 3844 1172 3481 
z
" transform="scale(0.015625)"/>
       <path id="DejaVuSans-39" d="M 703 97 
L 703 672 
Q 941 559 1184 500 
Q 1428 441 1663 441 
Q 2288 441 2617 861 
Q 2947 1281 2994 2138 
Q 2813 1869 2534 1725 
Q 2256 1581 1919 1581 
Q 1219 1581 811 2004 
Q 403 2428 403 3163 
Q 403 3881 828 4315 
Q 1253 4750 1959 4750 
Q 2769 4750 3195 4129 
Q 3622 3509 3622 2328 
Q 3622 1225 3098 567 
Q 2575 -91 1691 -91 
Q 1453 -91 1209 -44 
Q 966 3 703 97 
z
M 1959 2075 
Q 2384 2075 2632 2365 
Q 2881 2656 2881 3163 
Q 2881 3666 2632 3958 
Q 2384 4250 1959 4250 
Q 1534 4250 1286 3958 
Q 1038 3666 1038 3163 
Q 1038 2656 1286 2365 
Q 1534 2075 1959 2075 
z
" transform="scale(0.015625)"/>
       <path id="DejaVuSans-36" d="M 2113 2584 
Q 1688 2584 1439 2293 
Q 1191 2003 1191 1497 
Q 1191 994 1439 701 
Q 1688 409 2113 409 
Q 2538 409 2786 701 
Q 3034 994 3034 1497 
Q 3034 2003 2786 2293 
Q 2538 2584 2113 2584 
z
M 3366 4563 
L 3366 3988 
Q 3128 4100 2886 4159 
Q 2644 4219 2406 4219 
Q 1781 4219 1451 3797 
Q 1122 3375 1075 2522 
Q 1259 2794 1537 2939 
Q 1816 3084 2150 3084 
Q 2853 3084 3261 2657 
Q 3669 2231 3669 1497 
Q 3669 778 3244 343 
Q 2819 -91 2113 -91 
Q 1303 -91 875 529 
Q 447 1150 447 2328 
Q 447 3434 972 4092 
Q 1497 4750 2381 4750 
Q 2619 4750 2861 4703 
Q 3103 4656 3366 4563 
z
" transform="scale(0.015625)"/>
       <path id="DejaVuSans-5f" d="M 3263 -1063 
L 3263 -1509 
L -63 -1509 
L -63 -1063 
L 3263 -1063 
z
" transform="scale(0.015625)"/>
      </defs>
      <use xlink:href="#DejaVuSans-62"/>
      <use xlink:href="#DejaVuSans-65" x="63.476562"/>
      <use xlink:href="#DejaVuSans-73" x="125"/>
      <use xlink:href="#DejaVuSans-74" x="177.099609"/>
      <use xlink:href="#DejaVuSans-2d" x="216.308594"/>
      <use xlink:href="#DejaVuSans-31" x="252.392578"/>
      <use xlink:href="#DejaVuSans-34" x="316.015625"/>
      <use xlink:href="#DejaVuSans-35" x="379.638672"/>
      <use xlink:href="#DejaVuSans-30" x="443.261719"/>
      <use xlink:href="#DejaVuSans-2f" x="506.884766"/>
      <use xlink:href="#DejaVuSans-74" x="540.576172"/>
      <use xlink:href="#DejaVuSans-6f" x="579.785156"/>
      <use xlink:href="#DejaVuSans-70" x="640.966797"/>
      <use xlink:href="#DejaVuSans-31" x="704.443359"/>
      <use xlink:href="#DejaVuSans-2d" x="768.066406"/>
      <use xlink:href="#DejaVuSans-30" x="804.150391"/>
      <use xlink:href="#DejaVuSans-64" x="867.773438"/>
      <use xlink:href="#DejaVuSans-38" x="931.25"/>
      <use xlink:href="#DejaVuSans-39" x="994.873047"/>
      <use xlink:href="#DejaVuSans-32" x="1058.496094"/>
      <use xlink:href="#DejaVuSans-36" x="1122.119141"/>
      <use xlink:href="#DejaVuSans-5f" x="1185.742188"/>
      <use xlink:href="#DejaVuSans-6c" x="1235.742188"/>
      <use xlink:href="#DejaVuSans-6f" x="1263.525391"/>
      <use xlink:href="#DejaVuSans-73" x="1324.707031"/>
      <use xlink:href="#DejaVuSans-73" x="1376.806641"/>
     </g>
    </g>
   </g>
  </g>
 </g>
 <defs>
  <clipPath id="pb434950467">
   <rect x="57.6" y="41.472" width="357.12" height="266.112"/>
  </clipPath>
 </defs>
</svg>
