<?xml version="1.0" encoding="utf-8" standalone="no"?>
<!DOCTYPE svg PUBLIC "-//W3C//DTD SVG 1.1//EN"
  "http://www.w3.org/Graphics/SVG/1.1/DTD/svg11.dtd">
<svg xmlns:xlink="http://www.w3.org/1999/xlink" width="460.8pt" height="345.6pt" viewBox="0 0 460.8 345.6" xmlns="http://www.w3.org/2000/svg" version="1.1">
 <metadata>
  <rdf:RDF xmlns:dc="http://purl.org/dc/elements/1.1/" xmlns:cc="http://creativecommons.org/ns#" xmlns:rdf="http://www.w3.org/1999/02/22-rdf-syntax-ns#">
   <cc:Work>
    <dc:type rdf:resource="http://purl.org/dc/dcmitype/StillImage"/>
    <dc:date>2024-05-28T11:44:01.575014</dc:date>
    <dc:format>image/svg+xml</dc:format>
    <dc:creator>
     <cc:Agent>
      <dc:title>Matplotlib v3.7.2, https://matplotlib.org/</dc:title>
     </cc:Agent>
    </dc:creator>
   </cc:Work>
  </rdf:RDF>
 </metadata>
 <defs>
  <style type="text/css">*{stroke-linejoin: round; stroke-linecap: butt}</style>
 </defs>
 <g id="figure_1">
  <g id="patch_1">
   <path d="M 0 345.6 
L 460.8 345.6 
L 460.8 0 
L 0 0 
z
" style="fill: #ffffff"/>
  </g>
  <g id="axes_1">
   <g id="patch_2">
    <path d="M 57.6 307.584 
L 414.72 307.584 
L 414.72 41.472 
L 57.6 41.472 
z
" style="fill: #eaeaf2"/>
   </g>
   <g id="matplotlib.axis_1">
    <g id="xtick_1">
     <g id="text_1">
      <!-- 0 -->
      <g style="fill: #262626" transform="translate(70.448441 322.182437) scale(0.1 -0.1)">
       <defs>
        <path id="DejaVuSans-30" d="M 2034 4250 
Q 1547 4250 1301 3770 
Q 1056 3291 1056 2328 
Q 1056 1369 1301 889 
Q 1547 409 2034 409 
Q 2525 409 2770 889 
Q 3016 1369 3016 2328 
Q 3016 3291 2770 3770 
Q 2525 4250 2034 4250 
z
M 2034 4750 
Q 2819 4750 3233 4129 
Q 3647 3509 3647 2328 
Q 3647 1150 3233 529 
Q 2819 -91 2034 -91 
Q 1250 -91 836 529 
Q 422 1150 422 2328 
Q 422 3509 836 4129 
Q 1250 4750 2034 4750 
z
" transform="scale(0.015625)"/>
       </defs>
       <use xlink:href="#DejaVuSans-30"/>
      </g>
     </g>
    </g>
    <g id="xtick_2">
     <g id="text_2">
      <!-- 200 -->
      <g style="fill: #262626" transform="translate(104.693139 322.182437) scale(0.1 -0.1)">
       <defs>
        <path id="DejaVuSans-32" d="M 1228 531 
L 3431 531 
L 3431 0 
L 469 0 
L 469 531 
Q 828 903 1448 1529 
Q 2069 2156 2228 2338 
Q 2531 2678 2651 2914 
Q 2772 3150 2772 3378 
Q 2772 3750 2511 3984 
Q 2250 4219 1831 4219 
Q 1534 4219 1204 4116 
Q 875 4013 500 3803 
L 500 4441 
Q 881 4594 1212 4672 
Q 1544 4750 1819 4750 
Q 2544 4750 2975 4387 
Q 3406 4025 3406 3419 
Q 3406 3131 3298 2873 
Q 3191 2616 2906 2266 
Q 2828 2175 2409 1742 
Q 1991 1309 1228 531 
z
" transform="scale(0.015625)"/>
       </defs>
       <use xlink:href="#DejaVuSans-32"/>
       <use xlink:href="#DejaVuSans-30" x="63.623047"/>
       <use xlink:href="#DejaVuSans-30" x="127.246094"/>
      </g>
     </g>
    </g>
    <g id="xtick_3">
     <g id="text_3">
      <!-- 400 -->
      <g style="fill: #262626" transform="translate(145.300337 322.182437) scale(0.1 -0.1)">
       <defs>
        <path id="DejaVuSans-34" d="M 2419 4116 
L 825 1625 
L 2419 1625 
L 2419 4116 
z
M 2253 4666 
L 3047 4666 
L 3047 1625 
L 3713 1625 
L 3713 1100 
L 3047 1100 
L 3047 0 
L 2419 0 
L 2419 1100 
L 313 1100 
L 313 1709 
L 2253 4666 
z
" transform="scale(0.015625)"/>
       </defs>
       <use xlink:href="#DejaVuSans-34"/>
       <use xlink:href="#DejaVuSans-30" x="63.623047"/>
       <use xlink:href="#DejaVuSans-30" x="127.246094"/>
      </g>
     </g>
    </g>
    <g id="xtick_4">
     <g id="text_4">
      <!-- 600 -->
      <g style="fill: #262626" transform="translate(185.907534 322.182437) scale(0.1 -0.1)">
       <defs>
        <path id="DejaVuSans-36" d="M 2113 2584 
Q 1688 2584 1439 2293 
Q 1191 2003 1191 1497 
Q 1191 994 1439 701 
Q 1688 409 2113 409 
Q 2538 409 2786 701 
Q 3034 994 3034 1497 
Q 3034 2003 2786 2293 
Q 2538 2584 2113 2584 
z
M 3366 4563 
L 3366 3988 
Q 3128 4100 2886 4159 
Q 2644 4219 2406 4219 
Q 1781 4219 1451 3797 
Q 1122 3375 1075 2522 
Q 1259 2794 1537 2939 
Q 1816 3084 2150 3084 
Q 2853 3084 3261 2657 
Q 3669 2231 3669 1497 
Q 3669 778 3244 343 
Q 2819 -91 2113 -91 
Q 1303 -91 875 529 
Q 447 1150 447 2328 
Q 447 3434 972 4092 
Q 1497 4750 2381 4750 
Q 2619 4750 2861 4703 
Q 3103 4656 3366 4563 
z
" transform="scale(0.015625)"/>
       </defs>
       <use xlink:href="#DejaVuSans-36"/>
       <use xlink:href="#DejaVuSans-30" x="63.623047"/>
       <use xlink:href="#DejaVuSans-30" x="127.246094"/>
      </g>
     </g>
    </g>
    <g id="xtick_5">
     <g id="text_5">
      <!-- 800 -->
      <g style="fill: #262626" transform="translate(226.514732 322.182437) scale(0.1 -0.1)">
       <defs>
        <path id="DejaVuSans-38" d="M 2034 2216 
Q 1584 2216 1326 1975 
Q 1069 1734 1069 1313 
Q 1069 891 1326 650 
Q 1584 409 2034 409 
Q 2484 409 2743 651 
Q 3003 894 3003 1313 
Q 3003 1734 2745 1975 
Q 2488 2216 2034 2216 
z
M 1403 2484 
Q 997 2584 770 2862 
Q 544 3141 544 3541 
Q 544 4100 942 4425 
Q 1341 4750 2034 4750 
Q 2731 4750 3128 4425 
Q 3525 4100 3525 3541 
Q 3525 3141 3298 2862 
Q 3072 2584 2669 2484 
Q 3125 2378 3379 2068 
Q 3634 1759 3634 1313 
Q 3634 634 3220 271 
Q 2806 -91 2034 -91 
Q 1263 -91 848 271 
Q 434 634 434 1313 
Q 434 1759 690 2068 
Q 947 2378 1403 2484 
z
M 1172 3481 
Q 1172 3119 1398 2916 
Q 1625 2713 2034 2713 
Q 2441 2713 2670 2916 
Q 2900 3119 2900 3481 
Q 2900 3844 2670 4047 
Q 2441 4250 2034 4250 
Q 1625 4250 1398 4047 
Q 1172 3844 1172 3481 
z
" transform="scale(0.015625)"/>
       </defs>
       <use xlink:href="#DejaVuSans-38"/>
       <use xlink:href="#DejaVuSans-30" x="63.623047"/>
       <use xlink:href="#DejaVuSans-30" x="127.246094"/>
      </g>
     </g>
    </g>
    <g id="xtick_6">
     <g id="text_6">
      <!-- 1000 -->
      <g style="fill: #262626" transform="translate(263.94068 322.182437) scale(0.1 -0.1)">
       <defs>
        <path id="DejaVuSans-31" d="M 794 531 
L 1825 531 
L 1825 4091 
L 703 3866 
L 703 4441 
L 1819 4666 
L 2450 4666 
L 2450 531 
L 3481 531 
L 3481 0 
L 794 0 
L 794 531 
z
" transform="scale(0.015625)"/>
       </defs>
       <use xlink:href="#DejaVuSans-31"/>
       <use xlink:href="#DejaVuSans-30" x="63.623047"/>
       <use xlink:href="#DejaVuSans-30" x="127.246094"/>
       <use xlink:href="#DejaVuSans-30" x="190.869141"/>
      </g>
     </g>
    </g>
    <g id="xtick_7">
     <g id="text_7">
      <!-- 1200 -->
      <g style="fill: #262626" transform="translate(304.547877 322.182437) scale(0.1 -0.1)">
       <use xlink:href="#DejaVuSans-31"/>
       <use xlink:href="#DejaVuSans-32" x="63.623047"/>
       <use xlink:href="#DejaVuSans-30" x="127.246094"/>
       <use xlink:href="#DejaVuSans-30" x="190.869141"/>
      </g>
     </g>
    </g>
    <g id="xtick_8">
     <g id="text_8">
      <!-- 1400 -->
      <g style="fill: #262626" transform="translate(345.155075 322.182437) scale(0.1 -0.1)">
       <use xlink:href="#DejaVuSans-31"/>
       <use xlink:href="#DejaVuSans-34" x="63.623047"/>
       <use xlink:href="#DejaVuSans-30" x="127.246094"/>
       <use xlink:href="#DejaVuSans-30" x="190.869141"/>
      </g>
     </g>
    </g>
    <g id="xtick_9">
     <g id="text_9">
      <!-- 1600 -->
      <g style="fill: #262626" transform="translate(385.762273 322.182437) scale(0.1 -0.1)">
       <use xlink:href="#DejaVuSans-31"/>
       <use xlink:href="#DejaVuSans-36" x="63.623047"/>
       <use xlink:href="#DejaVuSans-30" x="127.246094"/>
       <use xlink:href="#DejaVuSans-30" x="190.869141"/>
      </g>
     </g>
    </g>
    <g id="text_10">
     <!-- epoch -->
     <g style="fill: #262626" transform="translate(220.931875 335.860562) scale(0.1 -0.1)">
      <defs>
       <path id="DejaVuSans-65" d="M 3597 1894 
L 3597 1613 
L 953 1613 
Q 991 1019 1311 708 
Q 1631 397 2203 397 
Q 2534 397 2845 478 
Q 3156 559 3463 722 
L 3463 178 
Q 3153 47 2828 -22 
Q 2503 -91 2169 -91 
Q 1331 -91 842 396 
Q 353 884 353 1716 
Q 353 2575 817 3079 
Q 1281 3584 2069 3584 
Q 2775 3584 3186 3129 
Q 3597 2675 3597 1894 
z
M 3022 2063 
Q 3016 2534 2758 2815 
Q 2500 3097 2075 3097 
Q 1594 3097 1305 2825 
Q 1016 2553 972 2059 
L 3022 2063 
z
" transform="scale(0.015625)"/>
       <path id="DejaVuSans-70" d="M 1159 525 
L 1159 -1331 
L 581 -1331 
L 581 3500 
L 1159 3500 
L 1159 2969 
Q 1341 3281 1617 3432 
Q 1894 3584 2278 3584 
Q 2916 3584 3314 3078 
Q 3713 2572 3713 1747 
Q 3713 922 3314 415 
Q 2916 -91 2278 -91 
Q 1894 -91 1617 61 
Q 1341 213 1159 525 
z
M 3116 1747 
Q 3116 2381 2855 2742 
Q 2594 3103 2138 3103 
Q 1681 3103 1420 2742 
Q 1159 2381 1159 1747 
Q 1159 1113 1420 752 
Q 1681 391 2138 391 
Q 2594 391 2855 752 
Q 3116 1113 3116 1747 
z
" transform="scale(0.015625)"/>
       <path id="DejaVuSans-6f" d="M 1959 3097 
Q 1497 3097 1228 2736 
Q 959 2375 959 1747 
Q 959 1119 1226 758 
Q 1494 397 1959 397 
Q 2419 397 2687 759 
Q 2956 1122 2956 1747 
Q 2956 2369 2687 2733 
Q 2419 3097 1959 3097 
z
M 1959 3584 
Q 2709 3584 3137 3096 
Q 3566 2609 3566 1747 
Q 3566 888 3137 398 
Q 2709 -91 1959 -91 
Q 1206 -91 779 398 
Q 353 888 353 1747 
Q 353 2609 779 3096 
Q 1206 3584 1959 3584 
z
" transform="scale(0.015625)"/>
       <path id="DejaVuSans-63" d="M 3122 3366 
L 3122 2828 
Q 2878 2963 2633 3030 
Q 2388 3097 2138 3097 
Q 1578 3097 1268 2742 
Q 959 2388 959 1747 
Q 959 1106 1268 751 
Q 1578 397 2138 397 
Q 2388 397 2633 464 
Q 2878 531 3122 666 
L 3122 134 
Q 2881 22 2623 -34 
Q 2366 -91 2075 -91 
Q 1284 -91 818 406 
Q 353 903 353 1747 
Q 353 2603 823 3093 
Q 1294 3584 2113 3584 
Q 2378 3584 2631 3529 
Q 2884 3475 3122 3366 
z
" transform="scale(0.015625)"/>
       <path id="DejaVuSans-68" d="M 3513 2113 
L 3513 0 
L 2938 0 
L 2938 2094 
Q 2938 2591 2744 2837 
Q 2550 3084 2163 3084 
Q 1697 3084 1428 2787 
Q 1159 2491 1159 1978 
L 1159 0 
L 581 0 
L 581 4863 
L 1159 4863 
L 1159 2956 
Q 1366 3272 1645 3428 
Q 1925 3584 2291 3584 
Q 2894 3584 3203 3211 
Q 3513 2838 3513 2113 
z
" transform="scale(0.015625)"/>
      </defs>
      <use xlink:href="#DejaVuSans-65"/>
      <use xlink:href="#DejaVuSans-70" x="61.523438"/>
      <use xlink:href="#DejaVuSans-6f" x="125"/>
      <use xlink:href="#DejaVuSans-63" x="186.181641"/>
      <use xlink:href="#DejaVuSans-68" x="241.162109"/>
     </g>
    </g>
   </g>
   <g id="matplotlib.axis_2">
    <g id="ytick_1">
     <g id="text_11">
      <!-- 0.5 -->
      <g style="fill: #262626" transform="translate(34.696875 268.923647) scale(0.1 -0.1)">
       <defs>
        <path id="DejaVuSans-2e" d="M 684 794 
L 1344 794 
L 1344 0 
L 684 0 
L 684 794 
z
" transform="scale(0.015625)"/>
        <path id="DejaVuSans-35" d="M 691 4666 
L 3169 4666 
L 3169 4134 
L 1269 4134 
L 1269 2991 
Q 1406 3038 1543 3061 
Q 1681 3084 1819 3084 
Q 2600 3084 3056 2656 
Q 3513 2228 3513 1497 
Q 3513 744 3044 326 
Q 2575 -91 1722 -91 
Q 1428 -91 1123 -41 
Q 819 9 494 109 
L 494 744 
Q 775 591 1075 516 
Q 1375 441 1709 441 
Q 2250 441 2565 725 
Q 2881 1009 2881 1497 
Q 2881 1984 2565 2268 
Q 2250 2553 1709 2553 
Q 1456 2553 1204 2497 
Q 953 2441 691 2322 
L 691 4666 
z
" transform="scale(0.015625)"/>
       </defs>
       <use xlink:href="#DejaVuSans-30"/>
       <use xlink:href="#DejaVuSans-2e" x="63.623047"/>
       <use xlink:href="#DejaVuSans-35" x="95.410156"/>
      </g>
     </g>
    </g>
    <g id="ytick_2">
     <g id="text_12">
      <!-- 1.0 -->
      <g style="fill: #262626" transform="translate(34.696875 224.694574) scale(0.1 -0.1)">
       <use xlink:href="#DejaVuSans-31"/>
       <use xlink:href="#DejaVuSans-2e" x="63.623047"/>
       <use xlink:href="#DejaVuSans-30" x="95.410156"/>
      </g>
     </g>
    </g>
    <g id="ytick_3">
     <g id="text_13">
      <!-- 1.5 -->
      <g style="fill: #262626" transform="translate(34.696875 180.465501) scale(0.1 -0.1)">
       <use xlink:href="#DejaVuSans-31"/>
       <use xlink:href="#DejaVuSans-2e" x="63.623047"/>
       <use xlink:href="#DejaVuSans-35" x="95.410156"/>
      </g>
     </g>
    </g>
    <g id="ytick_4">
     <g id="text_14">
      <!-- 2.0 -->
      <g style="fill: #262626" transform="translate(34.696875 136.236428) scale(0.1 -0.1)">
       <use xlink:href="#DejaVuSans-32"/>
       <use xlink:href="#DejaVuSans-2e" x="63.623047"/>
       <use xlink:href="#DejaVuSans-30" x="95.410156"/>
      </g>
     </g>
    </g>
    <g id="ytick_5">
     <g id="text_15">
      <!-- 2.5 -->
      <g style="fill: #262626" transform="translate(34.696875 92.007355) scale(0.1 -0.1)">
       <use xlink:href="#DejaVuSans-32"/>
       <use xlink:href="#DejaVuSans-2e" x="63.623047"/>
       <use xlink:href="#DejaVuSans-35" x="95.410156"/>
      </g>
     </g>
    </g>
    <g id="ytick_6">
     <g id="text_16">
      <!-- 3.0 -->
      <g style="fill: #262626" transform="translate(34.696875 47.778283) scale(0.1 -0.1)">
       <defs>
        <path id="DejaVuSans-33" d="M 2597 2516 
Q 3050 2419 3304 2112 
Q 3559 1806 3559 1356 
Q 3559 666 3084 287 
Q 2609 -91 1734 -91 
Q 1441 -91 1130 -33 
Q 819 25 488 141 
L 488 750 
Q 750 597 1062 519 
Q 1375 441 1716 441 
Q 2309 441 2620 675 
Q 2931 909 2931 1356 
Q 2931 1769 2642 2001 
Q 2353 2234 1838 2234 
L 1294 2234 
L 1294 2753 
L 1863 2753 
Q 2328 2753 2575 2939 
Q 2822 3125 2822 3475 
Q 2822 3834 2567 4026 
Q 2313 4219 1838 4219 
Q 1578 4219 1281 4162 
Q 984 4106 628 3988 
L 628 4550 
Q 988 4650 1302 4700 
Q 1616 4750 1894 4750 
Q 2613 4750 3031 4423 
Q 3450 4097 3450 3541 
Q 3450 3153 3228 2886 
Q 3006 2619 2597 2516 
z
" transform="scale(0.015625)"/>
       </defs>
       <use xlink:href="#DejaVuSans-33"/>
       <use xlink:href="#DejaVuSans-2e" x="63.623047"/>
       <use xlink:href="#DejaVuSans-30" x="95.410156"/>
      </g>
     </g>
    </g>
   </g>
   <g id="line2d_1">
    <path d="M 73.832727 57.990198 
L 74.035763 53.568 
L 74.238799 110.114119 
L 74.441835 116.422541 
L 74.644871 118.344238 
L 75.253979 119.512642 
L 75.457015 119.727988 
L 75.863087 120.316843 
L 76.066123 120.691194 
L 76.269159 121.371142 
L 76.472195 121.471251 
L 76.878267 123.542101 
L 77.487375 127.250887 
L 77.690411 127.556655 
L 78.705591 135.481753 
L 78.908627 135.670689 
L 79.517735 139.832732 
L 79.720771 140.341224 
L 79.923807 141.515481 
L 80.126843 141.606425 
L 80.938987 147.639451 
L 81.142023 148.561709 
L 81.548095 152.079761 
L 81.751131 151.506485 
L 82.157203 151.265771 
L 82.360239 154.4681 
L 82.766311 156.501039 
L 82.969347 158.77622 
L 83.172383 157.099973 
L 83.375419 158.095976 
L 83.578455 160.849001 
L 83.781491 160.83631 
L 84.187563 163.912527 
L 84.593635 157.702143 
L 84.796671 156.811969 
L 84.999707 157.951048 
L 85.405779 170.816933 
L 85.608815 171.192506 
L 86.420959 179.205534 
L 86.623995 172.081949 
L 86.827031 175.546971 
L 87.030067 183.364554 
L 87.233103 185.291522 
L 87.639174 191.840062 
L 87.84221 192.890656 
L 88.045246 184.633597 
L 88.248282 185.350798 
L 88.654354 172.256788 
L 88.85739 188.561754 
L 89.669534 209.48842 
L 89.87257 212.600743 
L 90.075606 209.489387 
L 90.481678 217.043545 
L 90.684714 215.775356 
L 90.88775 211.440064 
L 91.090786 215.513655 
L 91.496858 215.485926 
L 91.699894 221.412387 
L 91.90293 222.242648 
L 92.105966 217.510385 
L 92.309002 218.560583 
L 92.715074 224.645404 
L 92.91811 223.765422 
L 93.121146 226.498308 
L 93.324182 217.041528 
L 93.527218 220.449773 
L 93.730254 221.341025 
L 93.93329 223.259352 
L 94.339362 229.100408 
L 94.542398 232.436544 
L 94.94847 221.168033 
L 95.151506 225.823104 
L 95.354542 237.97934 
L 95.557578 236.234827 
L 95.96365 243.996795 
L 96.166686 241.713903 
L 96.572758 247.374174 
L 96.97883 240.010256 
L 97.181866 227.695607 
L 97.384902 222.799141 
L 97.99401 250.562736 
L 98.400082 258.967115 
L 98.603118 260.12047 
L 98.806154 259.631994 
L 99.00919 259.548047 
L 99.212226 259.23329 
L 99.415262 256.262593 
L 99.618298 261.003427 
L 100.02437 257.339404 
L 100.227406 261.619095 
L 100.633478 255.522486 
L 100.836514 247.383223 
L 101.03955 244.984602 
L 101.242586 249.36548 
L 101.445622 248.272885 
L 101.648658 251.052376 
L 102.05473 263.532785 
L 102.257766 263.800353 
L 102.460802 265.495522 
L 102.663838 265.680809 
L 102.866874 270.12366 
L 103.06991 270.228718 
L 103.272946 269.883417 
L 103.475982 270.579705 
L 103.679018 268.690046 
L 104.08509 273.525293 
L 104.288126 269.548195 
L 104.694198 271.044001 
L 104.897233 272.877689 
L 105.100269 273.441927 
L 105.506341 276.494671 
L 105.709377 276.517741 
L 105.912413 273.995596 
L 106.115449 274.986513 
L 106.318485 276.696363 
L 106.521521 276.369518 
L 106.724557 275.161752 
L 106.927593 275.456312 
L 107.130629 276.765019 
L 107.333665 277.26227 
L 107.536701 277.089445 
L 107.942773 278.32407 
L 108.145809 279.155717 
L 108.348845 277.742302 
L 108.551881 278.166072 
L 108.754917 279.642879 
L 108.957953 280.083548 
L 109.160989 277.746456 
L 109.364025 272.683217 
L 109.567061 261.117128 
L 109.770097 217.783349 
L 109.973133 213.218439 
L 110.176169 240.767307 
L 110.785277 269.477754 
L 111.597421 277.883409 
L 111.800457 278.627491 
L 112.003493 280.465855 
L 112.206529 280.574963 
L 112.409565 281.596247 
L 112.612601 281.378126 
L 112.815637 280.653212 
L 113.018673 281.670008 
L 113.221709 281.34018 
L 113.424745 282.305773 
L 113.627781 282.514528 
L 113.830817 281.836084 
L 114.033853 282.390125 
L 114.236889 281.247114 
L 114.439925 281.1382 
L 114.845997 282.012413 
L 115.049033 283.593466 
L 115.252069 283.495304 
L 115.658141 284.146085 
L 115.861177 284.087122 
L 116.064213 284.412412 
L 116.267249 284.004262 
L 116.470285 284.386889 
L 116.876357 277.196637 
L 117.079393 279.926001 
L 117.282429 279.672567 
L 117.485465 278.447266 
L 118.500645 285.707614 
L 118.703681 285.530019 
L 118.906717 285.681425 
L 119.109753 284.264267 
L 119.312789 281.713882 
L 119.515825 281.708928 
L 120.124933 267.802186 
L 120.531005 281.954013 
L 120.937077 286.064122 
L 121.343149 284.634961 
L 121.546185 285.148875 
L 121.749221 286.699536 
L 121.952257 286.740066 
L 122.155293 287.209682 
L 122.561364 286.698926 
L 122.7644 287.726319 
L 122.967436 287.694926 
L 123.170472 288.649317 
L 123.373508 287.854433 
L 123.576544 287.658785 
L 123.77958 288.026436 
L 123.982616 287.88633 
L 124.185652 288.204669 
L 124.388688 288.772336 
L 124.591724 288.848445 
L 124.997796 288.484527 
L 125.200832 288.801073 
L 125.403868 288.30674 
L 125.606904 288.389592 
L 125.80994 287.711191 
L 126.216012 288.068653 
L 126.419048 287.844113 
L 126.622084 288.376457 
L 126.82512 288.532332 
L 127.028156 287.895207 
L 127.231192 281.076698 
L 127.434228 279.174141 
L 127.637264 283.694214 
L 127.8403 284.368856 
L 128.449408 288.447492 
L 128.652444 289.285881 
L 128.85548 289.484915 
L 129.058516 288.803983 
L 129.261552 288.91448 
L 129.667624 289.982456 
L 129.87066 289.158926 
L 130.276732 289.80004 
L 131.088876 288.534597 
L 131.494948 289.721642 
L 131.697984 289.818394 
L 131.90102 289.440545 
L 132.104056 290.006387 
L 132.307092 289.669482 
L 132.713164 289.42172 
L 132.9162 289.587275 
L 133.119236 290.034807 
L 133.322272 289.81818 
L 133.525308 289.939865 
L 133.728344 289.530308 
L 133.93138 289.433235 
L 134.337452 289.831901 
L 134.540488 289.808342 
L 134.94656 290.72061 
L 135.149596 291.012751 
L 135.352632 290.996047 
L 135.555668 290.484216 
L 135.758704 290.500995 
L 135.96174 290.941692 
L 136.164776 291.025624 
L 136.367812 290.533321 
L 136.570848 290.689076 
L 136.773884 290.338996 
L 137.179956 291.180465 
L 138.195136 291.205941 
L 138.398172 290.913187 
L 138.601208 290.866165 
L 138.804244 291.161351 
L 139.00728 290.929771 
L 139.210316 289.852543 
L 139.819424 284.502421 
L 140.225495 287.789993 
L 140.834603 291.065554 
L 141.240675 291.405345 
L 141.646747 291.654907 
L 141.849783 291.952992 
L 142.052819 291.540681 
L 142.458891 291.309607 
L 142.864963 291.451023 
L 143.067999 291.474444 
L 143.271035 291.896951 
L 143.474071 292.003946 
L 143.677107 291.971614 
L 143.880143 291.275102 
L 144.286215 291.06718 
L 144.489251 290.258497 
L 144.692287 290.179103 
L 145.301395 291.286516 
L 145.504431 291.043616 
L 145.707467 290.613159 
L 146.113539 288.576039 
L 146.316575 288.660105 
L 146.519611 289.690309 
L 146.722647 289.745291 
L 146.925683 290.440306 
L 147.128719 288.73046 
L 147.331755 288.05896 
L 147.534791 285.262601 
L 148.143899 271.123979 
L 148.346935 269.858528 
L 148.549971 271.71864 
L 148.753007 279.103418 
L 148.956043 277.978697 
L 149.362115 284.607273 
L 149.768187 288.893456 
L 150.174259 290.822826 
L 150.377295 291.392801 
L 150.580331 291.587942 
L 150.986403 291.404116 
L 151.189439 291.151282 
L 151.392475 291.244752 
L 151.595511 291.559023 
L 152.001583 291.678576 
L 152.204619 291.940227 
L 152.813727 292.06688 
L 153.016763 292.451168 
L 153.422835 292.099536 
L 153.625871 291.962289 
L 153.828907 291.993853 
L 154.031943 291.817332 
L 154.234979 291.812522 
L 154.438015 291.68106 
L 154.641051 291.939347 
L 154.844087 291.610855 
L 155.453195 292.200307 
L 156.062303 291.584692 
L 156.265339 291.684871 
L 156.468375 292.518192 
L 156.671411 292.656988 
L 156.874447 292.2915 
L 157.077483 292.360049 
L 157.280519 292.297633 
L 157.483554 291.952316 
L 157.68659 292.655319 
L 158.092662 292.794532 
L 158.295698 292.319902 
L 158.70177 290.45638 
L 158.904806 290.727735 
L 159.107842 291.624834 
L 159.513914 292.217167 
L 159.71695 292.193824 
L 160.123022 293.002992 
L 160.529094 292.815289 
L 160.73213 293.053383 
L 160.935166 293.108334 
L 161.74731 292.823077 
L 161.950346 292.95434 
L 162.153382 293.287393 
L 162.559454 292.258322 
L 162.76249 292.389326 
L 162.965526 292.377523 
L 163.168562 292.18386 
L 163.371598 292.717535 
L 163.574634 292.785275 
L 163.77767 293.023982 
L 163.980706 293.083558 
L 164.183742 292.908521 
L 164.386778 292.308435 
L 164.589814 292.483328 
L 164.79285 293.024098 
L 165.401958 292.980587 
L 165.604994 293.160665 
L 165.80803 293.162869 
L 166.214102 292.604235 
L 166.620174 292.005023 
L 167.026246 277.599601 
L 167.229282 284.597494 
L 167.432318 275.603003 
L 167.83839 285.969321 
L 168.447498 290.47112 
L 168.650534 291.431672 
L 168.85357 291.554318 
L 169.056606 292.005622 
L 169.462678 292.01993 
L 169.86875 292.892888 
L 170.071786 293.116997 
L 170.477858 292.910659 
L 170.88393 293.139744 
L 171.086966 293.290118 
L 171.290002 293.182021 
L 171.493038 293.231901 
L 171.89911 293.065831 
L 172.102146 293.070314 
L 172.305182 293.289681 
L 173.117326 293.3951 
L 173.320362 293.651508 
L 173.726434 293.390284 
L 173.92947 293.624284 
L 174.538578 293.198851 
L 175.147685 293.612073 
L 175.350721 293.357709 
L 175.553757 292.898084 
L 175.756793 293.132928 
L 175.959829 293.191297 
L 176.162865 293.406206 
L 176.568937 293.0435 
L 176.771973 293.341066 
L 176.975009 293.379621 
L 177.381081 293.74682 
L 177.990189 293.731831 
L 178.193225 293.657594 
L 178.802333 293.962745 
L 179.614477 293.008542 
L 180.020549 293.802851 
L 180.223585 293.456044 
L 180.832693 290.597799 
L 181.035729 289.696182 
L 181.238765 290.594275 
L 181.441801 290.066078 
L 181.644837 290.233077 
L 182.050909 292.788397 
L 182.253945 293.165181 
L 182.456981 293.258241 
L 182.660017 293.657441 
L 182.863053 293.716256 
L 183.066089 293.574288 
L 183.269125 293.724792 
L 183.472161 293.591054 
L 184.893413 293.864264 
L 185.096449 293.72826 
L 185.299485 293.804511 
L 185.502521 293.673229 
L 185.705557 294.108066 
L 185.908593 293.809251 
L 186.517701 293.874572 
L 186.923773 293.791297 
L 187.126809 293.942653 
L 187.329845 293.898101 
L 187.532881 294.1279 
L 187.938953 293.902048 
L 188.141989 294.060964 
L 188.345025 293.947185 
L 188.751097 294.01883 
L 189.157169 294.136695 
L 189.360205 294.258798 
L 189.563241 294.054867 
L 189.766277 294.266902 
L 189.969313 293.877307 
L 190.375385 293.778818 
L 190.578421 293.993472 
L 190.781457 293.910423 
L 190.984493 293.461241 
L 191.390565 293.597439 
L 191.593601 293.461215 
L 191.999673 294.165469 
L 192.811816 293.695313 
L 193.420924 294.302421 
L 193.62396 293.875744 
L 193.826996 293.80849 
L 194.030032 294.147944 
L 194.233068 294.038426 
L 194.436104 294.093129 
L 194.842176 293.925596 
L 195.045212 293.981367 
L 195.248248 293.914503 
L 195.65432 294.408471 
L 195.857356 294.395229 
L 196.060392 293.965259 
L 196.263428 294.049542 
L 196.466464 294.337462 
L 196.6695 294.171721 
L 197.075572 294.459511 
L 197.278608 294.119911 
L 197.68468 294.260203 
L 197.887716 294.287779 
L 198.090752 294.072383 
L 198.293788 294.336013 
L 198.496824 294.140147 
L 198.69986 294.153279 
L 198.902896 293.711379 
L 199.105932 293.867353 
L 199.308968 294.25404 
L 199.71504 294.355973 
L 199.918076 294.369132 
L 200.121112 294.173323 
L 200.527184 294.358615 
L 200.73022 294.183624 
L 200.933256 294.21769 
L 201.136292 294.402768 
L 201.339328 294.151674 
L 201.7454 294.448373 
L 202.151472 294.473523 
L 202.354508 294.664153 
L 202.557544 294.214334 
L 202.963616 294.574287 
L 203.572724 294.381959 
L 203.978796 294.733913 
L 204.384868 294.511264 
L 204.587904 294.563169 
L 204.79094 294.39766 
L 204.993976 294.500149 
L 205.197012 294.356669 
L 205.400048 294.385505 
L 205.603084 294.569945 
L 205.80612 294.506666 
L 206.212192 294.752406 
L 206.8213 293.984978 
L 207.024336 293.929649 
L 207.430408 294.255461 
L 207.83648 294.000429 
L 208.242552 291.502392 
L 208.648624 293.022217 
L 209.054696 293.945164 
L 209.257732 293.625001 
L 209.460768 293.682172 
L 209.86684 294.288029 
L 210.475947 294.560985 
L 210.678983 294.321755 
L 210.882019 294.503292 
L 211.694163 294.300667 
L 211.897199 294.458478 
L 212.100235 294.403929 
L 212.912379 294.795699 
L 213.115415 294.519169 
L 213.521487 294.780967 
L 213.927559 294.553719 
L 214.333631 294.56899 
L 214.536667 294.416492 
L 214.942739 294.701186 
L 215.348811 294.233141 
L 215.754883 294.559747 
L 216.160955 293.947898 
L 216.567027 294.411597 
L 216.770063 294.566444 
L 216.973099 294.314499 
L 217.176135 294.52711 
L 217.379171 294.245151 
L 217.785243 294.362582 
L 218.191315 293.491834 
L 218.597387 293.85632 
L 219.003459 294.389991 
L 219.206495 294.432262 
L 219.612567 294.702373 
L 220.424711 294.534315 
L 220.627747 294.068928 
L 220.830783 294.431044 
L 221.236855 294.570142 
L 221.439891 294.749841 
L 222.048999 294.740981 
L 222.252035 294.536137 
L 222.658107 294.781628 
L 223.064179 294.252848 
L 223.470251 294.269599 
L 223.673287 294.58886 
L 223.876323 294.700697 
L 224.485431 294.618885 
L 224.688467 294.806458 
L 225.094539 294.787214 
L 225.297575 294.875556 
L 225.703647 294.749924 
L 226.109719 294.854355 
L 226.312755 294.989812 
L 226.515791 294.880882 
L 226.718827 294.487269 
L 227.124899 294.849457 
L 227.327935 294.909588 
L 227.734006 294.629606 
L 228.343114 294.89101 
L 228.54615 294.58921 
L 228.749186 294.52535 
L 228.952222 294.589049 
L 229.155258 294.794456 
L 229.56133 294.793525 
L 229.764366 294.58431 
L 230.170438 294.928615 
L 230.373474 294.647667 
L 230.57651 294.752101 
L 230.982582 294.741458 
L 231.185618 294.799279 
L 231.59169 294.702775 
L 232.403834 294.785773 
L 232.809906 294.753807 
L 233.215978 295.002512 
L 233.62205 294.915346 
L 233.825086 294.989422 
L 234.028122 294.902008 
L 234.231158 295.134634 
L 234.434194 294.968287 
L 234.63723 295.017622 
L 235.449374 294.789007 
L 235.855446 294.919638 
L 236.058482 294.981708 
L 236.464554 294.883976 
L 236.66759 294.99659 
L 237.479734 294.91181 
L 237.68277 294.758886 
L 238.291878 294.874686 
L 238.69795 294.854762 
L 239.104022 294.967278 
L 239.510094 295.013332 
L 240.119202 294.670828 
L 240.525274 295.026649 
L 240.72831 295.144233 
L 240.931346 294.913402 
L 241.134382 294.956517 
L 241.540454 294.740584 
L 241.74349 294.74509 
L 242.149562 295.154129 
L 242.961706 294.857704 
L 243.367778 295.023036 
L 243.570814 294.865521 
L 243.77385 294.947534 
L 244.179922 294.832011 
L 244.585994 294.988742 
L 244.78903 294.93669 
L 245.195101 295.179676 
L 245.398137 294.996141 
L 245.601173 295.002319 
L 245.804209 294.81887 
L 246.007245 295.064601 
L 246.413317 294.799814 
L 246.819389 295.049205 
L 247.631533 294.93454 
L 248.443677 294.934772 
L 248.646713 295.146981 
L 249.052785 295.065512 
L 249.255821 295.139444 
L 249.458857 294.994393 
L 249.661893 295.130126 
L 249.864929 295.080806 
L 250.067965 294.832076 
L 250.474037 294.840453 
L 250.677073 294.790392 
L 250.880109 295.07482 
L 251.083145 295.041514 
L 251.286181 294.795514 
L 251.895289 294.992738 
L 252.098325 294.899576 
L 252.504397 295.048706 
L 252.707433 294.872288 
L 252.910469 295.143466 
L 253.316541 294.865251 
L 253.722613 295.101011 
L 253.925649 294.953682 
L 254.940829 295.147542 
L 255.143865 294.87136 
L 256.159045 294.980095 
L 256.362081 295.082937 
L 256.565117 295.018103 
L 256.768153 295.077442 
L 256.971189 294.887871 
L 257.986369 295.061158 
L 259.204585 295.193387 
L 259.407621 295.0733 
L 259.813693 295.134286 
L 260.219765 295.014867 
L 260.625837 295.194367 
L 261.437981 294.901296 
L 261.641017 295.096994 
L 263.874412 295.027578 
L 264.077448 295.170307 
L 265.4987 295.043877 
L 265.701736 294.952183 
L 266.310844 295.22251 
L 266.716916 295.002871 
L 266.919952 295.183459 
L 267.122988 295.087175 
L 267.52906 295.192087 
L 267.935132 295.120542 
L 268.138168 295.211014 
L 268.341204 295.122037 
L 268.54424 295.276223 
L 269.153348 295.061391 
L 269.356384 295.263323 
L 269.55942 295.258069 
L 269.762456 295.129274 
L 269.965492 295.161241 
L 270.168528 294.985474 
L 270.980672 295.141155 
L 271.183708 295.088794 
L 271.58978 295.292336 
L 271.995852 295.106933 
L 272.401924 295.124532 
L 272.60496 295.169977 
L 272.807996 295.353495 
L 274.026212 295.20192 
L 274.229248 295.033663 
L 274.838356 295.098352 
L 275.244428 294.791944 
L 275.447464 294.856892 
L 275.6505 294.612974 
L 275.853536 294.938735 
L 276.259608 295.101077 
L 276.462644 294.973779 
L 276.868716 295.16459 
L 279.102112 295.12156 
L 279.305148 295.197338 
L 279.914256 295.041147 
L 280.320327 295.250345 
L 280.726399 295.232922 
L 280.929435 295.276658 
L 281.335507 295.199176 
L 282.147651 295.122288 
L 282.756759 295.205831 
L 283.162831 295.132182 
L 283.568903 295.109193 
L 283.771939 295.245895 
L 286.208371 295.115716 
L 286.614443 295.256968 
L 286.817479 295.04704 
L 287.223551 295.309487 
L 287.629623 295.071213 
L 289.253911 295.318954 
L 289.659983 295.229007 
L 289.863019 295.329358 
L 290.878199 295.146399 
L 291.893379 295.072503 
L 292.096415 295.214708 
L 292.705523 295.174222 
L 293.111595 295.17091 
L 293.314631 295.141122 
L 293.517667 295.251327 
L 293.923739 295.246663 
L 294.329811 295.235676 
L 294.532847 295.24825 
L 294.735883 295.13752 
L 294.938919 295.190151 
L 295.141955 295.125785 
L 295.344991 295.248965 
L 296.360171 295.190016 
L 296.766243 295.281305 
L 297.172315 295.224599 
L 297.984458 295.2493 
L 298.39053 295.295991 
L 299.608746 295.266562 
L 299.811782 295.400102 
L 300.42089 295.189515 
L 301.029998 295.217852 
L 301.639106 295.280015 
L 302.248214 295.238931 
L 302.654286 295.30798 
L 303.060358 295.180312 
L 303.263394 295.417341 
L 304.075538 295.209841 
L 304.48161 295.201289 
L 305.090718 295.346857 
L 305.699826 295.307696 
L 305.902862 295.391754 
L 306.51197 295.171119 
L 306.918042 295.331844 
L 307.730186 295.335067 
L 308.136258 295.150524 
L 308.339294 295.227418 
L 308.54233 295.135204 
L 309.151438 295.341 
L 309.760546 295.187528 
L 310.166618 295.273021 
L 312.806086 295.238661 
L 313.61823 295.332518 
L 314.024302 295.062208 
L 314.430374 295.282327 
L 315.242517 295.315374 
L 315.648589 295.194148 
L 315.851625 295.333504 
L 317.272877 295.345946 
L 317.475913 295.415597 
L 318.085021 295.27061 
L 318.288057 295.34127 
L 318.897165 295.224358 
L 319.303237 295.356709 
L 319.709309 295.33358 
L 319.912345 295.39593 
L 320.318417 295.25502 
L 321.942705 295.290513 
L 322.145741 295.216532 
L 322.348777 295.325403 
L 322.754849 295.322721 
L 322.957885 295.458006 
L 323.160921 295.378387 
L 323.566993 295.438617 
L 323.973065 295.29811 
L 324.176101 295.39497 
L 324.379137 295.281803 
L 324.988245 295.28271 
L 325.191281 295.254776 
L 325.394317 295.344258 
L 325.597353 295.275417 
L 326.003425 295.314683 
L 327.424677 295.32117 
L 327.830749 295.411709 
L 328.642893 295.182013 
L 329.048965 295.333103 
L 329.861109 295.329877 
L 332.094505 295.349409 
L 332.297541 295.411894 
L 332.703612 295.353759 
L 333.921828 295.214763 
L 334.124864 295.417686 
L 336.35826 295.323397 
L 336.764332 295.339732 
L 337.170404 295.330485 
L 340.012908 295.284098 
L 340.41898 295.231988 
L 340.622016 295.366416 
L 341.231124 295.369198 
L 341.637196 295.345752 
L 342.44934 295.268518 
L 342.855412 295.375797 
L 343.058448 295.282261 
L 343.46452 295.311068 
L 344.276664 295.344392 
L 347.119168 295.342595 
L 347.52524 295.304393 
L 347.931312 295.401627 
L 348.54042 295.359494 
L 353.210247 295.375256 
L 353.413283 295.305863 
L 353.819355 295.321874 
L 355.443643 295.413513 
L 355.849715 295.315687 
L 357.474003 295.327265 
L 357.677039 295.278512 
L 358.286147 295.443899 
L 359.910435 295.337015 
L 360.316507 295.433321 
L 361.331687 295.394839 
L 362.549903 295.405066 
L 362.752939 295.336757 
L 362.955975 295.445924 
L 363.768119 295.25827 
L 363.971155 295.418558 
L 364.377227 295.364327 
L 364.783299 295.383768 
L 365.189371 295.308979 
L 365.595443 295.366364 
L 366.610623 295.449127 
L 367.219731 295.38422 
L 368.23491 295.488 
L 368.640982 295.371727 
L 369.25009 295.395208 
L 369.453126 295.281427 
L 370.062234 295.404182 
L 370.26527 295.305219 
L 370.671342 295.392128 
L 371.077414 295.358858 
L 371.686522 295.368391 
L 372.498666 295.437533 
L 372.701702 295.287217 
L 373.107774 295.412978 
L 373.513846 295.290203 
L 374.32599 295.407346 
L 374.529026 295.320154 
L 374.732062 295.389586 
L 375.138134 295.305105 
L 375.544206 295.414591 
L 375.950278 295.313639 
L 376.559386 295.431327 
L 376.965458 295.338888 
L 377.168494 295.435155 
L 377.574566 295.285783 
L 379.198854 295.434633 
L 379.604926 295.334499 
L 380.010998 295.401768 
L 380.214034 295.351002 
L 380.620106 295.399222 
L 381.43225 295.374847 
L 382.244394 295.360298 
L 386.508149 295.381586 
L 387.117257 295.452792 
L 387.523329 295.342986 
L 388.741545 295.384594 
L 389.350653 295.369941 
L 389.756725 295.278258 
L 390.162797 295.410552 
L 390.974941 295.308779 
L 391.381013 295.364271 
L 392.396193 295.350555 
L 393.005301 295.390123 
L 393.411373 295.396678 
L 393.817445 295.344329 
L 394.223517 295.412025 
L 394.629589 295.350913 
L 395.035661 295.356764 
L 395.644769 295.334091 
L 396.050841 295.411364 
L 396.456913 295.279161 
L 396.862985 295.444846 
L 397.269057 295.280022 
L 397.675129 295.351872 
L 398.487273 295.360252 
L 398.487273 295.360252 
" clip-path="url(#p748788ca05)" style="fill: none; stroke: #1f77b4; stroke-width: 0.5; stroke-linecap: round"/>
   </g>
   <g id="patch_3">
    <path d="M 57.6 307.584 
L 57.6 41.472 
" style="fill: none; stroke: #ffffff; stroke-width: 0.8; stroke-linejoin: miter; stroke-linecap: square"/>
   </g>
   <g id="patch_4">
    <path d="M 414.72 307.584 
L 414.72 41.472 
" style="fill: none; stroke: #ffffff; stroke-width: 0.8; stroke-linejoin: miter; stroke-linecap: square"/>
   </g>
   <g id="patch_5">
    <path d="M 57.6 307.584 
L 414.72 307.584 
" style="fill: none; stroke: #ffffff; stroke-width: 0.8; stroke-linejoin: miter; stroke-linecap: square"/>
   </g>
   <g id="patch_6">
    <path d="M 57.6 41.472 
L 414.72 41.472 
" style="fill: none; stroke: #ffffff; stroke-width: 0.8; stroke-linejoin: miter; stroke-linecap: square"/>
   </g>
   <g id="text_17">
    <!-- loss terhadap epoch -->
    <g style="fill: #262626" transform="translate(175.303125 35.472) scale(0.12 -0.12)">
     <defs>
      <path id="DejaVuSans-6c" d="M 603 4863 
L 1178 4863 
L 1178 0 
L 603 0 
L 603 4863 
z
" transform="scale(0.015625)"/>
      <path id="DejaVuSans-73" d="M 2834 3397 
L 2834 2853 
Q 2591 2978 2328 3040 
Q 2066 3103 1784 3103 
Q 1356 3103 1142 2972 
Q 928 2841 928 2578 
Q 928 2378 1081 2264 
Q 1234 2150 1697 2047 
L 1894 2003 
Q 2506 1872 2764 1633 
Q 3022 1394 3022 966 
Q 3022 478 2636 193 
Q 2250 -91 1575 -91 
Q 1294 -91 989 -36 
Q 684 19 347 128 
L 347 722 
Q 666 556 975 473 
Q 1284 391 1588 391 
Q 1994 391 2212 530 
Q 2431 669 2431 922 
Q 2431 1156 2273 1281 
Q 2116 1406 1581 1522 
L 1381 1569 
Q 847 1681 609 1914 
Q 372 2147 372 2553 
Q 372 3047 722 3315 
Q 1072 3584 1716 3584 
Q 2034 3584 2315 3537 
Q 2597 3491 2834 3397 
z
" transform="scale(0.015625)"/>
      <path id="DejaVuSans-20" transform="scale(0.015625)"/>
      <path id="DejaVuSans-74" d="M 1172 4494 
L 1172 3500 
L 2356 3500 
L 2356 3053 
L 1172 3053 
L 1172 1153 
Q 1172 725 1289 603 
Q 1406 481 1766 481 
L 2356 481 
L 2356 0 
L 1766 0 
Q 1100 0 847 248 
Q 594 497 594 1153 
L 594 3053 
L 172 3053 
L 172 3500 
L 594 3500 
L 594 4494 
L 1172 4494 
z
" transform="scale(0.015625)"/>
      <path id="DejaVuSans-72" d="M 2631 2963 
Q 2534 3019 2420 3045 
Q 2306 3072 2169 3072 
Q 1681 3072 1420 2755 
Q 1159 2438 1159 1844 
L 1159 0 
L 581 0 
L 581 3500 
L 1159 3500 
L 1159 2956 
Q 1341 3275 1631 3429 
Q 1922 3584 2338 3584 
Q 2397 3584 2469 3576 
Q 2541 3569 2628 3553 
L 2631 2963 
z
" transform="scale(0.015625)"/>
      <path id="DejaVuSans-61" d="M 2194 1759 
Q 1497 1759 1228 1600 
Q 959 1441 959 1056 
Q 959 750 1161 570 
Q 1363 391 1709 391 
Q 2188 391 2477 730 
Q 2766 1069 2766 1631 
L 2766 1759 
L 2194 1759 
z
M 3341 1997 
L 3341 0 
L 2766 0 
L 2766 531 
Q 2569 213 2275 61 
Q 1981 -91 1556 -91 
Q 1019 -91 701 211 
Q 384 513 384 1019 
Q 384 1609 779 1909 
Q 1175 2209 1959 2209 
L 2766 2209 
L 2766 2266 
Q 2766 2663 2505 2880 
Q 2244 3097 1772 3097 
Q 1472 3097 1187 3025 
Q 903 2953 641 2809 
L 641 3341 
Q 956 3463 1253 3523 
Q 1550 3584 1831 3584 
Q 2591 3584 2966 3190 
Q 3341 2797 3341 1997 
z
" transform="scale(0.015625)"/>
      <path id="DejaVuSans-64" d="M 2906 2969 
L 2906 4863 
L 3481 4863 
L 3481 0 
L 2906 0 
L 2906 525 
Q 2725 213 2448 61 
Q 2172 -91 1784 -91 
Q 1150 -91 751 415 
Q 353 922 353 1747 
Q 353 2572 751 3078 
Q 1150 3584 1784 3584 
Q 2172 3584 2448 3432 
Q 2725 3281 2906 2969 
z
M 947 1747 
Q 947 1113 1208 752 
Q 1469 391 1925 391 
Q 2381 391 2643 752 
Q 2906 1113 2906 1747 
Q 2906 2381 2643 2742 
Q 2381 3103 1925 3103 
Q 1469 3103 1208 2742 
Q 947 2381 947 1747 
z
" transform="scale(0.015625)"/>
     </defs>
     <use xlink:href="#DejaVuSans-6c"/>
     <use xlink:href="#DejaVuSans-6f" x="27.783203"/>
     <use xlink:href="#DejaVuSans-73" x="88.964844"/>
     <use xlink:href="#DejaVuSans-73" x="141.064453"/>
     <use xlink:href="#DejaVuSans-20" x="193.164062"/>
     <use xlink:href="#DejaVuSans-74" x="224.951172"/>
     <use xlink:href="#DejaVuSans-65" x="264.160156"/>
     <use xlink:href="#DejaVuSans-72" x="325.683594"/>
     <use xlink:href="#DejaVuSans-68" x="365.046875"/>
     <use xlink:href="#DejaVuSans-61" x="428.425781"/>
     <use xlink:href="#DejaVuSans-64" x="489.705078"/>
     <use xlink:href="#DejaVuSans-61" x="553.181641"/>
     <use xlink:href="#DejaVuSans-70" x="614.460938"/>
     <use xlink:href="#DejaVuSans-20" x="677.9375"/>
     <use xlink:href="#DejaVuSans-65" x="709.724609"/>
     <use xlink:href="#DejaVuSans-70" x="771.248047"/>
     <use xlink:href="#DejaVuSans-6f" x="834.724609"/>
     <use xlink:href="#DejaVuSans-63" x="895.90625"/>
     <use xlink:href="#DejaVuSans-68" x="950.886719"/>
    </g>
   </g>
   <g id="legend_1">
    <g id="patch_7">
     <path d="M 242.360625 64.42825 
L 407.72 64.42825 
Q 409.72 64.42825 409.72 62.42825 
L 409.72 48.472 
Q 409.72 46.472 407.72 46.472 
L 242.360625 46.472 
Q 240.360625 46.472 240.360625 48.472 
L 240.360625 62.42825 
Q 240.360625 64.42825 242.360625 64.42825 
z
" style="fill: #eaeaf2; opacity: 0.8; stroke: #cccccc; stroke-linejoin: miter"/>
    </g>
    <g id="line2d_2">
     <path d="M 244.360625 54.570437 
L 254.360625 54.570437 
L 264.360625 54.570437 
" style="fill: none; stroke: #1f77b4; stroke-width: 0.5; stroke-linecap: round"/>
    </g>
    <g id="text_18">
     <!-- best-230/top1-0.7163_loss -->
     <g style="fill: #262626" transform="translate(272.360625 58.070437) scale(0.1 -0.1)">
      <defs>
       <path id="DejaVuSans-62" d="M 3116 1747 
Q 3116 2381 2855 2742 
Q 2594 3103 2138 3103 
Q 1681 3103 1420 2742 
Q 1159 2381 1159 1747 
Q 1159 1113 1420 752 
Q 1681 391 2138 391 
Q 2594 391 2855 752 
Q 3116 1113 3116 1747 
z
M 1159 2969 
Q 1341 3281 1617 3432 
Q 1894 3584 2278 3584 
Q 2916 3584 3314 3078 
Q 3713 2572 3713 1747 
Q 3713 922 3314 415 
Q 2916 -91 2278 -91 
Q 1894 -91 1617 61 
Q 1341 213 1159 525 
L 1159 0 
L 581 0 
L 581 4863 
L 1159 4863 
L 1159 2969 
z
" transform="scale(0.015625)"/>
       <path id="DejaVuSans-2d" d="M 313 2009 
L 1997 2009 
L 1997 1497 
L 313 1497 
L 313 2009 
z
" transform="scale(0.015625)"/>
       <path id="DejaVuSans-2f" d="M 1625 4666 
L 2156 4666 
L 531 -594 
L 0 -594 
L 1625 4666 
z
" transform="scale(0.015625)"/>
       <path id="DejaVuSans-37" d="M 525 4666 
L 3525 4666 
L 3525 4397 
L 1831 0 
L 1172 0 
L 2766 4134 
L 525 4134 
L 525 4666 
z
" transform="scale(0.015625)"/>
       <path id="DejaVuSans-5f" d="M 3263 -1063 
L 3263 -1509 
L -63 -1509 
L -63 -1063 
L 3263 -1063 
z
" transform="scale(0.015625)"/>
      </defs>
      <use xlink:href="#DejaVuSans-62"/>
      <use xlink:href="#DejaVuSans-65" x="63.476562"/>
      <use xlink:href="#DejaVuSans-73" x="125"/>
      <use xlink:href="#DejaVuSans-74" x="177.099609"/>
      <use xlink:href="#DejaVuSans-2d" x="216.308594"/>
      <use xlink:href="#DejaVuSans-32" x="252.392578"/>
      <use xlink:href="#DejaVuSans-33" x="316.015625"/>
      <use xlink:href="#DejaVuSans-30" x="379.638672"/>
      <use xlink:href="#DejaVuSans-2f" x="443.261719"/>
      <use xlink:href="#DejaVuSans-74" x="476.953125"/>
      <use xlink:href="#DejaVuSans-6f" x="516.162109"/>
      <use xlink:href="#DejaVuSans-70" x="577.34375"/>
      <use xlink:href="#DejaVuSans-31" x="640.820312"/>
      <use xlink:href="#DejaVuSans-2d" x="704.443359"/>
      <use xlink:href="#DejaVuSans-30" x="740.527344"/>
      <use xlink:href="#DejaVuSans-2e" x="804.150391"/>
      <use xlink:href="#DejaVuSans-37" x="835.9375"/>
      <use xlink:href="#DejaVuSans-31" x="899.560547"/>
      <use xlink:href="#DejaVuSans-36" x="963.183594"/>
      <use xlink:href="#DejaVuSans-33" x="1026.806641"/>
      <use xlink:href="#DejaVuSans-5f" x="1090.429688"/>
      <use xlink:href="#DejaVuSans-6c" x="1140.429688"/>
      <use xlink:href="#DejaVuSans-6f" x="1168.212891"/>
      <use xlink:href="#DejaVuSans-73" x="1229.394531"/>
      <use xlink:href="#DejaVuSans-73" x="1281.494141"/>
     </g>
    </g>
   </g>
  </g>
 </g>
 <defs>
  <clipPath id="p748788ca05">
   <rect x="57.6" y="41.472" width="357.12" height="266.112"/>
  </clipPath>
 </defs>
</svg>
