<?xml version="1.0" encoding="utf-8" standalone="no"?>
<!DOCTYPE svg PUBLIC "-//W3C//DTD SVG 1.1//EN"
  "http://www.w3.org/Graphics/SVG/1.1/DTD/svg11.dtd">
<svg xmlns:xlink="http://www.w3.org/1999/xlink" width="460.8pt" height="345.6pt" viewBox="0 0 460.8 345.6" xmlns="http://www.w3.org/2000/svg" version="1.1">
 <metadata>
  <rdf:RDF xmlns:dc="http://purl.org/dc/elements/1.1/" xmlns:cc="http://creativecommons.org/ns#" xmlns:rdf="http://www.w3.org/1999/02/22-rdf-syntax-ns#">
   <cc:Work>
    <dc:type rdf:resource="http://purl.org/dc/dcmitype/StillImage"/>
    <dc:date>2024-05-29T22:33:40.379709</dc:date>
    <dc:format>image/svg+xml</dc:format>
    <dc:creator>
     <cc:Agent>
      <dc:title>Matplotlib v3.7.2, https://matplotlib.org/</dc:title>
     </cc:Agent>
    </dc:creator>
   </cc:Work>
  </rdf:RDF>
 </metadata>
 <defs>
  <style type="text/css">*{stroke-linejoin: round; stroke-linecap: butt}</style>
 </defs>
 <g id="figure_1">
  <g id="patch_1">
   <path d="M 0 345.6 
L 460.8 345.6 
L 460.8 0 
L 0 0 
z
" style="fill: #ffffff"/>
  </g>
  <g id="axes_1">
   <g id="patch_2">
    <path d="M 57.6 307.584 
L 414.72 307.584 
L 414.72 41.472 
L 57.6 41.472 
z
" style="fill: #eaeaf2"/>
   </g>
   <g id="matplotlib.axis_1">
    <g id="xtick_1">
     <g id="text_1">
      <!-- 0 -->
      <g style="fill: #262626" transform="translate(70.448441 322.182437) scale(0.1 -0.1)">
       <defs>
        <path id="DejaVuSans-30" d="M 2034 4250 
Q 1547 4250 1301 3770 
Q 1056 3291 1056 2328 
Q 1056 1369 1301 889 
Q 1547 409 2034 409 
Q 2525 409 2770 889 
Q 3016 1369 3016 2328 
Q 3016 3291 2770 3770 
Q 2525 4250 2034 4250 
z
M 2034 4750 
Q 2819 4750 3233 4129 
Q 3647 3509 3647 2328 
Q 3647 1150 3233 529 
Q 2819 -91 2034 -91 
Q 1250 -91 836 529 
Q 422 1150 422 2328 
Q 422 3509 836 4129 
Q 1250 4750 2034 4750 
z
" transform="scale(0.015625)"/>
       </defs>
       <use xlink:href="#DejaVuSans-30"/>
      </g>
     </g>
    </g>
    <g id="xtick_2">
     <g id="text_2">
      <!-- 200 -->
      <g style="fill: #262626" transform="translate(104.693139 322.182437) scale(0.1 -0.1)">
       <defs>
        <path id="DejaVuSans-32" d="M 1228 531 
L 3431 531 
L 3431 0 
L 469 0 
L 469 531 
Q 828 903 1448 1529 
Q 2069 2156 2228 2338 
Q 2531 2678 2651 2914 
Q 2772 3150 2772 3378 
Q 2772 3750 2511 3984 
Q 2250 4219 1831 4219 
Q 1534 4219 1204 4116 
Q 875 4013 500 3803 
L 500 4441 
Q 881 4594 1212 4672 
Q 1544 4750 1819 4750 
Q 2544 4750 2975 4387 
Q 3406 4025 3406 3419 
Q 3406 3131 3298 2873 
Q 3191 2616 2906 2266 
Q 2828 2175 2409 1742 
Q 1991 1309 1228 531 
z
" transform="scale(0.015625)"/>
       </defs>
       <use xlink:href="#DejaVuSans-32"/>
       <use xlink:href="#DejaVuSans-30" x="63.623047"/>
       <use xlink:href="#DejaVuSans-30" x="127.246094"/>
      </g>
     </g>
    </g>
    <g id="xtick_3">
     <g id="text_3">
      <!-- 400 -->
      <g style="fill: #262626" transform="translate(145.300337 322.182437) scale(0.1 -0.1)">
       <defs>
        <path id="DejaVuSans-34" d="M 2419 4116 
L 825 1625 
L 2419 1625 
L 2419 4116 
z
M 2253 4666 
L 3047 4666 
L 3047 1625 
L 3713 1625 
L 3713 1100 
L 3047 1100 
L 3047 0 
L 2419 0 
L 2419 1100 
L 313 1100 
L 313 1709 
L 2253 4666 
z
" transform="scale(0.015625)"/>
       </defs>
       <use xlink:href="#DejaVuSans-34"/>
       <use xlink:href="#DejaVuSans-30" x="63.623047"/>
       <use xlink:href="#DejaVuSans-30" x="127.246094"/>
      </g>
     </g>
    </g>
    <g id="xtick_4">
     <g id="text_4">
      <!-- 600 -->
      <g style="fill: #262626" transform="translate(185.907534 322.182437) scale(0.1 -0.1)">
       <defs>
        <path id="DejaVuSans-36" d="M 2113 2584 
Q 1688 2584 1439 2293 
Q 1191 2003 1191 1497 
Q 1191 994 1439 701 
Q 1688 409 2113 409 
Q 2538 409 2786 701 
Q 3034 994 3034 1497 
Q 3034 2003 2786 2293 
Q 2538 2584 2113 2584 
z
M 3366 4563 
L 3366 3988 
Q 3128 4100 2886 4159 
Q 2644 4219 2406 4219 
Q 1781 4219 1451 3797 
Q 1122 3375 1075 2522 
Q 1259 2794 1537 2939 
Q 1816 3084 2150 3084 
Q 2853 3084 3261 2657 
Q 3669 2231 3669 1497 
Q 3669 778 3244 343 
Q 2819 -91 2113 -91 
Q 1303 -91 875 529 
Q 447 1150 447 2328 
Q 447 3434 972 4092 
Q 1497 4750 2381 4750 
Q 2619 4750 2861 4703 
Q 3103 4656 3366 4563 
z
" transform="scale(0.015625)"/>
       </defs>
       <use xlink:href="#DejaVuSans-36"/>
       <use xlink:href="#DejaVuSans-30" x="63.623047"/>
       <use xlink:href="#DejaVuSans-30" x="127.246094"/>
      </g>
     </g>
    </g>
    <g id="xtick_5">
     <g id="text_5">
      <!-- 800 -->
      <g style="fill: #262626" transform="translate(226.514732 322.182437) scale(0.1 -0.1)">
       <defs>
        <path id="DejaVuSans-38" d="M 2034 2216 
Q 1584 2216 1326 1975 
Q 1069 1734 1069 1313 
Q 1069 891 1326 650 
Q 1584 409 2034 409 
Q 2484 409 2743 651 
Q 3003 894 3003 1313 
Q 3003 1734 2745 1975 
Q 2488 2216 2034 2216 
z
M 1403 2484 
Q 997 2584 770 2862 
Q 544 3141 544 3541 
Q 544 4100 942 4425 
Q 1341 4750 2034 4750 
Q 2731 4750 3128 4425 
Q 3525 4100 3525 3541 
Q 3525 3141 3298 2862 
Q 3072 2584 2669 2484 
Q 3125 2378 3379 2068 
Q 3634 1759 3634 1313 
Q 3634 634 3220 271 
Q 2806 -91 2034 -91 
Q 1263 -91 848 271 
Q 434 634 434 1313 
Q 434 1759 690 2068 
Q 947 2378 1403 2484 
z
M 1172 3481 
Q 1172 3119 1398 2916 
Q 1625 2713 2034 2713 
Q 2441 2713 2670 2916 
Q 2900 3119 2900 3481 
Q 2900 3844 2670 4047 
Q 2441 4250 2034 4250 
Q 1625 4250 1398 4047 
Q 1172 3844 1172 3481 
z
" transform="scale(0.015625)"/>
       </defs>
       <use xlink:href="#DejaVuSans-38"/>
       <use xlink:href="#DejaVuSans-30" x="63.623047"/>
       <use xlink:href="#DejaVuSans-30" x="127.246094"/>
      </g>
     </g>
    </g>
    <g id="xtick_6">
     <g id="text_6">
      <!-- 1000 -->
      <g style="fill: #262626" transform="translate(263.94068 322.182437) scale(0.1 -0.1)">
       <defs>
        <path id="DejaVuSans-31" d="M 794 531 
L 1825 531 
L 1825 4091 
L 703 3866 
L 703 4441 
L 1819 4666 
L 2450 4666 
L 2450 531 
L 3481 531 
L 3481 0 
L 794 0 
L 794 531 
z
" transform="scale(0.015625)"/>
       </defs>
       <use xlink:href="#DejaVuSans-31"/>
       <use xlink:href="#DejaVuSans-30" x="63.623047"/>
       <use xlink:href="#DejaVuSans-30" x="127.246094"/>
       <use xlink:href="#DejaVuSans-30" x="190.869141"/>
      </g>
     </g>
    </g>
    <g id="xtick_7">
     <g id="text_7">
      <!-- 1200 -->
      <g style="fill: #262626" transform="translate(304.547877 322.182437) scale(0.1 -0.1)">
       <use xlink:href="#DejaVuSans-31"/>
       <use xlink:href="#DejaVuSans-32" x="63.623047"/>
       <use xlink:href="#DejaVuSans-30" x="127.246094"/>
       <use xlink:href="#DejaVuSans-30" x="190.869141"/>
      </g>
     </g>
    </g>
    <g id="xtick_8">
     <g id="text_8">
      <!-- 1400 -->
      <g style="fill: #262626" transform="translate(345.155075 322.182437) scale(0.1 -0.1)">
       <use xlink:href="#DejaVuSans-31"/>
       <use xlink:href="#DejaVuSans-34" x="63.623047"/>
       <use xlink:href="#DejaVuSans-30" x="127.246094"/>
       <use xlink:href="#DejaVuSans-30" x="190.869141"/>
      </g>
     </g>
    </g>
    <g id="xtick_9">
     <g id="text_9">
      <!-- 1600 -->
      <g style="fill: #262626" transform="translate(385.762273 322.182437) scale(0.1 -0.1)">
       <use xlink:href="#DejaVuSans-31"/>
       <use xlink:href="#DejaVuSans-36" x="63.623047"/>
       <use xlink:href="#DejaVuSans-30" x="127.246094"/>
       <use xlink:href="#DejaVuSans-30" x="190.869141"/>
      </g>
     </g>
    </g>
    <g id="text_10">
     <!-- epoch -->
     <g style="fill: #262626" transform="translate(220.931875 335.860562) scale(0.1 -0.1)">
      <defs>
       <path id="DejaVuSans-65" d="M 3597 1894 
L 3597 1613 
L 953 1613 
Q 991 1019 1311 708 
Q 1631 397 2203 397 
Q 2534 397 2845 478 
Q 3156 559 3463 722 
L 3463 178 
Q 3153 47 2828 -22 
Q 2503 -91 2169 -91 
Q 1331 -91 842 396 
Q 353 884 353 1716 
Q 353 2575 817 3079 
Q 1281 3584 2069 3584 
Q 2775 3584 3186 3129 
Q 3597 2675 3597 1894 
z
M 3022 2063 
Q 3016 2534 2758 2815 
Q 2500 3097 2075 3097 
Q 1594 3097 1305 2825 
Q 1016 2553 972 2059 
L 3022 2063 
z
" transform="scale(0.015625)"/>
       <path id="DejaVuSans-70" d="M 1159 525 
L 1159 -1331 
L 581 -1331 
L 581 3500 
L 1159 3500 
L 1159 2969 
Q 1341 3281 1617 3432 
Q 1894 3584 2278 3584 
Q 2916 3584 3314 3078 
Q 3713 2572 3713 1747 
Q 3713 922 3314 415 
Q 2916 -91 2278 -91 
Q 1894 -91 1617 61 
Q 1341 213 1159 525 
z
M 3116 1747 
Q 3116 2381 2855 2742 
Q 2594 3103 2138 3103 
Q 1681 3103 1420 2742 
Q 1159 2381 1159 1747 
Q 1159 1113 1420 752 
Q 1681 391 2138 391 
Q 2594 391 2855 752 
Q 3116 1113 3116 1747 
z
" transform="scale(0.015625)"/>
       <path id="DejaVuSans-6f" d="M 1959 3097 
Q 1497 3097 1228 2736 
Q 959 2375 959 1747 
Q 959 1119 1226 758 
Q 1494 397 1959 397 
Q 2419 397 2687 759 
Q 2956 1122 2956 1747 
Q 2956 2369 2687 2733 
Q 2419 3097 1959 3097 
z
M 1959 3584 
Q 2709 3584 3137 3096 
Q 3566 2609 3566 1747 
Q 3566 888 3137 398 
Q 2709 -91 1959 -91 
Q 1206 -91 779 398 
Q 353 888 353 1747 
Q 353 2609 779 3096 
Q 1206 3584 1959 3584 
z
" transform="scale(0.015625)"/>
       <path id="DejaVuSans-63" d="M 3122 3366 
L 3122 2828 
Q 2878 2963 2633 3030 
Q 2388 3097 2138 3097 
Q 1578 3097 1268 2742 
Q 959 2388 959 1747 
Q 959 1106 1268 751 
Q 1578 397 2138 397 
Q 2388 397 2633 464 
Q 2878 531 3122 666 
L 3122 134 
Q 2881 22 2623 -34 
Q 2366 -91 2075 -91 
Q 1284 -91 818 406 
Q 353 903 353 1747 
Q 353 2603 823 3093 
Q 1294 3584 2113 3584 
Q 2378 3584 2631 3529 
Q 2884 3475 3122 3366 
z
" transform="scale(0.015625)"/>
       <path id="DejaVuSans-68" d="M 3513 2113 
L 3513 0 
L 2938 0 
L 2938 2094 
Q 2938 2591 2744 2837 
Q 2550 3084 2163 3084 
Q 1697 3084 1428 2787 
Q 1159 2491 1159 1978 
L 1159 0 
L 581 0 
L 581 4863 
L 1159 4863 
L 1159 2956 
Q 1366 3272 1645 3428 
Q 1925 3584 2291 3584 
Q 2894 3584 3203 3211 
Q 3513 2838 3513 2113 
z
" transform="scale(0.015625)"/>
      </defs>
      <use xlink:href="#DejaVuSans-65"/>
      <use xlink:href="#DejaVuSans-70" x="61.523438"/>
      <use xlink:href="#DejaVuSans-6f" x="125"/>
      <use xlink:href="#DejaVuSans-63" x="186.181641"/>
      <use xlink:href="#DejaVuSans-68" x="241.162109"/>
     </g>
    </g>
   </g>
   <g id="matplotlib.axis_2">
    <g id="ytick_1">
     <g id="text_11">
      <!-- 0.0 -->
      <g style="fill: #262626" transform="translate(34.696875 299.608406) scale(0.1 -0.1)">
       <defs>
        <path id="DejaVuSans-2e" d="M 684 794 
L 1344 794 
L 1344 0 
L 684 0 
L 684 794 
z
" transform="scale(0.015625)"/>
       </defs>
       <use xlink:href="#DejaVuSans-30"/>
       <use xlink:href="#DejaVuSans-2e" x="63.623047"/>
       <use xlink:href="#DejaVuSans-30" x="95.410156"/>
      </g>
     </g>
    </g>
    <g id="ytick_2">
     <g id="text_12">
      <!-- 0.5 -->
      <g style="fill: #262626" transform="translate(34.696875 260.44807) scale(0.1 -0.1)">
       <defs>
        <path id="DejaVuSans-35" d="M 691 4666 
L 3169 4666 
L 3169 4134 
L 1269 4134 
L 1269 2991 
Q 1406 3038 1543 3061 
Q 1681 3084 1819 3084 
Q 2600 3084 3056 2656 
Q 3513 2228 3513 1497 
Q 3513 744 3044 326 
Q 2575 -91 1722 -91 
Q 1428 -91 1123 -41 
Q 819 9 494 109 
L 494 744 
Q 775 591 1075 516 
Q 1375 441 1709 441 
Q 2250 441 2565 725 
Q 2881 1009 2881 1497 
Q 2881 1984 2565 2268 
Q 2250 2553 1709 2553 
Q 1456 2553 1204 2497 
Q 953 2441 691 2322 
L 691 4666 
z
" transform="scale(0.015625)"/>
       </defs>
       <use xlink:href="#DejaVuSans-30"/>
       <use xlink:href="#DejaVuSans-2e" x="63.623047"/>
       <use xlink:href="#DejaVuSans-35" x="95.410156"/>
      </g>
     </g>
    </g>
    <g id="ytick_3">
     <g id="text_13">
      <!-- 1.0 -->
      <g style="fill: #262626" transform="translate(34.696875 221.287735) scale(0.1 -0.1)">
       <use xlink:href="#DejaVuSans-31"/>
       <use xlink:href="#DejaVuSans-2e" x="63.623047"/>
       <use xlink:href="#DejaVuSans-30" x="95.410156"/>
      </g>
     </g>
    </g>
    <g id="ytick_4">
     <g id="text_14">
      <!-- 1.5 -->
      <g style="fill: #262626" transform="translate(34.696875 182.127399) scale(0.1 -0.1)">
       <use xlink:href="#DejaVuSans-31"/>
       <use xlink:href="#DejaVuSans-2e" x="63.623047"/>
       <use xlink:href="#DejaVuSans-35" x="95.410156"/>
      </g>
     </g>
    </g>
    <g id="ytick_5">
     <g id="text_15">
      <!-- 2.0 -->
      <g style="fill: #262626" transform="translate(34.696875 142.967064) scale(0.1 -0.1)">
       <use xlink:href="#DejaVuSans-32"/>
       <use xlink:href="#DejaVuSans-2e" x="63.623047"/>
       <use xlink:href="#DejaVuSans-30" x="95.410156"/>
      </g>
     </g>
    </g>
    <g id="ytick_6">
     <g id="text_16">
      <!-- 2.5 -->
      <g style="fill: #262626" transform="translate(34.696875 103.806728) scale(0.1 -0.1)">
       <use xlink:href="#DejaVuSans-32"/>
       <use xlink:href="#DejaVuSans-2e" x="63.623047"/>
       <use xlink:href="#DejaVuSans-35" x="95.410156"/>
      </g>
     </g>
    </g>
    <g id="ytick_7">
     <g id="text_17">
      <!-- 3.0 -->
      <g style="fill: #262626" transform="translate(34.696875 64.646393) scale(0.1 -0.1)">
       <defs>
        <path id="DejaVuSans-33" d="M 2597 2516 
Q 3050 2419 3304 2112 
Q 3559 1806 3559 1356 
Q 3559 666 3084 287 
Q 2609 -91 1734 -91 
Q 1441 -91 1130 -33 
Q 819 25 488 141 
L 488 750 
Q 750 597 1062 519 
Q 1375 441 1716 441 
Q 2309 441 2620 675 
Q 2931 909 2931 1356 
Q 2931 1769 2642 2001 
Q 2353 2234 1838 2234 
L 1294 2234 
L 1294 2753 
L 1863 2753 
Q 2328 2753 2575 2939 
Q 2822 3125 2822 3475 
Q 2822 3834 2567 4026 
Q 2313 4219 1838 4219 
Q 1578 4219 1281 4162 
Q 984 4106 628 3988 
L 628 4550 
Q 988 4650 1302 4700 
Q 1616 4750 1894 4750 
Q 2613 4750 3031 4423 
Q 3450 4097 3450 3541 
Q 3450 3153 3228 2886 
Q 3006 2619 2597 2516 
z
" transform="scale(0.015625)"/>
       </defs>
       <use xlink:href="#DejaVuSans-33"/>
       <use xlink:href="#DejaVuSans-2e" x="63.623047"/>
       <use xlink:href="#DejaVuSans-30" x="95.410156"/>
      </g>
     </g>
    </g>
   </g>
   <g id="line2d_1">
    <path d="M 73.832727 63.83782 
L 74.035763 53.568 
L 74.238799 99.107359 
L 74.441835 115.450266 
L 74.644871 115.884605 
L 74.847907 116.703528 
L 75.050943 117.053574 
L 75.253979 116.893927 
L 75.660051 117.920087 
L 75.863087 117.879796 
L 76.066123 118.607242 
L 76.269159 118.770403 
L 76.472195 118.539626 
L 76.675231 119.150364 
L 76.878267 118.577657 
L 77.081303 118.342933 
L 77.284339 118.373663 
L 77.487375 118.261077 
L 77.690411 119.264701 
L 77.893447 119.56575 
L 78.096483 120.413003 
L 78.299519 120.204832 
L 78.502555 120.628179 
L 78.908627 119.767754 
L 79.111663 120.021433 
L 79.314699 121.586089 
L 79.517735 121.930768 
L 79.720771 120.16369 
L 79.923807 120.195648 
L 80.126843 122.413577 
L 80.329879 126.288631 
L 80.532915 125.662661 
L 80.735951 122.729403 
L 80.938987 122.995687 
L 81.142023 121.042888 
L 81.345059 120.213813 
L 81.548095 124.711107 
L 81.751131 124.613704 
L 82.157203 137.150322 
L 82.563275 125.329058 
L 82.766311 128.869653 
L 82.969347 139.270818 
L 83.172383 138.901736 
L 83.375419 137.303578 
L 83.781491 130.811125 
L 83.984527 138.373232 
L 84.187563 137.926948 
L 84.390599 142.32773 
L 84.593635 150.831551 
L 84.796671 148.926046 
L 84.999707 145.850646 
L 85.202743 150.123729 
L 85.405779 146.570591 
L 85.608815 146.324494 
L 85.811851 154.27239 
L 86.014887 156.892667 
L 86.420959 173.206389 
L 86.623995 172.874058 
L 86.827031 170.899061 
L 87.233103 163.817395 
L 87.436138 169.83327 
L 87.84221 187.35159 
L 88.045246 189.649073 
L 88.248282 187.359844 
L 88.451318 190.483775 
L 88.654354 189.697129 
L 88.85739 184.507016 
L 89.060426 183.134054 
L 89.466498 203.008701 
L 89.87257 208.735984 
L 90.278642 211.436371 
L 90.684714 213.715047 
L 90.88775 218.075873 
L 91.293822 216.752448 
L 91.496858 213.803322 
L 91.699894 213.839791 
L 91.90293 216.022534 
L 92.105966 221.463833 
L 92.309002 221.151835 
L 92.512038 215.817814 
L 92.715074 217.520705 
L 92.91811 225.319164 
L 93.121146 228.427513 
L 93.324182 227.229118 
L 93.527218 212.618625 
L 93.730254 207.98617 
L 94.136326 231.214212 
L 94.339362 231.184331 
L 94.542398 231.986072 
L 95.151506 245.033361 
L 95.354542 246.427943 
L 95.557578 241.983377 
L 95.760614 241.096199 
L 95.96365 239.157429 
L 96.369722 248.644281 
L 96.572758 243.616744 
L 96.775794 229.662259 
L 96.97883 230.530605 
L 97.384902 246.864661 
L 97.790974 257.377594 
L 97.99401 258.476434 
L 98.197046 258.436869 
L 98.400082 250.978833 
L 98.603118 234.446449 
L 98.806154 228.242351 
L 99.00919 240.769133 
L 99.415262 249.132648 
L 99.618298 249.462018 
L 99.821334 249.273802 
L 100.02437 251.845687 
L 100.227406 249.982777 
L 100.430442 250.876925 
L 101.242586 269.435644 
L 101.445622 269.854799 
L 101.851694 272.048347 
L 102.05473 269.492582 
L 102.257766 264.430217 
L 102.460802 263.214014 
L 102.663838 263.676612 
L 102.866874 258.896188 
L 103.272946 242.204609 
L 103.475982 248.536795 
L 103.882054 265.375251 
L 104.288126 274.479579 
L 104.897233 277.272207 
L 105.100269 275.292582 
L 105.303305 274.466614 
L 105.709377 276.649466 
L 105.912413 275.796266 
L 106.115449 275.766635 
L 106.521521 241.868487 
L 106.927593 257.352427 
L 107.333665 269.369903 
L 107.942773 276.326574 
L 108.145809 276.505379 
L 108.348845 275.936825 
L 108.551881 275.855496 
L 108.957953 269.586446 
L 109.160989 270.823759 
L 109.364025 274.827315 
L 109.567061 272.90394 
L 109.770097 273.417971 
L 110.176169 279.721425 
L 110.379205 281.91841 
L 110.582241 282.319284 
L 110.785277 276.462887 
L 110.988313 275.78607 
L 111.394385 279.134094 
L 111.597421 277.874964 
L 111.800457 279.175244 
L 112.003493 282.768656 
L 112.206529 283.377343 
L 112.409565 285.944197 
L 112.612601 286.492444 
L 113.221709 278.598822 
L 113.627781 254.366529 
L 114.033853 272.389077 
L 114.236889 276.461272 
L 114.439925 259.456463 
L 114.642961 223.764776 
L 114.845997 216.981811 
L 115.252069 261.503166 
L 115.658141 273.541471 
L 115.861177 276.821665 
L 116.064213 275.248004 
L 116.267249 275.445669 
L 116.673321 281.398899 
L 116.876357 283.601503 
L 117.282429 284.27219 
L 117.485465 283.208003 
L 117.688501 280.184969 
L 118.094573 267.356998 
L 118.703681 281.868087 
L 119.109753 277.648492 
L 119.921897 289.263944 
L 120.124933 289.466473 
L 120.327969 289.368127 
L 120.734041 286.600294 
L 120.937077 282.5867 
L 121.140113 282.321776 
L 121.343149 283.447727 
L 121.749221 279.180124 
L 121.952257 279.972077 
L 122.155293 282.645383 
L 122.358329 283.441495 
L 122.561364 286.138011 
L 122.7644 286.708743 
L 122.967436 289.802381 
L 123.170472 289.913448 
L 123.576544 291.693498 
L 123.77958 291.26856 
L 124.591724 291.560208 
L 124.79476 292.170952 
L 124.997796 292.256744 
L 125.403868 293.047675 
L 125.606904 292.904771 
L 125.80994 292.948115 
L 126.012976 292.786783 
L 126.216012 292.148993 
L 126.419048 290.933968 
L 126.622084 290.512576 
L 127.028156 291.595676 
L 127.231192 291.73896 
L 127.637264 293.038924 
L 128.043336 293.499353 
L 128.246372 292.657041 
L 128.652444 290.119723 
L 128.85548 290.7544 
L 129.058516 290.482359 
L 129.464588 292.069298 
L 129.667624 292.676915 
L 129.87066 289.729998 
L 130.276732 274.706458 
L 130.88584 288.866807 
L 131.291912 291.330104 
L 131.697984 291.863845 
L 132.104056 291.35259 
L 132.307092 290.237424 
L 132.510128 290.147387 
L 132.9162 291.768509 
L 133.119236 291.814597 
L 133.525308 292.518711 
L 133.728344 293.2211 
L 133.93138 293.090353 
L 134.134416 293.095489 
L 134.337452 292.885454 
L 134.540488 292.168222 
L 134.743524 292.194769 
L 134.94656 292.964009 
L 135.758704 293.930006 
L 135.96174 293.803641 
L 136.164776 294.08813 
L 136.570848 293.86193 
L 136.97692 294.171414 
L 137.382992 294.266861 
L 137.789064 293.510304 
L 138.398172 290.139478 
L 138.601208 289.241241 
L 139.00728 280.716236 
L 139.210316 280.881127 
L 139.616388 290.684146 
L 139.819424 292.180949 
L 140.022459 292.808446 
L 140.225495 292.666462 
L 140.428531 293.048574 
L 140.631567 293.033197 
L 140.834603 293.297194 
L 141.037639 293.800723 
L 141.240675 293.825805 
L 141.646747 294.186908 
L 142.052819 293.853997 
L 142.255855 293.8187 
L 142.458891 294.064311 
L 142.864963 293.734171 
L 143.067999 294.012075 
L 143.271035 293.932707 
L 143.474071 293.335875 
L 143.677107 293.507864 
L 144.083179 294.212026 
L 144.692287 294.269485 
L 144.895323 294.019512 
L 145.301395 294.512227 
L 145.504431 294.465676 
L 145.910503 294.770601 
L 146.316575 294.651586 
L 146.722647 294.735726 
L 146.925683 294.581247 
L 147.128719 294.632967 
L 147.331755 294.495376 
L 147.534791 294.593493 
L 147.737827 294.521114 
L 147.940863 294.279094 
L 148.346935 294.720451 
L 148.753007 294.612436 
L 148.956043 294.74152 
L 149.768187 294.462051 
L 150.174259 294.843526 
L 150.377295 294.669598 
L 151.189439 294.937201 
L 151.392475 294.748165 
L 151.798547 294.634383 
L 152.001583 294.827176 
L 152.204619 294.821681 
L 152.407655 294.976863 
L 153.016763 294.869586 
L 153.219799 294.966895 
L 153.422835 294.766597 
L 154.844087 294.884175 
L 155.250159 294.663618 
L 155.453195 294.813004 
L 155.859267 294.537142 
L 156.062303 294.751898 
L 156.468375 294.727377 
L 156.874447 294.875878 
L 157.280519 294.849848 
L 157.889626 294.811574 
L 158.092662 294.722125 
L 158.295698 294.777093 
L 158.498734 295.022884 
L 158.70177 294.767739 
L 158.904806 294.76012 
L 159.107842 294.940234 
L 159.919986 294.889994 
L 160.529094 294.991179 
L 160.935166 294.870615 
L 161.544274 294.974196 
L 161.74731 294.850979 
L 162.153382 295.054533 
L 162.965526 294.837537 
L 163.371598 294.952908 
L 164.183742 294.936651 
L 164.589814 295.140753 
L 164.79285 294.965173 
L 165.198922 294.965085 
L 165.401958 295.070531 
L 165.604994 294.798787 
L 165.80803 294.913842 
L 166.214102 294.946955 
L 166.82321 295.1517 
L 167.026246 294.882055 
L 167.229282 294.878862 
L 167.635354 295.157317 
L 167.83839 295.127686 
L 168.041426 294.916075 
L 168.244462 294.510996 
L 168.447498 293.831869 
L 168.85357 294.66189 
L 169.056606 294.883537 
L 169.462678 294.996245 
L 169.665714 294.899895 
L 170.071786 295.019229 
L 170.477858 294.716652 
L 171.086966 295.10627 
L 173.92947 295.022872 
L 174.335542 295.177449 
L 175.147685 295.01457 
L 175.553757 295.233215 
L 175.959829 295.04662 
L 176.975009 295.182321 
L 177.178045 295.124991 
L 177.584117 295.236165 
L 178.193225 295.059985 
L 179.005369 295.218356 
L 180.020549 295.128244 
L 180.426621 295.177898 
L 180.629657 294.833047 
L 180.832693 293.769912 
L 181.035729 293.331419 
L 181.441801 293.897187 
L 181.644837 292.479777 
L 182.253945 197.734494 
L 182.863053 260.558797 
L 183.269125 276.674703 
L 183.675197 283.027562 
L 183.878233 285.084022 
L 184.081269 285.973935 
L 184.284305 287.676899 
L 184.690377 288.915747 
L 184.893413 288.955966 
L 185.096449 288.352464 
L 185.299485 289.689976 
L 185.502521 290.103372 
L 186.111629 292.344778 
L 186.314665 292.600521 
L 186.720737 292.583792 
L 186.923773 292.539753 
L 187.329845 292.785801 
L 187.532881 292.604108 
L 187.735917 290.763193 
L 187.938953 290.115779 
L 188.141989 290.156774 
L 188.548061 285.125296 
L 188.751097 284.666082 
L 188.954133 283.526758 
L 189.360205 289.526425 
L 189.766277 292.181744 
L 190.375385 293.911419 
L 190.578421 293.74654 
L 191.593601 294.512939 
L 191.796637 294.354685 
L 191.999673 293.997021 
L 192.202709 293.929816 
L 192.405744 294.395157 
L 192.60878 294.497097 
L 192.811816 294.398423 
L 193.420924 294.466437 
L 193.826996 293.993293 
L 194.233068 294.429225 
L 194.63914 294.452651 
L 195.045212 294.771279 
L 195.451284 294.64674 
L 196.060392 294.87486 
L 196.263428 294.659517 
L 196.6695 294.748802 
L 196.872536 294.58274 
L 197.481644 294.864583 
L 197.68468 294.635698 
L 198.69986 294.828422 
L 198.902896 294.817349 
L 199.105932 294.998471 
L 199.308968 294.677973 
L 199.512004 294.826371 
L 199.918076 294.742945 
L 200.324148 295.020262 
L 200.527184 294.807091 
L 200.933256 294.882322 
L 201.339328 294.290487 
L 201.948436 294.859923 
L 202.151472 294.741963 
L 202.354508 294.930471 
L 202.76058 294.70908 
L 203.166652 294.984774 
L 203.572724 294.996836 
L 203.77576 294.832416 
L 204.384868 295.11956 
L 204.79094 294.919671 
L 205.603084 295.044525 
L 206.009156 294.94007 
L 206.212192 295.017857 
L 206.618264 294.929803 
L 207.024336 295.144237 
L 207.227372 294.928538 
L 207.83648 295.204511 
L 208.242552 294.779012 
L 209.257732 295.153632 
L 209.663804 294.92304 
L 210.272911 294.936218 
L 210.678983 294.982039 
L 210.882019 295.067333 
L 211.288091 294.931854 
L 211.694163 295.198307 
L 212.303271 295.143353 
L 212.912379 295.200922 
L 213.318451 295.068898 
L 213.521487 295.182207 
L 213.724523 295.108986 
L 214.536667 295.334449 
L 214.942739 295.157844 
L 215.551847 295.144538 
L 215.754883 295.237108 
L 216.160955 295.195746 
L 218.191315 295.070003 
L 218.394351 295.231996 
L 218.800423 295.121247 
L 219.003459 295.212564 
L 219.409531 295.127265 
L 219.815603 295.19676 
L 220.018639 295.239985 
L 220.424711 295.04967 
L 220.830783 295.255498 
L 221.236855 295.121388 
L 221.845963 295.09709 
L 222.252035 295.19627 
L 222.861143 295.21024 
L 224.282395 295.218733 
L 224.485431 295.173336 
L 224.891503 295.261353 
L 225.906683 295.201699 
L 226.312755 295.302306 
L 226.718827 295.228179 
L 227.124899 295.312983 
L 227.53097 295.265511 
L 228.140078 295.174395 
L 228.54615 295.314595 
L 229.358294 295.174021 
L 230.170438 295.310583 
L 230.982582 295.184511 
L 231.185618 295.326699 
L 235.246338 295.31407 
L 235.65241 295.394903 
L 236.870626 295.296209 
L 237.276698 295.38253 
L 237.68277 295.293054 
L 238.088842 295.327046 
L 238.69795 295.366858 
L 239.916166 295.276443 
L 240.525274 295.316609 
L 240.72831 295.190903 
L 241.337418 295.337789 
L 241.540454 295.20555 
L 241.74349 295.33093 
L 244.382958 295.279797 
L 244.78903 295.376213 
L 246.210281 295.270345 
L 247.022425 295.381254 
L 247.631533 295.355975 
L 247.834569 295.240333 
L 248.849749 295.299518 
L 249.052785 295.24574 
L 249.255821 295.35513 
L 249.661893 295.324779 
L 250.474037 295.286282 
L 251.286181 295.327717 
L 251.692253 295.258761 
L 252.098325 295.238302 
L 252.707433 295.175744 
L 252.910469 295.3156 
L 264.889592 295.364225 
L 265.295664 295.423569 
L 266.107808 295.384163 
L 266.310844 295.461915 
L 266.51388 295.336726 
L 269.153348 295.396871 
L 269.356384 295.244873 
L 270.777636 295.388339 
L 271.183708 295.300988 
L 271.386744 295.127452 
L 271.792816 295.371811 
L 271.995852 295.377152 
L 272.198888 295.254692 
L 273.214068 295.330155 
L 274.63532 295.302664 
L 274.838356 295.373291 
L 275.447464 295.311276 
L 276.868716 295.375109 
L 277.274788 295.425196 
L 278.086932 295.313046 
L 278.493004 295.390906 
L 279.102112 295.300899 
L 279.71122 295.369389 
L 280.117291 295.359842 
L 280.523363 295.351379 
L 281.132471 295.438559 
L 281.538543 295.381397 
L 283.568903 295.411697 
L 284.381047 295.410877 
L 285.599263 295.370885 
L 286.208371 295.403341 
L 286.614443 295.444427 
L 286.817479 295.382863 
L 287.020515 295.449503 
L 287.426587 295.270449 
L 287.832659 295.180492 
L 288.238731 295.378768 
L 293.923739 295.363934 
L 294.329811 295.429577 
L 296.563207 295.353488 
L 296.969279 295.445361 
L 297.578386 295.419243 
L 298.796602 295.442272 
L 299.202674 295.391607 
L 300.014818 295.430232 
L 301.842142 295.409088 
L 302.45125 295.336404 
L 302.857322 295.436464 
L 303.263394 295.401037 
L 304.278574 295.448058 
L 305.293754 295.358032 
L 305.49679 295.440782 
L 305.902862 295.373147 
L 307.121078 295.441447 
L 311.181798 295.392136 
L 311.58787 295.285482 
L 311.993942 295.44486 
L 312.400014 295.3862 
L 312.806086 295.44671 
L 313.212158 295.422786 
L 313.415194 295.456 
L 313.821266 295.301688 
L 314.024302 295.40808 
L 314.63341 295.347271 
L 315.242517 295.430567 
L 316.663769 295.41652 
L 317.678949 295.435866 
L 317.881985 295.351392 
L 318.491093 295.447564 
L 319.506273 295.398629 
L 319.912345 295.444541 
L 320.318417 295.374722 
L 320.724489 295.449809 
L 321.333597 295.371682 
L 321.739669 295.404386 
L 322.145741 295.426194 
L 323.363957 295.402414 
L 324.176101 295.433843 
L 325.800389 295.364618 
L 326.206461 295.420907 
L 327.830749 295.368657 
L 328.236821 295.452475 
L 328.642893 295.381297 
L 331.485397 295.436152 
L 332.297541 295.408159 
L 332.703612 295.409231 
L 333.109684 295.441929 
L 334.530936 295.405173 
L 335.140044 295.445035 
L 351.382923 295.447277 
L 351.992031 295.447259 
L 353.007211 295.421313 
L 354.428463 295.455379 
L 355.037571 295.356727 
L 355.240607 295.328245 
L 355.646679 295.472985 
L 358.895255 295.445295 
L 367.422767 295.43543 
L 367.625802 295.474604 
L 367.828838 295.299344 
L 369.453126 295.421231 
L 371.077414 295.435657 
L 371.889558 295.441627 
L 372.092594 295.334706 
L 372.498666 295.437439 
L 378.38671 295.433701 
L 381.026178 295.439177 
L 381.838322 295.450932 
L 384.274754 295.419146 
L 384.680826 295.316517 
L 384.883862 295.47144 
L 385.289933 295.400793 
L 385.696005 295.444757 
L 397.269057 295.430577 
L 397.675129 295.385789 
L 398.081201 295.430748 
L 398.487273 295.413694 
L 398.487273 295.413694 
" clip-path="url(#p22dc8b2e46)" style="fill: none; stroke: #1f77b4; stroke-width: 0.5; stroke-linecap: round"/>
   </g>
   <g id="patch_3">
    <path d="M 57.6 307.584 
L 57.6 41.472 
" style="fill: none; stroke: #ffffff; stroke-width: 0.8; stroke-linejoin: miter; stroke-linecap: square"/>
   </g>
   <g id="patch_4">
    <path d="M 414.72 307.584 
L 414.72 41.472 
" style="fill: none; stroke: #ffffff; stroke-width: 0.8; stroke-linejoin: miter; stroke-linecap: square"/>
   </g>
   <g id="patch_5">
    <path d="M 57.6 307.584 
L 414.72 307.584 
" style="fill: none; stroke: #ffffff; stroke-width: 0.8; stroke-linejoin: miter; stroke-linecap: square"/>
   </g>
   <g id="patch_6">
    <path d="M 57.6 41.472 
L 414.72 41.472 
" style="fill: none; stroke: #ffffff; stroke-width: 0.8; stroke-linejoin: miter; stroke-linecap: square"/>
   </g>
   <g id="text_18">
    <!-- loss terhadap epoch -->
    <g style="fill: #262626" transform="translate(175.303125 35.472) scale(0.12 -0.12)">
     <defs>
      <path id="DejaVuSans-6c" d="M 603 4863 
L 1178 4863 
L 1178 0 
L 603 0 
L 603 4863 
z
" transform="scale(0.015625)"/>
      <path id="DejaVuSans-73" d="M 2834 3397 
L 2834 2853 
Q 2591 2978 2328 3040 
Q 2066 3103 1784 3103 
Q 1356 3103 1142 2972 
Q 928 2841 928 2578 
Q 928 2378 1081 2264 
Q 1234 2150 1697 2047 
L 1894 2003 
Q 2506 1872 2764 1633 
Q 3022 1394 3022 966 
Q 3022 478 2636 193 
Q 2250 -91 1575 -91 
Q 1294 -91 989 -36 
Q 684 19 347 128 
L 347 722 
Q 666 556 975 473 
Q 1284 391 1588 391 
Q 1994 391 2212 530 
Q 2431 669 2431 922 
Q 2431 1156 2273 1281 
Q 2116 1406 1581 1522 
L 1381 1569 
Q 847 1681 609 1914 
Q 372 2147 372 2553 
Q 372 3047 722 3315 
Q 1072 3584 1716 3584 
Q 2034 3584 2315 3537 
Q 2597 3491 2834 3397 
z
" transform="scale(0.015625)"/>
      <path id="DejaVuSans-20" transform="scale(0.015625)"/>
      <path id="DejaVuSans-74" d="M 1172 4494 
L 1172 3500 
L 2356 3500 
L 2356 3053 
L 1172 3053 
L 1172 1153 
Q 1172 725 1289 603 
Q 1406 481 1766 481 
L 2356 481 
L 2356 0 
L 1766 0 
Q 1100 0 847 248 
Q 594 497 594 1153 
L 594 3053 
L 172 3053 
L 172 3500 
L 594 3500 
L 594 4494 
L 1172 4494 
z
" transform="scale(0.015625)"/>
      <path id="DejaVuSans-72" d="M 2631 2963 
Q 2534 3019 2420 3045 
Q 2306 3072 2169 3072 
Q 1681 3072 1420 2755 
Q 1159 2438 1159 1844 
L 1159 0 
L 581 0 
L 581 3500 
L 1159 3500 
L 1159 2956 
Q 1341 3275 1631 3429 
Q 1922 3584 2338 3584 
Q 2397 3584 2469 3576 
Q 2541 3569 2628 3553 
L 2631 2963 
z
" transform="scale(0.015625)"/>
      <path id="DejaVuSans-61" d="M 2194 1759 
Q 1497 1759 1228 1600 
Q 959 1441 959 1056 
Q 959 750 1161 570 
Q 1363 391 1709 391 
Q 2188 391 2477 730 
Q 2766 1069 2766 1631 
L 2766 1759 
L 2194 1759 
z
M 3341 1997 
L 3341 0 
L 2766 0 
L 2766 531 
Q 2569 213 2275 61 
Q 1981 -91 1556 -91 
Q 1019 -91 701 211 
Q 384 513 384 1019 
Q 384 1609 779 1909 
Q 1175 2209 1959 2209 
L 2766 2209 
L 2766 2266 
Q 2766 2663 2505 2880 
Q 2244 3097 1772 3097 
Q 1472 3097 1187 3025 
Q 903 2953 641 2809 
L 641 3341 
Q 956 3463 1253 3523 
Q 1550 3584 1831 3584 
Q 2591 3584 2966 3190 
Q 3341 2797 3341 1997 
z
" transform="scale(0.015625)"/>
      <path id="DejaVuSans-64" d="M 2906 2969 
L 2906 4863 
L 3481 4863 
L 3481 0 
L 2906 0 
L 2906 525 
Q 2725 213 2448 61 
Q 2172 -91 1784 -91 
Q 1150 -91 751 415 
Q 353 922 353 1747 
Q 353 2572 751 3078 
Q 1150 3584 1784 3584 
Q 2172 3584 2448 3432 
Q 2725 3281 2906 2969 
z
M 947 1747 
Q 947 1113 1208 752 
Q 1469 391 1925 391 
Q 2381 391 2643 752 
Q 2906 1113 2906 1747 
Q 2906 2381 2643 2742 
Q 2381 3103 1925 3103 
Q 1469 3103 1208 2742 
Q 947 2381 947 1747 
z
" transform="scale(0.015625)"/>
     </defs>
     <use xlink:href="#DejaVuSans-6c"/>
     <use xlink:href="#DejaVuSans-6f" x="27.783203"/>
     <use xlink:href="#DejaVuSans-73" x="88.964844"/>
     <use xlink:href="#DejaVuSans-73" x="141.064453"/>
     <use xlink:href="#DejaVuSans-20" x="193.164062"/>
     <use xlink:href="#DejaVuSans-74" x="224.951172"/>
     <use xlink:href="#DejaVuSans-65" x="264.160156"/>
     <use xlink:href="#DejaVuSans-72" x="325.683594"/>
     <use xlink:href="#DejaVuSans-68" x="365.046875"/>
     <use xlink:href="#DejaVuSans-61" x="428.425781"/>
     <use xlink:href="#DejaVuSans-64" x="489.705078"/>
     <use xlink:href="#DejaVuSans-61" x="553.181641"/>
     <use xlink:href="#DejaVuSans-70" x="614.460938"/>
     <use xlink:href="#DejaVuSans-20" x="677.9375"/>
     <use xlink:href="#DejaVuSans-65" x="709.724609"/>
     <use xlink:href="#DejaVuSans-70" x="771.248047"/>
     <use xlink:href="#DejaVuSans-6f" x="834.724609"/>
     <use xlink:href="#DejaVuSans-63" x="895.90625"/>
     <use xlink:href="#DejaVuSans-68" x="950.886719"/>
    </g>
   </g>
   <g id="legend_1">
    <g id="patch_7">
     <path d="M 239.190313 64.42825 
L 407.72 64.42825 
Q 409.72 64.42825 409.72 62.42825 
L 409.72 48.472 
Q 409.72 46.472 407.72 46.472 
L 239.190313 46.472 
Q 237.190313 46.472 237.190313 48.472 
L 237.190313 62.42825 
Q 237.190313 64.42825 239.190313 64.42825 
z
" style="fill: #eaeaf2; opacity: 0.8; stroke: #cccccc; stroke-linejoin: miter"/>
    </g>
    <g id="line2d_2">
     <path d="M 241.190313 54.570437 
L 251.190313 54.570437 
L 261.190313 54.570437 
" style="fill: none; stroke: #1f77b4; stroke-width: 0.5; stroke-linecap: round"/>
    </g>
    <g id="text_19">
     <!-- best-550/top1-0d8591_loss -->
     <g style="fill: #262626" transform="translate(269.190313 58.070437) scale(0.1 -0.1)">
      <defs>
       <path id="DejaVuSans-62" d="M 3116 1747 
Q 3116 2381 2855 2742 
Q 2594 3103 2138 3103 
Q 1681 3103 1420 2742 
Q 1159 2381 1159 1747 
Q 1159 1113 1420 752 
Q 1681 391 2138 391 
Q 2594 391 2855 752 
Q 3116 1113 3116 1747 
z
M 1159 2969 
Q 1341 3281 1617 3432 
Q 1894 3584 2278 3584 
Q 2916 3584 3314 3078 
Q 3713 2572 3713 1747 
Q 3713 922 3314 415 
Q 2916 -91 2278 -91 
Q 1894 -91 1617 61 
Q 1341 213 1159 525 
L 1159 0 
L 581 0 
L 581 4863 
L 1159 4863 
L 1159 2969 
z
" transform="scale(0.015625)"/>
       <path id="DejaVuSans-2d" d="M 313 2009 
L 1997 2009 
L 1997 1497 
L 313 1497 
L 313 2009 
z
" transform="scale(0.015625)"/>
       <path id="DejaVuSans-2f" d="M 1625 4666 
L 2156 4666 
L 531 -594 
L 0 -594 
L 1625 4666 
z
" transform="scale(0.015625)"/>
       <path id="DejaVuSans-39" d="M 703 97 
L 703 672 
Q 941 559 1184 500 
Q 1428 441 1663 441 
Q 2288 441 2617 861 
Q 2947 1281 2994 2138 
Q 2813 1869 2534 1725 
Q 2256 1581 1919 1581 
Q 1219 1581 811 2004 
Q 403 2428 403 3163 
Q 403 3881 828 4315 
Q 1253 4750 1959 4750 
Q 2769 4750 3195 4129 
Q 3622 3509 3622 2328 
Q 3622 1225 3098 567 
Q 2575 -91 1691 -91 
Q 1453 -91 1209 -44 
Q 966 3 703 97 
z
M 1959 2075 
Q 2384 2075 2632 2365 
Q 2881 2656 2881 3163 
Q 2881 3666 2632 3958 
Q 2384 4250 1959 4250 
Q 1534 4250 1286 3958 
Q 1038 3666 1038 3163 
Q 1038 2656 1286 2365 
Q 1534 2075 1959 2075 
z
" transform="scale(0.015625)"/>
       <path id="DejaVuSans-5f" d="M 3263 -1063 
L 3263 -1509 
L -63 -1509 
L -63 -1063 
L 3263 -1063 
z
" transform="scale(0.015625)"/>
      </defs>
      <use xlink:href="#DejaVuSans-62"/>
      <use xlink:href="#DejaVuSans-65" x="63.476562"/>
      <use xlink:href="#DejaVuSans-73" x="125"/>
      <use xlink:href="#DejaVuSans-74" x="177.099609"/>
      <use xlink:href="#DejaVuSans-2d" x="216.308594"/>
      <use xlink:href="#DejaVuSans-35" x="252.392578"/>
      <use xlink:href="#DejaVuSans-35" x="316.015625"/>
      <use xlink:href="#DejaVuSans-30" x="379.638672"/>
      <use xlink:href="#DejaVuSans-2f" x="443.261719"/>
      <use xlink:href="#DejaVuSans-74" x="476.953125"/>
      <use xlink:href="#DejaVuSans-6f" x="516.162109"/>
      <use xlink:href="#DejaVuSans-70" x="577.34375"/>
      <use xlink:href="#DejaVuSans-31" x="640.820312"/>
      <use xlink:href="#DejaVuSans-2d" x="704.443359"/>
      <use xlink:href="#DejaVuSans-30" x="740.527344"/>
      <use xlink:href="#DejaVuSans-64" x="804.150391"/>
      <use xlink:href="#DejaVuSans-38" x="867.626953"/>
      <use xlink:href="#DejaVuSans-35" x="931.25"/>
      <use xlink:href="#DejaVuSans-39" x="994.873047"/>
      <use xlink:href="#DejaVuSans-31" x="1058.496094"/>
      <use xlink:href="#DejaVuSans-5f" x="1122.119141"/>
      <use xlink:href="#DejaVuSans-6c" x="1172.119141"/>
      <use xlink:href="#DejaVuSans-6f" x="1199.902344"/>
      <use xlink:href="#DejaVuSans-73" x="1261.083984"/>
      <use xlink:href="#DejaVuSans-73" x="1313.183594"/>
     </g>
    </g>
   </g>
  </g>
 </g>
 <defs>
  <clipPath id="p22dc8b2e46">
   <rect x="57.6" y="41.472" width="357.12" height="266.112"/>
  </clipPath>
 </defs>
</svg>
