<?xml version="1.0" encoding="utf-8" standalone="no"?>
<!DOCTYPE svg PUBLIC "-//W3C//DTD SVG 1.1//EN"
  "http://www.w3.org/Graphics/SVG/1.1/DTD/svg11.dtd">
<svg xmlns:xlink="http://www.w3.org/1999/xlink" width="460.8pt" height="345.6pt" viewBox="0 0 460.8 345.6" xmlns="http://www.w3.org/2000/svg" version="1.1">
 <metadata>
  <rdf:RDF xmlns:dc="http://purl.org/dc/elements/1.1/" xmlns:cc="http://creativecommons.org/ns#" xmlns:rdf="http://www.w3.org/1999/02/22-rdf-syntax-ns#">
   <cc:Work>
    <dc:type rdf:resource="http://purl.org/dc/dcmitype/StillImage"/>
    <dc:date>2024-10-06T00:15:11.262337</dc:date>
    <dc:format>image/svg+xml</dc:format>
    <dc:creator>
     <cc:Agent>
      <dc:title>Matplotlib v3.7.2, https://matplotlib.org/</dc:title>
     </cc:Agent>
    </dc:creator>
   </cc:Work>
  </rdf:RDF>
 </metadata>
 <defs>
  <style type="text/css">*{stroke-linejoin: round; stroke-linecap: butt}</style>
 </defs>
 <g id="figure_1">
  <g id="patch_1">
   <path d="M 0 345.6 
L 460.8 345.6 
L 460.8 0 
L 0 0 
z
" style="fill: #ffffff"/>
  </g>
  <g id="axes_1">
   <g id="patch_2">
    <path d="M 57.6 307.584 
L 414.72 307.584 
L 414.72 41.472 
L 57.6 41.472 
z
" style="fill: #eaeaf2"/>
   </g>
   <g id="matplotlib.axis_1">
    <g id="xtick_1">
     <g id="text_1">
      <!-- 0 -->
      <g style="fill: #262626" transform="translate(70.361348 322.182437) scale(0.1 -0.1)">
       <defs>
        <path id="DejaVuSans-30" d="M 2034 4250 
Q 1547 4250 1301 3770 
Q 1056 3291 1056 2328 
Q 1056 1369 1301 889 
Q 1547 409 2034 409 
Q 2525 409 2770 889 
Q 3016 1369 3016 2328 
Q 3016 3291 2770 3770 
Q 2525 4250 2034 4250 
z
M 2034 4750 
Q 2819 4750 3233 4129 
Q 3647 3509 3647 2328 
Q 3647 1150 3233 529 
Q 2819 -91 2034 -91 
Q 1250 -91 836 529 
Q 422 1150 422 2328 
Q 422 3509 836 4129 
Q 1250 4750 2034 4750 
z
" transform="scale(0.015625)"/>
       </defs>
       <use xlink:href="#DejaVuSans-30"/>
      </g>
     </g>
    </g>
    <g id="xtick_2">
     <g id="text_2">
      <!-- 200 -->
      <g style="fill: #262626" transform="translate(122.024683 322.182437) scale(0.1 -0.1)">
       <defs>
        <path id="DejaVuSans-32" d="M 1228 531 
L 3431 531 
L 3431 0 
L 469 0 
L 469 531 
Q 828 903 1448 1529 
Q 2069 2156 2228 2338 
Q 2531 2678 2651 2914 
Q 2772 3150 2772 3378 
Q 2772 3750 2511 3984 
Q 2250 4219 1831 4219 
Q 1534 4219 1204 4116 
Q 875 4013 500 3803 
L 500 4441 
Q 881 4594 1212 4672 
Q 1544 4750 1819 4750 
Q 2544 4750 2975 4387 
Q 3406 4025 3406 3419 
Q 3406 3131 3298 2873 
Q 3191 2616 2906 2266 
Q 2828 2175 2409 1742 
Q 1991 1309 1228 531 
z
" transform="scale(0.015625)"/>
       </defs>
       <use xlink:href="#DejaVuSans-32"/>
       <use xlink:href="#DejaVuSans-30" x="63.623047"/>
       <use xlink:href="#DejaVuSans-30" x="127.246094"/>
      </g>
     </g>
    </g>
    <g id="xtick_3">
     <g id="text_3">
      <!-- 400 -->
      <g style="fill: #262626" transform="translate(180.050518 322.182437) scale(0.1 -0.1)">
       <defs>
        <path id="DejaVuSans-34" d="M 2419 4116 
L 825 1625 
L 2419 1625 
L 2419 4116 
z
M 2253 4666 
L 3047 4666 
L 3047 1625 
L 3713 1625 
L 3713 1100 
L 3047 1100 
L 3047 0 
L 2419 0 
L 2419 1100 
L 313 1100 
L 313 1709 
L 2253 4666 
z
" transform="scale(0.015625)"/>
       </defs>
       <use xlink:href="#DejaVuSans-34"/>
       <use xlink:href="#DejaVuSans-30" x="63.623047"/>
       <use xlink:href="#DejaVuSans-30" x="127.246094"/>
      </g>
     </g>
    </g>
    <g id="xtick_4">
     <g id="text_4">
      <!-- 600 -->
      <g style="fill: #262626" transform="translate(238.076352 322.182437) scale(0.1 -0.1)">
       <defs>
        <path id="DejaVuSans-36" d="M 2113 2584 
Q 1688 2584 1439 2293 
Q 1191 2003 1191 1497 
Q 1191 994 1439 701 
Q 1688 409 2113 409 
Q 2538 409 2786 701 
Q 3034 994 3034 1497 
Q 3034 2003 2786 2293 
Q 2538 2584 2113 2584 
z
M 3366 4563 
L 3366 3988 
Q 3128 4100 2886 4159 
Q 2644 4219 2406 4219 
Q 1781 4219 1451 3797 
Q 1122 3375 1075 2522 
Q 1259 2794 1537 2939 
Q 1816 3084 2150 3084 
Q 2853 3084 3261 2657 
Q 3669 2231 3669 1497 
Q 3669 778 3244 343 
Q 2819 -91 2113 -91 
Q 1303 -91 875 529 
Q 447 1150 447 2328 
Q 447 3434 972 4092 
Q 1497 4750 2381 4750 
Q 2619 4750 2861 4703 
Q 3103 4656 3366 4563 
z
" transform="scale(0.015625)"/>
       </defs>
       <use xlink:href="#DejaVuSans-36"/>
       <use xlink:href="#DejaVuSans-30" x="63.623047"/>
       <use xlink:href="#DejaVuSans-30" x="127.246094"/>
      </g>
     </g>
    </g>
    <g id="xtick_5">
     <g id="text_5">
      <!-- 800 -->
      <g style="fill: #262626" transform="translate(296.102187 322.182437) scale(0.1 -0.1)">
       <defs>
        <path id="DejaVuSans-38" d="M 2034 2216 
Q 1584 2216 1326 1975 
Q 1069 1734 1069 1313 
Q 1069 891 1326 650 
Q 1584 409 2034 409 
Q 2484 409 2743 651 
Q 3003 894 3003 1313 
Q 3003 1734 2745 1975 
Q 2488 2216 2034 2216 
z
M 1403 2484 
Q 997 2584 770 2862 
Q 544 3141 544 3541 
Q 544 4100 942 4425 
Q 1341 4750 2034 4750 
Q 2731 4750 3128 4425 
Q 3525 4100 3525 3541 
Q 3525 3141 3298 2862 
Q 3072 2584 2669 2484 
Q 3125 2378 3379 2068 
Q 3634 1759 3634 1313 
Q 3634 634 3220 271 
Q 2806 -91 2034 -91 
Q 1263 -91 848 271 
Q 434 634 434 1313 
Q 434 1759 690 2068 
Q 947 2378 1403 2484 
z
M 1172 3481 
Q 1172 3119 1398 2916 
Q 1625 2713 2034 2713 
Q 2441 2713 2670 2916 
Q 2900 3119 2900 3481 
Q 2900 3844 2670 4047 
Q 2441 4250 2034 4250 
Q 1625 4250 1398 4047 
Q 1172 3844 1172 3481 
z
" transform="scale(0.015625)"/>
       </defs>
       <use xlink:href="#DejaVuSans-38"/>
       <use xlink:href="#DejaVuSans-30" x="63.623047"/>
       <use xlink:href="#DejaVuSans-30" x="127.246094"/>
      </g>
     </g>
    </g>
    <g id="xtick_6">
     <g id="text_6">
      <!-- 1000 -->
      <g style="fill: #262626" transform="translate(350.946772 322.182437) scale(0.1 -0.1)">
       <defs>
        <path id="DejaVuSans-31" d="M 794 531 
L 1825 531 
L 1825 4091 
L 703 3866 
L 703 4441 
L 1819 4666 
L 2450 4666 
L 2450 531 
L 3481 531 
L 3481 0 
L 794 0 
L 794 531 
z
" transform="scale(0.015625)"/>
       </defs>
       <use xlink:href="#DejaVuSans-31"/>
       <use xlink:href="#DejaVuSans-30" x="63.623047"/>
       <use xlink:href="#DejaVuSans-30" x="127.246094"/>
       <use xlink:href="#DejaVuSans-30" x="190.869141"/>
      </g>
     </g>
    </g>
    <g id="text_7">
     <!-- epoch -->
     <g style="fill: #262626" transform="translate(220.931875 335.860562) scale(0.1 -0.1)">
      <defs>
       <path id="DejaVuSans-65" d="M 3597 1894 
L 3597 1613 
L 953 1613 
Q 991 1019 1311 708 
Q 1631 397 2203 397 
Q 2534 397 2845 478 
Q 3156 559 3463 722 
L 3463 178 
Q 3153 47 2828 -22 
Q 2503 -91 2169 -91 
Q 1331 -91 842 396 
Q 353 884 353 1716 
Q 353 2575 817 3079 
Q 1281 3584 2069 3584 
Q 2775 3584 3186 3129 
Q 3597 2675 3597 1894 
z
M 3022 2063 
Q 3016 2534 2758 2815 
Q 2500 3097 2075 3097 
Q 1594 3097 1305 2825 
Q 1016 2553 972 2059 
L 3022 2063 
z
" transform="scale(0.015625)"/>
       <path id="DejaVuSans-70" d="M 1159 525 
L 1159 -1331 
L 581 -1331 
L 581 3500 
L 1159 3500 
L 1159 2969 
Q 1341 3281 1617 3432 
Q 1894 3584 2278 3584 
Q 2916 3584 3314 3078 
Q 3713 2572 3713 1747 
Q 3713 922 3314 415 
Q 2916 -91 2278 -91 
Q 1894 -91 1617 61 
Q 1341 213 1159 525 
z
M 3116 1747 
Q 3116 2381 2855 2742 
Q 2594 3103 2138 3103 
Q 1681 3103 1420 2742 
Q 1159 2381 1159 1747 
Q 1159 1113 1420 752 
Q 1681 391 2138 391 
Q 2594 391 2855 752 
Q 3116 1113 3116 1747 
z
" transform="scale(0.015625)"/>
       <path id="DejaVuSans-6f" d="M 1959 3097 
Q 1497 3097 1228 2736 
Q 959 2375 959 1747 
Q 959 1119 1226 758 
Q 1494 397 1959 397 
Q 2419 397 2687 759 
Q 2956 1122 2956 1747 
Q 2956 2369 2687 2733 
Q 2419 3097 1959 3097 
z
M 1959 3584 
Q 2709 3584 3137 3096 
Q 3566 2609 3566 1747 
Q 3566 888 3137 398 
Q 2709 -91 1959 -91 
Q 1206 -91 779 398 
Q 353 888 353 1747 
Q 353 2609 779 3096 
Q 1206 3584 1959 3584 
z
" transform="scale(0.015625)"/>
       <path id="DejaVuSans-63" d="M 3122 3366 
L 3122 2828 
Q 2878 2963 2633 3030 
Q 2388 3097 2138 3097 
Q 1578 3097 1268 2742 
Q 959 2388 959 1747 
Q 959 1106 1268 751 
Q 1578 397 2138 397 
Q 2388 397 2633 464 
Q 2878 531 3122 666 
L 3122 134 
Q 2881 22 2623 -34 
Q 2366 -91 2075 -91 
Q 1284 -91 818 406 
Q 353 903 353 1747 
Q 353 2603 823 3093 
Q 1294 3584 2113 3584 
Q 2378 3584 2631 3529 
Q 2884 3475 3122 3366 
z
" transform="scale(0.015625)"/>
       <path id="DejaVuSans-68" d="M 3513 2113 
L 3513 0 
L 2938 0 
L 2938 2094 
Q 2938 2591 2744 2837 
Q 2550 3084 2163 3084 
Q 1697 3084 1428 2787 
Q 1159 2491 1159 1978 
L 1159 0 
L 581 0 
L 581 4863 
L 1159 4863 
L 1159 2956 
Q 1366 3272 1645 3428 
Q 1925 3584 2291 3584 
Q 2894 3584 3203 3211 
Q 3513 2838 3513 2113 
z
" transform="scale(0.015625)"/>
      </defs>
      <use xlink:href="#DejaVuSans-65"/>
      <use xlink:href="#DejaVuSans-70" x="61.523438"/>
      <use xlink:href="#DejaVuSans-6f" x="125"/>
      <use xlink:href="#DejaVuSans-63" x="186.181641"/>
      <use xlink:href="#DejaVuSans-68" x="241.162109"/>
     </g>
    </g>
   </g>
   <g id="matplotlib.axis_2">
    <g id="ytick_1">
     <g id="text_8">
      <!-- 0.0 -->
      <g style="fill: #262626" transform="translate(34.696875 299.740877) scale(0.1 -0.1)">
       <defs>
        <path id="DejaVuSans-2e" d="M 684 794 
L 1344 794 
L 1344 0 
L 684 0 
L 684 794 
z
" transform="scale(0.015625)"/>
       </defs>
       <use xlink:href="#DejaVuSans-30"/>
       <use xlink:href="#DejaVuSans-2e" x="63.623047"/>
       <use xlink:href="#DejaVuSans-30" x="95.410156"/>
      </g>
     </g>
    </g>
    <g id="ytick_2">
     <g id="text_9">
      <!-- 0.5 -->
      <g style="fill: #262626" transform="translate(34.696875 259.043805) scale(0.1 -0.1)">
       <defs>
        <path id="DejaVuSans-35" d="M 691 4666 
L 3169 4666 
L 3169 4134 
L 1269 4134 
L 1269 2991 
Q 1406 3038 1543 3061 
Q 1681 3084 1819 3084 
Q 2600 3084 3056 2656 
Q 3513 2228 3513 1497 
Q 3513 744 3044 326 
Q 2575 -91 1722 -91 
Q 1428 -91 1123 -41 
Q 819 9 494 109 
L 494 744 
Q 775 591 1075 516 
Q 1375 441 1709 441 
Q 2250 441 2565 725 
Q 2881 1009 2881 1497 
Q 2881 1984 2565 2268 
Q 2250 2553 1709 2553 
Q 1456 2553 1204 2497 
Q 953 2441 691 2322 
L 691 4666 
z
" transform="scale(0.015625)"/>
       </defs>
       <use xlink:href="#DejaVuSans-30"/>
       <use xlink:href="#DejaVuSans-2e" x="63.623047"/>
       <use xlink:href="#DejaVuSans-35" x="95.410156"/>
      </g>
     </g>
    </g>
    <g id="ytick_3">
     <g id="text_10">
      <!-- 1.0 -->
      <g style="fill: #262626" transform="translate(34.696875 218.346734) scale(0.1 -0.1)">
       <use xlink:href="#DejaVuSans-31"/>
       <use xlink:href="#DejaVuSans-2e" x="63.623047"/>
       <use xlink:href="#DejaVuSans-30" x="95.410156"/>
      </g>
     </g>
    </g>
    <g id="ytick_4">
     <g id="text_11">
      <!-- 1.5 -->
      <g style="fill: #262626" transform="translate(34.696875 177.649663) scale(0.1 -0.1)">
       <use xlink:href="#DejaVuSans-31"/>
       <use xlink:href="#DejaVuSans-2e" x="63.623047"/>
       <use xlink:href="#DejaVuSans-35" x="95.410156"/>
      </g>
     </g>
    </g>
    <g id="ytick_5">
     <g id="text_12">
      <!-- 2.0 -->
      <g style="fill: #262626" transform="translate(34.696875 136.952592) scale(0.1 -0.1)">
       <use xlink:href="#DejaVuSans-32"/>
       <use xlink:href="#DejaVuSans-2e" x="63.623047"/>
       <use xlink:href="#DejaVuSans-30" x="95.410156"/>
      </g>
     </g>
    </g>
    <g id="ytick_6">
     <g id="text_13">
      <!-- 2.5 -->
      <g style="fill: #262626" transform="translate(34.696875 96.255521) scale(0.1 -0.1)">
       <use xlink:href="#DejaVuSans-32"/>
       <use xlink:href="#DejaVuSans-2e" x="63.623047"/>
       <use xlink:href="#DejaVuSans-35" x="95.410156"/>
      </g>
     </g>
    </g>
    <g id="ytick_7">
     <g id="text_14">
      <!-- 3.0 -->
      <g style="fill: #262626" transform="translate(34.696875 55.55845) scale(0.1 -0.1)">
       <defs>
        <path id="DejaVuSans-33" d="M 2597 2516 
Q 3050 2419 3304 2112 
Q 3559 1806 3559 1356 
Q 3559 666 3084 287 
Q 2609 -91 1734 -91 
Q 1441 -91 1130 -33 
Q 819 25 488 141 
L 488 750 
Q 750 597 1062 519 
Q 1375 441 1716 441 
Q 2309 441 2620 675 
Q 2931 909 2931 1356 
Q 2931 1769 2642 2001 
Q 2353 2234 1838 2234 
L 1294 2234 
L 1294 2753 
L 1863 2753 
Q 2328 2753 2575 2939 
Q 2822 3125 2822 3475 
Q 2822 3834 2567 4026 
Q 2313 4219 1838 4219 
Q 1578 4219 1281 4162 
Q 984 4106 628 3988 
L 628 4550 
Q 988 4650 1302 4700 
Q 1616 4750 1894 4750 
Q 2613 4750 3031 4423 
Q 3450 4097 3450 3541 
Q 3450 3153 3228 2886 
Q 3006 2619 2597 2516 
z
" transform="scale(0.015625)"/>
       </defs>
       <use xlink:href="#DejaVuSans-33"/>
       <use xlink:href="#DejaVuSans-2e" x="63.623047"/>
       <use xlink:href="#DejaVuSans-30" x="95.410156"/>
      </g>
     </g>
    </g>
   </g>
   <g id="line2d_1">
    <path d="M 73.832727 79.917946 
L 74.122856 53.568 
L 74.412986 60.863537 
L 74.703115 101.093669 
L 74.993244 104.371802 
L 75.283373 109.429622 
L 75.573502 109.713189 
L 75.863631 109.822325 
L 76.44389 110.886744 
L 77.894536 113.209645 
L 78.474794 114.910486 
L 79.055052 117.170954 
L 80.505698 125.605333 
L 81.666215 136.268518 
L 82.536602 148.459781 
L 83.697119 159.286258 
L 85.437894 177.060796 
L 86.018153 183.055062 
L 86.308282 186.55828 
L 86.598411 191.936995 
L 87.178669 197.415322 
L 87.468798 197.287778 
L 87.758928 199.677107 
L 88.339186 209.370707 
L 88.919444 216.360029 
L 89.209573 217.920397 
L 89.499703 217.762786 
L 90.079961 222.220443 
L 90.950349 225.952606 
L 91.240478 228.974725 
L 91.530607 228.723111 
L 91.820736 232.117159 
L 92.110865 234.087266 
L 92.981253 244.074975 
L 93.271382 244.59363 
L 93.561511 244.578624 
L 94.141769 245.735084 
L 94.722028 245.008493 
L 95.592415 252.696223 
L 95.882544 254.652928 
L 96.172674 255.662918 
L 97.33319 261.669981 
L 97.62332 264.068305 
L 98.203578 266.008994 
L 98.493707 265.708326 
L 98.783836 264.043415 
L 99.654224 267.836459 
L 99.944353 268.586895 
L 100.234482 270.509198 
L 100.81474 271.225954 
L 101.394999 265.603218 
L 101.685128 265.395196 
L 101.975257 269.199901 
L 102.845645 275.409293 
L 103.135774 276.585412 
L 103.425903 273.71727 
L 103.716032 272.333827 
L 104.006161 271.589625 
L 104.296291 273.982719 
L 104.876549 276.27644 
L 105.456807 277.368497 
L 105.746936 277.539751 
L 106.037066 278.629611 
L 106.617324 279.277166 
L 107.197582 282.11208 
L 107.487711 281.713844 
L 107.777841 278.073705 
L 108.06797 275.947878 
L 108.358099 275.859926 
L 108.648228 276.193338 
L 108.938357 278.174234 
L 109.228486 278.986398 
L 109.808745 284.159803 
L 110.098874 285.74277 
L 110.389003 285.812796 
L 110.679132 284.372169 
L 111.259391 283.625535 
L 111.54952 284.317335 
L 111.839649 285.344705 
L 112.129778 286.867241 
L 112.419907 286.013423 
L 113.000166 283.603723 
L 113.290295 283.005059 
L 113.870553 285.491335 
L 114.160682 285.074906 
L 114.740941 279.658932 
L 115.03107 279.323301 
L 115.611328 283.875778 
L 115.901457 285.741403 
L 116.191587 285.357141 
L 116.481716 282.124188 
L 116.771845 280.676053 
L 117.061974 281.970817 
L 117.352103 285.393692 
L 117.932362 288.42254 
L 118.222491 288.907371 
L 118.802749 288.478526 
L 119.092878 289.095276 
L 119.673137 289.412259 
L 120.253395 290.145486 
L 120.543524 290.319036 
L 120.833653 290.91426 
L 121.123783 290.778933 
L 121.413912 290.82548 
L 121.704041 291.788252 
L 122.864558 292.82224 
L 123.154687 292.933233 
L 123.444816 293.181398 
L 123.734945 293.019208 
L 124.025074 292.442629 
L 124.605333 292.223423 
L 124.895462 292.384285 
L 125.47572 291.624314 
L 126.055979 292.145774 
L 126.346108 292.176118 
L 126.926366 292.625815 
L 127.216495 292.779871 
L 127.506624 293.136832 
L 128.377012 292.648748 
L 129.247399 292.684875 
L 129.537529 293.39174 
L 130.407916 293.579403 
L 130.698045 293.790698 
L 131.568433 293.070033 
L 131.858562 293.227027 
L 132.148691 293.555826 
L 132.72895 293.12338 
L 133.019079 293.135761 
L 133.309208 293.490799 
L 133.599337 293.420709 
L 134.179595 293.750483 
L 135.049983 293.708788 
L 135.340112 293.747936 
L 135.630241 293.571295 
L 137.661146 293.61576 
L 137.951275 293.466293 
L 138.241404 293.510268 
L 138.531533 293.299027 
L 139.401921 293.814761 
L 139.982179 292.915187 
L 140.852566 291.421244 
L 141.142696 291.726329 
L 141.432825 291.683826 
L 141.722954 291.430289 
L 142.013083 291.76783 
L 142.303212 292.484914 
L 142.593341 292.791239 
L 142.883471 292.389374 
L 143.463729 290.332294 
L 143.753858 288.70061 
L 144.043987 289.214821 
L 144.624246 291.360093 
L 144.914375 291.250422 
L 145.494633 292.329197 
L 145.784762 293.101335 
L 146.074892 292.961834 
L 146.65515 293.210019 
L 147.525537 293.900822 
L 147.815667 294.283433 
L 148.686054 294.182524 
L 148.976183 294.239311 
L 149.266312 293.929249 
L 149.556442 293.840117 
L 149.846571 294.046877 
L 150.1367 294.029256 
L 150.426829 293.709672 
L 151.587346 293.971937 
L 151.877475 294.34294 
L 152.457733 294.498756 
L 153.328121 294.305179 
L 154.198508 294.616078 
L 154.488638 294.526681 
L 155.068896 294.599945 
L 155.649154 294.43566 
L 155.939283 294.654607 
L 156.519542 294.690086 
L 157.0998 294.563608 
L 157.389929 294.539272 
L 158.260317 294.163804 
L 158.550446 294.318018 
L 158.840575 294.702794 
L 159.130704 294.582365 
L 160.001092 294.718313 
L 160.291221 294.922578 
L 160.871479 294.796073 
L 161.451738 294.742109 
L 162.031996 294.774402 
L 162.612254 294.664617 
L 162.902384 294.801872 
L 163.192513 294.671882 
L 163.772771 294.757375 
L 164.0629 294.732558 
L 164.643159 294.468092 
L 164.933288 294.477741 
L 165.223417 294.600715 
L 165.803675 293.784351 
L 166.964192 294.21545 
L 167.54445 294.458427 
L 167.83458 294.803578 
L 168.124709 294.778136 
L 168.414838 294.635404 
L 168.704967 294.349034 
L 168.995096 294.310211 
L 169.285225 294.606916 
L 170.155613 294.689811 
L 170.735871 294.56086 
L 171.606259 294.732245 
L 171.896388 294.53329 
L 172.186517 294.527548 
L 172.766776 294.864243 
L 173.056905 294.752126 
L 173.637163 294.955324 
L 173.927292 294.756711 
L 174.507551 294.697443 
L 174.79768 294.849595 
L 175.087809 294.724963 
L 175.668067 294.726406 
L 175.958196 294.356931 
L 176.248326 293.76469 
L 176.538455 292.856614 
L 176.828584 292.78152 
L 177.408842 294.158346 
L 178.27923 294.534444 
L 178.569359 294.400005 
L 179.149617 294.54396 
L 179.439747 294.406721 
L 180.600263 294.762083 
L 180.890392 294.941073 
L 181.180522 294.914959 
L 181.470651 295.004694 
L 183.211426 294.903111 
L 183.791684 294.966968 
L 184.662072 294.90064 
L 185.24233 294.703469 
L 185.532459 294.938728 
L 185.822588 294.964035 
L 186.112718 294.81457 
L 187.563363 294.923128 
L 187.853493 294.725412 
L 188.433751 294.873127 
L 189.304138 295.046116 
L 190.174526 294.956131 
L 191.625172 294.968334 
L 191.915301 294.813649 
L 192.20543 294.923556 
L 192.785689 294.856494 
L 193.365947 294.894314 
L 193.946205 294.629955 
L 194.816593 294.905042 
L 195.106722 294.793853 
L 195.977109 295.05663 
L 196.267239 295.188117 
L 198.008014 294.844183 
L 198.298143 294.990925 
L 199.748789 295.037048 
L 200.619176 295.023446 
L 201.199435 295.030479 
L 201.489564 295.116053 
L 202.069822 294.882388 
L 202.359951 294.849665 
L 202.65008 295.030488 
L 203.230339 295.009051 
L 203.520468 295.140941 
L 203.810597 295.054634 
L 204.390855 295.080111 
L 204.971114 295.122827 
L 205.551372 295.135952 
L 206.131631 295.126918 
L 206.711889 295.155937 
L 207.002018 295.127761 
L 207.292147 294.987638 
L 208.162535 295.206923 
L 209.032922 295.061844 
L 210.483568 295.17968 
L 211.353956 294.939998 
L 211.934214 295.031823 
L 214.255247 295.256704 
L 215.125635 295.062852 
L 215.415764 295.067377 
L 215.996022 295.27174 
L 218.026927 294.918484 
L 218.607185 295.121959 
L 218.897314 294.975981 
L 220.928218 295.007772 
L 221.218348 295.134197 
L 222.088735 295.189456 
L 222.668993 295.29889 
L 224.119639 295.139809 
L 225.860414 295.216188 
L 226.440673 295.231759 
L 227.891319 295.315386 
L 228.761706 295.214854 
L 229.051835 295.318166 
L 230.79261 295.068038 
L 231.082739 295.169468 
L 231.953127 294.987978 
L 232.533385 295.233092 
L 233.403773 295.168694 
L 235.144548 295.26583 
L 239.786615 295.229699 
L 240.366873 295.075782 
L 240.947131 295.263849 
L 241.817519 295.231665 
L 243.268165 295.188147 
L 245.299069 295.24276 
L 246.169456 295.072096 
L 249.360877 295.320057 
L 249.651007 295.106619 
L 250.521394 295.225096 
L 250.811523 295.169658 
L 251.391782 295.305244 
L 253.132557 295.329895 
L 255.743719 295.239239 
L 256.614107 295.367883 
L 260.675915 295.284197 
L 261.256174 295.349723 
L 262.126561 295.349338 
L 263.577207 295.277918 
L 263.867336 295.223929 
L 264.737724 295.422466 
L 265.317982 295.243203 
L 266.768628 295.318453 
L 267.058757 295.205977 
L 268.219274 295.229987 
L 268.799532 295.122604 
L 269.66992 295.296818 
L 270.250178 295.292031 
L 270.830436 295.286463 
L 271.410695 295.370057 
L 271.990953 295.161392 
L 274.892245 295.35839 
L 279.534311 295.335989 
L 280.11457 295.365615 
L 280.694828 295.256026 
L 281.275087 295.314466 
L 286.207282 295.178221 
L 286.497412 295.379941 
L 287.948058 295.376019 
L 292.009866 295.381271 
L 293.750641 295.417421 
L 296.651933 295.247707 
L 296.942062 295.320584 
L 297.52232 295.312395 
L 297.812449 295.416599 
L 298.682837 295.350758 
L 299.843354 295.387765 
L 300.423612 295.411436 
L 301.00387 295.384405 
L 301.874258 295.292411 
L 302.454516 295.378862 
L 303.034775 295.400799 
L 304.77555 295.308807 
L 305.645937 295.221953 
L 306.516325 295.371321 
L 307.386712 295.231758 
L 307.676841 295.020805 
L 308.2571 294.959794 
L 308.547229 295.17501 
L 309.417616 295.303442 
L 310.288004 295.358169 
L 311.448521 295.409511 
L 312.318908 295.375475 
L 312.609037 295.4247 
L 313.189296 295.276754 
L 316.090587 295.342073 
L 316.670846 295.302934 
L 318.411621 295.435735 
L 321.603042 295.387092 
L 329.726659 295.367998 
L 330.306917 295.444499 
L 331.177304 295.317869 
L 334.078596 295.462302 
L 339.300921 295.386242 
L 341.331825 295.379198 
L 344.233117 295.316002 
L 345.393634 295.409224 
L 347.714667 295.445326 
L 349.165313 295.397603 
L 354.387638 295.394562 
L 355.258026 295.439957 
L 356.418543 295.433204 
L 358.159318 295.439203 
L 359.319834 295.431594 
L 360.190222 295.394462 
L 360.77048 295.448794 
L 363.671772 295.393395 
L 363.961901 295.46253 
L 364.832289 295.398099 
L 365.702676 295.437075 
L 366.863193 295.439635 
L 368.023709 295.434541 
L 368.894097 295.42405 
L 369.764485 295.439668 
L 370.344743 295.319368 
L 371.21513 295.416129 
L 371.795389 295.356949 
L 373.826293 295.452328 
L 374.98681 295.392416 
L 387.752493 295.390124 
L 388.622881 295.377126 
L 389.493268 295.43348 
L 390.363656 295.380182 
L 398.487273 295.458923 
L 398.487273 295.458923 
" clip-path="url(#p351f184bef)" style="fill: none; stroke: #1f77b4; stroke-width: 0.5; stroke-linecap: round"/>
   </g>
   <g id="patch_3">
    <path d="M 57.6 307.584 
L 57.6 41.472 
" style="fill: none; stroke: #ffffff; stroke-width: 0.8; stroke-linejoin: miter; stroke-linecap: square"/>
   </g>
   <g id="patch_4">
    <path d="M 414.72 307.584 
L 414.72 41.472 
" style="fill: none; stroke: #ffffff; stroke-width: 0.8; stroke-linejoin: miter; stroke-linecap: square"/>
   </g>
   <g id="patch_5">
    <path d="M 57.6 307.584 
L 414.72 307.584 
" style="fill: none; stroke: #ffffff; stroke-width: 0.8; stroke-linejoin: miter; stroke-linecap: square"/>
   </g>
   <g id="patch_6">
    <path d="M 57.6 41.472 
L 414.72 41.472 
" style="fill: none; stroke: #ffffff; stroke-width: 0.8; stroke-linejoin: miter; stroke-linecap: square"/>
   </g>
   <g id="text_15">
    <!-- loss terhadap epoch -->
    <g style="fill: #262626" transform="translate(175.303125 35.472) scale(0.12 -0.12)">
     <defs>
      <path id="DejaVuSans-6c" d="M 603 4863 
L 1178 4863 
L 1178 0 
L 603 0 
L 603 4863 
z
" transform="scale(0.015625)"/>
      <path id="DejaVuSans-73" d="M 2834 3397 
L 2834 2853 
Q 2591 2978 2328 3040 
Q 2066 3103 1784 3103 
Q 1356 3103 1142 2972 
Q 928 2841 928 2578 
Q 928 2378 1081 2264 
Q 1234 2150 1697 2047 
L 1894 2003 
Q 2506 1872 2764 1633 
Q 3022 1394 3022 966 
Q 3022 478 2636 193 
Q 2250 -91 1575 -91 
Q 1294 -91 989 -36 
Q 684 19 347 128 
L 347 722 
Q 666 556 975 473 
Q 1284 391 1588 391 
Q 1994 391 2212 530 
Q 2431 669 2431 922 
Q 2431 1156 2273 1281 
Q 2116 1406 1581 1522 
L 1381 1569 
Q 847 1681 609 1914 
Q 372 2147 372 2553 
Q 372 3047 722 3315 
Q 1072 3584 1716 3584 
Q 2034 3584 2315 3537 
Q 2597 3491 2834 3397 
z
" transform="scale(0.015625)"/>
      <path id="DejaVuSans-20" transform="scale(0.015625)"/>
      <path id="DejaVuSans-74" d="M 1172 4494 
L 1172 3500 
L 2356 3500 
L 2356 3053 
L 1172 3053 
L 1172 1153 
Q 1172 725 1289 603 
Q 1406 481 1766 481 
L 2356 481 
L 2356 0 
L 1766 0 
Q 1100 0 847 248 
Q 594 497 594 1153 
L 594 3053 
L 172 3053 
L 172 3500 
L 594 3500 
L 594 4494 
L 1172 4494 
z
" transform="scale(0.015625)"/>
      <path id="DejaVuSans-72" d="M 2631 2963 
Q 2534 3019 2420 3045 
Q 2306 3072 2169 3072 
Q 1681 3072 1420 2755 
Q 1159 2438 1159 1844 
L 1159 0 
L 581 0 
L 581 3500 
L 1159 3500 
L 1159 2956 
Q 1341 3275 1631 3429 
Q 1922 3584 2338 3584 
Q 2397 3584 2469 3576 
Q 2541 3569 2628 3553 
L 2631 2963 
z
" transform="scale(0.015625)"/>
      <path id="DejaVuSans-61" d="M 2194 1759 
Q 1497 1759 1228 1600 
Q 959 1441 959 1056 
Q 959 750 1161 570 
Q 1363 391 1709 391 
Q 2188 391 2477 730 
Q 2766 1069 2766 1631 
L 2766 1759 
L 2194 1759 
z
M 3341 1997 
L 3341 0 
L 2766 0 
L 2766 531 
Q 2569 213 2275 61 
Q 1981 -91 1556 -91 
Q 1019 -91 701 211 
Q 384 513 384 1019 
Q 384 1609 779 1909 
Q 1175 2209 1959 2209 
L 2766 2209 
L 2766 2266 
Q 2766 2663 2505 2880 
Q 2244 3097 1772 3097 
Q 1472 3097 1187 3025 
Q 903 2953 641 2809 
L 641 3341 
Q 956 3463 1253 3523 
Q 1550 3584 1831 3584 
Q 2591 3584 2966 3190 
Q 3341 2797 3341 1997 
z
" transform="scale(0.015625)"/>
      <path id="DejaVuSans-64" d="M 2906 2969 
L 2906 4863 
L 3481 4863 
L 3481 0 
L 2906 0 
L 2906 525 
Q 2725 213 2448 61 
Q 2172 -91 1784 -91 
Q 1150 -91 751 415 
Q 353 922 353 1747 
Q 353 2572 751 3078 
Q 1150 3584 1784 3584 
Q 2172 3584 2448 3432 
Q 2725 3281 2906 2969 
z
M 947 1747 
Q 947 1113 1208 752 
Q 1469 391 1925 391 
Q 2381 391 2643 752 
Q 2906 1113 2906 1747 
Q 2906 2381 2643 2742 
Q 2381 3103 1925 3103 
Q 1469 3103 1208 2742 
Q 947 2381 947 1747 
z
" transform="scale(0.015625)"/>
     </defs>
     <use xlink:href="#DejaVuSans-6c"/>
     <use xlink:href="#DejaVuSans-6f" x="27.783203"/>
     <use xlink:href="#DejaVuSans-73" x="88.964844"/>
     <use xlink:href="#DejaVuSans-73" x="141.064453"/>
     <use xlink:href="#DejaVuSans-20" x="193.164062"/>
     <use xlink:href="#DejaVuSans-74" x="224.951172"/>
     <use xlink:href="#DejaVuSans-65" x="264.160156"/>
     <use xlink:href="#DejaVuSans-72" x="325.683594"/>
     <use xlink:href="#DejaVuSans-68" x="365.046875"/>
     <use xlink:href="#DejaVuSans-61" x="428.425781"/>
     <use xlink:href="#DejaVuSans-64" x="489.705078"/>
     <use xlink:href="#DejaVuSans-61" x="553.181641"/>
     <use xlink:href="#DejaVuSans-70" x="614.460938"/>
     <use xlink:href="#DejaVuSans-20" x="677.9375"/>
     <use xlink:href="#DejaVuSans-65" x="709.724609"/>
     <use xlink:href="#DejaVuSans-70" x="771.248047"/>
     <use xlink:href="#DejaVuSans-6f" x="834.724609"/>
     <use xlink:href="#DejaVuSans-63" x="895.90625"/>
     <use xlink:href="#DejaVuSans-68" x="950.886719"/>
    </g>
   </g>
   <g id="legend_1">
    <g id="patch_7">
     <path d="M 239.190313 64.42825 
L 407.72 64.42825 
Q 409.72 64.42825 409.72 62.42825 
L 409.72 48.472 
Q 409.72 46.472 407.72 46.472 
L 239.190313 46.472 
Q 237.190313 46.472 237.190313 48.472 
L 237.190313 62.42825 
Q 237.190313 64.42825 239.190313 64.42825 
z
" style="fill: #eaeaf2; opacity: 0.8; stroke: #cccccc; stroke-linejoin: miter"/>
    </g>
    <g id="line2d_2">
     <path d="M 241.190313 54.570437 
L 251.190313 54.570437 
L 261.190313 54.570437 
" style="fill: none; stroke: #1f77b4; stroke-width: 0.5; stroke-linecap: round"/>
    </g>
    <g id="text_16">
     <!-- best-550/top1-0d9072_loss -->
     <g style="fill: #262626" transform="translate(269.190313 58.070437) scale(0.1 -0.1)">
      <defs>
       <path id="DejaVuSans-62" d="M 3116 1747 
Q 3116 2381 2855 2742 
Q 2594 3103 2138 3103 
Q 1681 3103 1420 2742 
Q 1159 2381 1159 1747 
Q 1159 1113 1420 752 
Q 1681 391 2138 391 
Q 2594 391 2855 752 
Q 3116 1113 3116 1747 
z
M 1159 2969 
Q 1341 3281 1617 3432 
Q 1894 3584 2278 3584 
Q 2916 3584 3314 3078 
Q 3713 2572 3713 1747 
Q 3713 922 3314 415 
Q 2916 -91 2278 -91 
Q 1894 -91 1617 61 
Q 1341 213 1159 525 
L 1159 0 
L 581 0 
L 581 4863 
L 1159 4863 
L 1159 2969 
z
" transform="scale(0.015625)"/>
       <path id="DejaVuSans-2d" d="M 313 2009 
L 1997 2009 
L 1997 1497 
L 313 1497 
L 313 2009 
z
" transform="scale(0.015625)"/>
       <path id="DejaVuSans-2f" d="M 1625 4666 
L 2156 4666 
L 531 -594 
L 0 -594 
L 1625 4666 
z
" transform="scale(0.015625)"/>
       <path id="DejaVuSans-39" d="M 703 97 
L 703 672 
Q 941 559 1184 500 
Q 1428 441 1663 441 
Q 2288 441 2617 861 
Q 2947 1281 2994 2138 
Q 2813 1869 2534 1725 
Q 2256 1581 1919 1581 
Q 1219 1581 811 2004 
Q 403 2428 403 3163 
Q 403 3881 828 4315 
Q 1253 4750 1959 4750 
Q 2769 4750 3195 4129 
Q 3622 3509 3622 2328 
Q 3622 1225 3098 567 
Q 2575 -91 1691 -91 
Q 1453 -91 1209 -44 
Q 966 3 703 97 
z
M 1959 2075 
Q 2384 2075 2632 2365 
Q 2881 2656 2881 3163 
Q 2881 3666 2632 3958 
Q 2384 4250 1959 4250 
Q 1534 4250 1286 3958 
Q 1038 3666 1038 3163 
Q 1038 2656 1286 2365 
Q 1534 2075 1959 2075 
z
" transform="scale(0.015625)"/>
       <path id="DejaVuSans-37" d="M 525 4666 
L 3525 4666 
L 3525 4397 
L 1831 0 
L 1172 0 
L 2766 4134 
L 525 4134 
L 525 4666 
z
" transform="scale(0.015625)"/>
       <path id="DejaVuSans-5f" d="M 3263 -1063 
L 3263 -1509 
L -63 -1509 
L -63 -1063 
L 3263 -1063 
z
" transform="scale(0.015625)"/>
      </defs>
      <use xlink:href="#DejaVuSans-62"/>
      <use xlink:href="#DejaVuSans-65" x="63.476562"/>
      <use xlink:href="#DejaVuSans-73" x="125"/>
      <use xlink:href="#DejaVuSans-74" x="177.099609"/>
      <use xlink:href="#DejaVuSans-2d" x="216.308594"/>
      <use xlink:href="#DejaVuSans-35" x="252.392578"/>
      <use xlink:href="#DejaVuSans-35" x="316.015625"/>
      <use xlink:href="#DejaVuSans-30" x="379.638672"/>
      <use xlink:href="#DejaVuSans-2f" x="443.261719"/>
      <use xlink:href="#DejaVuSans-74" x="476.953125"/>
      <use xlink:href="#DejaVuSans-6f" x="516.162109"/>
      <use xlink:href="#DejaVuSans-70" x="577.34375"/>
      <use xlink:href="#DejaVuSans-31" x="640.820312"/>
      <use xlink:href="#DejaVuSans-2d" x="704.443359"/>
      <use xlink:href="#DejaVuSans-30" x="740.527344"/>
      <use xlink:href="#DejaVuSans-64" x="804.150391"/>
      <use xlink:href="#DejaVuSans-39" x="867.626953"/>
      <use xlink:href="#DejaVuSans-30" x="931.25"/>
      <use xlink:href="#DejaVuSans-37" x="994.873047"/>
      <use xlink:href="#DejaVuSans-32" x="1058.496094"/>
      <use xlink:href="#DejaVuSans-5f" x="1122.119141"/>
      <use xlink:href="#DejaVuSans-6c" x="1172.119141"/>
      <use xlink:href="#DejaVuSans-6f" x="1199.902344"/>
      <use xlink:href="#DejaVuSans-73" x="1261.083984"/>
      <use xlink:href="#DejaVuSans-73" x="1313.183594"/>
     </g>
    </g>
   </g>
  </g>
 </g>
 <defs>
  <clipPath id="p351f184bef">
   <rect x="57.6" y="41.472" width="357.12" height="266.112"/>
  </clipPath>
 </defs>
</svg>
