<?xml version="1.0" encoding="utf-8" standalone="no"?>
<!DOCTYPE svg PUBLIC "-//W3C//DTD SVG 1.1//EN"
  "http://www.w3.org/Graphics/SVG/1.1/DTD/svg11.dtd">
<svg xmlns:xlink="http://www.w3.org/1999/xlink" width="460.8pt" height="345.6pt" viewBox="0 0 460.8 345.6" xmlns="http://www.w3.org/2000/svg" version="1.1">
 <metadata>
  <rdf:RDF xmlns:dc="http://purl.org/dc/elements/1.1/" xmlns:cc="http://creativecommons.org/ns#" xmlns:rdf="http://www.w3.org/1999/02/22-rdf-syntax-ns#">
   <cc:Work>
    <dc:type rdf:resource="http://purl.org/dc/dcmitype/StillImage"/>
    <dc:date>2024-05-02T07:54:48.170447</dc:date>
    <dc:format>image/svg+xml</dc:format>
    <dc:creator>
     <cc:Agent>
      <dc:title>Matplotlib v3.7.2, https://matplotlib.org/</dc:title>
     </cc:Agent>
    </dc:creator>
   </cc:Work>
  </rdf:RDF>
 </metadata>
 <defs>
  <style type="text/css">*{stroke-linejoin: round; stroke-linecap: butt}</style>
 </defs>
 <g id="figure_1">
  <g id="patch_1">
   <path d="M 0 345.6 
L 460.8 345.6 
L 460.8 0 
L 0 0 
z
" style="fill: #ffffff"/>
  </g>
  <g id="axes_1">
   <g id="patch_2">
    <path d="M 57.6 307.584 
L 414.72 307.584 
L 414.72 41.472 
L 57.6 41.472 
z
" style="fill: #eaeaf2"/>
   </g>
   <g id="matplotlib.axis_1">
    <g id="xtick_1">
     <g id="text_1">
      <!-- 0 -->
      <g style="fill: #262626" transform="translate(69.543441 322.182437) scale(0.1 -0.1)">
       <defs>
        <path id="DejaVuSans-30" d="M 2034 4250 
Q 1547 4250 1301 3770 
Q 1056 3291 1056 2328 
Q 1056 1369 1301 889 
Q 1547 409 2034 409 
Q 2525 409 2770 889 
Q 3016 1369 3016 2328 
Q 3016 3291 2770 3770 
Q 2525 4250 2034 4250 
z
M 2034 4750 
Q 2819 4750 3233 4129 
Q 3647 3509 3647 2328 
Q 3647 1150 3233 529 
Q 2819 -91 2034 -91 
Q 1250 -91 836 529 
Q 422 1150 422 2328 
Q 422 3509 836 4129 
Q 1250 4750 2034 4750 
z
" transform="scale(0.015625)"/>
       </defs>
       <use xlink:href="#DejaVuSans-30"/>
      </g>
     </g>
    </g>
    <g id="xtick_2">
     <g id="text_2">
      <!-- 50 -->
      <g style="fill: #262626" transform="translate(121.763991 322.182437) scale(0.1 -0.1)">
       <defs>
        <path id="DejaVuSans-35" d="M 691 4666 
L 3169 4666 
L 3169 4134 
L 1269 4134 
L 1269 2991 
Q 1406 3038 1543 3061 
Q 1681 3084 1819 3084 
Q 2600 3084 3056 2656 
Q 3513 2228 3513 1497 
Q 3513 744 3044 326 
Q 2575 -91 1722 -91 
Q 1428 -91 1123 -41 
Q 819 9 494 109 
L 494 744 
Q 775 591 1075 516 
Q 1375 441 1709 441 
Q 2250 441 2565 725 
Q 2881 1009 2881 1497 
Q 2881 1984 2565 2268 
Q 2250 2553 1709 2553 
Q 1456 2553 1204 2497 
Q 953 2441 691 2322 
L 691 4666 
z
" transform="scale(0.015625)"/>
       </defs>
       <use xlink:href="#DejaVuSans-35"/>
       <use xlink:href="#DejaVuSans-30" x="63.623047"/>
      </g>
     </g>
    </g>
    <g id="xtick_3">
     <g id="text_3">
      <!-- 100 -->
      <g style="fill: #262626" transform="translate(173.98454 322.182437) scale(0.1 -0.1)">
       <defs>
        <path id="DejaVuSans-31" d="M 794 531 
L 1825 531 
L 1825 4091 
L 703 3866 
L 703 4441 
L 1819 4666 
L 2450 4666 
L 2450 531 
L 3481 531 
L 3481 0 
L 794 0 
L 794 531 
z
" transform="scale(0.015625)"/>
       </defs>
       <use xlink:href="#DejaVuSans-31"/>
       <use xlink:href="#DejaVuSans-30" x="63.623047"/>
       <use xlink:href="#DejaVuSans-30" x="127.246094"/>
      </g>
     </g>
    </g>
    <g id="xtick_4">
     <g id="text_4">
      <!-- 150 -->
      <g style="fill: #262626" transform="translate(229.38634 322.182437) scale(0.1 -0.1)">
       <use xlink:href="#DejaVuSans-31"/>
       <use xlink:href="#DejaVuSans-35" x="63.623047"/>
       <use xlink:href="#DejaVuSans-30" x="127.246094"/>
      </g>
     </g>
    </g>
    <g id="xtick_5">
     <g id="text_5">
      <!-- 200 -->
      <g style="fill: #262626" transform="translate(284.78814 322.182437) scale(0.1 -0.1)">
       <defs>
        <path id="DejaVuSans-32" d="M 1228 531 
L 3431 531 
L 3431 0 
L 469 0 
L 469 531 
Q 828 903 1448 1529 
Q 2069 2156 2228 2338 
Q 2531 2678 2651 2914 
Q 2772 3150 2772 3378 
Q 2772 3750 2511 3984 
Q 2250 4219 1831 4219 
Q 1534 4219 1204 4116 
Q 875 4013 500 3803 
L 500 4441 
Q 881 4594 1212 4672 
Q 1544 4750 1819 4750 
Q 2544 4750 2975 4387 
Q 3406 4025 3406 3419 
Q 3406 3131 3298 2873 
Q 3191 2616 2906 2266 
Q 2828 2175 2409 1742 
Q 1991 1309 1228 531 
z
" transform="scale(0.015625)"/>
       </defs>
       <use xlink:href="#DejaVuSans-32"/>
       <use xlink:href="#DejaVuSans-30" x="63.623047"/>
       <use xlink:href="#DejaVuSans-30" x="127.246094"/>
      </g>
     </g>
    </g>
    <g id="xtick_6">
     <g id="text_6">
      <!-- 250 -->
      <g style="fill: #262626" transform="translate(340.189939 322.182437) scale(0.1 -0.1)">
       <use xlink:href="#DejaVuSans-32"/>
       <use xlink:href="#DejaVuSans-35" x="63.623047"/>
       <use xlink:href="#DejaVuSans-30" x="127.246094"/>
      </g>
     </g>
    </g>
    <g id="xtick_7">
     <g id="text_7">
      <!-- 300 -->
      <g style="fill: #262626" transform="translate(395.591739 322.182437) scale(0.1 -0.1)">
       <defs>
        <path id="DejaVuSans-33" d="M 2597 2516 
Q 3050 2419 3304 2112 
Q 3559 1806 3559 1356 
Q 3559 666 3084 287 
Q 2609 -91 1734 -91 
Q 1441 -91 1130 -33 
Q 819 25 488 141 
L 488 750 
Q 750 597 1062 519 
Q 1375 441 1716 441 
Q 2309 441 2620 675 
Q 2931 909 2931 1356 
Q 2931 1769 2642 2001 
Q 2353 2234 1838 2234 
L 1294 2234 
L 1294 2753 
L 1863 2753 
Q 2328 2753 2575 2939 
Q 2822 3125 2822 3475 
Q 2822 3834 2567 4026 
Q 2313 4219 1838 4219 
Q 1578 4219 1281 4162 
Q 984 4106 628 3988 
L 628 4550 
Q 988 4650 1302 4700 
Q 1616 4750 1894 4750 
Q 2613 4750 3031 4423 
Q 3450 4097 3450 3541 
Q 3450 3153 3228 2886 
Q 3006 2619 2597 2516 
z
" transform="scale(0.015625)"/>
       </defs>
       <use xlink:href="#DejaVuSans-33"/>
       <use xlink:href="#DejaVuSans-30" x="63.623047"/>
       <use xlink:href="#DejaVuSans-30" x="127.246094"/>
      </g>
     </g>
    </g>
    <g id="text_8">
     <!-- epoch -->
     <g style="fill: #262626" transform="translate(220.931875 335.860562) scale(0.1 -0.1)">
      <defs>
       <path id="DejaVuSans-65" d="M 3597 1894 
L 3597 1613 
L 953 1613 
Q 991 1019 1311 708 
Q 1631 397 2203 397 
Q 2534 397 2845 478 
Q 3156 559 3463 722 
L 3463 178 
Q 3153 47 2828 -22 
Q 2503 -91 2169 -91 
Q 1331 -91 842 396 
Q 353 884 353 1716 
Q 353 2575 817 3079 
Q 1281 3584 2069 3584 
Q 2775 3584 3186 3129 
Q 3597 2675 3597 1894 
z
M 3022 2063 
Q 3016 2534 2758 2815 
Q 2500 3097 2075 3097 
Q 1594 3097 1305 2825 
Q 1016 2553 972 2059 
L 3022 2063 
z
" transform="scale(0.015625)"/>
       <path id="DejaVuSans-70" d="M 1159 525 
L 1159 -1331 
L 581 -1331 
L 581 3500 
L 1159 3500 
L 1159 2969 
Q 1341 3281 1617 3432 
Q 1894 3584 2278 3584 
Q 2916 3584 3314 3078 
Q 3713 2572 3713 1747 
Q 3713 922 3314 415 
Q 2916 -91 2278 -91 
Q 1894 -91 1617 61 
Q 1341 213 1159 525 
z
M 3116 1747 
Q 3116 2381 2855 2742 
Q 2594 3103 2138 3103 
Q 1681 3103 1420 2742 
Q 1159 2381 1159 1747 
Q 1159 1113 1420 752 
Q 1681 391 2138 391 
Q 2594 391 2855 752 
Q 3116 1113 3116 1747 
z
" transform="scale(0.015625)"/>
       <path id="DejaVuSans-6f" d="M 1959 3097 
Q 1497 3097 1228 2736 
Q 959 2375 959 1747 
Q 959 1119 1226 758 
Q 1494 397 1959 397 
Q 2419 397 2687 759 
Q 2956 1122 2956 1747 
Q 2956 2369 2687 2733 
Q 2419 3097 1959 3097 
z
M 1959 3584 
Q 2709 3584 3137 3096 
Q 3566 2609 3566 1747 
Q 3566 888 3137 398 
Q 2709 -91 1959 -91 
Q 1206 -91 779 398 
Q 353 888 353 1747 
Q 353 2609 779 3096 
Q 1206 3584 1959 3584 
z
" transform="scale(0.015625)"/>
       <path id="DejaVuSans-63" d="M 3122 3366 
L 3122 2828 
Q 2878 2963 2633 3030 
Q 2388 3097 2138 3097 
Q 1578 3097 1268 2742 
Q 959 2388 959 1747 
Q 959 1106 1268 751 
Q 1578 397 2138 397 
Q 2388 397 2633 464 
Q 2878 531 3122 666 
L 3122 134 
Q 2881 22 2623 -34 
Q 2366 -91 2075 -91 
Q 1284 -91 818 406 
Q 353 903 353 1747 
Q 353 2603 823 3093 
Q 1294 3584 2113 3584 
Q 2378 3584 2631 3529 
Q 2884 3475 3122 3366 
z
" transform="scale(0.015625)"/>
       <path id="DejaVuSans-68" d="M 3513 2113 
L 3513 0 
L 2938 0 
L 2938 2094 
Q 2938 2591 2744 2837 
Q 2550 3084 2163 3084 
Q 1697 3084 1428 2787 
Q 1159 2491 1159 1978 
L 1159 0 
L 581 0 
L 581 4863 
L 1159 4863 
L 1159 2956 
Q 1366 3272 1645 3428 
Q 1925 3584 2291 3584 
Q 2894 3584 3203 3211 
Q 3513 2838 3513 2113 
z
" transform="scale(0.015625)"/>
      </defs>
      <use xlink:href="#DejaVuSans-65"/>
      <use xlink:href="#DejaVuSans-70" x="61.523438"/>
      <use xlink:href="#DejaVuSans-6f" x="125"/>
      <use xlink:href="#DejaVuSans-63" x="186.181641"/>
      <use xlink:href="#DejaVuSans-68" x="241.162109"/>
     </g>
    </g>
   </g>
   <g id="matplotlib.axis_2">
    <g id="ytick_1">
     <g id="text_9">
      <!-- 0.15 -->
      <g style="fill: #262626" transform="translate(28.334375 308.549252) scale(0.1 -0.1)">
       <defs>
        <path id="DejaVuSans-2e" d="M 684 794 
L 1344 794 
L 1344 0 
L 684 0 
L 684 794 
z
" transform="scale(0.015625)"/>
       </defs>
       <use xlink:href="#DejaVuSans-30"/>
       <use xlink:href="#DejaVuSans-2e" x="63.623047"/>
       <use xlink:href="#DejaVuSans-31" x="95.410156"/>
       <use xlink:href="#DejaVuSans-35" x="159.033203"/>
      </g>
     </g>
    </g>
    <g id="ytick_2">
     <g id="text_10">
      <!-- 0.20 -->
      <g style="fill: #262626" transform="translate(28.334375 256.224137) scale(0.1 -0.1)">
       <use xlink:href="#DejaVuSans-30"/>
       <use xlink:href="#DejaVuSans-2e" x="63.623047"/>
       <use xlink:href="#DejaVuSans-32" x="95.410156"/>
       <use xlink:href="#DejaVuSans-30" x="159.033203"/>
      </g>
     </g>
    </g>
    <g id="ytick_3">
     <g id="text_11">
      <!-- 0.25 -->
      <g style="fill: #262626" transform="translate(28.334375 203.899022) scale(0.1 -0.1)">
       <use xlink:href="#DejaVuSans-30"/>
       <use xlink:href="#DejaVuSans-2e" x="63.623047"/>
       <use xlink:href="#DejaVuSans-32" x="95.410156"/>
       <use xlink:href="#DejaVuSans-35" x="159.033203"/>
      </g>
     </g>
    </g>
    <g id="ytick_4">
     <g id="text_12">
      <!-- 0.30 -->
      <g style="fill: #262626" transform="translate(28.334375 151.573907) scale(0.1 -0.1)">
       <use xlink:href="#DejaVuSans-30"/>
       <use xlink:href="#DejaVuSans-2e" x="63.623047"/>
       <use xlink:href="#DejaVuSans-33" x="95.410156"/>
       <use xlink:href="#DejaVuSans-30" x="159.033203"/>
      </g>
     </g>
    </g>
    <g id="ytick_5">
     <g id="text_13">
      <!-- 0.35 -->
      <g style="fill: #262626" transform="translate(28.334375 99.248793) scale(0.1 -0.1)">
       <use xlink:href="#DejaVuSans-30"/>
       <use xlink:href="#DejaVuSans-2e" x="63.623047"/>
       <use xlink:href="#DejaVuSans-33" x="95.410156"/>
       <use xlink:href="#DejaVuSans-35" x="159.033203"/>
      </g>
     </g>
    </g>
    <g id="ytick_6">
     <g id="text_14">
      <!-- 0.40 -->
      <g style="fill: #262626" transform="translate(28.334375 46.923678) scale(0.1 -0.1)">
       <defs>
        <path id="DejaVuSans-34" d="M 2419 4116 
L 825 1625 
L 2419 1625 
L 2419 4116 
z
M 2253 4666 
L 3047 4666 
L 3047 1625 
L 3713 1625 
L 3713 1100 
L 3047 1100 
L 3047 0 
L 2419 0 
L 2419 1100 
L 313 1100 
L 313 1709 
L 2253 4666 
z
" transform="scale(0.015625)"/>
       </defs>
       <use xlink:href="#DejaVuSans-30"/>
       <use xlink:href="#DejaVuSans-2e" x="63.623047"/>
       <use xlink:href="#DejaVuSans-34" x="95.410156"/>
       <use xlink:href="#DejaVuSans-30" x="159.033203"/>
      </g>
     </g>
    </g>
   </g>
   <g id="line2d_1">
    <path d="M 73.832727 279.954885 
L 74.940763 277.310951 
L 76.048799 234.677508 
L 77.156835 228.893902 
L 78.264871 231.703082 
L 79.372907 211.543082 
L 80.480943 186.425705 
L 81.588979 222.284066 
L 82.697015 245.748984 
L 83.805051 279.293902 
L 84.913087 265.082754 
L 86.021123 216.500459 
L 87.129159 284.58177 
L 88.237195 269.874885 
L 89.345231 273.675541 
L 90.453267 273.510295 
L 91.561303 278.467672 
L 92.669339 263.099803 
L 93.777375 266.569967 
L 94.885411 253.680787 
L 97.101483 285.077508 
L 98.209519 289.04341 
L 99.317555 248.062426 
L 100.425591 241.45259 
L 101.533627 173.867016 
L 102.641663 221.623082 
L 103.749699 281.77259 
L 104.857735 281.607344 
L 105.965771 288.547672 
L 107.073807 237.156197 
L 108.181843 264.752262 
L 109.289879 286.729967 
L 110.397915 260.621115 
L 111.505951 201.297836 
L 112.613987 284.747016 
L 113.722023 240.295869 
L 114.830059 255.99423 
L 115.938095 179.485377 
L 117.046131 179.154885 
L 118.154167 214.187016 
L 119.262203 228.893902 
L 120.370239 212.204066 
L 121.478275 160.151607 
L 122.586311 240.461115 
L 123.694347 265.908984 
L 124.802383 220.631607 
L 125.910419 274.667016 
L 127.018455 244.592262 
L 128.126491 275.988984 
L 129.234527 276.484721 
L 130.342563 223.606033 
L 131.450599 193.531279 
L 132.558635 175.519475 
L 133.666671 174.362754 
L 134.774707 200.636852 
L 135.882743 264.42177 
L 136.990779 211.873574 
L 138.098815 175.188984 
L 139.206851 259.464393 
L 140.314887 258.307672 
L 141.422923 170.562098 
L 142.530959 208.899148 
L 143.638995 212.534557 
L 144.747031 116.526689 
L 145.855067 180.476852 
L 146.963103 162.795541 
L 148.071139 189.565377 
L 149.179175 184.773246 
L 150.287211 174.197508 
L 151.395247 237.651934 
L 152.503283 156.020459 
L 153.611319 247.89718 
L 154.719355 168.579148 
L 155.827391 149.245377 
L 156.935427 203.446033 
L 158.043463 241.287344 
L 159.151499 191.713574 
L 160.259535 187.582426 
L 161.367571 243.766033 
L 162.475607 178.989639 
L 163.583643 186.590951 
L 164.691679 235.83423 
L 165.799715 220.466361 
L 166.907751 197.827672 
L 168.015787 295.488 
L 169.123823 176.676197 
L 170.231859 253.350295 
L 171.339895 192.870295 
L 172.44793 181.79882 
L 173.555966 200.802098 
L 174.664002 173.206033 
L 175.772038 142.305049 
L 176.880074 185.929967 
L 177.98811 173.371279 
L 179.096146 141.313574 
L 180.204182 181.79882 
L 181.312218 155.524721 
L 182.420254 180.97259 
L 183.52829 177.171934 
L 184.636326 188.739148 
L 185.744362 253.019803 
L 186.852398 214.848 
L 187.960434 249.219148 
L 189.06847 246.575213 
L 190.176506 197.166689 
L 191.284542 258.307672 
L 192.392578 150.402098 
L 193.500614 261.116852 
L 194.60865 208.568656 
L 195.716686 143.957508 
L 196.824722 152.715541 
L 197.932758 125.615213 
L 199.040794 204.272262 
L 200.14883 172.049311 
L 201.256866 219.970623 
L 202.364902 274.832262 
L 203.472938 140.322098 
L 204.580974 217.491934 
L 205.68901 172.049311 
L 206.797046 138.504393 
L 207.905082 207.246689 
L 209.013118 263.265049 
L 210.121154 244.096525 
L 211.22919 177.998164 
L 213.445262 271.362098 
L 214.553298 238.808656 
L 215.661334 250.375869 
L 216.76937 276.319475 
L 217.877406 194.522754 
L 218.985442 277.806689 
L 220.093478 258.307672 
L 221.201514 133.712262 
L 222.30955 174.528 
L 223.417586 254.011279 
L 224.525622 233.190295 
L 225.633658 255.333246 
L 226.741694 159.655869 
L 227.84973 123.30177 
L 228.957766 185.43423 
L 230.065802 163.291279 
L 231.173838 161.473574 
L 232.281874 268.718164 
L 233.38991 161.308328 
L 234.497946 137.678164 
L 235.605982 162.630295 
L 236.714018 140.983082 
L 237.822054 144.948984 
L 238.93009 203.280787 
L 240.038126 188.573902 
L 241.146162 253.515541 
L 242.254198 206.585705 
L 243.362234 144.618492 
L 244.47027 196.670951 
L 245.578306 125.945705 
L 246.686342 125.945705 
L 247.794378 204.768 
L 248.902414 248.227672 
L 250.01045 152.385049 
L 251.118486 156.516197 
L 252.226522 245.91423 
L 253.334558 138.504393 
L 254.442594 150.402098 
L 255.55063 117.187672 
L 256.658666 158.00341 
L 257.766702 204.933246 
L 258.874738 143.627016 
L 259.982774 152.054557 
L 261.09081 191.87882 
L 262.198846 186.260459 
L 263.306882 160.316852 
L 264.414918 276.319475 
L 265.522954 167.422426 
L 266.63099 177.33718 
L 267.739026 196.836197 
L 268.847062 194.522754 
L 269.955098 247.731934 
L 271.063134 167.752918 
L 272.17117 125.780459 
L 273.279206 150.567344 
L 274.387242 186.095213 
L 275.495278 156.681443 
L 276.603314 120.988328 
L 277.71135 149.080131 
L 278.819386 145.775213 
L 281.035458 171.223082 
L 282.143494 199.314885 
L 283.25153 194.522754 
L 284.359566 152.880787 
L 285.467602 197.331934 
L 286.575638 153.872262 
L 287.683674 135.695213 
L 288.79171 130.737836 
L 289.899746 167.587672 
L 291.007782 148.253902 
L 292.115818 192.209311 
L 293.223854 176.510951 
L 294.33189 163.291279 
L 295.439926 141.974557 
L 296.547962 183.120787 
L 297.655998 247.731934 
L 298.764034 169.405377 
L 299.87207 116.361443 
L 300.980105 121.979803 
L 302.088141 282.764066 
L 303.196177 272.684066 
L 304.304213 155.855213 
L 305.412249 127.267672 
L 306.520285 183.947016 
L 307.628321 166.596197 
L 308.736357 155.855213 
L 309.844393 123.962754 
L 310.952429 178.659148 
L 312.060465 207.742426 
L 313.168501 179.981115 
L 314.276537 110.908328 
L 315.384573 168.579148 
L 316.492609 142.966033 
L 317.600645 228.398164 
L 318.708681 143.627016 
L 319.816717 156.681443 
L 320.924753 151.393574 
L 322.032789 143.46177 
L 323.140825 186.095213 
L 324.248861 155.359475 
L 325.356897 170.231607 
L 326.464933 145.940459 
L 327.572969 182.459803 
L 328.681005 189.400131 
L 329.789041 99.341115 
L 330.897077 92.400787 
L 332.005113 170.89259 
L 333.113149 157.507672 
L 334.221185 125.780459 
L 335.329221 117.022426 
L 336.437257 217.822426 
L 337.545293 167.918164 
L 338.653329 208.40341 
L 340.869401 119.666361 
L 341.977437 173.867016 
L 343.085473 127.76341 
L 344.193509 143.131279 
L 345.301545 153.211279 
L 346.409581 169.240131 
L 347.517617 260.621115 
L 348.625653 133.877508 
L 349.733689 177.171934 
L 350.841725 153.707016 
L 353.057797 167.25718 
L 354.165833 216.830951 
L 355.273869 159.325377 
L 356.381905 216.169967 
L 357.489941 261.61259 
L 358.597977 190.556852 
L 359.706013 163.62177 
L 360.814049 121.484066 
L 361.922085 188.573902 
L 363.030121 124.128 
L 364.138157 151.393574 
L 365.246193 119.996852 
L 366.354229 248.392918 
L 367.462265 132.886033 
L 368.570301 119.996852 
L 369.678337 166.265705 
L 370.786373 184.442754 
L 371.894409 101.489311 
L 373.002445 148.253902 
L 374.110481 151.55882 
L 375.218517 100.497836 
L 376.326553 135.199475 
L 377.434589 180.807344 
L 378.542625 182.790295 
L 379.650661 127.102426 
L 380.758697 263.430295 
L 381.866733 128.754885 
L 382.974769 172.379803 
L 384.082805 197.992918 
L 385.190841 279.128656 
L 386.298877 165.935213 
L 387.406913 275.658492 
L 388.514949 97.192918 
L 389.622985 250.871607 
L 390.731021 132.225049 
L 391.839057 81.990295 
L 392.947093 90.913574 
L 394.055129 173.040787 
L 395.163165 86.947672 
L 396.271201 156.350951 
L 398.487273 53.568 
L 398.487273 53.568 
" clip-path="url(#p3d6e0d3a51)" style="fill: none; stroke: #1f77b4; stroke-width: 0.5; stroke-linecap: round"/>
   </g>
   <g id="patch_3">
    <path d="M 57.6 307.584 
L 57.6 41.472 
" style="fill: none; stroke: #ffffff; stroke-width: 0.8; stroke-linejoin: miter; stroke-linecap: square"/>
   </g>
   <g id="patch_4">
    <path d="M 414.72 307.584 
L 414.72 41.472 
" style="fill: none; stroke: #ffffff; stroke-width: 0.8; stroke-linejoin: miter; stroke-linecap: square"/>
   </g>
   <g id="patch_5">
    <path d="M 57.6 307.584 
L 414.72 307.584 
" style="fill: none; stroke: #ffffff; stroke-width: 0.8; stroke-linejoin: miter; stroke-linecap: square"/>
   </g>
   <g id="patch_6">
    <path d="M 57.6 41.472 
L 414.72 41.472 
" style="fill: none; stroke: #ffffff; stroke-width: 0.8; stroke-linejoin: miter; stroke-linecap: square"/>
   </g>
   <g id="text_15">
    <!-- akurasi top-1 terhadap checkpoint -->
    <g style="fill: #262626" transform="translate(132.87375 35.472) scale(0.12 -0.12)">
     <defs>
      <path id="DejaVuSans-61" d="M 2194 1759 
Q 1497 1759 1228 1600 
Q 959 1441 959 1056 
Q 959 750 1161 570 
Q 1363 391 1709 391 
Q 2188 391 2477 730 
Q 2766 1069 2766 1631 
L 2766 1759 
L 2194 1759 
z
M 3341 1997 
L 3341 0 
L 2766 0 
L 2766 531 
Q 2569 213 2275 61 
Q 1981 -91 1556 -91 
Q 1019 -91 701 211 
Q 384 513 384 1019 
Q 384 1609 779 1909 
Q 1175 2209 1959 2209 
L 2766 2209 
L 2766 2266 
Q 2766 2663 2505 2880 
Q 2244 3097 1772 3097 
Q 1472 3097 1187 3025 
Q 903 2953 641 2809 
L 641 3341 
Q 956 3463 1253 3523 
Q 1550 3584 1831 3584 
Q 2591 3584 2966 3190 
Q 3341 2797 3341 1997 
z
" transform="scale(0.015625)"/>
      <path id="DejaVuSans-6b" d="M 581 4863 
L 1159 4863 
L 1159 1991 
L 2875 3500 
L 3609 3500 
L 1753 1863 
L 3688 0 
L 2938 0 
L 1159 1709 
L 1159 0 
L 581 0 
L 581 4863 
z
" transform="scale(0.015625)"/>
      <path id="DejaVuSans-75" d="M 544 1381 
L 544 3500 
L 1119 3500 
L 1119 1403 
Q 1119 906 1312 657 
Q 1506 409 1894 409 
Q 2359 409 2629 706 
Q 2900 1003 2900 1516 
L 2900 3500 
L 3475 3500 
L 3475 0 
L 2900 0 
L 2900 538 
Q 2691 219 2414 64 
Q 2138 -91 1772 -91 
Q 1169 -91 856 284 
Q 544 659 544 1381 
z
M 1991 3584 
L 1991 3584 
z
" transform="scale(0.015625)"/>
      <path id="DejaVuSans-72" d="M 2631 2963 
Q 2534 3019 2420 3045 
Q 2306 3072 2169 3072 
Q 1681 3072 1420 2755 
Q 1159 2438 1159 1844 
L 1159 0 
L 581 0 
L 581 3500 
L 1159 3500 
L 1159 2956 
Q 1341 3275 1631 3429 
Q 1922 3584 2338 3584 
Q 2397 3584 2469 3576 
Q 2541 3569 2628 3553 
L 2631 2963 
z
" transform="scale(0.015625)"/>
      <path id="DejaVuSans-73" d="M 2834 3397 
L 2834 2853 
Q 2591 2978 2328 3040 
Q 2066 3103 1784 3103 
Q 1356 3103 1142 2972 
Q 928 2841 928 2578 
Q 928 2378 1081 2264 
Q 1234 2150 1697 2047 
L 1894 2003 
Q 2506 1872 2764 1633 
Q 3022 1394 3022 966 
Q 3022 478 2636 193 
Q 2250 -91 1575 -91 
Q 1294 -91 989 -36 
Q 684 19 347 128 
L 347 722 
Q 666 556 975 473 
Q 1284 391 1588 391 
Q 1994 391 2212 530 
Q 2431 669 2431 922 
Q 2431 1156 2273 1281 
Q 2116 1406 1581 1522 
L 1381 1569 
Q 847 1681 609 1914 
Q 372 2147 372 2553 
Q 372 3047 722 3315 
Q 1072 3584 1716 3584 
Q 2034 3584 2315 3537 
Q 2597 3491 2834 3397 
z
" transform="scale(0.015625)"/>
      <path id="DejaVuSans-69" d="M 603 3500 
L 1178 3500 
L 1178 0 
L 603 0 
L 603 3500 
z
M 603 4863 
L 1178 4863 
L 1178 4134 
L 603 4134 
L 603 4863 
z
" transform="scale(0.015625)"/>
      <path id="DejaVuSans-20" transform="scale(0.015625)"/>
      <path id="DejaVuSans-74" d="M 1172 4494 
L 1172 3500 
L 2356 3500 
L 2356 3053 
L 1172 3053 
L 1172 1153 
Q 1172 725 1289 603 
Q 1406 481 1766 481 
L 2356 481 
L 2356 0 
L 1766 0 
Q 1100 0 847 248 
Q 594 497 594 1153 
L 594 3053 
L 172 3053 
L 172 3500 
L 594 3500 
L 594 4494 
L 1172 4494 
z
" transform="scale(0.015625)"/>
      <path id="DejaVuSans-2d" d="M 313 2009 
L 1997 2009 
L 1997 1497 
L 313 1497 
L 313 2009 
z
" transform="scale(0.015625)"/>
      <path id="DejaVuSans-64" d="M 2906 2969 
L 2906 4863 
L 3481 4863 
L 3481 0 
L 2906 0 
L 2906 525 
Q 2725 213 2448 61 
Q 2172 -91 1784 -91 
Q 1150 -91 751 415 
Q 353 922 353 1747 
Q 353 2572 751 3078 
Q 1150 3584 1784 3584 
Q 2172 3584 2448 3432 
Q 2725 3281 2906 2969 
z
M 947 1747 
Q 947 1113 1208 752 
Q 1469 391 1925 391 
Q 2381 391 2643 752 
Q 2906 1113 2906 1747 
Q 2906 2381 2643 2742 
Q 2381 3103 1925 3103 
Q 1469 3103 1208 2742 
Q 947 2381 947 1747 
z
" transform="scale(0.015625)"/>
      <path id="DejaVuSans-6e" d="M 3513 2113 
L 3513 0 
L 2938 0 
L 2938 2094 
Q 2938 2591 2744 2837 
Q 2550 3084 2163 3084 
Q 1697 3084 1428 2787 
Q 1159 2491 1159 1978 
L 1159 0 
L 581 0 
L 581 3500 
L 1159 3500 
L 1159 2956 
Q 1366 3272 1645 3428 
Q 1925 3584 2291 3584 
Q 2894 3584 3203 3211 
Q 3513 2838 3513 2113 
z
" transform="scale(0.015625)"/>
     </defs>
     <use xlink:href="#DejaVuSans-61"/>
     <use xlink:href="#DejaVuSans-6b" x="61.279297"/>
     <use xlink:href="#DejaVuSans-75" x="116.064453"/>
     <use xlink:href="#DejaVuSans-72" x="179.443359"/>
     <use xlink:href="#DejaVuSans-61" x="220.556641"/>
     <use xlink:href="#DejaVuSans-73" x="281.835938"/>
     <use xlink:href="#DejaVuSans-69" x="333.935547"/>
     <use xlink:href="#DejaVuSans-20" x="361.71875"/>
     <use xlink:href="#DejaVuSans-74" x="393.505859"/>
     <use xlink:href="#DejaVuSans-6f" x="432.714844"/>
     <use xlink:href="#DejaVuSans-70" x="493.896484"/>
     <use xlink:href="#DejaVuSans-2d" x="557.373047"/>
     <use xlink:href="#DejaVuSans-31" x="593.457031"/>
     <use xlink:href="#DejaVuSans-20" x="657.080078"/>
     <use xlink:href="#DejaVuSans-74" x="688.867188"/>
     <use xlink:href="#DejaVuSans-65" x="728.076172"/>
     <use xlink:href="#DejaVuSans-72" x="789.599609"/>
     <use xlink:href="#DejaVuSans-68" x="828.962891"/>
     <use xlink:href="#DejaVuSans-61" x="892.341797"/>
     <use xlink:href="#DejaVuSans-64" x="953.621094"/>
     <use xlink:href="#DejaVuSans-61" x="1017.097656"/>
     <use xlink:href="#DejaVuSans-70" x="1078.376953"/>
     <use xlink:href="#DejaVuSans-20" x="1141.853516"/>
     <use xlink:href="#DejaVuSans-63" x="1173.640625"/>
     <use xlink:href="#DejaVuSans-68" x="1228.621094"/>
     <use xlink:href="#DejaVuSans-65" x="1292"/>
     <use xlink:href="#DejaVuSans-63" x="1353.523438"/>
     <use xlink:href="#DejaVuSans-6b" x="1408.503906"/>
     <use xlink:href="#DejaVuSans-70" x="1466.414062"/>
     <use xlink:href="#DejaVuSans-6f" x="1529.890625"/>
     <use xlink:href="#DejaVuSans-69" x="1591.072266"/>
     <use xlink:href="#DejaVuSans-6e" x="1618.855469"/>
     <use xlink:href="#DejaVuSans-74" x="1682.234375"/>
    </g>
   </g>
   <g id="legend_1">
    <g id="patch_7">
     <path d="M 64.6 64.42825 
L 257.057813 64.42825 
Q 259.057813 64.42825 259.057813 62.42825 
L 259.057813 48.472 
Q 259.057813 46.472 257.057813 46.472 
L 64.6 46.472 
Q 62.6 46.472 62.6 48.472 
L 62.6 62.42825 
Q 62.6 64.42825 64.6 64.42825 
z
" style="fill: #eaeaf2; opacity: 0.8; stroke: #cccccc; stroke-linejoin: miter"/>
    </g>
    <g id="line2d_2">
     <path d="M 66.6 54.570437 
L 76.6 54.570437 
L 86.6 54.570437 
" style="fill: none; stroke: #1f77b4; stroke-width: 0.5; stroke-linecap: round"/>
    </g>
    <g id="text_16">
     <!-- best-294/top1-0d3900_acc/top1 -->
     <g style="fill: #262626" transform="translate(94.6 58.070437) scale(0.1 -0.1)">
      <defs>
       <path id="DejaVuSans-62" d="M 3116 1747 
Q 3116 2381 2855 2742 
Q 2594 3103 2138 3103 
Q 1681 3103 1420 2742 
Q 1159 2381 1159 1747 
Q 1159 1113 1420 752 
Q 1681 391 2138 391 
Q 2594 391 2855 752 
Q 3116 1113 3116 1747 
z
M 1159 2969 
Q 1341 3281 1617 3432 
Q 1894 3584 2278 3584 
Q 2916 3584 3314 3078 
Q 3713 2572 3713 1747 
Q 3713 922 3314 415 
Q 2916 -91 2278 -91 
Q 1894 -91 1617 61 
Q 1341 213 1159 525 
L 1159 0 
L 581 0 
L 581 4863 
L 1159 4863 
L 1159 2969 
z
" transform="scale(0.015625)"/>
       <path id="DejaVuSans-39" d="M 703 97 
L 703 672 
Q 941 559 1184 500 
Q 1428 441 1663 441 
Q 2288 441 2617 861 
Q 2947 1281 2994 2138 
Q 2813 1869 2534 1725 
Q 2256 1581 1919 1581 
Q 1219 1581 811 2004 
Q 403 2428 403 3163 
Q 403 3881 828 4315 
Q 1253 4750 1959 4750 
Q 2769 4750 3195 4129 
Q 3622 3509 3622 2328 
Q 3622 1225 3098 567 
Q 2575 -91 1691 -91 
Q 1453 -91 1209 -44 
Q 966 3 703 97 
z
M 1959 2075 
Q 2384 2075 2632 2365 
Q 2881 2656 2881 3163 
Q 2881 3666 2632 3958 
Q 2384 4250 1959 4250 
Q 1534 4250 1286 3958 
Q 1038 3666 1038 3163 
Q 1038 2656 1286 2365 
Q 1534 2075 1959 2075 
z
" transform="scale(0.015625)"/>
       <path id="DejaVuSans-2f" d="M 1625 4666 
L 2156 4666 
L 531 -594 
L 0 -594 
L 1625 4666 
z
" transform="scale(0.015625)"/>
       <path id="DejaVuSans-5f" d="M 3263 -1063 
L 3263 -1509 
L -63 -1509 
L -63 -1063 
L 3263 -1063 
z
" transform="scale(0.015625)"/>
      </defs>
      <use xlink:href="#DejaVuSans-62"/>
      <use xlink:href="#DejaVuSans-65" x="63.476562"/>
      <use xlink:href="#DejaVuSans-73" x="125"/>
      <use xlink:href="#DejaVuSans-74" x="177.099609"/>
      <use xlink:href="#DejaVuSans-2d" x="216.308594"/>
      <use xlink:href="#DejaVuSans-32" x="252.392578"/>
      <use xlink:href="#DejaVuSans-39" x="316.015625"/>
      <use xlink:href="#DejaVuSans-34" x="379.638672"/>
      <use xlink:href="#DejaVuSans-2f" x="443.261719"/>
      <use xlink:href="#DejaVuSans-74" x="476.953125"/>
      <use xlink:href="#DejaVuSans-6f" x="516.162109"/>
      <use xlink:href="#DejaVuSans-70" x="577.34375"/>
      <use xlink:href="#DejaVuSans-31" x="640.820312"/>
      <use xlink:href="#DejaVuSans-2d" x="704.443359"/>
      <use xlink:href="#DejaVuSans-30" x="740.527344"/>
      <use xlink:href="#DejaVuSans-64" x="804.150391"/>
      <use xlink:href="#DejaVuSans-33" x="867.626953"/>
      <use xlink:href="#DejaVuSans-39" x="931.25"/>
      <use xlink:href="#DejaVuSans-30" x="994.873047"/>
      <use xlink:href="#DejaVuSans-30" x="1058.496094"/>
      <use xlink:href="#DejaVuSans-5f" x="1122.119141"/>
      <use xlink:href="#DejaVuSans-61" x="1172.119141"/>
      <use xlink:href="#DejaVuSans-63" x="1233.398438"/>
      <use xlink:href="#DejaVuSans-63" x="1288.378906"/>
      <use xlink:href="#DejaVuSans-2f" x="1343.359375"/>
      <use xlink:href="#DejaVuSans-74" x="1377.050781"/>
      <use xlink:href="#DejaVuSans-6f" x="1416.259766"/>
      <use xlink:href="#DejaVuSans-70" x="1477.441406"/>
      <use xlink:href="#DejaVuSans-31" x="1540.917969"/>
     </g>
    </g>
   </g>
  </g>
 </g>
 <defs>
  <clipPath id="p3d6e0d3a51">
   <rect x="57.6" y="41.472" width="357.12" height="266.112"/>
  </clipPath>
 </defs>
</svg>
