<?xml version="1.0" encoding="utf-8" standalone="no"?>
<!DOCTYPE svg PUBLIC "-//W3C//DTD SVG 1.1//EN"
  "http://www.w3.org/Graphics/SVG/1.1/DTD/svg11.dtd">
<svg xmlns:xlink="http://www.w3.org/1999/xlink" width="460.8pt" height="345.6pt" viewBox="0 0 460.8 345.6" xmlns="http://www.w3.org/2000/svg" version="1.1">
 <metadata>
  <rdf:RDF xmlns:dc="http://purl.org/dc/elements/1.1/" xmlns:cc="http://creativecommons.org/ns#" xmlns:rdf="http://www.w3.org/1999/02/22-rdf-syntax-ns#">
   <cc:Work>
    <dc:type rdf:resource="http://purl.org/dc/dcmitype/StillImage"/>
    <dc:date>2024-05-30T15:01:16.549066</dc:date>
    <dc:format>image/svg+xml</dc:format>
    <dc:creator>
     <cc:Agent>
      <dc:title>Matplotlib v3.7.2, https://matplotlib.org/</dc:title>
     </cc:Agent>
    </dc:creator>
   </cc:Work>
  </rdf:RDF>
 </metadata>
 <defs>
  <style type="text/css">*{stroke-linejoin: round; stroke-linecap: butt}</style>
 </defs>
 <g id="figure_1">
  <g id="patch_1">
   <path d="M 0 345.6 
L 460.8 345.6 
L 460.8 0 
L 0 0 
z
" style="fill: #ffffff"/>
  </g>
  <g id="axes_1">
   <g id="patch_2">
    <path d="M 57.6 307.584 
L 414.72 307.584 
L 414.72 41.472 
L 57.6 41.472 
z
" style="fill: #eaeaf2"/>
   </g>
   <g id="matplotlib.axis_1">
    <g id="xtick_1">
     <g id="text_1">
      <!-- 0 -->
      <g style="fill: #262626" transform="translate(70.506477 322.182437) scale(0.1 -0.1)">
       <defs>
        <path id="DejaVuSans-30" d="M 2034 4250 
Q 1547 4250 1301 3770 
Q 1056 3291 1056 2328 
Q 1056 1369 1301 889 
Q 1547 409 2034 409 
Q 2525 409 2770 889 
Q 3016 1369 3016 2328 
Q 3016 3291 2770 3770 
Q 2525 4250 2034 4250 
z
M 2034 4750 
Q 2819 4750 3233 4129 
Q 3647 3509 3647 2328 
Q 3647 1150 3233 529 
Q 2819 -91 2034 -91 
Q 1250 -91 836 529 
Q 422 1150 422 2328 
Q 422 3509 836 4129 
Q 1250 4750 2034 4750 
z
" transform="scale(0.015625)"/>
       </defs>
       <use xlink:href="#DejaVuSans-30"/>
      </g>
     </g>
    </g>
    <g id="xtick_2">
     <g id="text_2">
      <!-- 500 -->
      <g style="fill: #262626" transform="translate(136.643876 322.182437) scale(0.1 -0.1)">
       <defs>
        <path id="DejaVuSans-35" d="M 691 4666 
L 3169 4666 
L 3169 4134 
L 1269 4134 
L 1269 2991 
Q 1406 3038 1543 3061 
Q 1681 3084 1819 3084 
Q 2600 3084 3056 2656 
Q 3513 2228 3513 1497 
Q 3513 744 3044 326 
Q 2575 -91 1722 -91 
Q 1428 -91 1123 -41 
Q 819 9 494 109 
L 494 744 
Q 775 591 1075 516 
Q 1375 441 1709 441 
Q 2250 441 2565 725 
Q 2881 1009 2881 1497 
Q 2881 1984 2565 2268 
Q 2250 2553 1709 2553 
Q 1456 2553 1204 2497 
Q 953 2441 691 2322 
L 691 4666 
z
" transform="scale(0.015625)"/>
       </defs>
       <use xlink:href="#DejaVuSans-35"/>
       <use xlink:href="#DejaVuSans-30" x="63.623047"/>
       <use xlink:href="#DejaVuSans-30" x="127.246094"/>
      </g>
     </g>
    </g>
    <g id="xtick_3">
     <g id="text_3">
      <!-- 1000 -->
      <g style="fill: #262626" transform="translate(205.962524 322.182437) scale(0.1 -0.1)">
       <defs>
        <path id="DejaVuSans-31" d="M 794 531 
L 1825 531 
L 1825 4091 
L 703 3866 
L 703 4441 
L 1819 4666 
L 2450 4666 
L 2450 531 
L 3481 531 
L 3481 0 
L 794 0 
L 794 531 
z
" transform="scale(0.015625)"/>
       </defs>
       <use xlink:href="#DejaVuSans-31"/>
       <use xlink:href="#DejaVuSans-30" x="63.623047"/>
       <use xlink:href="#DejaVuSans-30" x="127.246094"/>
       <use xlink:href="#DejaVuSans-30" x="190.869141"/>
      </g>
     </g>
    </g>
    <g id="xtick_4">
     <g id="text_4">
      <!-- 1500 -->
      <g style="fill: #262626" transform="translate(278.462423 322.182437) scale(0.1 -0.1)">
       <use xlink:href="#DejaVuSans-31"/>
       <use xlink:href="#DejaVuSans-35" x="63.623047"/>
       <use xlink:href="#DejaVuSans-30" x="127.246094"/>
       <use xlink:href="#DejaVuSans-30" x="190.869141"/>
      </g>
     </g>
    </g>
    <g id="xtick_5">
     <g id="text_5">
      <!-- 2000 -->
      <g style="fill: #262626" transform="translate(350.962321 322.182437) scale(0.1 -0.1)">
       <defs>
        <path id="DejaVuSans-32" d="M 1228 531 
L 3431 531 
L 3431 0 
L 469 0 
L 469 531 
Q 828 903 1448 1529 
Q 2069 2156 2228 2338 
Q 2531 2678 2651 2914 
Q 2772 3150 2772 3378 
Q 2772 3750 2511 3984 
Q 2250 4219 1831 4219 
Q 1534 4219 1204 4116 
Q 875 4013 500 3803 
L 500 4441 
Q 881 4594 1212 4672 
Q 1544 4750 1819 4750 
Q 2544 4750 2975 4387 
Q 3406 4025 3406 3419 
Q 3406 3131 3298 2873 
Q 3191 2616 2906 2266 
Q 2828 2175 2409 1742 
Q 1991 1309 1228 531 
z
" transform="scale(0.015625)"/>
       </defs>
       <use xlink:href="#DejaVuSans-32"/>
       <use xlink:href="#DejaVuSans-30" x="63.623047"/>
       <use xlink:href="#DejaVuSans-30" x="127.246094"/>
       <use xlink:href="#DejaVuSans-30" x="190.869141"/>
      </g>
     </g>
    </g>
    <g id="text_6">
     <!-- epoch -->
     <g style="fill: #262626" transform="translate(220.931875 335.860562) scale(0.1 -0.1)">
      <defs>
       <path id="DejaVuSans-65" d="M 3597 1894 
L 3597 1613 
L 953 1613 
Q 991 1019 1311 708 
Q 1631 397 2203 397 
Q 2534 397 2845 478 
Q 3156 559 3463 722 
L 3463 178 
Q 3153 47 2828 -22 
Q 2503 -91 2169 -91 
Q 1331 -91 842 396 
Q 353 884 353 1716 
Q 353 2575 817 3079 
Q 1281 3584 2069 3584 
Q 2775 3584 3186 3129 
Q 3597 2675 3597 1894 
z
M 3022 2063 
Q 3016 2534 2758 2815 
Q 2500 3097 2075 3097 
Q 1594 3097 1305 2825 
Q 1016 2553 972 2059 
L 3022 2063 
z
" transform="scale(0.015625)"/>
       <path id="DejaVuSans-70" d="M 1159 525 
L 1159 -1331 
L 581 -1331 
L 581 3500 
L 1159 3500 
L 1159 2969 
Q 1341 3281 1617 3432 
Q 1894 3584 2278 3584 
Q 2916 3584 3314 3078 
Q 3713 2572 3713 1747 
Q 3713 922 3314 415 
Q 2916 -91 2278 -91 
Q 1894 -91 1617 61 
Q 1341 213 1159 525 
z
M 3116 1747 
Q 3116 2381 2855 2742 
Q 2594 3103 2138 3103 
Q 1681 3103 1420 2742 
Q 1159 2381 1159 1747 
Q 1159 1113 1420 752 
Q 1681 391 2138 391 
Q 2594 391 2855 752 
Q 3116 1113 3116 1747 
z
" transform="scale(0.015625)"/>
       <path id="DejaVuSans-6f" d="M 1959 3097 
Q 1497 3097 1228 2736 
Q 959 2375 959 1747 
Q 959 1119 1226 758 
Q 1494 397 1959 397 
Q 2419 397 2687 759 
Q 2956 1122 2956 1747 
Q 2956 2369 2687 2733 
Q 2419 3097 1959 3097 
z
M 1959 3584 
Q 2709 3584 3137 3096 
Q 3566 2609 3566 1747 
Q 3566 888 3137 398 
Q 2709 -91 1959 -91 
Q 1206 -91 779 398 
Q 353 888 353 1747 
Q 353 2609 779 3096 
Q 1206 3584 1959 3584 
z
" transform="scale(0.015625)"/>
       <path id="DejaVuSans-63" d="M 3122 3366 
L 3122 2828 
Q 2878 2963 2633 3030 
Q 2388 3097 2138 3097 
Q 1578 3097 1268 2742 
Q 959 2388 959 1747 
Q 959 1106 1268 751 
Q 1578 397 2138 397 
Q 2388 397 2633 464 
Q 2878 531 3122 666 
L 3122 134 
Q 2881 22 2623 -34 
Q 2366 -91 2075 -91 
Q 1284 -91 818 406 
Q 353 903 353 1747 
Q 353 2603 823 3093 
Q 1294 3584 2113 3584 
Q 2378 3584 2631 3529 
Q 2884 3475 3122 3366 
z
" transform="scale(0.015625)"/>
       <path id="DejaVuSans-68" d="M 3513 2113 
L 3513 0 
L 2938 0 
L 2938 2094 
Q 2938 2591 2744 2837 
Q 2550 3084 2163 3084 
Q 1697 3084 1428 2787 
Q 1159 2491 1159 1978 
L 1159 0 
L 581 0 
L 581 4863 
L 1159 4863 
L 1159 2956 
Q 1366 3272 1645 3428 
Q 1925 3584 2291 3584 
Q 2894 3584 3203 3211 
Q 3513 2838 3513 2113 
z
" transform="scale(0.015625)"/>
      </defs>
      <use xlink:href="#DejaVuSans-65"/>
      <use xlink:href="#DejaVuSans-70" x="61.523438"/>
      <use xlink:href="#DejaVuSans-6f" x="125"/>
      <use xlink:href="#DejaVuSans-63" x="186.181641"/>
      <use xlink:href="#DejaVuSans-68" x="241.162109"/>
     </g>
    </g>
   </g>
   <g id="matplotlib.axis_2">
    <g id="ytick_1">
     <g id="text_7">
      <!-- 0.0 -->
      <g style="fill: #262626" transform="translate(34.696875 299.877199) scale(0.1 -0.1)">
       <defs>
        <path id="DejaVuSans-2e" d="M 684 794 
L 1344 794 
L 1344 0 
L 684 0 
L 684 794 
z
" transform="scale(0.015625)"/>
       </defs>
       <use xlink:href="#DejaVuSans-30"/>
       <use xlink:href="#DejaVuSans-2e" x="63.623047"/>
       <use xlink:href="#DejaVuSans-30" x="95.410156"/>
      </g>
     </g>
    </g>
    <g id="ytick_2">
     <g id="text_8">
      <!-- 0.5 -->
      <g style="fill: #262626" transform="translate(34.696875 259.108638) scale(0.1 -0.1)">
       <use xlink:href="#DejaVuSans-30"/>
       <use xlink:href="#DejaVuSans-2e" x="63.623047"/>
       <use xlink:href="#DejaVuSans-35" x="95.410156"/>
      </g>
     </g>
    </g>
    <g id="ytick_3">
     <g id="text_9">
      <!-- 1.0 -->
      <g style="fill: #262626" transform="translate(34.696875 218.340077) scale(0.1 -0.1)">
       <use xlink:href="#DejaVuSans-31"/>
       <use xlink:href="#DejaVuSans-2e" x="63.623047"/>
       <use xlink:href="#DejaVuSans-30" x="95.410156"/>
      </g>
     </g>
    </g>
    <g id="ytick_4">
     <g id="text_10">
      <!-- 1.5 -->
      <g style="fill: #262626" transform="translate(34.696875 177.571517) scale(0.1 -0.1)">
       <use xlink:href="#DejaVuSans-31"/>
       <use xlink:href="#DejaVuSans-2e" x="63.623047"/>
       <use xlink:href="#DejaVuSans-35" x="95.410156"/>
      </g>
     </g>
    </g>
    <g id="ytick_5">
     <g id="text_11">
      <!-- 2.0 -->
      <g style="fill: #262626" transform="translate(34.696875 136.802956) scale(0.1 -0.1)">
       <use xlink:href="#DejaVuSans-32"/>
       <use xlink:href="#DejaVuSans-2e" x="63.623047"/>
       <use xlink:href="#DejaVuSans-30" x="95.410156"/>
      </g>
     </g>
    </g>
    <g id="ytick_6">
     <g id="text_12">
      <!-- 2.5 -->
      <g style="fill: #262626" transform="translate(34.696875 96.034395) scale(0.1 -0.1)">
       <use xlink:href="#DejaVuSans-32"/>
       <use xlink:href="#DejaVuSans-2e" x="63.623047"/>
       <use xlink:href="#DejaVuSans-35" x="95.410156"/>
      </g>
     </g>
    </g>
    <g id="ytick_7">
     <g id="text_13">
      <!-- 3.0 -->
      <g style="fill: #262626" transform="translate(34.696875 55.265834) scale(0.1 -0.1)">
       <defs>
        <path id="DejaVuSans-33" d="M 2597 2516 
Q 3050 2419 3304 2112 
Q 3559 1806 3559 1356 
Q 3559 666 3084 287 
Q 2609 -91 1734 -91 
Q 1441 -91 1130 -33 
Q 819 25 488 141 
L 488 750 
Q 750 597 1062 519 
Q 1375 441 1716 441 
Q 2309 441 2620 675 
Q 2931 909 2931 1356 
Q 2931 1769 2642 2001 
Q 2353 2234 1838 2234 
L 1294 2234 
L 1294 2753 
L 1863 2753 
Q 2328 2753 2575 2939 
Q 2822 3125 2822 3475 
Q 2822 3834 2567 4026 
Q 2313 4219 1838 4219 
Q 1578 4219 1281 4162 
Q 984 4106 628 3988 
L 628 4550 
Q 988 4650 1302 4700 
Q 1616 4750 1894 4750 
Q 2613 4750 3031 4423 
Q 3450 4097 3450 3541 
Q 3450 3153 3228 2886 
Q 3006 2619 2597 2516 
z
" transform="scale(0.015625)"/>
       </defs>
       <use xlink:href="#DejaVuSans-33"/>
       <use xlink:href="#DejaVuSans-2e" x="63.623047"/>
       <use xlink:href="#DejaVuSans-30" x="95.410156"/>
      </g>
     </g>
    </g>
   </g>
   <g id="line2d_1">
    <path d="M 73.832727 72.799683 
L 73.977727 53.568 
L 74.122727 70.607184 
L 74.267727 108.354944 
L 74.412726 109.435526 
L 74.557726 109.067788 
L 74.702726 109.144559 
L 75.282725 110.099054 
L 75.572725 110.2885 
L 76.297724 111.753681 
L 76.442724 111.851637 
L 77.022723 113.322583 
L 77.457722 115.12371 
L 77.602722 115.310442 
L 78.182721 118.142882 
L 78.472721 120.008853 
L 78.76272 124.276196 
L 79.05272 128.907242 
L 80.212718 146.400521 
L 80.357718 146.990455 
L 80.792718 156.121158 
L 80.937717 156.635814 
L 81.952716 174.699109 
L 82.097716 176.595889 
L 82.242715 176.452941 
L 82.387715 175.534389 
L 82.532715 173.87759 
L 82.677715 175.277436 
L 82.967714 185.254371 
L 83.257714 191.607411 
L 83.402714 193.322631 
L 83.692713 198.373634 
L 84.127713 193.826816 
L 84.562712 197.159101 
L 84.852712 206.107978 
L 84.997712 208.046302 
L 85.432711 217.989183 
L 85.86771 222.368449 
L 86.15771 220.33167 
L 86.30271 220.866079 
L 87.172709 240.314046 
L 87.462708 243.281741 
L 87.752708 245.818162 
L 87.897708 244.639382 
L 88.042707 244.701173 
L 88.187707 244.116613 
L 88.332707 244.156942 
L 88.912706 252.552666 
L 89.782705 263.851569 
L 89.927705 262.584997 
L 90.797704 272.169957 
L 90.942703 271.2422 
L 91.087703 267.697222 
L 91.377703 251.1066 
L 91.812702 257.16263 
L 91.957702 258.274533 
L 92.247701 265.870655 
L 92.682701 276.807952 
L 92.9727 278.724201 
L 93.2627 280.161191 
L 93.4077 279.517575 
L 93.5527 277.581974 
L 93.697699 277.149952 
L 93.987699 279.754763 
L 94.132699 281.136853 
L 94.277699 281.395477 
L 94.422698 282.049698 
L 94.857698 275.003457 
L 95.147697 278.407363 
L 95.292697 278.717694 
L 95.727697 282.910709 
L 96.017696 285.752054 
L 96.162696 284.823709 
L 96.307696 283.008408 
L 96.452696 283.24206 
L 96.597695 284.298114 
L 96.742695 284.330942 
L 97.032695 279.752041 
L 97.177695 280.084321 
L 97.612694 284.770614 
L 97.757694 285.596232 
L 98.047693 285.414692 
L 98.192693 284.893183 
L 98.482693 286.609178 
L 98.627693 285.818215 
L 98.772692 285.834209 
L 99.497691 289.87562 
L 99.642691 289.793515 
L 100.077691 287.578178 
L 100.22269 288.147785 
L 100.36769 288.209709 
L 100.51269 288.43598 
L 100.65769 289.322717 
L 100.80269 289.420649 
L 100.947689 289.001496 
L 101.527688 290.736106 
L 101.817688 289.594802 
L 101.962688 289.744441 
L 102.542687 284.014781 
L 102.687687 285.226821 
L 102.832687 285.201254 
L 102.977686 284.230569 
L 103.122686 285.017617 
L 103.702685 289.953629 
L 103.992685 292.222905 
L 104.137685 291.155542 
L 104.282685 291.052197 
L 104.572684 292.636208 
L 104.717684 292.773832 
L 105.007684 293.35061 
L 105.297683 292.517603 
L 105.732683 293.406247 
L 106.022682 293.121952 
L 106.167682 293.061796 
L 106.312682 292.825002 
L 106.457682 292.844832 
L 107.32768 293.899125 
L 107.90768 293.718413 
L 108.052679 293.665396 
L 108.197679 293.377306 
L 108.487679 292.046539 
L 108.632679 292.3963 
L 108.777678 293.236394 
L 109.212678 293.433307 
L 109.502677 292.35075 
L 109.647677 292.145916 
L 109.792677 292.508697 
L 110.082677 293.543604 
L 110.227676 293.859035 
L 110.372676 293.743184 
L 110.807676 294.083306 
L 111.097675 294.147032 
L 111.242675 294.318058 
L 111.532674 293.79886 
L 111.822674 292.303309 
L 111.967674 288.829785 
L 112.402673 204.209972 
L 112.547673 206.119657 
L 113.127672 270.185107 
L 113.417672 279.139635 
L 113.707671 282.946076 
L 114.287671 288.499782 
L 115.01267 290.571209 
L 115.302669 291.760524 
L 115.882668 291.814372 
L 116.027668 292.034259 
L 116.172668 291.986819 
L 116.462668 292.804524 
L 116.607667 292.477076 
L 116.752667 292.493996 
L 117.187667 293.288031 
L 117.332666 292.984949 
L 117.767666 293.025959 
L 117.912666 293.418111 
L 118.057665 293.349354 
L 118.202665 293.432231 
L 118.492665 292.878535 
L 118.782664 293.388906 
L 119.072664 293.282031 
L 119.362664 293.509799 
L 119.507663 293.237404 
L 119.652663 293.242137 
L 119.797663 293.769773 
L 119.942663 293.666335 
L 120.087663 293.423667 
L 120.377662 294.008972 
L 120.522662 293.74372 
L 120.812661 291.522063 
L 120.957661 292.054463 
L 121.102661 291.900871 
L 121.392661 292.525066 
L 121.68266 293.50902 
L 121.97266 293.613374 
L 122.407659 294.260737 
L 122.842659 294.078189 
L 122.987658 294.268889 
L 123.132658 294.271553 
L 123.422658 293.816046 
L 124.002657 294.358538 
L 124.437656 294.182591 
L 124.582656 294.324281 
L 125.162655 294.184033 
L 125.307655 294.055013 
L 125.452655 294.111136 
L 125.597655 294.482845 
L 125.742655 294.410218 
L 126.032654 294.008153 
L 126.322654 294.290236 
L 126.757653 293.819177 
L 127.047653 294.162398 
L 127.192653 293.851011 
L 127.627652 294.446363 
L 128.352651 294.472005 
L 128.497651 294.299522 
L 128.642651 294.304161 
L 128.93265 294.760883 
L 129.07765 294.647472 
L 129.22265 294.694986 
L 129.36765 294.600057 
L 129.512649 294.316781 
L 130.092649 294.596048 
L 130.382648 294.379277 
L 130.527648 294.611773 
L 130.817647 294.426428 
L 130.962647 294.69763 
L 131.397647 294.741943 
L 131.542646 294.784301 
L 131.687646 294.592266 
L 131.977646 294.552611 
L 132.267645 294.494329 
L 132.557645 294.551304 
L 132.702645 294.542407 
L 133.137644 294.91794 
L 133.427644 294.744433 
L 133.717643 294.500136 
L 133.862643 294.39211 
L 134.007643 294.423338 
L 134.297643 294.809308 
L 134.442642 294.819395 
L 134.587642 294.278017 
L 134.732642 293.294225 
L 134.877642 293.187404 
L 135.022642 293.708724 
L 135.167641 293.797127 
L 135.312641 293.724429 
L 135.457641 293.098265 
L 135.747641 290.956845 
L 136.03764 291.50046 
L 136.617639 293.829327 
L 136.907639 293.415834 
L 137.052639 293.418273 
L 137.632638 294.559338 
L 137.922638 294.797538 
L 138.212637 293.991614 
L 138.502637 294.729681 
L 138.792636 294.631873 
L 138.937636 294.569165 
L 139.372636 294.965091 
L 139.952635 294.597137 
L 140.097634 294.577284 
L 140.242634 294.373666 
L 140.532634 291.027533 
L 140.677634 290.961674 
L 140.822633 291.158302 
L 141.112633 288.463583 
L 141.692632 293.626114 
L 141.982632 294.386335 
L 142.127632 294.644117 
L 142.417631 294.465424 
L 142.707631 294.637327 
L 142.852631 294.521263 
L 142.99763 294.55375 
L 143.14263 294.7497 
L 143.43263 294.559779 
L 143.722629 294.773685 
L 144.012629 294.86592 
L 144.737628 294.530953 
L 145.027628 295.030719 
L 145.172627 295.004315 
L 145.462627 294.789552 
L 145.607627 294.953786 
L 145.752627 294.949482 
L 146.042626 294.218408 
L 146.332626 294.100663 
L 146.477626 293.910008 
L 146.767625 294.217396 
L 147.057625 294.78439 
L 147.492624 294.672042 
L 147.782624 295.079228 
L 148.507623 294.751814 
L 148.797622 294.908447 
L 148.942622 294.880871 
L 149.377622 295.159335 
L 149.667621 295.042082 
L 149.812621 295.120647 
L 150.10262 294.931093 
L 150.39262 294.765723 
L 150.53762 294.893393 
L 150.68262 294.869721 
L 150.972619 294.978069 
L 151.117619 294.798874 
L 151.262619 294.436321 
L 151.407619 294.466688 
L 151.697618 294.841974 
L 151.842618 294.965646 
L 151.987618 294.882473 
L 153.002616 295.167035 
L 153.292616 294.959123 
L 153.872615 294.861809 
L 154.017615 294.897951 
L 154.307615 295.147524 
L 154.597614 295.080283 
L 154.742614 295.099495 
L 155.032614 294.841326 
L 155.612613 295.1048 
L 155.757613 295.110914 
L 156.047612 294.93204 
L 156.482612 295.151033 
L 156.772611 295.116298 
L 157.062611 295.070179 
L 157.207611 295.075694 
L 157.49761 295.237919 
L 157.78761 295.197345 
L 158.077609 295.16127 
L 158.222609 295.135101 
L 158.367609 294.580619 
L 158.512609 294.554116 
L 158.657609 294.893668 
L 158.947608 294.958057 
L 159.092608 294.733634 
L 159.237608 294.753318 
L 159.382607 294.898755 
L 159.672607 294.59899 
L 159.962607 295.003025 
L 160.252606 295.000176 
L 160.542606 294.878419 
L 160.832605 294.99973 
L 160.977605 295.118124 
L 161.557604 295.032353 
L 161.992604 295.135381 
L 162.137604 295.151022 
L 162.427603 294.809127 
L 162.572603 293.249661 
L 162.862603 285.250443 
L 163.587602 248.378568 
L 163.732601 255.41321 
L 164.022601 273.653446 
L 164.167601 265.624482 
L 164.312601 265.711626 
L 164.6026 283.640672 
L 164.8926 289.679128 
L 165.182599 293.085681 
L 165.327599 293.371144 
L 165.472599 293.366605 
L 165.617599 293.65803 
L 165.762599 293.606282 
L 165.907598 293.78726 
L 166.052598 294.163718 
L 166.197598 294.218384 
L 166.342598 294.154267 
L 166.632597 294.430064 
L 167.212597 294.290367 
L 167.357596 294.213261 
L 167.647596 294.470991 
L 167.792596 294.661977 
L 168.227595 294.632157 
L 168.517595 294.666006 
L 168.662595 294.768901 
L 169.097594 294.675918 
L 169.822593 294.824429 
L 170.112592 294.731858 
L 170.257592 294.537689 
L 170.402592 294.579026 
L 170.692592 294.784451 
L 171.127591 294.898538 
L 171.272591 294.815168 
L 171.56259 294.914628 
L 171.85259 294.774064 
L 172.287589 294.951275 
L 172.432589 294.845166 
L 172.577589 294.885061 
L 172.722589 295.151065 
L 172.867589 295.14197 
L 173.302588 294.893465 
L 173.882587 295.04149 
L 174.027587 294.946059 
L 174.172587 295.072347 
L 174.317587 295.007842 
L 174.607586 294.591391 
L 174.897586 294.66102 
L 175.187585 295.003957 
L 175.332585 294.951386 
L 175.767585 295.060409 
L 176.057584 294.731325 
L 176.347584 295.009891 
L 176.492584 294.761511 
L 176.637583 294.820689 
L 176.782583 295.059706 
L 177.072583 295.096069 
L 177.217583 295.170878 
L 177.362582 295.05629 
L 177.797582 295.135003 
L 177.942582 295.03054 
L 178.377581 295.168723 
L 179.24758 294.974132 
L 179.537579 295.058564 
L 179.682579 294.975705 
L 179.972579 295.146971 
L 180.117578 295.051312 
L 180.552578 295.132342 
L 181.567576 295.174336 
L 182.002576 295.2766 
L 182.292575 295.015334 
L 182.582575 295.241723 
L 183.452574 295.260317 
L 183.742573 295.209392 
L 184.032573 295.186026 
L 184.467572 295.186357 
L 184.612572 295.083971 
L 184.902572 295.22212 
L 186.06257 295.183186 
L 186.35257 295.196172 
L 186.642569 295.058448 
L 186.932569 295.209184 
L 187.222569 294.895941 
L 187.367568 295.163813 
L 187.512568 295.122496 
L 187.657568 294.944831 
L 187.947568 293.530185 
L 188.382567 294.735893 
L 188.672566 294.587308 
L 188.962566 294.975366 
L 189.687565 295.176776 
L 189.832565 295.232789 
L 190.122564 295.132287 
L 190.847563 295.256004 
L 190.992563 295.290331 
L 191.282563 295.091539 
L 191.572562 295.274469 
L 192.152562 295.21631 
L 192.297561 295.221883 
L 192.732561 294.896526 
L 193.02256 295.270492 
L 193.31256 295.257258 
L 193.60256 294.804482 
L 193.747559 294.724308 
L 193.892559 294.288891 
L 194.182559 292.001568 
L 194.472558 287.246599 
L 194.617558 287.034487 
L 194.762558 286.112548 
L 194.907558 287.425717 
L 195.197557 291.55388 
L 195.342557 291.964851 
L 195.632557 285.08716 
L 195.922556 290.617427 
L 196.357556 294.362959 
L 196.937555 294.972029 
L 197.227555 295.030221 
L 197.517554 294.887259 
L 197.952553 295.080482 
L 198.097553 294.832966 
L 198.242553 294.855418 
L 198.387553 295.020317 
L 198.677552 294.96806 
L 198.967552 295.163912 
L 199.112552 295.098285 
L 199.257552 295.184819 
L 199.547551 295.10128 
L 199.692551 295.199032 
L 199.982551 295.033449 
L 200.70755 295.202437 
L 201.577548 295.110753 
L 202.157548 295.262468 
L 202.302547 295.302393 
L 202.592547 295.089404 
L 202.882547 295.138071 
L 203.172546 294.86851 
L 203.607546 295.274596 
L 204.477544 295.288987 
L 205.057544 295.175898 
L 205.347543 295.226361 
L 206.797541 295.245175 
L 207.087541 295.29201 
L 208.537539 295.304546 
L 208.827538 295.280365 
L 211.002535 295.357083 
L 211.727534 295.311676 
L 212.017534 295.328197 
L 212.307533 295.150491 
L 212.452533 295.245868 
L 212.742533 295.092575 
L 213.032532 295.272922 
L 213.177532 295.320443 
L 213.467532 295.142139 
L 213.612532 295.207392 
L 214.047531 294.879823 
L 214.48253 295.266988 
L 214.77253 295.079875 
L 215.06253 295.256664 
L 216.947527 295.340622 
L 217.962525 295.376813 
L 218.252525 295.192237 
L 218.542525 295.403014 
L 219.267524 295.334573 
L 221.007521 295.322171 
L 221.297521 295.077108 
L 221.73252 295.303065 
L 222.16752 295.327058 
L 222.457519 295.329933 
L 222.602519 295.217923 
L 223.762517 295.374389 
L 224.052517 295.205583 
L 224.342517 295.2666 
L 224.487516 295.250423 
L 224.777516 295.409804 
L 225.067516 295.26225 
L 225.212515 295.204458 
L 225.647515 295.362896 
L 226.227514 295.355439 
L 226.807513 295.363663 
L 226.952513 295.20797 
L 227.822512 295.379474 
L 228.112511 295.246798 
L 228.402511 295.315002 
L 228.69251 295.260971 
L 229.27251 295.005535 
L 229.562509 295.226862 
L 230.432508 295.430724 
L 230.867507 295.259652 
L 231.012507 295.371716 
L 231.737506 295.304024 
L 232.027506 295.356717 
L 232.607505 295.331962 
L 234.057503 295.379433 
L 236.3775 295.327536 
L 237.972497 295.242596 
L 238.262497 295.195456 
L 238.407497 295.289284 
L 238.697496 295.285497 
L 240.292494 295.346543 
L 240.582494 295.392548 
L 241.162493 295.271674 
L 241.307493 295.060631 
L 241.597492 292.736895 
L 241.887492 288.656425 
L 242.032492 288.171029 
L 242.177492 285.617609 
L 242.322491 285.284898 
L 243.04749 293.348482 
L 243.33749 294.403802 
L 243.62749 294.912442 
L 243.917489 294.864454 
L 244.207489 294.973322 
L 244.642488 295.100429 
L 244.932488 295.141867 
L 245.222487 295.059083 
L 245.657487 295.252183 
L 245.947486 294.767642 
L 246.237486 295.235925 
L 246.962485 295.126774 
L 247.107485 295.222773 
L 247.397484 295.04677 
L 247.542484 295.237513 
L 247.832484 295.145179 
L 248.267483 295.276812 
L 249.862481 295.24558 
L 250.007481 295.361293 
L 250.29748 295.310131 
L 252.762477 295.341216 
L 253.342476 295.343344 
L 253.777475 295.359141 
L 254.502474 295.318455 
L 254.647474 295.236912 
L 254.937474 295.404424 
L 255.517473 295.298955 
L 255.952472 295.41695 
L 257.112471 295.32195 
L 257.69247 295.374976 
L 257.982469 295.233247 
L 258.707468 295.340159 
L 260.447466 295.36963 
L 260.592466 295.280551 
L 261.027465 295.386425 
L 261.317465 295.382686 
L 261.607464 295.413941 
L 261.752464 295.413674 
L 262.042464 295.279425 
L 262.332463 295.123509 
L 262.622463 295.307266 
L 262.912463 295.290799 
L 263.202462 295.30759 
L 263.492462 295.398248 
L 263.782461 295.055279 
L 264.072461 294.649993 
L 265.087459 295.257312 
L 265.377459 295.248244 
L 267.117457 295.298666 
L 267.552456 295.325873 
L 267.987455 295.306874 
L 268.277455 295.094304 
L 268.422455 295.226025 
L 268.712454 294.874294 
L 269.002454 295.22338 
L 270.452452 295.409236 
L 270.742452 295.252003 
L 271.032451 295.356747 
L 271.90245 295.333615 
L 272.19245 295.33715 
L 272.337449 295.26344 
L 272.482449 294.872497 
L 272.917449 294.647608 
L 273.062448 294.594004 
L 273.207448 294.742479 
L 273.497448 295.23941 
L 273.932447 295.358093 
L 274.222447 295.281283 
L 274.512446 295.363205 
L 275.382445 295.412409 
L 275.817444 295.412831 
L 276.107444 295.323921 
L 276.542443 295.428994 
L 279.15244 295.271241 
L 279.442439 295.261947 
L 279.587439 295.359332 
L 280.167438 295.247575 
L 280.457438 295.391275 
L 280.892437 295.392411 
L 281.907436 295.407743 
L 282.342435 295.421228 
L 283.937433 295.320077 
L 284.227433 294.908078 
L 284.517432 295.009652 
L 284.807432 295.352264 
L 285.677431 295.296684 
L 286.11243 295.449718 
L 286.692429 295.410806 
L 286.982429 295.374126 
L 287.417428 295.336104 
L 292.057422 295.43699 
L 292.347421 295.257113 
L 292.637421 295.380376 
L 293.50742 295.256765 
L 293.65242 295.341217 
L 293.942419 295.276724 
L 294.087419 295.398119 
L 294.377418 295.279202 
L 294.667418 295.373028 
L 295.537417 295.416993 
L 296.262416 295.389678 
L 296.842415 295.458108 
L 298.002413 295.37054 
L 298.292413 295.427427 
L 298.872412 295.419433 
L 299.307412 295.455294 
L 299.597411 295.294353 
L 299.887411 295.392491 
L 307.2824 295.406382 
L 308.297399 295.4274 
L 309.747397 295.43979 
L 310.182396 295.362992 
L 310.472396 295.269927 
L 311.052395 295.370901 
L 311.922394 295.393614 
L 313.372392 295.346162 
L 313.662391 295.320574 
L 313.952391 295.447154 
L 314.38739 295.406177 
L 314.67739 295.459278 
L 315.112389 295.396775 
L 315.982388 295.448113 
L 317.287386 295.369504 
L 317.722386 294.962349 
L 318.157385 295.291149 
L 318.447385 295.330978 
L 320.332382 295.433201 
L 320.912381 295.296673 
L 321.202381 295.163632 
L 321.492381 295.30791 
L 322.507379 295.433095 
L 322.797379 295.291141 
L 323.232378 295.390066 
L 323.667377 295.286 
L 327.727372 295.443697 
L 328.017371 295.446288 
L 328.452371 295.45234 
L 328.74237 295.30001 
L 329.17737 295.434747 
L 330.047369 295.434545 
L 330.482368 295.452138 
L 332.657365 295.347833 
L 332.802365 295.280604 
L 333.092364 295.382916 
L 335.267361 295.434376 
L 335.557361 295.383173 
L 336.28236 295.452588 
L 337.442358 295.435852 
L 338.312357 295.438796 
L 343.38735 295.462373 
L 343.822349 295.425309 
L 344.112349 295.439895 
L 344.692348 295.452007 
L 347.882344 295.426763 
L 348.027343 295.318201 
L 348.172343 294.760466 
L 348.462343 291.78667 
L 348.752342 292.577143 
L 348.897342 292.621332 
L 349.332342 294.940585 
L 349.622341 295.230875 
L 359.772327 295.430447 
L 360.352326 295.449389 
L 360.642326 295.455541 
L 361.077325 295.390961 
L 362.382323 295.438848 
L 362.962322 295.431072 
L 363.977321 295.373709 
L 364.41232 295.449095 
L 366.007318 295.330816 
L 366.152318 295.216458 
L 366.442318 294.610954 
L 366.587317 294.733572 
L 366.732317 294.625668 
L 366.877317 294.696457 
L 367.022317 290.37781 
L 367.167317 273.258531 
L 367.457316 202.408376 
L 368.327315 281.807171 
L 368.617315 287.525879 
L 369.052314 291.242034 
L 369.342314 292.581546 
L 370.067313 294.055964 
L 370.357312 294.296866 
L 370.647312 294.401715 
L 370.937311 294.303047 
L 371.227311 294.595273 
L 371.51731 294.602026 
L 371.80731 294.541047 
L 372.09731 294.791732 
L 372.387309 294.637431 
L 372.532309 294.37239 
L 373.112308 294.4706 
L 373.257308 294.486102 
L 373.402308 294.68604 
L 373.547308 294.655819 
L 374.272307 295.099538 
L 374.562306 295.04559 
L 374.852306 295.131546 
L 375.287305 295.139519 
L 376.012304 295.158706 
L 376.302304 294.933673 
L 376.447304 295.023224 
L 376.882303 294.697069 
L 377.897302 295.118872 
L 378.187301 295.042919 
L 379.637299 295.242987 
L 380.652298 295.284747 
L 380.797297 295.245306 
L 380.942297 295.089579 
L 381.957296 295.12741 
L 382.247295 295.075212 
L 382.392295 295.178952 
L 382.682295 295.142288 
L 382.972294 295.256455 
L 383.262294 295.316959 
L 383.552294 294.880316 
L 383.842293 292.377022 
L 384.277293 294.317435 
L 384.712292 294.889899 
L 385.002292 295.057306 
L 385.292291 294.989323 
L 385.582291 295.238688 
L 386.16229 295.238994 
L 387.612288 295.307936 
L 388.047287 295.279972 
L 388.917286 295.352699 
L 389.642285 295.352925 
L 391.962282 295.323511 
L 392.252281 295.340826 
L 392.542281 295.385179 
L 393.12228 295.36012 
L 393.702279 295.394563 
L 394.427278 295.395783 
L 397.762274 295.351501 
L 398.487273 295.422348 
L 398.487273 295.422348 
" clip-path="url(#p6719967e1c)" style="fill: none; stroke: #1f77b4; stroke-width: 0.5; stroke-linecap: round"/>
   </g>
   <g id="patch_3">
    <path d="M 57.6 307.584 
L 57.6 41.472 
" style="fill: none; stroke: #ffffff; stroke-width: 0.8; stroke-linejoin: miter; stroke-linecap: square"/>
   </g>
   <g id="patch_4">
    <path d="M 414.72 307.584 
L 414.72 41.472 
" style="fill: none; stroke: #ffffff; stroke-width: 0.8; stroke-linejoin: miter; stroke-linecap: square"/>
   </g>
   <g id="patch_5">
    <path d="M 57.6 307.584 
L 414.72 307.584 
" style="fill: none; stroke: #ffffff; stroke-width: 0.8; stroke-linejoin: miter; stroke-linecap: square"/>
   </g>
   <g id="patch_6">
    <path d="M 57.6 41.472 
L 414.72 41.472 
" style="fill: none; stroke: #ffffff; stroke-width: 0.8; stroke-linejoin: miter; stroke-linecap: square"/>
   </g>
   <g id="text_14">
    <!-- loss terhadap epoch -->
    <g style="fill: #262626" transform="translate(175.303125 35.472) scale(0.12 -0.12)">
     <defs>
      <path id="DejaVuSans-6c" d="M 603 4863 
L 1178 4863 
L 1178 0 
L 603 0 
L 603 4863 
z
" transform="scale(0.015625)"/>
      <path id="DejaVuSans-73" d="M 2834 3397 
L 2834 2853 
Q 2591 2978 2328 3040 
Q 2066 3103 1784 3103 
Q 1356 3103 1142 2972 
Q 928 2841 928 2578 
Q 928 2378 1081 2264 
Q 1234 2150 1697 2047 
L 1894 2003 
Q 2506 1872 2764 1633 
Q 3022 1394 3022 966 
Q 3022 478 2636 193 
Q 2250 -91 1575 -91 
Q 1294 -91 989 -36 
Q 684 19 347 128 
L 347 722 
Q 666 556 975 473 
Q 1284 391 1588 391 
Q 1994 391 2212 530 
Q 2431 669 2431 922 
Q 2431 1156 2273 1281 
Q 2116 1406 1581 1522 
L 1381 1569 
Q 847 1681 609 1914 
Q 372 2147 372 2553 
Q 372 3047 722 3315 
Q 1072 3584 1716 3584 
Q 2034 3584 2315 3537 
Q 2597 3491 2834 3397 
z
" transform="scale(0.015625)"/>
      <path id="DejaVuSans-20" transform="scale(0.015625)"/>
      <path id="DejaVuSans-74" d="M 1172 4494 
L 1172 3500 
L 2356 3500 
L 2356 3053 
L 1172 3053 
L 1172 1153 
Q 1172 725 1289 603 
Q 1406 481 1766 481 
L 2356 481 
L 2356 0 
L 1766 0 
Q 1100 0 847 248 
Q 594 497 594 1153 
L 594 3053 
L 172 3053 
L 172 3500 
L 594 3500 
L 594 4494 
L 1172 4494 
z
" transform="scale(0.015625)"/>
      <path id="DejaVuSans-72" d="M 2631 2963 
Q 2534 3019 2420 3045 
Q 2306 3072 2169 3072 
Q 1681 3072 1420 2755 
Q 1159 2438 1159 1844 
L 1159 0 
L 581 0 
L 581 3500 
L 1159 3500 
L 1159 2956 
Q 1341 3275 1631 3429 
Q 1922 3584 2338 3584 
Q 2397 3584 2469 3576 
Q 2541 3569 2628 3553 
L 2631 2963 
z
" transform="scale(0.015625)"/>
      <path id="DejaVuSans-61" d="M 2194 1759 
Q 1497 1759 1228 1600 
Q 959 1441 959 1056 
Q 959 750 1161 570 
Q 1363 391 1709 391 
Q 2188 391 2477 730 
Q 2766 1069 2766 1631 
L 2766 1759 
L 2194 1759 
z
M 3341 1997 
L 3341 0 
L 2766 0 
L 2766 531 
Q 2569 213 2275 61 
Q 1981 -91 1556 -91 
Q 1019 -91 701 211 
Q 384 513 384 1019 
Q 384 1609 779 1909 
Q 1175 2209 1959 2209 
L 2766 2209 
L 2766 2266 
Q 2766 2663 2505 2880 
Q 2244 3097 1772 3097 
Q 1472 3097 1187 3025 
Q 903 2953 641 2809 
L 641 3341 
Q 956 3463 1253 3523 
Q 1550 3584 1831 3584 
Q 2591 3584 2966 3190 
Q 3341 2797 3341 1997 
z
" transform="scale(0.015625)"/>
      <path id="DejaVuSans-64" d="M 2906 2969 
L 2906 4863 
L 3481 4863 
L 3481 0 
L 2906 0 
L 2906 525 
Q 2725 213 2448 61 
Q 2172 -91 1784 -91 
Q 1150 -91 751 415 
Q 353 922 353 1747 
Q 353 2572 751 3078 
Q 1150 3584 1784 3584 
Q 2172 3584 2448 3432 
Q 2725 3281 2906 2969 
z
M 947 1747 
Q 947 1113 1208 752 
Q 1469 391 1925 391 
Q 2381 391 2643 752 
Q 2906 1113 2906 1747 
Q 2906 2381 2643 2742 
Q 2381 3103 1925 3103 
Q 1469 3103 1208 2742 
Q 947 2381 947 1747 
z
" transform="scale(0.015625)"/>
     </defs>
     <use xlink:href="#DejaVuSans-6c"/>
     <use xlink:href="#DejaVuSans-6f" x="27.783203"/>
     <use xlink:href="#DejaVuSans-73" x="88.964844"/>
     <use xlink:href="#DejaVuSans-73" x="141.064453"/>
     <use xlink:href="#DejaVuSans-20" x="193.164062"/>
     <use xlink:href="#DejaVuSans-74" x="224.951172"/>
     <use xlink:href="#DejaVuSans-65" x="264.160156"/>
     <use xlink:href="#DejaVuSans-72" x="325.683594"/>
     <use xlink:href="#DejaVuSans-68" x="365.046875"/>
     <use xlink:href="#DejaVuSans-61" x="428.425781"/>
     <use xlink:href="#DejaVuSans-64" x="489.705078"/>
     <use xlink:href="#DejaVuSans-61" x="553.181641"/>
     <use xlink:href="#DejaVuSans-70" x="614.460938"/>
     <use xlink:href="#DejaVuSans-20" x="677.9375"/>
     <use xlink:href="#DejaVuSans-65" x="709.724609"/>
     <use xlink:href="#DejaVuSans-70" x="771.248047"/>
     <use xlink:href="#DejaVuSans-6f" x="834.724609"/>
     <use xlink:href="#DejaVuSans-63" x="895.90625"/>
     <use xlink:href="#DejaVuSans-68" x="950.886719"/>
    </g>
   </g>
   <g id="legend_1">
    <g id="patch_7">
     <path d="M 239.190313 64.42825 
L 407.72 64.42825 
Q 409.72 64.42825 409.72 62.42825 
L 409.72 48.472 
Q 409.72 46.472 407.72 46.472 
L 239.190313 46.472 
Q 237.190313 46.472 237.190313 48.472 
L 237.190313 62.42825 
Q 237.190313 64.42825 239.190313 64.42825 
z
" style="fill: #eaeaf2; opacity: 0.8; stroke: #cccccc; stroke-linejoin: miter"/>
    </g>
    <g id="line2d_2">
     <path d="M 241.190313 54.570437 
L 251.190313 54.570437 
L 261.190313 54.570437 
" style="fill: none; stroke: #1f77b4; stroke-width: 0.5; stroke-linecap: round"/>
    </g>
    <g id="text_15">
     <!-- best-660/top1-0d8825_loss -->
     <g style="fill: #262626" transform="translate(269.190313 58.070437) scale(0.1 -0.1)">
      <defs>
       <path id="DejaVuSans-62" d="M 3116 1747 
Q 3116 2381 2855 2742 
Q 2594 3103 2138 3103 
Q 1681 3103 1420 2742 
Q 1159 2381 1159 1747 
Q 1159 1113 1420 752 
Q 1681 391 2138 391 
Q 2594 391 2855 752 
Q 3116 1113 3116 1747 
z
M 1159 2969 
Q 1341 3281 1617 3432 
Q 1894 3584 2278 3584 
Q 2916 3584 3314 3078 
Q 3713 2572 3713 1747 
Q 3713 922 3314 415 
Q 2916 -91 2278 -91 
Q 1894 -91 1617 61 
Q 1341 213 1159 525 
L 1159 0 
L 581 0 
L 581 4863 
L 1159 4863 
L 1159 2969 
z
" transform="scale(0.015625)"/>
       <path id="DejaVuSans-2d" d="M 313 2009 
L 1997 2009 
L 1997 1497 
L 313 1497 
L 313 2009 
z
" transform="scale(0.015625)"/>
       <path id="DejaVuSans-36" d="M 2113 2584 
Q 1688 2584 1439 2293 
Q 1191 2003 1191 1497 
Q 1191 994 1439 701 
Q 1688 409 2113 409 
Q 2538 409 2786 701 
Q 3034 994 3034 1497 
Q 3034 2003 2786 2293 
Q 2538 2584 2113 2584 
z
M 3366 4563 
L 3366 3988 
Q 3128 4100 2886 4159 
Q 2644 4219 2406 4219 
Q 1781 4219 1451 3797 
Q 1122 3375 1075 2522 
Q 1259 2794 1537 2939 
Q 1816 3084 2150 3084 
Q 2853 3084 3261 2657 
Q 3669 2231 3669 1497 
Q 3669 778 3244 343 
Q 2819 -91 2113 -91 
Q 1303 -91 875 529 
Q 447 1150 447 2328 
Q 447 3434 972 4092 
Q 1497 4750 2381 4750 
Q 2619 4750 2861 4703 
Q 3103 4656 3366 4563 
z
" transform="scale(0.015625)"/>
       <path id="DejaVuSans-2f" d="M 1625 4666 
L 2156 4666 
L 531 -594 
L 0 -594 
L 1625 4666 
z
" transform="scale(0.015625)"/>
       <path id="DejaVuSans-38" d="M 2034 2216 
Q 1584 2216 1326 1975 
Q 1069 1734 1069 1313 
Q 1069 891 1326 650 
Q 1584 409 2034 409 
Q 2484 409 2743 651 
Q 3003 894 3003 1313 
Q 3003 1734 2745 1975 
Q 2488 2216 2034 2216 
z
M 1403 2484 
Q 997 2584 770 2862 
Q 544 3141 544 3541 
Q 544 4100 942 4425 
Q 1341 4750 2034 4750 
Q 2731 4750 3128 4425 
Q 3525 4100 3525 3541 
Q 3525 3141 3298 2862 
Q 3072 2584 2669 2484 
Q 3125 2378 3379 2068 
Q 3634 1759 3634 1313 
Q 3634 634 3220 271 
Q 2806 -91 2034 -91 
Q 1263 -91 848 271 
Q 434 634 434 1313 
Q 434 1759 690 2068 
Q 947 2378 1403 2484 
z
M 1172 3481 
Q 1172 3119 1398 2916 
Q 1625 2713 2034 2713 
Q 2441 2713 2670 2916 
Q 2900 3119 2900 3481 
Q 2900 3844 2670 4047 
Q 2441 4250 2034 4250 
Q 1625 4250 1398 4047 
Q 1172 3844 1172 3481 
z
" transform="scale(0.015625)"/>
       <path id="DejaVuSans-5f" d="M 3263 -1063 
L 3263 -1509 
L -63 -1509 
L -63 -1063 
L 3263 -1063 
z
" transform="scale(0.015625)"/>
      </defs>
      <use xlink:href="#DejaVuSans-62"/>
      <use xlink:href="#DejaVuSans-65" x="63.476562"/>
      <use xlink:href="#DejaVuSans-73" x="125"/>
      <use xlink:href="#DejaVuSans-74" x="177.099609"/>
      <use xlink:href="#DejaVuSans-2d" x="216.308594"/>
      <use xlink:href="#DejaVuSans-36" x="252.392578"/>
      <use xlink:href="#DejaVuSans-36" x="316.015625"/>
      <use xlink:href="#DejaVuSans-30" x="379.638672"/>
      <use xlink:href="#DejaVuSans-2f" x="443.261719"/>
      <use xlink:href="#DejaVuSans-74" x="476.953125"/>
      <use xlink:href="#DejaVuSans-6f" x="516.162109"/>
      <use xlink:href="#DejaVuSans-70" x="577.34375"/>
      <use xlink:href="#DejaVuSans-31" x="640.820312"/>
      <use xlink:href="#DejaVuSans-2d" x="704.443359"/>
      <use xlink:href="#DejaVuSans-30" x="740.527344"/>
      <use xlink:href="#DejaVuSans-64" x="804.150391"/>
      <use xlink:href="#DejaVuSans-38" x="867.626953"/>
      <use xlink:href="#DejaVuSans-38" x="931.25"/>
      <use xlink:href="#DejaVuSans-32" x="994.873047"/>
      <use xlink:href="#DejaVuSans-35" x="1058.496094"/>
      <use xlink:href="#DejaVuSans-5f" x="1122.119141"/>
      <use xlink:href="#DejaVuSans-6c" x="1172.119141"/>
      <use xlink:href="#DejaVuSans-6f" x="1199.902344"/>
      <use xlink:href="#DejaVuSans-73" x="1261.083984"/>
      <use xlink:href="#DejaVuSans-73" x="1313.183594"/>
     </g>
    </g>
   </g>
  </g>
 </g>
 <defs>
  <clipPath id="p6719967e1c">
   <rect x="57.6" y="41.472" width="357.12" height="266.112"/>
  </clipPath>
 </defs>
</svg>
