<?xml version="1.0" encoding="utf-8" standalone="no"?>
<!DOCTYPE svg PUBLIC "-//W3C//DTD SVG 1.1//EN"
  "http://www.w3.org/Graphics/SVG/1.1/DTD/svg11.dtd">
<svg xmlns:xlink="http://www.w3.org/1999/xlink" width="460.8pt" height="345.6pt" viewBox="0 0 460.8 345.6" xmlns="http://www.w3.org/2000/svg" version="1.1">
 <metadata>
  <rdf:RDF xmlns:dc="http://purl.org/dc/elements/1.1/" xmlns:cc="http://creativecommons.org/ns#" xmlns:rdf="http://www.w3.org/1999/02/22-rdf-syntax-ns#">
   <cc:Work>
    <dc:type rdf:resource="http://purl.org/dc/dcmitype/StillImage"/>
    <dc:date>2024-05-20T14:57:39.707481</dc:date>
    <dc:format>image/svg+xml</dc:format>
    <dc:creator>
     <cc:Agent>
      <dc:title>Matplotlib v3.7.2, https://matplotlib.org/</dc:title>
     </cc:Agent>
    </dc:creator>
   </cc:Work>
  </rdf:RDF>
 </metadata>
 <defs>
  <style type="text/css">*{stroke-linejoin: round; stroke-linecap: butt}</style>
 </defs>
 <g id="figure_1">
  <g id="patch_1">
   <path d="M 0 345.6 
L 460.8 345.6 
L 460.8 0 
L 0 0 
z
" style="fill: #ffffff"/>
  </g>
  <g id="axes_1">
   <g id="patch_2">
    <path d="M 57.6 307.584 
L 414.72 307.584 
L 414.72 41.472 
L 57.6 41.472 
z
" style="fill: #eaeaf2"/>
   </g>
   <g id="matplotlib.axis_1">
    <g id="xtick_1">
     <g id="text_1">
      <!-- 0 -->
      <g style="fill: #262626" transform="translate(70.312943 322.182437) scale(0.1 -0.1)">
       <defs>
        <path id="DejaVuSans-30" d="M 2034 4250 
Q 1547 4250 1301 3770 
Q 1056 3291 1056 2328 
Q 1056 1369 1301 889 
Q 1547 409 2034 409 
Q 2525 409 2770 889 
Q 3016 1369 3016 2328 
Q 3016 3291 2770 3770 
Q 2525 4250 2034 4250 
z
M 2034 4750 
Q 2819 4750 3233 4129 
Q 3647 3509 3647 2328 
Q 3647 1150 3233 529 
Q 2819 -91 2034 -91 
Q 1250 -91 836 529 
Q 422 1150 422 2328 
Q 422 3509 836 4129 
Q 1250 4750 2034 4750 
z
" transform="scale(0.015625)"/>
       </defs>
       <use xlink:href="#DejaVuSans-30"/>
      </g>
     </g>
    </g>
    <g id="xtick_2">
     <g id="text_2">
      <!-- 200 -->
      <g style="fill: #262626" transform="translate(131.657334 322.182437) scale(0.1 -0.1)">
       <defs>
        <path id="DejaVuSans-32" d="M 1228 531 
L 3431 531 
L 3431 0 
L 469 0 
L 469 531 
Q 828 903 1448 1529 
Q 2069 2156 2228 2338 
Q 2531 2678 2651 2914 
Q 2772 3150 2772 3378 
Q 2772 3750 2511 3984 
Q 2250 4219 1831 4219 
Q 1534 4219 1204 4116 
Q 875 4013 500 3803 
L 500 4441 
Q 881 4594 1212 4672 
Q 1544 4750 1819 4750 
Q 2544 4750 2975 4387 
Q 3406 4025 3406 3419 
Q 3406 3131 3298 2873 
Q 3191 2616 2906 2266 
Q 2828 2175 2409 1742 
Q 1991 1309 1228 531 
z
" transform="scale(0.015625)"/>
       </defs>
       <use xlink:href="#DejaVuSans-32"/>
       <use xlink:href="#DejaVuSans-30" x="63.623047"/>
       <use xlink:href="#DejaVuSans-30" x="127.246094"/>
      </g>
     </g>
    </g>
    <g id="xtick_3">
     <g id="text_3">
      <!-- 400 -->
      <g style="fill: #262626" transform="translate(199.364226 322.182437) scale(0.1 -0.1)">
       <defs>
        <path id="DejaVuSans-34" d="M 2419 4116 
L 825 1625 
L 2419 1625 
L 2419 4116 
z
M 2253 4666 
L 3047 4666 
L 3047 1625 
L 3713 1625 
L 3713 1100 
L 3047 1100 
L 3047 0 
L 2419 0 
L 2419 1100 
L 313 1100 
L 313 1709 
L 2253 4666 
z
" transform="scale(0.015625)"/>
       </defs>
       <use xlink:href="#DejaVuSans-34"/>
       <use xlink:href="#DejaVuSans-30" x="63.623047"/>
       <use xlink:href="#DejaVuSans-30" x="127.246094"/>
      </g>
     </g>
    </g>
    <g id="xtick_4">
     <g id="text_4">
      <!-- 600 -->
      <g style="fill: #262626" transform="translate(267.071118 322.182437) scale(0.1 -0.1)">
       <defs>
        <path id="DejaVuSans-36" d="M 2113 2584 
Q 1688 2584 1439 2293 
Q 1191 2003 1191 1497 
Q 1191 994 1439 701 
Q 1688 409 2113 409 
Q 2538 409 2786 701 
Q 3034 994 3034 1497 
Q 3034 2003 2786 2293 
Q 2538 2584 2113 2584 
z
M 3366 4563 
L 3366 3988 
Q 3128 4100 2886 4159 
Q 2644 4219 2406 4219 
Q 1781 4219 1451 3797 
Q 1122 3375 1075 2522 
Q 1259 2794 1537 2939 
Q 1816 3084 2150 3084 
Q 2853 3084 3261 2657 
Q 3669 2231 3669 1497 
Q 3669 778 3244 343 
Q 2819 -91 2113 -91 
Q 1303 -91 875 529 
Q 447 1150 447 2328 
Q 447 3434 972 4092 
Q 1497 4750 2381 4750 
Q 2619 4750 2861 4703 
Q 3103 4656 3366 4563 
z
" transform="scale(0.015625)"/>
       </defs>
       <use xlink:href="#DejaVuSans-36"/>
       <use xlink:href="#DejaVuSans-30" x="63.623047"/>
       <use xlink:href="#DejaVuSans-30" x="127.246094"/>
      </g>
     </g>
    </g>
    <g id="xtick_5">
     <g id="text_5">
      <!-- 800 -->
      <g style="fill: #262626" transform="translate(334.778009 322.182437) scale(0.1 -0.1)">
       <defs>
        <path id="DejaVuSans-38" d="M 2034 2216 
Q 1584 2216 1326 1975 
Q 1069 1734 1069 1313 
Q 1069 891 1326 650 
Q 1584 409 2034 409 
Q 2484 409 2743 651 
Q 3003 894 3003 1313 
Q 3003 1734 2745 1975 
Q 2488 2216 2034 2216 
z
M 1403 2484 
Q 997 2584 770 2862 
Q 544 3141 544 3541 
Q 544 4100 942 4425 
Q 1341 4750 2034 4750 
Q 2731 4750 3128 4425 
Q 3525 4100 3525 3541 
Q 3525 3141 3298 2862 
Q 3072 2584 2669 2484 
Q 3125 2378 3379 2068 
Q 3634 1759 3634 1313 
Q 3634 634 3220 271 
Q 2806 -91 2034 -91 
Q 1263 -91 848 271 
Q 434 634 434 1313 
Q 434 1759 690 2068 
Q 947 2378 1403 2484 
z
M 1172 3481 
Q 1172 3119 1398 2916 
Q 1625 2713 2034 2713 
Q 2441 2713 2670 2916 
Q 2900 3119 2900 3481 
Q 2900 3844 2670 4047 
Q 2441 4250 2034 4250 
Q 1625 4250 1398 4047 
Q 1172 3844 1172 3481 
z
" transform="scale(0.015625)"/>
       </defs>
       <use xlink:href="#DejaVuSans-38"/>
       <use xlink:href="#DejaVuSans-30" x="63.623047"/>
       <use xlink:href="#DejaVuSans-30" x="127.246094"/>
      </g>
     </g>
    </g>
    <g id="xtick_6">
     <g id="text_6">
      <!-- 1000 -->
      <g style="fill: #262626" transform="translate(399.303651 322.182437) scale(0.1 -0.1)">
       <defs>
        <path id="DejaVuSans-31" d="M 794 531 
L 1825 531 
L 1825 4091 
L 703 3866 
L 703 4441 
L 1819 4666 
L 2450 4666 
L 2450 531 
L 3481 531 
L 3481 0 
L 794 0 
L 794 531 
z
" transform="scale(0.015625)"/>
       </defs>
       <use xlink:href="#DejaVuSans-31"/>
       <use xlink:href="#DejaVuSans-30" x="63.623047"/>
       <use xlink:href="#DejaVuSans-30" x="127.246094"/>
       <use xlink:href="#DejaVuSans-30" x="190.869141"/>
      </g>
     </g>
    </g>
    <g id="text_7">
     <!-- epoch -->
     <g style="fill: #262626" transform="translate(220.931875 335.860562) scale(0.1 -0.1)">
      <defs>
       <path id="DejaVuSans-65" d="M 3597 1894 
L 3597 1613 
L 953 1613 
Q 991 1019 1311 708 
Q 1631 397 2203 397 
Q 2534 397 2845 478 
Q 3156 559 3463 722 
L 3463 178 
Q 3153 47 2828 -22 
Q 2503 -91 2169 -91 
Q 1331 -91 842 396 
Q 353 884 353 1716 
Q 353 2575 817 3079 
Q 1281 3584 2069 3584 
Q 2775 3584 3186 3129 
Q 3597 2675 3597 1894 
z
M 3022 2063 
Q 3016 2534 2758 2815 
Q 2500 3097 2075 3097 
Q 1594 3097 1305 2825 
Q 1016 2553 972 2059 
L 3022 2063 
z
" transform="scale(0.015625)"/>
       <path id="DejaVuSans-70" d="M 1159 525 
L 1159 -1331 
L 581 -1331 
L 581 3500 
L 1159 3500 
L 1159 2969 
Q 1341 3281 1617 3432 
Q 1894 3584 2278 3584 
Q 2916 3584 3314 3078 
Q 3713 2572 3713 1747 
Q 3713 922 3314 415 
Q 2916 -91 2278 -91 
Q 1894 -91 1617 61 
Q 1341 213 1159 525 
z
M 3116 1747 
Q 3116 2381 2855 2742 
Q 2594 3103 2138 3103 
Q 1681 3103 1420 2742 
Q 1159 2381 1159 1747 
Q 1159 1113 1420 752 
Q 1681 391 2138 391 
Q 2594 391 2855 752 
Q 3116 1113 3116 1747 
z
" transform="scale(0.015625)"/>
       <path id="DejaVuSans-6f" d="M 1959 3097 
Q 1497 3097 1228 2736 
Q 959 2375 959 1747 
Q 959 1119 1226 758 
Q 1494 397 1959 397 
Q 2419 397 2687 759 
Q 2956 1122 2956 1747 
Q 2956 2369 2687 2733 
Q 2419 3097 1959 3097 
z
M 1959 3584 
Q 2709 3584 3137 3096 
Q 3566 2609 3566 1747 
Q 3566 888 3137 398 
Q 2709 -91 1959 -91 
Q 1206 -91 779 398 
Q 353 888 353 1747 
Q 353 2609 779 3096 
Q 1206 3584 1959 3584 
z
" transform="scale(0.015625)"/>
       <path id="DejaVuSans-63" d="M 3122 3366 
L 3122 2828 
Q 2878 2963 2633 3030 
Q 2388 3097 2138 3097 
Q 1578 3097 1268 2742 
Q 959 2388 959 1747 
Q 959 1106 1268 751 
Q 1578 397 2138 397 
Q 2388 397 2633 464 
Q 2878 531 3122 666 
L 3122 134 
Q 2881 22 2623 -34 
Q 2366 -91 2075 -91 
Q 1284 -91 818 406 
Q 353 903 353 1747 
Q 353 2603 823 3093 
Q 1294 3584 2113 3584 
Q 2378 3584 2631 3529 
Q 2884 3475 3122 3366 
z
" transform="scale(0.015625)"/>
       <path id="DejaVuSans-68" d="M 3513 2113 
L 3513 0 
L 2938 0 
L 2938 2094 
Q 2938 2591 2744 2837 
Q 2550 3084 2163 3084 
Q 1697 3084 1428 2787 
Q 1159 2491 1159 1978 
L 1159 0 
L 581 0 
L 581 4863 
L 1159 4863 
L 1159 2956 
Q 1366 3272 1645 3428 
Q 1925 3584 2291 3584 
Q 2894 3584 3203 3211 
Q 3513 2838 3513 2113 
z
" transform="scale(0.015625)"/>
      </defs>
      <use xlink:href="#DejaVuSans-65"/>
      <use xlink:href="#DejaVuSans-70" x="61.523438"/>
      <use xlink:href="#DejaVuSans-6f" x="125"/>
      <use xlink:href="#DejaVuSans-63" x="186.181641"/>
      <use xlink:href="#DejaVuSans-68" x="241.162109"/>
     </g>
    </g>
   </g>
   <g id="matplotlib.axis_2">
    <g id="ytick_1">
     <g id="text_8">
      <!-- 0.5 -->
      <g style="fill: #262626" transform="translate(34.696875 264.682251) scale(0.1 -0.1)">
       <defs>
        <path id="DejaVuSans-2e" d="M 684 794 
L 1344 794 
L 1344 0 
L 684 0 
L 684 794 
z
" transform="scale(0.015625)"/>
        <path id="DejaVuSans-35" d="M 691 4666 
L 3169 4666 
L 3169 4134 
L 1269 4134 
L 1269 2991 
Q 1406 3038 1543 3061 
Q 1681 3084 1819 3084 
Q 2600 3084 3056 2656 
Q 3513 2228 3513 1497 
Q 3513 744 3044 326 
Q 2575 -91 1722 -91 
Q 1428 -91 1123 -41 
Q 819 9 494 109 
L 494 744 
Q 775 591 1075 516 
Q 1375 441 1709 441 
Q 2250 441 2565 725 
Q 2881 1009 2881 1497 
Q 2881 1984 2565 2268 
Q 2250 2553 1709 2553 
Q 1456 2553 1204 2497 
Q 953 2441 691 2322 
L 691 4666 
z
" transform="scale(0.015625)"/>
       </defs>
       <use xlink:href="#DejaVuSans-30"/>
       <use xlink:href="#DejaVuSans-2e" x="63.623047"/>
       <use xlink:href="#DejaVuSans-35" x="95.410156"/>
      </g>
     </g>
    </g>
    <g id="ytick_2">
     <g id="text_9">
      <!-- 1.0 -->
      <g style="fill: #262626" transform="translate(34.696875 213.995221) scale(0.1 -0.1)">
       <use xlink:href="#DejaVuSans-31"/>
       <use xlink:href="#DejaVuSans-2e" x="63.623047"/>
       <use xlink:href="#DejaVuSans-30" x="95.410156"/>
      </g>
     </g>
    </g>
    <g id="ytick_3">
     <g id="text_10">
      <!-- 1.5 -->
      <g style="fill: #262626" transform="translate(34.696875 163.30819) scale(0.1 -0.1)">
       <use xlink:href="#DejaVuSans-31"/>
       <use xlink:href="#DejaVuSans-2e" x="63.623047"/>
       <use xlink:href="#DejaVuSans-35" x="95.410156"/>
      </g>
     </g>
    </g>
    <g id="ytick_4">
     <g id="text_11">
      <!-- 2.0 -->
      <g style="fill: #262626" transform="translate(34.696875 112.62116) scale(0.1 -0.1)">
       <use xlink:href="#DejaVuSans-32"/>
       <use xlink:href="#DejaVuSans-2e" x="63.623047"/>
       <use xlink:href="#DejaVuSans-30" x="95.410156"/>
      </g>
     </g>
    </g>
    <g id="ytick_5">
     <g id="text_12">
      <!-- 2.5 -->
      <g style="fill: #262626" transform="translate(34.696875 61.93413) scale(0.1 -0.1)">
       <use xlink:href="#DejaVuSans-32"/>
       <use xlink:href="#DejaVuSans-2e" x="63.623047"/>
       <use xlink:href="#DejaVuSans-35" x="95.410156"/>
      </g>
     </g>
    </g>
   </g>
   <g id="line2d_1">
    <path d="M 73.832727 60.396288 
L 74.171262 53.568 
L 74.509796 60.689199 
L 74.848331 77.594814 
L 75.5254 87.898581 
L 76.202468 91.717683 
L 77.895141 97.528248 
L 79.249279 104.507992 
L 79.587813 105.795023 
L 79.926348 106.400819 
L 80.264882 107.265596 
L 80.941951 110.081868 
L 81.280485 111.136523 
L 81.61902 110.683119 
L 82.296089 113.471158 
L 82.634623 114.974964 
L 83.988761 118.250955 
L 86.019968 127.925062 
L 86.358502 128.875987 
L 87.035571 132.836715 
L 87.374106 134.406617 
L 87.71264 133.917436 
L 88.051175 134.43257 
L 89.066778 139.657074 
L 89.743847 146.087453 
L 90.082381 147.266657 
L 91.097985 147.879149 
L 91.436519 150.225272 
L 92.113588 156.557959 
L 92.452122 158.105422 
L 92.790657 158.459226 
L 93.129191 157.331819 
L 93.467726 157.03824 
L 93.80626 159.412177 
L 94.144795 164.111645 
L 95.160398 171.255959 
L 95.498933 176.21369 
L 95.837467 178.551859 
L 96.176002 179.613285 
L 96.85307 183.56677 
L 97.191605 183.941335 
L 97.530139 184.043763 
L 97.868674 180.930813 
L 98.207208 179.12636 
L 98.545743 181.1049 
L 99.222812 191.593912 
L 99.561346 194.058299 
L 99.899881 194.821875 
L 100.238415 198.256781 
L 100.576949 198.075818 
L 100.915484 198.084613 
L 101.254018 201.272388 
L 101.592553 206.000486 
L 102.269622 209.287562 
L 102.608156 205.08426 
L 102.946691 204.359881 
L 103.285225 205.481234 
L 104.300829 217.196904 
L 104.977897 220.675067 
L 105.654966 222.318114 
L 105.993501 222.583219 
L 106.332035 223.758655 
L 106.67057 225.404889 
L 107.686173 226.765716 
L 108.024708 228.648263 
L 108.363242 229.79906 
L 108.701776 230.183428 
L 109.040311 230.168099 
L 109.71738 235.175451 
L 110.055914 236.357779 
L 110.394449 236.44915 
L 110.732983 236.211049 
L 111.748587 241.234629 
L 112.087121 241.612263 
L 112.76419 243.551076 
L 113.102724 244.034818 
L 113.441259 244.088185 
L 113.779793 244.612282 
L 114.456862 246.661753 
L 114.795397 246.626372 
L 115.133931 246.856542 
L 115.472466 248.059776 
L 115.811 248.298653 
L 116.149535 248.080998 
L 116.488069 248.662077 
L 117.165138 251.06544 
L 117.503672 250.856572 
L 117.842207 251.442379 
L 118.180741 251.281211 
L 118.519276 251.525369 
L 118.85781 252.914663 
L 119.534879 253.144999 
L 119.873414 253.851509 
L 120.211948 253.4618 
L 120.550483 253.576387 
L 120.889017 252.872468 
L 121.227551 253.155025 
L 121.90462 255.988937 
L 122.243155 255.867729 
L 122.920224 253.448851 
L 123.258758 253.345533 
L 123.597293 253.08977 
L 123.935827 253.939189 
L 124.274362 254.418082 
L 124.95143 255.784529 
L 125.289965 255.98777 
L 125.628499 255.241016 
L 125.967034 255.215776 
L 126.305568 255.447957 
L 126.644103 255.516028 
L 126.982637 254.518111 
L 127.321172 254.510989 
L 127.659706 255.167878 
L 128.336775 255.317361 
L 128.67531 256.003703 
L 129.013844 256.334219 
L 129.352378 257.263311 
L 129.690913 256.77607 
L 130.367982 254.846012 
L 130.706516 255.103134 
L 131.045051 255.804139 
L 131.383585 255.196649 
L 131.72212 255.656986 
L 132.060654 255.808736 
L 132.399189 256.351416 
L 133.076257 255.170471 
L 133.414792 255.359871 
L 133.753326 255.293552 
L 134.091861 255.72077 
L 134.430395 254.780691 
L 134.76893 255.032795 
L 135.107464 255.053767 
L 135.445999 255.986942 
L 135.784533 256.03524 
L 136.123068 255.258393 
L 136.461602 255.404162 
L 136.800137 254.745948 
L 137.81574 256.60175 
L 138.154274 256.262096 
L 138.492809 255.296046 
L 139.169878 256.406562 
L 139.846947 253.801119 
L 140.524016 254.301719 
L 140.86255 253.730472 
L 141.201084 254.775578 
L 141.878153 254.196172 
L 142.216688 254.611659 
L 142.555222 254.231206 
L 142.893757 253.103103 
L 143.570826 246.876723 
L 143.90936 244.112668 
L 144.247895 242.405465 
L 144.586429 241.341011 
L 144.924964 243.015133 
L 145.263498 246.042734 
L 145.602032 250.229728 
L 145.940567 251.987447 
L 146.279101 252.31476 
L 146.617636 250.451597 
L 146.95617 243.868542 
L 147.633239 222.850979 
L 147.971774 226.741218 
L 148.310308 238.448248 
L 148.987377 249.909341 
L 149.325911 251.812427 
L 149.664446 250.700479 
L 150.00298 250.134236 
L 150.341515 250.310196 
L 150.680049 248.874107 
L 151.018584 243.456573 
L 151.357118 230.653739 
L 151.695653 224.056238 
L 153.388325 255.261578 
L 153.726859 255.491509 
L 154.065394 251.505927 
L 154.403928 248.946467 
L 154.742463 247.85614 
L 155.419532 248.596514 
L 155.758066 250.763329 
L 156.096601 251.523411 
L 156.435135 253.215121 
L 156.77367 253.762863 
L 157.112204 255.02736 
L 157.450738 254.56116 
L 158.466342 260.189119 
L 158.804876 257.45649 
L 159.143411 251.779089 
L 159.481945 243.446807 
L 159.82048 240.345462 
L 160.159014 235.131929 
L 160.836083 197.112469 
L 161.174617 198.345026 
L 161.513152 211.367871 
L 161.851686 230.234317 
L 162.528755 247.725862 
L 163.205824 258.125946 
L 163.544359 260.456265 
L 163.882893 260.703916 
L 164.221428 262.406705 
L 164.559962 262.765057 
L 164.898497 262.156681 
L 165.237031 260.137031 
L 165.9141 251.455953 
L 166.591169 237.674936 
L 168.283841 261.818626 
L 168.622376 265.226505 
L 168.96091 265.554209 
L 169.299444 264.554813 
L 169.637979 263.916068 
L 169.976513 266.011696 
L 170.315048 264.736521 
L 170.653582 262.619866 
L 171.669186 267.521964 
L 172.00772 270.426512 
L 172.684789 270.665745 
L 173.023324 270.389048 
L 173.361858 270.535923 
L 173.700392 268.237383 
L 174.377461 259.608194 
L 174.715996 260.350755 
L 175.05453 259.871343 
L 176.070134 268.077869 
L 176.747203 271.159218 
L 177.085737 271.803751 
L 177.424271 270.201429 
L 177.762806 270.718114 
L 178.10134 267.669343 
L 178.439875 255.089864 
L 179.116944 215.791894 
L 179.455478 210.540613 
L 179.794013 211.974196 
L 180.132547 225.264013 
L 180.471082 247.456336 
L 180.809616 258.575005 
L 181.148151 265.925382 
L 182.502288 275.837954 
L 182.840823 277.621495 
L 183.856426 279.37213 
L 184.87203 282.336143 
L 185.210564 281.763406 
L 185.549098 280.844572 
L 185.887633 281.146538 
L 186.226167 282.907609 
L 186.564702 283.793466 
L 186.903236 284.141353 
L 187.241771 284.075702 
L 187.580305 283.713337 
L 187.91884 283.911266 
L 188.257374 282.715007 
L 188.595909 282.71732 
L 188.934443 282.28099 
L 189.272978 283.535447 
L 189.611512 284.272969 
L 189.950046 284.727153 
L 190.288581 284.867539 
L 190.627115 284.078297 
L 191.304184 285.429271 
L 191.642719 285.119332 
L 192.658322 283.272002 
L 192.996857 283.851868 
L 193.335391 283.282333 
L 194.01246 284.438084 
L 194.350994 284.118693 
L 194.689529 284.228017 
L 195.028063 283.486867 
L 196.043667 287.023648 
L 196.382201 286.521343 
L 196.720736 286.427942 
L 197.05927 287.244159 
L 198.074873 287.978396 
L 198.413408 288.704232 
L 198.751942 288.501439 
L 199.429011 285.510041 
L 199.767546 285.553537 
L 202.137287 288.846859 
L 202.475821 288.858501 
L 204.168494 290.163648 
L 204.507028 290.600398 
L 204.845563 290.529254 
L 205.184097 290.779847 
L 205.522632 290.647608 
L 205.861166 290.263566 
L 206.1997 290.081781 
L 206.538235 290.459053 
L 206.876769 290.029124 
L 207.215304 290.64079 
L 207.553838 289.750625 
L 207.892373 289.98572 
L 208.230907 289.713502 
L 208.569442 290.244706 
L 208.907976 290.346779 
L 209.246511 290.851293 
L 209.585045 290.542284 
L 211.277717 291.937933 
L 212.293321 291.893943 
L 212.631855 291.770786 
L 212.97039 291.458175 
L 213.308924 291.380167 
L 213.647459 291.857387 
L 213.985993 292.104228 
L 215.001596 292.201214 
L 215.340131 291.676867 
L 215.678665 291.775758 
L 216.0172 291.556494 
L 216.355734 291.59168 
L 216.694269 291.923046 
L 217.032803 292.035648 
L 217.709872 291.983766 
L 218.048406 291.79089 
L 218.386941 292.29382 
L 218.725475 292.410892 
L 219.402544 292.107236 
L 219.741079 292.637268 
L 220.418148 292.957884 
L 220.756682 292.636428 
L 221.433751 292.425487 
L 221.772286 292.931088 
L 222.11082 293.067595 
L 222.449354 292.982454 
L 223.464958 292.193406 
L 223.803492 292.754671 
L 224.142027 292.329873 
L 224.480561 292.469636 
L 224.819096 292.353695 
L 225.15763 293.070238 
L 225.496165 293.121963 
L 225.834699 292.607611 
L 226.173233 292.437824 
L 226.511768 292.987398 
L 226.850302 293.111773 
L 227.188837 293.103964 
L 227.527371 292.617182 
L 227.865906 292.729365 
L 228.542975 292.44959 
L 228.881509 292.62789 
L 229.220044 293.117747 
L 229.558578 293.321591 
L 229.897113 293.082788 
L 230.235647 292.586651 
L 230.574181 292.836783 
L 230.912716 292.942419 
L 231.25125 293.336916 
L 231.589785 293.023939 
L 231.928319 292.949547 
L 232.605388 293.607006 
L 232.943923 293.573389 
L 233.282457 293.169658 
L 233.959526 293.338 
L 234.29806 293.108837 
L 234.636595 292.677125 
L 235.313664 293.153855 
L 235.652198 293.371264 
L 235.990733 293.176847 
L 236.329267 293.175727 
L 236.667802 292.850243 
L 237.006336 292.713657 
L 237.344871 293.124179 
L 237.683405 293.315553 
L 238.02194 293.317826 
L 238.360474 292.592977 
L 239.376077 292.925601 
L 240.053146 293.080274 
L 240.391681 292.872342 
L 240.730215 292.827442 
L 241.06875 293.257106 
L 241.407284 293.316537 
L 241.745819 293.501172 
L 242.084353 293.820852 
L 243.438491 292.867618 
L 244.11556 292.779543 
L 244.454094 293.404263 
L 244.792629 293.052589 
L 245.131163 292.924302 
L 245.469698 293.21823 
L 245.808232 293.690981 
L 246.146767 293.854286 
L 247.16237 293.120841 
L 247.500904 293.180828 
L 247.839439 293.383575 
L 248.177973 293.439146 
L 248.516508 292.89076 
L 249.532111 292.717984 
L 249.870646 293.06834 
L 250.547714 292.715355 
L 251.563318 293.423319 
L 251.901852 293.104212 
L 252.578921 293.166326 
L 252.917456 293.591435 
L 253.25599 293.12203 
L 253.933059 293.199187 
L 254.271594 293.522109 
L 254.610128 293.21469 
L 254.948662 293.37632 
L 255.287197 293.119638 
L 255.625731 293.28949 
L 256.3028 292.432302 
L 256.641335 292.278805 
L 256.979869 292.33045 
L 257.318404 292.836909 
L 257.656938 292.648971 
L 257.995473 292.612237 
L 258.334007 292.392785 
L 258.672541 291.794855 
L 259.011076 292.116484 
L 259.34961 293.045576 
L 259.688145 293.132398 
L 260.703748 292.297258 
L 261.042283 292.360923 
L 261.380817 292.203437 
L 261.719352 292.651463 
L 262.057886 292.689684 
L 262.396421 292.563767 
L 263.412024 292.709478 
L 263.750558 291.696682 
L 264.427627 292.753439 
L 264.766162 292.67697 
L 265.443231 291.797008 
L 266.1203 291.150285 
L 267.135903 290.47662 
L 267.474437 290.315704 
L 267.812972 290.543052 
L 268.490041 291.361638 
L 268.828575 291.341001 
L 269.16711 291.537541 
L 269.505644 291.292354 
L 269.844179 291.414987 
L 270.182713 291.846596 
L 270.859782 290.265989 
L 271.198316 290.207595 
L 271.536851 291.0067 
L 272.21392 290.761667 
L 272.890989 290.341245 
L 273.906592 291.488953 
L 274.245127 291.446612 
L 274.583661 291.063376 
L 274.922195 290.983389 
L 275.26073 291.423693 
L 275.599264 290.749189 
L 276.276333 290.450564 
L 276.614868 290.921051 
L 276.953402 291.024125 
L 277.291937 291.353471 
L 277.630471 290.827309 
L 277.969006 289.267052 
L 278.30754 289.021723 
L 278.646075 287.983617 
L 279.323143 288.547865 
L 280.000212 289.919929 
L 280.338747 289.586971 
L 280.677281 288.298551 
L 281.015816 264.635748 
L 281.692885 162.03159 
L 283.047022 243.192103 
L 283.385557 251.781994 
L 283.724091 257.382131 
L 284.062626 265.665945 
L 284.739695 274.594092 
L 285.755298 282.348505 
L 286.093833 283.715639 
L 286.432367 284.075339 
L 287.786505 287.324539 
L 288.125039 287.590289 
L 288.802108 287.614526 
L 289.140643 287.382713 
L 289.479177 288.113048 
L 289.817712 289.246453 
L 290.156246 289.579258 
L 290.494781 289.63905 
L 290.833315 288.963037 
L 291.171849 289.559459 
L 291.510384 289.755075 
L 291.848918 289.222502 
L 292.187453 288.907794 
L 292.525987 288.876743 
L 292.864522 289.289671 
L 293.203056 288.423305 
L 293.541591 288.807621 
L 294.21866 289.852373 
L 294.557194 289.972092 
L 294.895729 289.252325 
L 295.572797 288.756161 
L 295.911332 289.568152 
L 296.249866 289.423895 
L 296.588401 289.787416 
L 296.926935 290.478921 
L 297.26547 290.70752 
L 297.942539 291.471115 
L 298.281073 291.484865 
L 298.619608 291.661252 
L 298.958142 291.631833 
L 299.296676 290.94808 
L 299.635211 291.375778 
L 299.973745 292.095796 
L 300.650814 292.568045 
L 300.989349 292.42704 
L 301.327883 292.04271 
L 301.666418 291.857345 
L 302.343487 291.844396 
L 302.682021 291.494092 
L 303.020556 291.565338 
L 303.697624 292.072499 
L 304.036159 292.058715 
L 304.713228 293.005452 
L 305.051762 292.906631 
L 305.390297 293.054365 
L 306.4059 292.336674 
L 306.744435 292.588773 
L 307.082969 292.195623 
L 307.421503 292.675938 
L 308.437107 292.999635 
L 308.775641 292.890991 
L 309.45271 293.039065 
L 310.468314 292.479425 
L 310.806848 292.995869 
L 311.145383 293.070148 
L 311.483917 293.275454 
L 311.822451 292.959954 
L 312.49952 293.366883 
L 313.853658 293.787635 
L 314.530727 292.948586 
L 314.869262 293.13785 
L 315.207796 293.700409 
L 315.54633 293.841856 
L 315.884865 294.22669 
L 316.223399 293.982326 
L 317.239003 294.266614 
L 317.577537 294.174559 
L 317.916072 293.957239 
L 318.593141 293.869131 
L 318.931675 293.420456 
L 319.270209 293.696952 
L 319.608744 293.661882 
L 319.947278 293.901793 
L 320.285813 293.850001 
L 320.962882 294.073579 
L 321.301416 294.274251 
L 321.639951 294.702721 
L 321.978485 294.610401 
L 322.31702 294.352997 
L 322.655554 293.885215 
L 322.994089 293.948599 
L 323.332623 294.155851 
L 323.671157 294.210148 
L 324.009692 294.428713 
L 324.348226 294.023925 
L 325.025295 294.41845 
L 325.36383 294.600941 
L 326.040899 294.516515 
L 326.379433 294.502871 
L 326.717968 294.239952 
L 327.056502 294.457443 
L 327.395036 294.202996 
L 327.733571 294.759402 
L 328.072105 294.634652 
L 328.41064 294.276612 
L 329.087709 294.307395 
L 329.764778 294.508022 
L 330.103312 294.353226 
L 331.118916 294.760318 
L 331.45745 294.695546 
L 331.795984 294.266007 
L 332.134519 294.551195 
L 332.473053 294.421585 
L 333.150122 294.646659 
L 333.827191 294.669361 
L 334.50426 295.174621 
L 334.842795 295.200328 
L 335.181329 295.463916 
L 335.519863 295.471019 
L 336.196932 294.89338 
L 336.874001 294.82786 
L 337.212536 294.847806 
L 337.55107 294.63501 
L 337.889605 294.634239 
L 338.228139 294.797097 
L 338.566674 295.252111 
L 339.243743 295.013774 
L 339.582277 294.706914 
L 340.259346 295.053457 
L 340.59788 294.941053 
L 342.290553 295.117412 
L 342.629087 295.391287 
L 342.967622 295.458047 
L 343.306156 294.979433 
L 343.64469 295.050941 
L 343.983225 294.973305 
L 344.321759 295.026553 
L 344.660294 294.933542 
L 344.998828 295.155957 
L 345.337363 295.184363 
L 345.675897 294.775372 
L 346.352966 294.423564 
L 347.030035 294.837944 
L 347.36857 294.745648 
L 347.707104 294.959194 
L 348.045638 294.997816 
L 348.384173 294.899331 
L 348.722707 294.583105 
L 349.399776 294.654636 
L 349.738311 294.987487 
L 351.092449 295.367063 
L 351.430983 295.283407 
L 352.108052 294.697937 
L 352.446586 295.026337 
L 352.785121 295.151309 
L 353.46219 294.744584 
L 354.139259 294.531913 
L 354.477793 294.448852 
L 354.816328 294.580646 
L 355.154862 294.579922 
L 355.831931 295.272786 
L 356.170465 295.324262 
L 356.509 295.163098 
L 356.847534 294.782291 
L 357.186069 294.689143 
L 357.524603 294.832441 
L 357.863138 295.194008 
L 358.201672 294.949711 
L 358.540207 294.906834 
L 358.878741 294.701344 
L 359.217276 294.772041 
L 359.55581 295.041996 
L 360.571413 295.141689 
L 361.248482 294.824913 
L 361.587017 295.15206 
L 361.925551 295.260333 
L 362.264086 295.488 
L 363.279689 294.666493 
L 363.956758 295.041579 
L 364.295292 295.041806 
L 364.633827 294.579193 
L 365.64943 294.990433 
L 366.326499 294.865826 
L 366.665034 294.975792 
L 367.003568 294.829108 
L 367.342103 294.512356 
L 367.680637 294.58095 
L 368.019171 294.877815 
L 369.373309 294.756517 
L 369.711844 294.393437 
L 370.050378 294.749715 
L 370.727447 294.67585 
L 371.404516 294.893 
L 373.435723 293.971524 
L 374.112792 294.460285 
L 374.451326 294.383412 
L 374.789861 293.981778 
L 375.128395 294.552649 
L 375.805464 294.78189 
L 376.143998 294.26728 
L 376.482533 294.291584 
L 376.821067 294.115265 
L 377.159602 294.45699 
L 377.498136 294.30963 
L 377.836671 294.516064 
L 378.175205 294.38109 
L 378.51374 294.074475 
L 378.852274 294.200099 
L 379.529343 295.054093 
L 380.206412 294.719946 
L 380.883481 294.304254 
L 381.56055 293.54597 
L 381.899084 293.877791 
L 382.237619 293.823669 
L 382.576153 293.593424 
L 382.914688 293.694091 
L 383.930291 294.328416 
L 384.60736 294.329754 
L 384.945894 294.196162 
L 385.284429 293.868649 
L 385.961498 294.135646 
L 386.300032 294.570691 
L 386.638567 294.198486 
L 386.977101 294.203758 
L 387.315636 294.357351 
L 387.65417 294.206636 
L 387.992705 293.830835 
L 388.331239 293.798594 
L 388.669773 293.947915 
L 389.008308 293.803643 
L 389.685377 292.890883 
L 390.023911 292.882467 
L 390.70098 291.43226 
L 391.039515 291.02409 
L 391.378049 291.085389 
L 391.716584 292.112472 
L 392.732187 293.927071 
L 393.070721 294.224857 
L 393.74779 293.809621 
L 394.086325 293.80689 
L 394.763394 294.424264 
L 395.101928 294.15312 
L 395.440463 294.146703 
L 395.778997 294.012366 
L 396.117532 293.734738 
L 396.456066 294.056615 
L 396.7946 294.184042 
L 397.133135 294.435685 
L 397.471669 293.914564 
L 397.810204 293.659666 
L 398.148738 293.262955 
L 398.487273 293.13842 
L 398.487273 293.13842 
" clip-path="url(#p0c611dd612)" style="fill: none; stroke: #1f77b4; stroke-width: 0.5; stroke-linecap: round"/>
   </g>
   <g id="patch_3">
    <path d="M 57.6 307.584 
L 57.6 41.472 
" style="fill: none; stroke: #ffffff; stroke-width: 0.8; stroke-linejoin: miter; stroke-linecap: square"/>
   </g>
   <g id="patch_4">
    <path d="M 414.72 307.584 
L 414.72 41.472 
" style="fill: none; stroke: #ffffff; stroke-width: 0.8; stroke-linejoin: miter; stroke-linecap: square"/>
   </g>
   <g id="patch_5">
    <path d="M 57.6 307.584 
L 414.72 307.584 
" style="fill: none; stroke: #ffffff; stroke-width: 0.8; stroke-linejoin: miter; stroke-linecap: square"/>
   </g>
   <g id="patch_6">
    <path d="M 57.6 41.472 
L 414.72 41.472 
" style="fill: none; stroke: #ffffff; stroke-width: 0.8; stroke-linejoin: miter; stroke-linecap: square"/>
   </g>
   <g id="text_13">
    <!-- loss terhadap epoch -->
    <g style="fill: #262626" transform="translate(175.303125 35.472) scale(0.12 -0.12)">
     <defs>
      <path id="DejaVuSans-6c" d="M 603 4863 
L 1178 4863 
L 1178 0 
L 603 0 
L 603 4863 
z
" transform="scale(0.015625)"/>
      <path id="DejaVuSans-73" d="M 2834 3397 
L 2834 2853 
Q 2591 2978 2328 3040 
Q 2066 3103 1784 3103 
Q 1356 3103 1142 2972 
Q 928 2841 928 2578 
Q 928 2378 1081 2264 
Q 1234 2150 1697 2047 
L 1894 2003 
Q 2506 1872 2764 1633 
Q 3022 1394 3022 966 
Q 3022 478 2636 193 
Q 2250 -91 1575 -91 
Q 1294 -91 989 -36 
Q 684 19 347 128 
L 347 722 
Q 666 556 975 473 
Q 1284 391 1588 391 
Q 1994 391 2212 530 
Q 2431 669 2431 922 
Q 2431 1156 2273 1281 
Q 2116 1406 1581 1522 
L 1381 1569 
Q 847 1681 609 1914 
Q 372 2147 372 2553 
Q 372 3047 722 3315 
Q 1072 3584 1716 3584 
Q 2034 3584 2315 3537 
Q 2597 3491 2834 3397 
z
" transform="scale(0.015625)"/>
      <path id="DejaVuSans-20" transform="scale(0.015625)"/>
      <path id="DejaVuSans-74" d="M 1172 4494 
L 1172 3500 
L 2356 3500 
L 2356 3053 
L 1172 3053 
L 1172 1153 
Q 1172 725 1289 603 
Q 1406 481 1766 481 
L 2356 481 
L 2356 0 
L 1766 0 
Q 1100 0 847 248 
Q 594 497 594 1153 
L 594 3053 
L 172 3053 
L 172 3500 
L 594 3500 
L 594 4494 
L 1172 4494 
z
" transform="scale(0.015625)"/>
      <path id="DejaVuSans-72" d="M 2631 2963 
Q 2534 3019 2420 3045 
Q 2306 3072 2169 3072 
Q 1681 3072 1420 2755 
Q 1159 2438 1159 1844 
L 1159 0 
L 581 0 
L 581 3500 
L 1159 3500 
L 1159 2956 
Q 1341 3275 1631 3429 
Q 1922 3584 2338 3584 
Q 2397 3584 2469 3576 
Q 2541 3569 2628 3553 
L 2631 2963 
z
" transform="scale(0.015625)"/>
      <path id="DejaVuSans-61" d="M 2194 1759 
Q 1497 1759 1228 1600 
Q 959 1441 959 1056 
Q 959 750 1161 570 
Q 1363 391 1709 391 
Q 2188 391 2477 730 
Q 2766 1069 2766 1631 
L 2766 1759 
L 2194 1759 
z
M 3341 1997 
L 3341 0 
L 2766 0 
L 2766 531 
Q 2569 213 2275 61 
Q 1981 -91 1556 -91 
Q 1019 -91 701 211 
Q 384 513 384 1019 
Q 384 1609 779 1909 
Q 1175 2209 1959 2209 
L 2766 2209 
L 2766 2266 
Q 2766 2663 2505 2880 
Q 2244 3097 1772 3097 
Q 1472 3097 1187 3025 
Q 903 2953 641 2809 
L 641 3341 
Q 956 3463 1253 3523 
Q 1550 3584 1831 3584 
Q 2591 3584 2966 3190 
Q 3341 2797 3341 1997 
z
" transform="scale(0.015625)"/>
      <path id="DejaVuSans-64" d="M 2906 2969 
L 2906 4863 
L 3481 4863 
L 3481 0 
L 2906 0 
L 2906 525 
Q 2725 213 2448 61 
Q 2172 -91 1784 -91 
Q 1150 -91 751 415 
Q 353 922 353 1747 
Q 353 2572 751 3078 
Q 1150 3584 1784 3584 
Q 2172 3584 2448 3432 
Q 2725 3281 2906 2969 
z
M 947 1747 
Q 947 1113 1208 752 
Q 1469 391 1925 391 
Q 2381 391 2643 752 
Q 2906 1113 2906 1747 
Q 2906 2381 2643 2742 
Q 2381 3103 1925 3103 
Q 1469 3103 1208 2742 
Q 947 2381 947 1747 
z
" transform="scale(0.015625)"/>
     </defs>
     <use xlink:href="#DejaVuSans-6c"/>
     <use xlink:href="#DejaVuSans-6f" x="27.783203"/>
     <use xlink:href="#DejaVuSans-73" x="88.964844"/>
     <use xlink:href="#DejaVuSans-73" x="141.064453"/>
     <use xlink:href="#DejaVuSans-20" x="193.164062"/>
     <use xlink:href="#DejaVuSans-74" x="224.951172"/>
     <use xlink:href="#DejaVuSans-65" x="264.160156"/>
     <use xlink:href="#DejaVuSans-72" x="325.683594"/>
     <use xlink:href="#DejaVuSans-68" x="365.046875"/>
     <use xlink:href="#DejaVuSans-61" x="428.425781"/>
     <use xlink:href="#DejaVuSans-64" x="489.705078"/>
     <use xlink:href="#DejaVuSans-61" x="553.181641"/>
     <use xlink:href="#DejaVuSans-70" x="614.460938"/>
     <use xlink:href="#DejaVuSans-20" x="677.9375"/>
     <use xlink:href="#DejaVuSans-65" x="709.724609"/>
     <use xlink:href="#DejaVuSans-70" x="771.248047"/>
     <use xlink:href="#DejaVuSans-6f" x="834.724609"/>
     <use xlink:href="#DejaVuSans-63" x="895.90625"/>
     <use xlink:href="#DejaVuSans-68" x="950.886719"/>
    </g>
   </g>
   <g id="legend_1">
    <g id="patch_7">
     <path d="M 239.190313 64.42825 
L 407.72 64.42825 
Q 409.72 64.42825 409.72 62.42825 
L 409.72 48.472 
Q 409.72 46.472 407.72 46.472 
L 239.190313 46.472 
Q 237.190313 46.472 237.190313 48.472 
L 237.190313 62.42825 
Q 237.190313 64.42825 239.190313 64.42825 
z
" style="fill: #eaeaf2; opacity: 0.8; stroke: #cccccc; stroke-linejoin: miter"/>
    </g>
    <g id="line2d_2">
     <path d="M 241.190313 54.570437 
L 251.190313 54.570437 
L 261.190313 54.570437 
" style="fill: none; stroke: #1f77b4; stroke-width: 0.5; stroke-linecap: round"/>
    </g>
    <g id="text_14">
     <!-- best-410/top1-0d7009_loss -->
     <g style="fill: #262626" transform="translate(269.190313 58.070437) scale(0.1 -0.1)">
      <defs>
       <path id="DejaVuSans-62" d="M 3116 1747 
Q 3116 2381 2855 2742 
Q 2594 3103 2138 3103 
Q 1681 3103 1420 2742 
Q 1159 2381 1159 1747 
Q 1159 1113 1420 752 
Q 1681 391 2138 391 
Q 2594 391 2855 752 
Q 3116 1113 3116 1747 
z
M 1159 2969 
Q 1341 3281 1617 3432 
Q 1894 3584 2278 3584 
Q 2916 3584 3314 3078 
Q 3713 2572 3713 1747 
Q 3713 922 3314 415 
Q 2916 -91 2278 -91 
Q 1894 -91 1617 61 
Q 1341 213 1159 525 
L 1159 0 
L 581 0 
L 581 4863 
L 1159 4863 
L 1159 2969 
z
" transform="scale(0.015625)"/>
       <path id="DejaVuSans-2d" d="M 313 2009 
L 1997 2009 
L 1997 1497 
L 313 1497 
L 313 2009 
z
" transform="scale(0.015625)"/>
       <path id="DejaVuSans-2f" d="M 1625 4666 
L 2156 4666 
L 531 -594 
L 0 -594 
L 1625 4666 
z
" transform="scale(0.015625)"/>
       <path id="DejaVuSans-37" d="M 525 4666 
L 3525 4666 
L 3525 4397 
L 1831 0 
L 1172 0 
L 2766 4134 
L 525 4134 
L 525 4666 
z
" transform="scale(0.015625)"/>
       <path id="DejaVuSans-39" d="M 703 97 
L 703 672 
Q 941 559 1184 500 
Q 1428 441 1663 441 
Q 2288 441 2617 861 
Q 2947 1281 2994 2138 
Q 2813 1869 2534 1725 
Q 2256 1581 1919 1581 
Q 1219 1581 811 2004 
Q 403 2428 403 3163 
Q 403 3881 828 4315 
Q 1253 4750 1959 4750 
Q 2769 4750 3195 4129 
Q 3622 3509 3622 2328 
Q 3622 1225 3098 567 
Q 2575 -91 1691 -91 
Q 1453 -91 1209 -44 
Q 966 3 703 97 
z
M 1959 2075 
Q 2384 2075 2632 2365 
Q 2881 2656 2881 3163 
Q 2881 3666 2632 3958 
Q 2384 4250 1959 4250 
Q 1534 4250 1286 3958 
Q 1038 3666 1038 3163 
Q 1038 2656 1286 2365 
Q 1534 2075 1959 2075 
z
" transform="scale(0.015625)"/>
       <path id="DejaVuSans-5f" d="M 3263 -1063 
L 3263 -1509 
L -63 -1509 
L -63 -1063 
L 3263 -1063 
z
" transform="scale(0.015625)"/>
      </defs>
      <use xlink:href="#DejaVuSans-62"/>
      <use xlink:href="#DejaVuSans-65" x="63.476562"/>
      <use xlink:href="#DejaVuSans-73" x="125"/>
      <use xlink:href="#DejaVuSans-74" x="177.099609"/>
      <use xlink:href="#DejaVuSans-2d" x="216.308594"/>
      <use xlink:href="#DejaVuSans-34" x="252.392578"/>
      <use xlink:href="#DejaVuSans-31" x="316.015625"/>
      <use xlink:href="#DejaVuSans-30" x="379.638672"/>
      <use xlink:href="#DejaVuSans-2f" x="443.261719"/>
      <use xlink:href="#DejaVuSans-74" x="476.953125"/>
      <use xlink:href="#DejaVuSans-6f" x="516.162109"/>
      <use xlink:href="#DejaVuSans-70" x="577.34375"/>
      <use xlink:href="#DejaVuSans-31" x="640.820312"/>
      <use xlink:href="#DejaVuSans-2d" x="704.443359"/>
      <use xlink:href="#DejaVuSans-30" x="740.527344"/>
      <use xlink:href="#DejaVuSans-64" x="804.150391"/>
      <use xlink:href="#DejaVuSans-37" x="867.626953"/>
      <use xlink:href="#DejaVuSans-30" x="931.25"/>
      <use xlink:href="#DejaVuSans-30" x="994.873047"/>
      <use xlink:href="#DejaVuSans-39" x="1058.496094"/>
      <use xlink:href="#DejaVuSans-5f" x="1122.119141"/>
      <use xlink:href="#DejaVuSans-6c" x="1172.119141"/>
      <use xlink:href="#DejaVuSans-6f" x="1199.902344"/>
      <use xlink:href="#DejaVuSans-73" x="1261.083984"/>
      <use xlink:href="#DejaVuSans-73" x="1313.183594"/>
     </g>
    </g>
   </g>
  </g>
 </g>
 <defs>
  <clipPath id="p0c611dd612">
   <rect x="57.6" y="41.472" width="357.12" height="266.112"/>
  </clipPath>
 </defs>
</svg>
