<?xml version="1.0" encoding="utf-8" standalone="no"?>
<!DOCTYPE svg PUBLIC "-//W3C//DTD SVG 1.1//EN"
  "http://www.w3.org/Graphics/SVG/1.1/DTD/svg11.dtd">
<svg xmlns:xlink="http://www.w3.org/1999/xlink" width="460.8pt" height="345.6pt" viewBox="0 0 460.8 345.6" xmlns="http://www.w3.org/2000/svg" version="1.1">
 <metadata>
  <rdf:RDF xmlns:dc="http://purl.org/dc/elements/1.1/" xmlns:cc="http://creativecommons.org/ns#" xmlns:rdf="http://www.w3.org/1999/02/22-rdf-syntax-ns#">
   <cc:Work>
    <dc:type rdf:resource="http://purl.org/dc/dcmitype/StillImage"/>
    <dc:date>2024-05-02T07:43:44.470353</dc:date>
    <dc:format>image/svg+xml</dc:format>
    <dc:creator>
     <cc:Agent>
      <dc:title>Matplotlib v3.7.2, https://matplotlib.org/</dc:title>
     </cc:Agent>
    </dc:creator>
   </cc:Work>
  </rdf:RDF>
 </metadata>
 <defs>
  <style type="text/css">*{stroke-linejoin: round; stroke-linecap: butt}</style>
 </defs>
 <g id="figure_1">
  <g id="patch_1">
   <path d="M 0 345.6 
L 460.8 345.6 
L 460.8 0 
L 0 0 
z
" style="fill: #ffffff"/>
  </g>
  <g id="axes_1">
   <g id="patch_2">
    <path d="M 57.6 307.584 
L 414.72 307.584 
L 414.72 41.472 
L 57.6 41.472 
z
" style="fill: #eaeaf2"/>
   </g>
   <g id="matplotlib.axis_1">
    <g id="xtick_1">
     <g id="text_1">
      <!-- 0 -->
      <g style="fill: #262626" transform="translate(69.973702 322.182437) scale(0.1 -0.1)">
       <defs>
        <path id="DejaVuSans-30" d="M 2034 4250 
Q 1547 4250 1301 3770 
Q 1056 3291 1056 2328 
Q 1056 1369 1301 889 
Q 1547 409 2034 409 
Q 2525 409 2770 889 
Q 3016 1369 3016 2328 
Q 3016 3291 2770 3770 
Q 2525 4250 2034 4250 
z
M 2034 4750 
Q 2819 4750 3233 4129 
Q 3647 3509 3647 2328 
Q 3647 1150 3233 529 
Q 2819 -91 2034 -91 
Q 1250 -91 836 529 
Q 422 1150 422 2328 
Q 422 3509 836 4129 
Q 1250 4750 2034 4750 
z
" transform="scale(0.015625)"/>
       </defs>
       <use xlink:href="#DejaVuSans-30"/>
      </g>
     </g>
    </g>
    <g id="xtick_2">
     <g id="text_2">
      <!-- 100 -->
      <g style="fill: #262626" transform="translate(131.388769 322.182437) scale(0.1 -0.1)">
       <defs>
        <path id="DejaVuSans-31" d="M 794 531 
L 1825 531 
L 1825 4091 
L 703 3866 
L 703 4441 
L 1819 4666 
L 2450 4666 
L 2450 531 
L 3481 531 
L 3481 0 
L 794 0 
L 794 531 
z
" transform="scale(0.015625)"/>
       </defs>
       <use xlink:href="#DejaVuSans-31"/>
       <use xlink:href="#DejaVuSans-30" x="63.623047"/>
       <use xlink:href="#DejaVuSans-30" x="127.246094"/>
      </g>
     </g>
    </g>
    <g id="xtick_3">
     <g id="text_3">
      <!-- 200 -->
      <g style="fill: #262626" transform="translate(199.166335 322.182437) scale(0.1 -0.1)">
       <defs>
        <path id="DejaVuSans-32" d="M 1228 531 
L 3431 531 
L 3431 0 
L 469 0 
L 469 531 
Q 828 903 1448 1529 
Q 2069 2156 2228 2338 
Q 2531 2678 2651 2914 
Q 2772 3150 2772 3378 
Q 2772 3750 2511 3984 
Q 2250 4219 1831 4219 
Q 1534 4219 1204 4116 
Q 875 4013 500 3803 
L 500 4441 
Q 881 4594 1212 4672 
Q 1544 4750 1819 4750 
Q 2544 4750 2975 4387 
Q 3406 4025 3406 3419 
Q 3406 3131 3298 2873 
Q 3191 2616 2906 2266 
Q 2828 2175 2409 1742 
Q 1991 1309 1228 531 
z
" transform="scale(0.015625)"/>
       </defs>
       <use xlink:href="#DejaVuSans-32"/>
       <use xlink:href="#DejaVuSans-30" x="63.623047"/>
       <use xlink:href="#DejaVuSans-30" x="127.246094"/>
      </g>
     </g>
    </g>
    <g id="xtick_4">
     <g id="text_4">
      <!-- 300 -->
      <g style="fill: #262626" transform="translate(266.943902 322.182437) scale(0.1 -0.1)">
       <defs>
        <path id="DejaVuSans-33" d="M 2597 2516 
Q 3050 2419 3304 2112 
Q 3559 1806 3559 1356 
Q 3559 666 3084 287 
Q 2609 -91 1734 -91 
Q 1441 -91 1130 -33 
Q 819 25 488 141 
L 488 750 
Q 750 597 1062 519 
Q 1375 441 1716 441 
Q 2309 441 2620 675 
Q 2931 909 2931 1356 
Q 2931 1769 2642 2001 
Q 2353 2234 1838 2234 
L 1294 2234 
L 1294 2753 
L 1863 2753 
Q 2328 2753 2575 2939 
Q 2822 3125 2822 3475 
Q 2822 3834 2567 4026 
Q 2313 4219 1838 4219 
Q 1578 4219 1281 4162 
Q 984 4106 628 3988 
L 628 4550 
Q 988 4650 1302 4700 
Q 1616 4750 1894 4750 
Q 2613 4750 3031 4423 
Q 3450 4097 3450 3541 
Q 3450 3153 3228 2886 
Q 3006 2619 2597 2516 
z
" transform="scale(0.015625)"/>
       </defs>
       <use xlink:href="#DejaVuSans-33"/>
       <use xlink:href="#DejaVuSans-30" x="63.623047"/>
       <use xlink:href="#DejaVuSans-30" x="127.246094"/>
      </g>
     </g>
    </g>
    <g id="xtick_5">
     <g id="text_5">
      <!-- 400 -->
      <g style="fill: #262626" transform="translate(334.721469 322.182437) scale(0.1 -0.1)">
       <defs>
        <path id="DejaVuSans-34" d="M 2419 4116 
L 825 1625 
L 2419 1625 
L 2419 4116 
z
M 2253 4666 
L 3047 4666 
L 3047 1625 
L 3713 1625 
L 3713 1100 
L 3047 1100 
L 3047 0 
L 2419 0 
L 2419 1100 
L 313 1100 
L 313 1709 
L 2253 4666 
z
" transform="scale(0.015625)"/>
       </defs>
       <use xlink:href="#DejaVuSans-34"/>
       <use xlink:href="#DejaVuSans-30" x="63.623047"/>
       <use xlink:href="#DejaVuSans-30" x="127.246094"/>
      </g>
     </g>
    </g>
    <g id="xtick_6">
     <g id="text_6">
      <!-- 500 -->
      <g style="fill: #262626" transform="translate(402.499036 322.182437) scale(0.1 -0.1)">
       <defs>
        <path id="DejaVuSans-35" d="M 691 4666 
L 3169 4666 
L 3169 4134 
L 1269 4134 
L 1269 2991 
Q 1406 3038 1543 3061 
Q 1681 3084 1819 3084 
Q 2600 3084 3056 2656 
Q 3513 2228 3513 1497 
Q 3513 744 3044 326 
Q 2575 -91 1722 -91 
Q 1428 -91 1123 -41 
Q 819 9 494 109 
L 494 744 
Q 775 591 1075 516 
Q 1375 441 1709 441 
Q 2250 441 2565 725 
Q 2881 1009 2881 1497 
Q 2881 1984 2565 2268 
Q 2250 2553 1709 2553 
Q 1456 2553 1204 2497 
Q 953 2441 691 2322 
L 691 4666 
z
" transform="scale(0.015625)"/>
       </defs>
       <use xlink:href="#DejaVuSans-35"/>
       <use xlink:href="#DejaVuSans-30" x="63.623047"/>
       <use xlink:href="#DejaVuSans-30" x="127.246094"/>
      </g>
     </g>
    </g>
    <g id="text_7">
     <!-- epoch -->
     <g style="fill: #262626" transform="translate(220.931875 335.860562) scale(0.1 -0.1)">
      <defs>
       <path id="DejaVuSans-65" d="M 3597 1894 
L 3597 1613 
L 953 1613 
Q 991 1019 1311 708 
Q 1631 397 2203 397 
Q 2534 397 2845 478 
Q 3156 559 3463 722 
L 3463 178 
Q 3153 47 2828 -22 
Q 2503 -91 2169 -91 
Q 1331 -91 842 396 
Q 353 884 353 1716 
Q 353 2575 817 3079 
Q 1281 3584 2069 3584 
Q 2775 3584 3186 3129 
Q 3597 2675 3597 1894 
z
M 3022 2063 
Q 3016 2534 2758 2815 
Q 2500 3097 2075 3097 
Q 1594 3097 1305 2825 
Q 1016 2553 972 2059 
L 3022 2063 
z
" transform="scale(0.015625)"/>
       <path id="DejaVuSans-70" d="M 1159 525 
L 1159 -1331 
L 581 -1331 
L 581 3500 
L 1159 3500 
L 1159 2969 
Q 1341 3281 1617 3432 
Q 1894 3584 2278 3584 
Q 2916 3584 3314 3078 
Q 3713 2572 3713 1747 
Q 3713 922 3314 415 
Q 2916 -91 2278 -91 
Q 1894 -91 1617 61 
Q 1341 213 1159 525 
z
M 3116 1747 
Q 3116 2381 2855 2742 
Q 2594 3103 2138 3103 
Q 1681 3103 1420 2742 
Q 1159 2381 1159 1747 
Q 1159 1113 1420 752 
Q 1681 391 2138 391 
Q 2594 391 2855 752 
Q 3116 1113 3116 1747 
z
" transform="scale(0.015625)"/>
       <path id="DejaVuSans-6f" d="M 1959 3097 
Q 1497 3097 1228 2736 
Q 959 2375 959 1747 
Q 959 1119 1226 758 
Q 1494 397 1959 397 
Q 2419 397 2687 759 
Q 2956 1122 2956 1747 
Q 2956 2369 2687 2733 
Q 2419 3097 1959 3097 
z
M 1959 3584 
Q 2709 3584 3137 3096 
Q 3566 2609 3566 1747 
Q 3566 888 3137 398 
Q 2709 -91 1959 -91 
Q 1206 -91 779 398 
Q 353 888 353 1747 
Q 353 2609 779 3096 
Q 1206 3584 1959 3584 
z
" transform="scale(0.015625)"/>
       <path id="DejaVuSans-63" d="M 3122 3366 
L 3122 2828 
Q 2878 2963 2633 3030 
Q 2388 3097 2138 3097 
Q 1578 3097 1268 2742 
Q 959 2388 959 1747 
Q 959 1106 1268 751 
Q 1578 397 2138 397 
Q 2388 397 2633 464 
Q 2878 531 3122 666 
L 3122 134 
Q 2881 22 2623 -34 
Q 2366 -91 2075 -91 
Q 1284 -91 818 406 
Q 353 903 353 1747 
Q 353 2603 823 3093 
Q 1294 3584 2113 3584 
Q 2378 3584 2631 3529 
Q 2884 3475 3122 3366 
z
" transform="scale(0.015625)"/>
       <path id="DejaVuSans-68" d="M 3513 2113 
L 3513 0 
L 2938 0 
L 2938 2094 
Q 2938 2591 2744 2837 
Q 2550 3084 2163 3084 
Q 1697 3084 1428 2787 
Q 1159 2491 1159 1978 
L 1159 0 
L 581 0 
L 581 4863 
L 1159 4863 
L 1159 2956 
Q 1366 3272 1645 3428 
Q 1925 3584 2291 3584 
Q 2894 3584 3203 3211 
Q 3513 2838 3513 2113 
z
" transform="scale(0.015625)"/>
      </defs>
      <use xlink:href="#DejaVuSans-65"/>
      <use xlink:href="#DejaVuSans-70" x="61.523438"/>
      <use xlink:href="#DejaVuSans-6f" x="125"/>
      <use xlink:href="#DejaVuSans-63" x="186.181641"/>
      <use xlink:href="#DejaVuSans-68" x="241.162109"/>
     </g>
    </g>
   </g>
   <g id="matplotlib.axis_2">
    <g id="ytick_1">
     <g id="text_8">
      <!-- 0.10 -->
      <g style="fill: #262626" transform="translate(28.334375 302.799636) scale(0.1 -0.1)">
       <defs>
        <path id="DejaVuSans-2e" d="M 684 794 
L 1344 794 
L 1344 0 
L 684 0 
L 684 794 
z
" transform="scale(0.015625)"/>
       </defs>
       <use xlink:href="#DejaVuSans-30"/>
       <use xlink:href="#DejaVuSans-2e" x="63.623047"/>
       <use xlink:href="#DejaVuSans-31" x="95.410156"/>
       <use xlink:href="#DejaVuSans-30" x="159.033203"/>
      </g>
     </g>
    </g>
    <g id="ytick_2">
     <g id="text_9">
      <!-- 0.15 -->
      <g style="fill: #262626" transform="translate(28.334375 245.329158) scale(0.1 -0.1)">
       <use xlink:href="#DejaVuSans-30"/>
       <use xlink:href="#DejaVuSans-2e" x="63.623047"/>
       <use xlink:href="#DejaVuSans-31" x="95.410156"/>
       <use xlink:href="#DejaVuSans-35" x="159.033203"/>
      </g>
     </g>
    </g>
    <g id="ytick_3">
     <g id="text_10">
      <!-- 0.20 -->
      <g style="fill: #262626" transform="translate(28.334375 187.85868) scale(0.1 -0.1)">
       <use xlink:href="#DejaVuSans-30"/>
       <use xlink:href="#DejaVuSans-2e" x="63.623047"/>
       <use xlink:href="#DejaVuSans-32" x="95.410156"/>
       <use xlink:href="#DejaVuSans-30" x="159.033203"/>
      </g>
     </g>
    </g>
    <g id="ytick_4">
     <g id="text_11">
      <!-- 0.25 -->
      <g style="fill: #262626" transform="translate(28.334375 130.388202) scale(0.1 -0.1)">
       <use xlink:href="#DejaVuSans-30"/>
       <use xlink:href="#DejaVuSans-2e" x="63.623047"/>
       <use xlink:href="#DejaVuSans-32" x="95.410156"/>
       <use xlink:href="#DejaVuSans-35" x="159.033203"/>
      </g>
     </g>
    </g>
    <g id="ytick_5">
     <g id="text_12">
      <!-- 0.30 -->
      <g style="fill: #262626" transform="translate(28.334375 72.917725) scale(0.1 -0.1)">
       <use xlink:href="#DejaVuSans-30"/>
       <use xlink:href="#DejaVuSans-2e" x="63.623047"/>
       <use xlink:href="#DejaVuSans-33" x="95.410156"/>
       <use xlink:href="#DejaVuSans-30" x="159.033203"/>
      </g>
     </g>
    </g>
   </g>
   <g id="line2d_1">
    <path d="M 73.832727 295.488 
L 74.510503 255.337505 
L 75.188279 184.971154 
L 75.866054 144.04363 
L 76.54383 78.917444 
L 77.221606 89.686217 
L 77.899381 84.882306 
L 78.577157 81.518604 
L 79.254933 81.030438 
L 79.932708 110.64974 
L 80.610484 53.568 
L 81.28826 66.767126 
L 81.966035 54.675297 
L 82.643811 70.411143 
L 83.321587 211.364789 
L 83.999362 183.549665 
L 84.677138 179.582312 
L 85.354914 220.780979 
L 86.032689 194.638943 
L 86.710465 174.674035 
L 87.388241 215.874538 
L 88.066016 207.801378 
L 88.743792 207.434696 
L 89.421568 209.544464 
L 90.099343 191.256394 
L 90.777119 221.604102 
L 91.454895 231.647713 
L 92.13267 147.545163 
L 92.810446 137.58487 
L 93.488222 140.005062 
L 94.165997 206.287358 
L 94.843773 145.184048 
L 95.521549 210.803224 
L 96.199324 149.383809 
L 96.8771 101.046686 
L 97.554876 244.585836 
L 98.232651 206.403602 
L 98.910427 214.04906 
L 99.588203 171.364586 
L 100.265978 232.273551 
L 100.943754 155.487173 
L 101.62153 225.276301 
L 102.299305 204.929165 
L 102.977081 199.19809 
L 103.654857 214.616987 
L 104.332632 226.090207 
L 105.010408 244.383587 
L 105.688184 237.367218 
L 106.365959 144.566974 
L 107.043735 246.551675 
L 107.721511 164.297928 
L 108.399286 157.840139 
L 109.077062 128.484557 
L 109.754838 233.496529 
L 110.432613 230.600198 
L 111.110389 134.317219 
L 111.788165 235.352068 
L 112.46594 164.68362 
L 113.143716 218.975261 
L 113.821492 225.755507 
L 114.499267 225.112259 
L 115.177043 233.799769 
L 115.854819 169.955067 
L 116.532594 230.953844 
L 117.888146 246.178909 
L 118.565921 201.657474 
L 119.243697 227.047421 
L 119.921473 233.698527 
L 120.599248 238.699954 
L 121.277024 238.358773 
L 121.9548 238.362276 
L 122.632575 222.717729 
L 123.310351 137.698298 
L 123.988127 233.636301 
L 124.665902 226.387367 
L 125.343678 213.953708 
L 126.021454 205.661462 
L 126.699229 126.789492 
L 127.377005 236.12288 
L 128.054781 229.387175 
L 128.732556 194.856399 
L 129.410332 169.452247 
L 130.088108 236.996639 
L 130.765883 162.794037 
L 131.443659 230.18125 
L 132.121435 227.043297 
L 132.79921 237.537785 
L 133.476986 224.945779 
L 134.154762 199.442472 
L 134.832537 239.807687 
L 135.510313 231.939501 
L 136.188089 233.698143 
L 136.865864 183.546466 
L 137.54364 234.153791 
L 138.221416 223.325192 
L 138.899191 242.83715 
L 139.576967 229.550236 
L 140.254743 233.503563 
L 140.932519 198.802678 
L 141.610294 182.296315 
L 142.28807 225.179739 
L 142.965846 225.852126 
L 143.643621 213.342696 
L 144.321397 127.91012 
L 144.999173 232.381497 
L 145.676948 215.519428 
L 146.354724 220.341577 
L 147.0325 240.30101 
L 147.710275 224.607818 
L 148.388051 219.818455 
L 149.065827 152.996805 
L 149.743602 233.205198 
L 150.421378 241.591365 
L 151.099154 230.562948 
L 151.776929 238.832549 
L 152.454705 226.253107 
L 153.132481 181.83016 
L 153.810256 216.209815 
L 154.488032 225.46075 
L 155.165808 238.925613 
L 155.843583 195.044388 
L 156.521359 226.659527 
L 157.199135 137.952146 
L 157.87691 192.862152 
L 158.554686 197.752546 
L 159.232462 233.006462 
L 159.910237 220.344914 
L 160.588013 216.815158 
L 161.265789 184.431859 
L 161.943564 132.195943 
L 162.62134 216.724402 
L 163.299116 216.447975 
L 163.976891 224.348522 
L 164.654667 220.394941 
L 165.332443 239.99588 
L 166.010218 225.670953 
L 166.687994 223.7239 
L 167.36577 228.118048 
L 168.043545 204.115147 
L 168.721321 199.624357 
L 169.399097 218.287952 
L 170.076872 212.821987 
L 170.754648 227.794372 
L 171.432424 221.213798 
L 172.110199 228.53848 
L 172.787975 226.290021 
L 173.465751 226.423916 
L 174.143526 226.736817 
L 174.821302 237.629589 
L 175.499078 228.534526 
L 176.176853 224.485972 
L 176.854629 221.311422 
L 177.532405 216.225206 
L 178.21018 226.652358 
L 178.887956 225.687632 
L 179.565732 226.364932 
L 180.243507 217.800241 
L 180.921283 216.084263 
L 181.599059 226.120859 
L 182.276834 220.546204 
L 182.95461 228.865681 
L 184.310161 208.931447 
L 184.987937 196.939264 
L 185.665713 223.270636 
L 186.343488 218.84406 
L 187.021264 209.619915 
L 187.69904 220.327903 
L 188.376815 210.269333 
L 189.054591 191.436038 
L 189.732367 217.860715 
L 190.410142 225.927947 
L 191.087918 224.201171 
L 191.765694 201.240821 
L 192.443469 216.034897 
L 193.121245 167.075132 
L 193.799021 209.001259 
L 194.476796 212.334129 
L 195.154572 217.225099 
L 195.832348 190.673916 
L 196.510123 221.095952 
L 197.187899 209.674823 
L 197.865675 221.004956 
L 198.54345 227.038501 
L 199.221226 229.235715 
L 199.899002 221.687619 
L 200.576777 223.804751 
L 201.254553 220.884711 
L 201.932329 220.50854 
L 202.610104 220.611677 
L 203.28788 215.523667 
L 203.965656 222.591725 
L 204.643431 221.696731 
L 205.321207 215.962655 
L 205.998983 223.917406 
L 206.676758 219.872326 
L 207.354534 220.355129 
L 208.03231 216.05208 
L 208.710085 191.70656 
L 209.387861 218.770506 
L 210.065637 217.598066 
L 210.743412 209.889542 
L 211.421188 215.498043 
L 212.098964 178.495385 
L 212.776739 214.4502 
L 214.132291 205.828893 
L 214.810066 203.822395 
L 215.487842 214.635454 
L 216.165618 192.692968 
L 216.843393 199.08081 
L 217.521169 203.040886 
L 218.198945 211.999895 
L 219.554496 219.667898 
L 220.232272 219.26867 
L 220.910047 207.414606 
L 221.587823 210.802247 
L 222.265599 216.563386 
L 222.943374 217.89655 
L 223.62115 215.507285 
L 224.298926 218.076218 
L 224.976701 221.68504 
L 225.654477 218.844668 
L 226.332253 220.37432 
L 227.010028 220.029901 
L 227.687804 220.252275 
L 228.36558 221.03491 
L 229.043355 222.810561 
L 229.721131 219.373015 
L 230.398907 219.598744 
L 231.076682 216.967095 
L 231.754458 222.313778 
L 232.432234 220.028057 
L 233.110009 220.165786 
L 233.787785 215.394886 
L 234.465561 218.452216 
L 235.143336 219.812724 
L 235.821112 216.167958 
L 236.498888 219.383868 
L 237.176664 220.287585 
L 237.854439 220.997862 
L 238.532215 217.543331 
L 239.209991 218.67806 
L 239.887766 218.582196 
L 240.565542 221.328136 
L 241.243318 218.314735 
L 241.921093 218.551595 
L 242.598869 221.047424 
L 243.276645 218.457637 
L 243.95442 218.533142 
L 244.632196 218.364246 
L 245.309972 218.818585 
L 245.987747 218.903533 
L 246.665523 216.919683 
L 247.343299 216.754608 
L 248.021074 213.332762 
L 248.69885 219.088162 
L 249.376626 220.319949 
L 250.054401 218.020314 
L 250.732177 221.015184 
L 251.409953 215.860199 
L 252.087728 217.475502 
L 252.765504 222.248325 
L 253.44328 219.383868 
L 254.121055 220.287585 
L 254.798831 220.997862 
L 255.476607 217.543331 
L 256.154382 218.67806 
L 256.832158 218.582196 
L 257.509934 221.328136 
L 258.187709 218.314735 
L 258.865485 218.551595 
L 259.543261 221.047424 
L 260.221036 218.457637 
L 260.898812 218.533142 
L 261.576588 218.364246 
L 262.254363 218.818585 
L 262.932139 218.903533 
L 263.609915 219.383868 
L 264.28769 220.287585 
L 264.965466 220.997862 
L 265.643242 217.543331 
L 266.321017 218.67806 
L 266.998793 218.582196 
L 267.676569 221.328136 
L 268.354344 218.314735 
L 269.03212 218.551595 
L 269.709896 221.047424 
L 270.387671 218.457637 
L 271.065447 218.533142 
L 271.743223 218.364246 
L 272.420998 218.818585 
L 273.098774 218.903533 
L 273.77655 216.919683 
L 274.454325 216.754608 
L 275.132101 213.332762 
L 275.809877 219.088162 
L 276.487652 220.319949 
L 277.165428 218.020314 
L 277.843204 221.015184 
L 278.520979 215.860199 
L 279.198755 217.475502 
L 279.876531 222.248325 
L 280.554306 216.939698 
L 281.232082 222.038134 
L 281.909858 220.692618 
L 282.587633 219.605475 
L 283.265409 222.323036 
L 283.943185 223.692866 
L 284.62096 212.634487 
L 285.298736 219.698965 
L 285.976512 222.680506 
L 286.654287 217.918819 
L 287.332063 220.164484 
L 288.009839 220.55276 
L 288.687614 218.150988 
L 289.36539 218.663384 
L 290.043166 219.438469 
L 290.720941 223.32112 
L 291.398717 221.019132 
L 292.076493 220.550764 
L 292.754268 221.605854 
L 293.432044 220.479692 
L 294.10982 219.868707 
L 294.787595 217.460155 
L 295.465371 220.211824 
L 296.143147 219.005241 
L 296.820922 219.303323 
L 297.498698 220.236002 
L 298.176474 216.352079 
L 298.854249 219.240485 
L 299.532025 218.928889 
L 300.209801 221.726616 
L 300.887576 222.046295 
L 301.565352 223.148663 
L 302.243128 217.119058 
L 302.920903 219.920548 
L 303.598679 219.021566 
L 304.276455 221.17384 
L 304.95423 218.983523 
L 305.632006 221.070554 
L 306.309782 222.156623 
L 306.987557 212.798496 
L 307.665333 220.111803 
L 308.343109 219.481917 
L 309.020884 223.036596 
L 309.69866 218.252667 
L 310.376436 219.03848 
L 311.054211 222.051312 
L 311.731987 217.862088 
L 312.409763 220.378905 
L 313.087538 217.957477 
L 313.765314 216.760845 
L 314.44309 218.818968 
L 315.120865 221.848025 
L 315.798641 218.64815 
L 316.476417 219.487342 
L 317.154192 217.26318 
L 317.831968 223.009781 
L 318.509744 219.632233 
L 319.187519 220.46356 
L 319.865295 215.347014 
L 320.543071 218.500088 
L 321.220846 219.812724 
L 321.898622 216.167958 
L 322.576398 221.843267 
L 323.254173 221.232801 
L 323.931949 222.618665 
L 324.609725 219.67883 
L 325.2875 218.579507 
L 325.965276 219.368874 
L 326.643052 220.656261 
L 327.320827 218.175853 
L 327.998603 218.235291 
L 329.354154 221.5982 
L 330.03193 218.970337 
L 331.387481 221.928802 
L 332.065257 218.709229 
L 332.743033 219.960922 
L 334.098584 218.001969 
L 334.77636 218.836855 
L 335.454136 220.022766 
L 336.131911 219.563794 
L 336.809687 220.487544 
L 337.487463 219.349149 
L 338.165238 219.554966 
L 338.843014 220.907569 
L 339.52079 220.753744 
L 340.198565 219.480016 
L 340.876341 216.783107 
L 341.554117 220.012295 
L 342.231892 221.099957 
L 343.587444 221.561176 
L 344.265219 221.792915 
L 344.942995 220.382 
L 345.620771 216.962795 
L 346.298546 219.745741 
L 346.976322 218.106874 
L 347.654098 214.756666 
L 348.331873 219.143692 
L 349.009649 219.679187 
L 350.3652 218.671087 
L 351.042976 219.044309 
L 351.720752 221.084683 
L 352.398527 221.635503 
L 353.076303 220.180939 
L 353.754079 217.00748 
L 354.431854 220.425133 
L 355.10963 212.780486 
L 355.787406 221.008021 
L 356.465181 218.620933 
L 357.142957 216.791703 
L 357.820733 219.544398 
L 358.498508 221.810952 
L 359.176284 221.150356 
L 359.85406 215.191862 
L 360.531835 222.821003 
L 361.209611 220.104665 
L 361.887387 220.949349 
L 362.565162 219.350173 
L 363.242938 218.574415 
L 363.920714 219.745997 
L 364.598489 222.957841 
L 365.276265 219.469071 
L 365.954041 220.046654 
L 366.631816 218.725382 
L 367.309592 220.529607 
L 367.987368 219.212845 
L 368.665143 219.945463 
L 369.342919 216.073309 
L 370.020695 217.45613 
L 371.376246 225.87107 
L 372.054022 218.995466 
L 372.731797 215.127406 
L 373.409573 220.568295 
L 374.087349 216.975337 
L 374.765124 217.953531 
L 375.4429 221.701336 
L 376.120676 219.21743 
L 376.798451 216.051972 
L 377.476227 220.554428 
L 378.154003 220.855014 
L 378.831778 216.903773 
L 379.509554 221.79463 
L 380.18733 216.971983 
L 381.542881 221.201557 
L 382.220657 219.956497 
L 382.898432 220.894623 
L 383.576208 219.971414 
L 384.253984 219.854808 
L 384.931759 216.4862 
L 385.609535 216.026613 
L 386.287311 218.888134 
L 386.965086 219.407304 
L 387.642862 218.505845 
L 388.320638 218.639705 
L 388.998413 221.07657 
L 389.676189 218.852227 
L 390.353965 219.981905 
L 391.03174 225.286875 
L 391.709516 223.001646 
L 392.387292 218.194148 
L 393.065067 218.338509 
L 393.742843 216.304011 
L 394.420619 223.598192 
L 395.098394 218.809041 
L 395.77617 219.079007 
L 396.453946 220.474058 
L 397.131721 221.210384 
L 397.809497 217.71274 
L 398.487273 221.206885 
L 398.487273 221.206885 
" clip-path="url(#p856f52c1f3)" style="fill: none; stroke: #1f77b4; stroke-width: 0.5; stroke-linecap: round"/>
   </g>
   <g id="patch_3">
    <path d="M 57.6 307.584 
L 57.6 41.472 
" style="fill: none; stroke: #ffffff; stroke-width: 0.8; stroke-linejoin: miter; stroke-linecap: square"/>
   </g>
   <g id="patch_4">
    <path d="M 414.72 307.584 
L 414.72 41.472 
" style="fill: none; stroke: #ffffff; stroke-width: 0.8; stroke-linejoin: miter; stroke-linecap: square"/>
   </g>
   <g id="patch_5">
    <path d="M 57.6 307.584 
L 414.72 307.584 
" style="fill: none; stroke: #ffffff; stroke-width: 0.8; stroke-linejoin: miter; stroke-linecap: square"/>
   </g>
   <g id="patch_6">
    <path d="M 57.6 41.472 
L 414.72 41.472 
" style="fill: none; stroke: #ffffff; stroke-width: 0.8; stroke-linejoin: miter; stroke-linecap: square"/>
   </g>
   <g id="text_13">
    <!-- akurasi rata-rata terhadap checkpoint -->
    <g style="fill: #262626" transform="translate(122.17875 35.472) scale(0.12 -0.12)">
     <defs>
      <path id="DejaVuSans-61" d="M 2194 1759 
Q 1497 1759 1228 1600 
Q 959 1441 959 1056 
Q 959 750 1161 570 
Q 1363 391 1709 391 
Q 2188 391 2477 730 
Q 2766 1069 2766 1631 
L 2766 1759 
L 2194 1759 
z
M 3341 1997 
L 3341 0 
L 2766 0 
L 2766 531 
Q 2569 213 2275 61 
Q 1981 -91 1556 -91 
Q 1019 -91 701 211 
Q 384 513 384 1019 
Q 384 1609 779 1909 
Q 1175 2209 1959 2209 
L 2766 2209 
L 2766 2266 
Q 2766 2663 2505 2880 
Q 2244 3097 1772 3097 
Q 1472 3097 1187 3025 
Q 903 2953 641 2809 
L 641 3341 
Q 956 3463 1253 3523 
Q 1550 3584 1831 3584 
Q 2591 3584 2966 3190 
Q 3341 2797 3341 1997 
z
" transform="scale(0.015625)"/>
      <path id="DejaVuSans-6b" d="M 581 4863 
L 1159 4863 
L 1159 1991 
L 2875 3500 
L 3609 3500 
L 1753 1863 
L 3688 0 
L 2938 0 
L 1159 1709 
L 1159 0 
L 581 0 
L 581 4863 
z
" transform="scale(0.015625)"/>
      <path id="DejaVuSans-75" d="M 544 1381 
L 544 3500 
L 1119 3500 
L 1119 1403 
Q 1119 906 1312 657 
Q 1506 409 1894 409 
Q 2359 409 2629 706 
Q 2900 1003 2900 1516 
L 2900 3500 
L 3475 3500 
L 3475 0 
L 2900 0 
L 2900 538 
Q 2691 219 2414 64 
Q 2138 -91 1772 -91 
Q 1169 -91 856 284 
Q 544 659 544 1381 
z
M 1991 3584 
L 1991 3584 
z
" transform="scale(0.015625)"/>
      <path id="DejaVuSans-72" d="M 2631 2963 
Q 2534 3019 2420 3045 
Q 2306 3072 2169 3072 
Q 1681 3072 1420 2755 
Q 1159 2438 1159 1844 
L 1159 0 
L 581 0 
L 581 3500 
L 1159 3500 
L 1159 2956 
Q 1341 3275 1631 3429 
Q 1922 3584 2338 3584 
Q 2397 3584 2469 3576 
Q 2541 3569 2628 3553 
L 2631 2963 
z
" transform="scale(0.015625)"/>
      <path id="DejaVuSans-73" d="M 2834 3397 
L 2834 2853 
Q 2591 2978 2328 3040 
Q 2066 3103 1784 3103 
Q 1356 3103 1142 2972 
Q 928 2841 928 2578 
Q 928 2378 1081 2264 
Q 1234 2150 1697 2047 
L 1894 2003 
Q 2506 1872 2764 1633 
Q 3022 1394 3022 966 
Q 3022 478 2636 193 
Q 2250 -91 1575 -91 
Q 1294 -91 989 -36 
Q 684 19 347 128 
L 347 722 
Q 666 556 975 473 
Q 1284 391 1588 391 
Q 1994 391 2212 530 
Q 2431 669 2431 922 
Q 2431 1156 2273 1281 
Q 2116 1406 1581 1522 
L 1381 1569 
Q 847 1681 609 1914 
Q 372 2147 372 2553 
Q 372 3047 722 3315 
Q 1072 3584 1716 3584 
Q 2034 3584 2315 3537 
Q 2597 3491 2834 3397 
z
" transform="scale(0.015625)"/>
      <path id="DejaVuSans-69" d="M 603 3500 
L 1178 3500 
L 1178 0 
L 603 0 
L 603 3500 
z
M 603 4863 
L 1178 4863 
L 1178 4134 
L 603 4134 
L 603 4863 
z
" transform="scale(0.015625)"/>
      <path id="DejaVuSans-20" transform="scale(0.015625)"/>
      <path id="DejaVuSans-74" d="M 1172 4494 
L 1172 3500 
L 2356 3500 
L 2356 3053 
L 1172 3053 
L 1172 1153 
Q 1172 725 1289 603 
Q 1406 481 1766 481 
L 2356 481 
L 2356 0 
L 1766 0 
Q 1100 0 847 248 
Q 594 497 594 1153 
L 594 3053 
L 172 3053 
L 172 3500 
L 594 3500 
L 594 4494 
L 1172 4494 
z
" transform="scale(0.015625)"/>
      <path id="DejaVuSans-2d" d="M 313 2009 
L 1997 2009 
L 1997 1497 
L 313 1497 
L 313 2009 
z
" transform="scale(0.015625)"/>
      <path id="DejaVuSans-64" d="M 2906 2969 
L 2906 4863 
L 3481 4863 
L 3481 0 
L 2906 0 
L 2906 525 
Q 2725 213 2448 61 
Q 2172 -91 1784 -91 
Q 1150 -91 751 415 
Q 353 922 353 1747 
Q 353 2572 751 3078 
Q 1150 3584 1784 3584 
Q 2172 3584 2448 3432 
Q 2725 3281 2906 2969 
z
M 947 1747 
Q 947 1113 1208 752 
Q 1469 391 1925 391 
Q 2381 391 2643 752 
Q 2906 1113 2906 1747 
Q 2906 2381 2643 2742 
Q 2381 3103 1925 3103 
Q 1469 3103 1208 2742 
Q 947 2381 947 1747 
z
" transform="scale(0.015625)"/>
      <path id="DejaVuSans-6e" d="M 3513 2113 
L 3513 0 
L 2938 0 
L 2938 2094 
Q 2938 2591 2744 2837 
Q 2550 3084 2163 3084 
Q 1697 3084 1428 2787 
Q 1159 2491 1159 1978 
L 1159 0 
L 581 0 
L 581 3500 
L 1159 3500 
L 1159 2956 
Q 1366 3272 1645 3428 
Q 1925 3584 2291 3584 
Q 2894 3584 3203 3211 
Q 3513 2838 3513 2113 
z
" transform="scale(0.015625)"/>
     </defs>
     <use xlink:href="#DejaVuSans-61"/>
     <use xlink:href="#DejaVuSans-6b" x="61.279297"/>
     <use xlink:href="#DejaVuSans-75" x="116.064453"/>
     <use xlink:href="#DejaVuSans-72" x="179.443359"/>
     <use xlink:href="#DejaVuSans-61" x="220.556641"/>
     <use xlink:href="#DejaVuSans-73" x="281.835938"/>
     <use xlink:href="#DejaVuSans-69" x="333.935547"/>
     <use xlink:href="#DejaVuSans-20" x="361.71875"/>
     <use xlink:href="#DejaVuSans-72" x="393.505859"/>
     <use xlink:href="#DejaVuSans-61" x="434.619141"/>
     <use xlink:href="#DejaVuSans-74" x="495.898438"/>
     <use xlink:href="#DejaVuSans-61" x="535.107422"/>
     <use xlink:href="#DejaVuSans-2d" x="596.386719"/>
     <use xlink:href="#DejaVuSans-72" x="632.470703"/>
     <use xlink:href="#DejaVuSans-61" x="673.583984"/>
     <use xlink:href="#DejaVuSans-74" x="734.863281"/>
     <use xlink:href="#DejaVuSans-61" x="774.072266"/>
     <use xlink:href="#DejaVuSans-20" x="835.351562"/>
     <use xlink:href="#DejaVuSans-74" x="867.138672"/>
     <use xlink:href="#DejaVuSans-65" x="906.347656"/>
     <use xlink:href="#DejaVuSans-72" x="967.871094"/>
     <use xlink:href="#DejaVuSans-68" x="1007.234375"/>
     <use xlink:href="#DejaVuSans-61" x="1070.613281"/>
     <use xlink:href="#DejaVuSans-64" x="1131.892578"/>
     <use xlink:href="#DejaVuSans-61" x="1195.369141"/>
     <use xlink:href="#DejaVuSans-70" x="1256.648438"/>
     <use xlink:href="#DejaVuSans-20" x="1320.125"/>
     <use xlink:href="#DejaVuSans-63" x="1351.912109"/>
     <use xlink:href="#DejaVuSans-68" x="1406.892578"/>
     <use xlink:href="#DejaVuSans-65" x="1470.271484"/>
     <use xlink:href="#DejaVuSans-63" x="1531.794922"/>
     <use xlink:href="#DejaVuSans-6b" x="1586.775391"/>
     <use xlink:href="#DejaVuSans-70" x="1644.685547"/>
     <use xlink:href="#DejaVuSans-6f" x="1708.162109"/>
     <use xlink:href="#DejaVuSans-69" x="1769.34375"/>
     <use xlink:href="#DejaVuSans-6e" x="1797.126953"/>
     <use xlink:href="#DejaVuSans-74" x="1860.505859"/>
    </g>
   </g>
   <g id="legend_1">
    <g id="patch_7">
     <path d="M 209.652812 64.42825 
L 407.72 64.42825 
Q 409.72 64.42825 409.72 62.42825 
L 409.72 48.472 
Q 409.72 46.472 407.72 46.472 
L 209.652812 46.472 
Q 207.652812 46.472 207.652812 48.472 
L 207.652812 62.42825 
Q 207.652812 64.42825 209.652812 64.42825 
z
" style="fill: #eaeaf2; opacity: 0.8; stroke: #cccccc; stroke-linejoin: miter"/>
    </g>
    <g id="line2d_2">
     <path d="M 211.652812 54.570437 
L 221.652812 54.570437 
L 231.652812 54.570437 
" style="fill: none; stroke: #1f77b4; stroke-width: 0.5; stroke-linecap: round"/>
    </g>
    <g id="text_14">
     <!-- best-79/top1-0d4624_acc/mean1 -->
     <g style="fill: #262626" transform="translate(239.652812 58.070437) scale(0.1 -0.1)">
      <defs>
       <path id="DejaVuSans-62" d="M 3116 1747 
Q 3116 2381 2855 2742 
Q 2594 3103 2138 3103 
Q 1681 3103 1420 2742 
Q 1159 2381 1159 1747 
Q 1159 1113 1420 752 
Q 1681 391 2138 391 
Q 2594 391 2855 752 
Q 3116 1113 3116 1747 
z
M 1159 2969 
Q 1341 3281 1617 3432 
Q 1894 3584 2278 3584 
Q 2916 3584 3314 3078 
Q 3713 2572 3713 1747 
Q 3713 922 3314 415 
Q 2916 -91 2278 -91 
Q 1894 -91 1617 61 
Q 1341 213 1159 525 
L 1159 0 
L 581 0 
L 581 4863 
L 1159 4863 
L 1159 2969 
z
" transform="scale(0.015625)"/>
       <path id="DejaVuSans-37" d="M 525 4666 
L 3525 4666 
L 3525 4397 
L 1831 0 
L 1172 0 
L 2766 4134 
L 525 4134 
L 525 4666 
z
" transform="scale(0.015625)"/>
       <path id="DejaVuSans-39" d="M 703 97 
L 703 672 
Q 941 559 1184 500 
Q 1428 441 1663 441 
Q 2288 441 2617 861 
Q 2947 1281 2994 2138 
Q 2813 1869 2534 1725 
Q 2256 1581 1919 1581 
Q 1219 1581 811 2004 
Q 403 2428 403 3163 
Q 403 3881 828 4315 
Q 1253 4750 1959 4750 
Q 2769 4750 3195 4129 
Q 3622 3509 3622 2328 
Q 3622 1225 3098 567 
Q 2575 -91 1691 -91 
Q 1453 -91 1209 -44 
Q 966 3 703 97 
z
M 1959 2075 
Q 2384 2075 2632 2365 
Q 2881 2656 2881 3163 
Q 2881 3666 2632 3958 
Q 2384 4250 1959 4250 
Q 1534 4250 1286 3958 
Q 1038 3666 1038 3163 
Q 1038 2656 1286 2365 
Q 1534 2075 1959 2075 
z
" transform="scale(0.015625)"/>
       <path id="DejaVuSans-2f" d="M 1625 4666 
L 2156 4666 
L 531 -594 
L 0 -594 
L 1625 4666 
z
" transform="scale(0.015625)"/>
       <path id="DejaVuSans-36" d="M 2113 2584 
Q 1688 2584 1439 2293 
Q 1191 2003 1191 1497 
Q 1191 994 1439 701 
Q 1688 409 2113 409 
Q 2538 409 2786 701 
Q 3034 994 3034 1497 
Q 3034 2003 2786 2293 
Q 2538 2584 2113 2584 
z
M 3366 4563 
L 3366 3988 
Q 3128 4100 2886 4159 
Q 2644 4219 2406 4219 
Q 1781 4219 1451 3797 
Q 1122 3375 1075 2522 
Q 1259 2794 1537 2939 
Q 1816 3084 2150 3084 
Q 2853 3084 3261 2657 
Q 3669 2231 3669 1497 
Q 3669 778 3244 343 
Q 2819 -91 2113 -91 
Q 1303 -91 875 529 
Q 447 1150 447 2328 
Q 447 3434 972 4092 
Q 1497 4750 2381 4750 
Q 2619 4750 2861 4703 
Q 3103 4656 3366 4563 
z
" transform="scale(0.015625)"/>
       <path id="DejaVuSans-5f" d="M 3263 -1063 
L 3263 -1509 
L -63 -1509 
L -63 -1063 
L 3263 -1063 
z
" transform="scale(0.015625)"/>
       <path id="DejaVuSans-6d" d="M 3328 2828 
Q 3544 3216 3844 3400 
Q 4144 3584 4550 3584 
Q 5097 3584 5394 3201 
Q 5691 2819 5691 2113 
L 5691 0 
L 5113 0 
L 5113 2094 
Q 5113 2597 4934 2840 
Q 4756 3084 4391 3084 
Q 3944 3084 3684 2787 
Q 3425 2491 3425 1978 
L 3425 0 
L 2847 0 
L 2847 2094 
Q 2847 2600 2669 2842 
Q 2491 3084 2119 3084 
Q 1678 3084 1418 2786 
Q 1159 2488 1159 1978 
L 1159 0 
L 581 0 
L 581 3500 
L 1159 3500 
L 1159 2956 
Q 1356 3278 1631 3431 
Q 1906 3584 2284 3584 
Q 2666 3584 2933 3390 
Q 3200 3197 3328 2828 
z
" transform="scale(0.015625)"/>
      </defs>
      <use xlink:href="#DejaVuSans-62"/>
      <use xlink:href="#DejaVuSans-65" x="63.476562"/>
      <use xlink:href="#DejaVuSans-73" x="125"/>
      <use xlink:href="#DejaVuSans-74" x="177.099609"/>
      <use xlink:href="#DejaVuSans-2d" x="216.308594"/>
      <use xlink:href="#DejaVuSans-37" x="252.392578"/>
      <use xlink:href="#DejaVuSans-39" x="316.015625"/>
      <use xlink:href="#DejaVuSans-2f" x="379.638672"/>
      <use xlink:href="#DejaVuSans-74" x="413.330078"/>
      <use xlink:href="#DejaVuSans-6f" x="452.539062"/>
      <use xlink:href="#DejaVuSans-70" x="513.720703"/>
      <use xlink:href="#DejaVuSans-31" x="577.197266"/>
      <use xlink:href="#DejaVuSans-2d" x="640.820312"/>
      <use xlink:href="#DejaVuSans-30" x="676.904297"/>
      <use xlink:href="#DejaVuSans-64" x="740.527344"/>
      <use xlink:href="#DejaVuSans-34" x="804.003906"/>
      <use xlink:href="#DejaVuSans-36" x="867.626953"/>
      <use xlink:href="#DejaVuSans-32" x="931.25"/>
      <use xlink:href="#DejaVuSans-34" x="994.873047"/>
      <use xlink:href="#DejaVuSans-5f" x="1058.496094"/>
      <use xlink:href="#DejaVuSans-61" x="1108.496094"/>
      <use xlink:href="#DejaVuSans-63" x="1169.775391"/>
      <use xlink:href="#DejaVuSans-63" x="1224.755859"/>
      <use xlink:href="#DejaVuSans-2f" x="1279.736328"/>
      <use xlink:href="#DejaVuSans-6d" x="1313.427734"/>
      <use xlink:href="#DejaVuSans-65" x="1410.839844"/>
      <use xlink:href="#DejaVuSans-61" x="1472.363281"/>
      <use xlink:href="#DejaVuSans-6e" x="1533.642578"/>
      <use xlink:href="#DejaVuSans-31" x="1597.021484"/>
     </g>
    </g>
   </g>
  </g>
 </g>
 <defs>
  <clipPath id="p856f52c1f3">
   <rect x="57.6" y="41.472" width="357.12" height="266.112"/>
  </clipPath>
 </defs>
</svg>
