<?xml version="1.0" encoding="utf-8" standalone="no"?>
<!DOCTYPE svg PUBLIC "-//W3C//DTD SVG 1.1//EN"
  "http://www.w3.org/Graphics/SVG/1.1/DTD/svg11.dtd">
<svg xmlns:xlink="http://www.w3.org/1999/xlink" width="460.8pt" height="345.6pt" viewBox="0 0 460.8 345.6" xmlns="http://www.w3.org/2000/svg" version="1.1">
 <metadata>
  <rdf:RDF xmlns:dc="http://purl.org/dc/elements/1.1/" xmlns:cc="http://creativecommons.org/ns#" xmlns:rdf="http://www.w3.org/1999/02/22-rdf-syntax-ns#">
   <cc:Work>
    <dc:type rdf:resource="http://purl.org/dc/dcmitype/StillImage"/>
    <dc:date>2024-05-02T07:37:31.702887</dc:date>
    <dc:format>image/svg+xml</dc:format>
    <dc:creator>
     <cc:Agent>
      <dc:title>Matplotlib v3.7.2, https://matplotlib.org/</dc:title>
     </cc:Agent>
    </dc:creator>
   </cc:Work>
  </rdf:RDF>
 </metadata>
 <defs>
  <style type="text/css">*{stroke-linejoin: round; stroke-linecap: butt}</style>
 </defs>
 <g id="figure_1">
  <g id="patch_1">
   <path d="M 0 345.6 
L 460.8 345.6 
L 460.8 0 
L 0 0 
z
" style="fill: #ffffff"/>
  </g>
  <g id="axes_1">
   <g id="patch_2">
    <path d="M 57.6 307.584 
L 414.72 307.584 
L 414.72 41.472 
L 57.6 41.472 
z
" style="fill: #eaeaf2"/>
   </g>
   <g id="matplotlib.axis_1">
    <g id="xtick_1">
     <g id="text_1">
      <!-- 0 -->
      <g style="fill: #262626" transform="translate(69.973702 322.182437) scale(0.1 -0.1)">
       <defs>
        <path id="DejaVuSans-30" d="M 2034 4250 
Q 1547 4250 1301 3770 
Q 1056 3291 1056 2328 
Q 1056 1369 1301 889 
Q 1547 409 2034 409 
Q 2525 409 2770 889 
Q 3016 1369 3016 2328 
Q 3016 3291 2770 3770 
Q 2525 4250 2034 4250 
z
M 2034 4750 
Q 2819 4750 3233 4129 
Q 3647 3509 3647 2328 
Q 3647 1150 3233 529 
Q 2819 -91 2034 -91 
Q 1250 -91 836 529 
Q 422 1150 422 2328 
Q 422 3509 836 4129 
Q 1250 4750 2034 4750 
z
" transform="scale(0.015625)"/>
       </defs>
       <use xlink:href="#DejaVuSans-30"/>
      </g>
     </g>
    </g>
    <g id="xtick_2">
     <g id="text_2">
      <!-- 100 -->
      <g style="fill: #262626" transform="translate(131.388769 322.182437) scale(0.1 -0.1)">
       <defs>
        <path id="DejaVuSans-31" d="M 794 531 
L 1825 531 
L 1825 4091 
L 703 3866 
L 703 4441 
L 1819 4666 
L 2450 4666 
L 2450 531 
L 3481 531 
L 3481 0 
L 794 0 
L 794 531 
z
" transform="scale(0.015625)"/>
       </defs>
       <use xlink:href="#DejaVuSans-31"/>
       <use xlink:href="#DejaVuSans-30" x="63.623047"/>
       <use xlink:href="#DejaVuSans-30" x="127.246094"/>
      </g>
     </g>
    </g>
    <g id="xtick_3">
     <g id="text_3">
      <!-- 200 -->
      <g style="fill: #262626" transform="translate(199.166335 322.182437) scale(0.1 -0.1)">
       <defs>
        <path id="DejaVuSans-32" d="M 1228 531 
L 3431 531 
L 3431 0 
L 469 0 
L 469 531 
Q 828 903 1448 1529 
Q 2069 2156 2228 2338 
Q 2531 2678 2651 2914 
Q 2772 3150 2772 3378 
Q 2772 3750 2511 3984 
Q 2250 4219 1831 4219 
Q 1534 4219 1204 4116 
Q 875 4013 500 3803 
L 500 4441 
Q 881 4594 1212 4672 
Q 1544 4750 1819 4750 
Q 2544 4750 2975 4387 
Q 3406 4025 3406 3419 
Q 3406 3131 3298 2873 
Q 3191 2616 2906 2266 
Q 2828 2175 2409 1742 
Q 1991 1309 1228 531 
z
" transform="scale(0.015625)"/>
       </defs>
       <use xlink:href="#DejaVuSans-32"/>
       <use xlink:href="#DejaVuSans-30" x="63.623047"/>
       <use xlink:href="#DejaVuSans-30" x="127.246094"/>
      </g>
     </g>
    </g>
    <g id="xtick_4">
     <g id="text_4">
      <!-- 300 -->
      <g style="fill: #262626" transform="translate(266.943902 322.182437) scale(0.1 -0.1)">
       <defs>
        <path id="DejaVuSans-33" d="M 2597 2516 
Q 3050 2419 3304 2112 
Q 3559 1806 3559 1356 
Q 3559 666 3084 287 
Q 2609 -91 1734 -91 
Q 1441 -91 1130 -33 
Q 819 25 488 141 
L 488 750 
Q 750 597 1062 519 
Q 1375 441 1716 441 
Q 2309 441 2620 675 
Q 2931 909 2931 1356 
Q 2931 1769 2642 2001 
Q 2353 2234 1838 2234 
L 1294 2234 
L 1294 2753 
L 1863 2753 
Q 2328 2753 2575 2939 
Q 2822 3125 2822 3475 
Q 2822 3834 2567 4026 
Q 2313 4219 1838 4219 
Q 1578 4219 1281 4162 
Q 984 4106 628 3988 
L 628 4550 
Q 988 4650 1302 4700 
Q 1616 4750 1894 4750 
Q 2613 4750 3031 4423 
Q 3450 4097 3450 3541 
Q 3450 3153 3228 2886 
Q 3006 2619 2597 2516 
z
" transform="scale(0.015625)"/>
       </defs>
       <use xlink:href="#DejaVuSans-33"/>
       <use xlink:href="#DejaVuSans-30" x="63.623047"/>
       <use xlink:href="#DejaVuSans-30" x="127.246094"/>
      </g>
     </g>
    </g>
    <g id="xtick_5">
     <g id="text_5">
      <!-- 400 -->
      <g style="fill: #262626" transform="translate(334.721469 322.182437) scale(0.1 -0.1)">
       <defs>
        <path id="DejaVuSans-34" d="M 2419 4116 
L 825 1625 
L 2419 1625 
L 2419 4116 
z
M 2253 4666 
L 3047 4666 
L 3047 1625 
L 3713 1625 
L 3713 1100 
L 3047 1100 
L 3047 0 
L 2419 0 
L 2419 1100 
L 313 1100 
L 313 1709 
L 2253 4666 
z
" transform="scale(0.015625)"/>
       </defs>
       <use xlink:href="#DejaVuSans-34"/>
       <use xlink:href="#DejaVuSans-30" x="63.623047"/>
       <use xlink:href="#DejaVuSans-30" x="127.246094"/>
      </g>
     </g>
    </g>
    <g id="xtick_6">
     <g id="text_6">
      <!-- 500 -->
      <g style="fill: #262626" transform="translate(402.499036 322.182437) scale(0.1 -0.1)">
       <defs>
        <path id="DejaVuSans-35" d="M 691 4666 
L 3169 4666 
L 3169 4134 
L 1269 4134 
L 1269 2991 
Q 1406 3038 1543 3061 
Q 1681 3084 1819 3084 
Q 2600 3084 3056 2656 
Q 3513 2228 3513 1497 
Q 3513 744 3044 326 
Q 2575 -91 1722 -91 
Q 1428 -91 1123 -41 
Q 819 9 494 109 
L 494 744 
Q 775 591 1075 516 
Q 1375 441 1709 441 
Q 2250 441 2565 725 
Q 2881 1009 2881 1497 
Q 2881 1984 2565 2268 
Q 2250 2553 1709 2553 
Q 1456 2553 1204 2497 
Q 953 2441 691 2322 
L 691 4666 
z
" transform="scale(0.015625)"/>
       </defs>
       <use xlink:href="#DejaVuSans-35"/>
       <use xlink:href="#DejaVuSans-30" x="63.623047"/>
       <use xlink:href="#DejaVuSans-30" x="127.246094"/>
      </g>
     </g>
    </g>
    <g id="text_7">
     <!-- epoch -->
     <g style="fill: #262626" transform="translate(220.931875 335.860562) scale(0.1 -0.1)">
      <defs>
       <path id="DejaVuSans-65" d="M 3597 1894 
L 3597 1613 
L 953 1613 
Q 991 1019 1311 708 
Q 1631 397 2203 397 
Q 2534 397 2845 478 
Q 3156 559 3463 722 
L 3463 178 
Q 3153 47 2828 -22 
Q 2503 -91 2169 -91 
Q 1331 -91 842 396 
Q 353 884 353 1716 
Q 353 2575 817 3079 
Q 1281 3584 2069 3584 
Q 2775 3584 3186 3129 
Q 3597 2675 3597 1894 
z
M 3022 2063 
Q 3016 2534 2758 2815 
Q 2500 3097 2075 3097 
Q 1594 3097 1305 2825 
Q 1016 2553 972 2059 
L 3022 2063 
z
" transform="scale(0.015625)"/>
       <path id="DejaVuSans-70" d="M 1159 525 
L 1159 -1331 
L 581 -1331 
L 581 3500 
L 1159 3500 
L 1159 2969 
Q 1341 3281 1617 3432 
Q 1894 3584 2278 3584 
Q 2916 3584 3314 3078 
Q 3713 2572 3713 1747 
Q 3713 922 3314 415 
Q 2916 -91 2278 -91 
Q 1894 -91 1617 61 
Q 1341 213 1159 525 
z
M 3116 1747 
Q 3116 2381 2855 2742 
Q 2594 3103 2138 3103 
Q 1681 3103 1420 2742 
Q 1159 2381 1159 1747 
Q 1159 1113 1420 752 
Q 1681 391 2138 391 
Q 2594 391 2855 752 
Q 3116 1113 3116 1747 
z
" transform="scale(0.015625)"/>
       <path id="DejaVuSans-6f" d="M 1959 3097 
Q 1497 3097 1228 2736 
Q 959 2375 959 1747 
Q 959 1119 1226 758 
Q 1494 397 1959 397 
Q 2419 397 2687 759 
Q 2956 1122 2956 1747 
Q 2956 2369 2687 2733 
Q 2419 3097 1959 3097 
z
M 1959 3584 
Q 2709 3584 3137 3096 
Q 3566 2609 3566 1747 
Q 3566 888 3137 398 
Q 2709 -91 1959 -91 
Q 1206 -91 779 398 
Q 353 888 353 1747 
Q 353 2609 779 3096 
Q 1206 3584 1959 3584 
z
" transform="scale(0.015625)"/>
       <path id="DejaVuSans-63" d="M 3122 3366 
L 3122 2828 
Q 2878 2963 2633 3030 
Q 2388 3097 2138 3097 
Q 1578 3097 1268 2742 
Q 959 2388 959 1747 
Q 959 1106 1268 751 
Q 1578 397 2138 397 
Q 2388 397 2633 464 
Q 2878 531 3122 666 
L 3122 134 
Q 2881 22 2623 -34 
Q 2366 -91 2075 -91 
Q 1284 -91 818 406 
Q 353 903 353 1747 
Q 353 2603 823 3093 
Q 1294 3584 2113 3584 
Q 2378 3584 2631 3529 
Q 2884 3475 3122 3366 
z
" transform="scale(0.015625)"/>
       <path id="DejaVuSans-68" d="M 3513 2113 
L 3513 0 
L 2938 0 
L 2938 2094 
Q 2938 2591 2744 2837 
Q 2550 3084 2163 3084 
Q 1697 3084 1428 2787 
Q 1159 2491 1159 1978 
L 1159 0 
L 581 0 
L 581 4863 
L 1159 4863 
L 1159 2956 
Q 1366 3272 1645 3428 
Q 1925 3584 2291 3584 
Q 2894 3584 3203 3211 
Q 3513 2838 3513 2113 
z
" transform="scale(0.015625)"/>
      </defs>
      <use xlink:href="#DejaVuSans-65"/>
      <use xlink:href="#DejaVuSans-70" x="61.523438"/>
      <use xlink:href="#DejaVuSans-6f" x="125"/>
      <use xlink:href="#DejaVuSans-63" x="186.181641"/>
      <use xlink:href="#DejaVuSans-68" x="241.162109"/>
     </g>
    </g>
   </g>
   <g id="matplotlib.axis_2">
    <g id="ytick_1">
     <g id="text_8">
      <!-- 0.34 -->
      <g style="fill: #262626" transform="translate(28.334375 278.945374) scale(0.1 -0.1)">
       <defs>
        <path id="DejaVuSans-2e" d="M 684 794 
L 1344 794 
L 1344 0 
L 684 0 
L 684 794 
z
" transform="scale(0.015625)"/>
       </defs>
       <use xlink:href="#DejaVuSans-30"/>
       <use xlink:href="#DejaVuSans-2e" x="63.623047"/>
       <use xlink:href="#DejaVuSans-33" x="95.410156"/>
       <use xlink:href="#DejaVuSans-34" x="159.033203"/>
      </g>
     </g>
    </g>
    <g id="ytick_2">
     <g id="text_9">
      <!-- 0.36 -->
      <g style="fill: #262626" transform="translate(28.334375 242.768766) scale(0.1 -0.1)">
       <defs>
        <path id="DejaVuSans-36" d="M 2113 2584 
Q 1688 2584 1439 2293 
Q 1191 2003 1191 1497 
Q 1191 994 1439 701 
Q 1688 409 2113 409 
Q 2538 409 2786 701 
Q 3034 994 3034 1497 
Q 3034 2003 2786 2293 
Q 2538 2584 2113 2584 
z
M 3366 4563 
L 3366 3988 
Q 3128 4100 2886 4159 
Q 2644 4219 2406 4219 
Q 1781 4219 1451 3797 
Q 1122 3375 1075 2522 
Q 1259 2794 1537 2939 
Q 1816 3084 2150 3084 
Q 2853 3084 3261 2657 
Q 3669 2231 3669 1497 
Q 3669 778 3244 343 
Q 2819 -91 2113 -91 
Q 1303 -91 875 529 
Q 447 1150 447 2328 
Q 447 3434 972 4092 
Q 1497 4750 2381 4750 
Q 2619 4750 2861 4703 
Q 3103 4656 3366 4563 
z
" transform="scale(0.015625)"/>
       </defs>
       <use xlink:href="#DejaVuSans-30"/>
       <use xlink:href="#DejaVuSans-2e" x="63.623047"/>
       <use xlink:href="#DejaVuSans-33" x="95.410156"/>
       <use xlink:href="#DejaVuSans-36" x="159.033203"/>
      </g>
     </g>
    </g>
    <g id="ytick_3">
     <g id="text_10">
      <!-- 0.38 -->
      <g style="fill: #262626" transform="translate(28.334375 206.592158) scale(0.1 -0.1)">
       <defs>
        <path id="DejaVuSans-38" d="M 2034 2216 
Q 1584 2216 1326 1975 
Q 1069 1734 1069 1313 
Q 1069 891 1326 650 
Q 1584 409 2034 409 
Q 2484 409 2743 651 
Q 3003 894 3003 1313 
Q 3003 1734 2745 1975 
Q 2488 2216 2034 2216 
z
M 1403 2484 
Q 997 2584 770 2862 
Q 544 3141 544 3541 
Q 544 4100 942 4425 
Q 1341 4750 2034 4750 
Q 2731 4750 3128 4425 
Q 3525 4100 3525 3541 
Q 3525 3141 3298 2862 
Q 3072 2584 2669 2484 
Q 3125 2378 3379 2068 
Q 3634 1759 3634 1313 
Q 3634 634 3220 271 
Q 2806 -91 2034 -91 
Q 1263 -91 848 271 
Q 434 634 434 1313 
Q 434 1759 690 2068 
Q 947 2378 1403 2484 
z
M 1172 3481 
Q 1172 3119 1398 2916 
Q 1625 2713 2034 2713 
Q 2441 2713 2670 2916 
Q 2900 3119 2900 3481 
Q 2900 3844 2670 4047 
Q 2441 4250 2034 4250 
Q 1625 4250 1398 4047 
Q 1172 3844 1172 3481 
z
" transform="scale(0.015625)"/>
       </defs>
       <use xlink:href="#DejaVuSans-30"/>
       <use xlink:href="#DejaVuSans-2e" x="63.623047"/>
       <use xlink:href="#DejaVuSans-33" x="95.410156"/>
       <use xlink:href="#DejaVuSans-38" x="159.033203"/>
      </g>
     </g>
    </g>
    <g id="ytick_4">
     <g id="text_11">
      <!-- 0.40 -->
      <g style="fill: #262626" transform="translate(28.334375 170.415549) scale(0.1 -0.1)">
       <use xlink:href="#DejaVuSans-30"/>
       <use xlink:href="#DejaVuSans-2e" x="63.623047"/>
       <use xlink:href="#DejaVuSans-34" x="95.410156"/>
       <use xlink:href="#DejaVuSans-30" x="159.033203"/>
      </g>
     </g>
    </g>
    <g id="ytick_5">
     <g id="text_12">
      <!-- 0.42 -->
      <g style="fill: #262626" transform="translate(28.334375 134.238941) scale(0.1 -0.1)">
       <use xlink:href="#DejaVuSans-30"/>
       <use xlink:href="#DejaVuSans-2e" x="63.623047"/>
       <use xlink:href="#DejaVuSans-34" x="95.410156"/>
       <use xlink:href="#DejaVuSans-32" x="159.033203"/>
      </g>
     </g>
    </g>
    <g id="ytick_6">
     <g id="text_13">
      <!-- 0.44 -->
      <g style="fill: #262626" transform="translate(28.334375 98.062333) scale(0.1 -0.1)">
       <use xlink:href="#DejaVuSans-30"/>
       <use xlink:href="#DejaVuSans-2e" x="63.623047"/>
       <use xlink:href="#DejaVuSans-34" x="95.410156"/>
       <use xlink:href="#DejaVuSans-34" x="159.033203"/>
      </g>
     </g>
    </g>
    <g id="ytick_7">
     <g id="text_14">
      <!-- 0.46 -->
      <g style="fill: #262626" transform="translate(28.334375 61.885725) scale(0.1 -0.1)">
       <use xlink:href="#DejaVuSans-30"/>
       <use xlink:href="#DejaVuSans-2e" x="63.623047"/>
       <use xlink:href="#DejaVuSans-34" x="95.410156"/>
       <use xlink:href="#DejaVuSans-36" x="159.033203"/>
      </g>
     </g>
    </g>
   </g>
   <g id="line2d_1">
    <path d="M 73.832727 210.087669 
L 74.510503 214.086347 
L 75.188279 149.821884 
L 75.866054 116.689983 
L 76.54383 66.706512 
L 77.221606 75.846347 
L 77.899381 95.268496 
L 78.577157 103.551471 
L 79.254933 223.797421 
L 79.932708 295.488 
L 80.610484 124.116099 
L 81.28826 174.38519 
L 81.966035 100.695273 
L 82.643811 72.418909 
L 83.321587 238.364033 
L 83.999362 216.085686 
L 84.677138 213.800727 
L 85.354914 244.36205 
L 86.032689 188.094942 
L 86.710465 171.243372 
L 87.388241 199.519736 
L 88.066016 219.513124 
L 88.743792 189.808661 
L 89.421568 194.949818 
L 90.099343 165.530975 
L 90.777119 208.94519 
L 91.454895 216.085686 
L 92.13267 101.552132 
L 92.810446 99.552793 
L 93.488222 98.981554 
L 94.165997 169.244033 
L 94.843773 127.829157 
L 95.521549 178.383868 
L 96.199324 116.689983 
L 96.8771 68.134612 
L 97.554876 200.662215 
L 98.232651 169.244033 
L 99.588203 160.389818 
L 100.265978 217.228165 
L 100.943754 103.265851 
L 101.62153 183.525025 
L 102.299305 153.820562 
L 102.977081 147.822545 
L 103.654857 184.953124 
L 104.332632 178.383868 
L 105.010408 197.520397 
L 105.688184 178.098248 
L 106.365959 99.267174 
L 107.043735 199.805355 
L 107.721511 123.54486 
L 108.399286 94.697256 
L 109.077062 75.846347 
L 109.754838 197.234777 
L 110.432613 179.240727 
L 111.110389 79.559405 
L 111.788165 180.383207 
L 112.46594 88.41362 
L 113.143716 158.676099 
L 114.499267 205.517752 
L 115.854819 121.83114 
L 116.532594 180.097587 
L 117.21037 176.955769 
L 117.888146 186.666843 
L 118.565921 192.950479 
L 119.243697 194.664198 
L 119.921473 173.81395 
L 120.599248 188.666182 
L 121.277024 190.094281 
L 121.9548 200.090975 
L 122.632575 166.673455 
L 123.310351 69.848331 
L 123.988127 185.238744 
L 124.665902 193.807339 
L 125.343678 147.536926 
L 126.021454 137.825851 
L 126.699229 53.568 
L 127.377005 168.958413 
L 128.732556 137.540231 
L 129.410332 119.831802 
L 130.088108 168.672793 
L 130.765883 106.12205 
L 131.443659 192.09362 
L 132.121435 197.520397 
L 132.79921 188.666182 
L 133.476986 170.672132 
L 134.154762 148.393785 
L 134.832537 194.378579 
L 136.188089 184.381884 
L 136.865864 121.259901 
L 137.54364 198.091636 
L 138.221416 164.388496 
L 138.899191 194.949818 
L 139.576967 205.517752 
L 140.932519 143.252628 
L 141.610294 132.399074 
L 142.28807 193.236099 
L 142.965846 188.380562 
L 143.643621 190.379901 
L 144.321397 91.555438 
L 144.999173 170.957752 
L 145.676948 173.242711 
L 146.354724 164.674116 
L 147.0325 183.810645 
L 147.710275 208.37395 
L 148.388051 189.808661 
L 149.065827 107.835769 
L 149.743602 194.664198 
L 150.421378 176.384529 
L 151.099154 240.934612 
L 151.776929 173.528331 
L 152.454705 172.385851 
L 153.132481 116.118744 
L 153.810256 198.662876 
L 154.488032 225.51114 
L 155.165808 176.955769 
L 155.843583 172.671471 
L 156.521359 185.524364 
L 157.199135 86.128661 
L 157.87691 151.535603 
L 158.554686 165.530975 
L 159.232462 166.959074 
L 159.910237 192.950479 
L 161.265789 158.10486 
L 161.943564 87.27114 
L 162.62134 200.662215 
L 163.299116 164.674116 
L 163.976891 168.958413 
L 164.654667 179.526347 
L 165.332443 194.664198 
L 166.010218 186.381223 
L 166.687994 179.811967 
L 167.36577 186.095603 
L 168.043545 167.530314 
L 168.721321 174.95643 
L 169.399097 200.090975 
L 170.076872 180.097587 
L 170.754648 167.244694 
L 171.432424 202.090314 
L 172.110199 189.808661 
L 172.787975 186.095603 
L 173.465751 183.239405 
L 174.143526 244.933289 
L 174.821302 197.520397 
L 175.499078 181.811306 
L 176.176853 212.087008 
L 176.854629 187.523702 
L 177.532405 176.670149 
L 178.21018 174.38519 
L 178.887956 191.23676 
L 179.565732 192.950479 
L 180.243507 179.526347 
L 180.921283 200.947835 
L 181.599059 196.092298 
L 182.276834 184.667504 
L 182.95461 189.808661 
L 183.632386 206.088992 
L 184.310161 183.810645 
L 184.987937 165.816595 
L 185.665713 174.09957 
L 186.343488 186.095603 
L 187.021264 171.243372 
L 187.69904 182.382545 
L 188.376815 171.243372 
L 189.054591 157.81924 
L 189.732367 189.808661 
L 190.410142 184.381884 
L 191.765694 168.387174 
L 192.443469 174.38519 
L 193.121245 130.114116 
L 193.799021 176.670149 
L 194.476796 178.383868 
L 195.154572 181.811306 
L 195.832348 143.823868 
L 196.510123 191.23676 
L 197.187899 170.100893 
L 197.865675 168.958413 
L 198.54345 182.382545 
L 199.221226 187.523702 
L 199.899002 190.95114 
L 200.576777 185.524364 
L 201.254553 191.808 
L 201.932329 189.237421 
L 202.610104 183.810645 
L 203.28788 162.674777 
L 203.965656 197.806017 
L 204.643431 187.238083 
L 205.321207 182.096926 
L 205.998983 194.378579 
L 206.676758 168.958413 
L 207.354534 177.527008 
L 208.03231 182.668165 
L 208.710085 155.819901 
L 210.065637 204.660893 
L 210.743412 181.811306 
L 211.421188 187.238083 
L 212.098964 136.968992 
L 212.776739 184.381884 
L 213.454515 171.814612 
L 214.132291 174.09957 
L 214.810066 172.671471 
L 215.487842 187.809322 
L 216.165618 158.390479 
L 216.843393 159.247339 
L 217.521169 172.957091 
L 218.198945 191.23676 
L 218.87672 177.527008 
L 219.554496 188.666182 
L 220.232272 193.521719 
L 220.910047 180.097587 
L 221.587823 182.382545 
L 222.265599 196.092298 
L 222.943374 191.52238 
L 223.62115 183.239405 
L 224.298926 189.808661 
L 224.976701 191.808 
L 225.654477 192.950479 
L 226.332253 188.094942 
L 227.010028 194.664198 
L 227.687804 188.094942 
L 228.36558 193.236099 
L 229.043355 193.807339 
L 229.721131 195.235438 
L 230.398907 188.951802 
L 231.076682 187.238083 
L 231.754458 190.094281 
L 232.432234 185.524364 
L 233.110009 199.519736 
L 233.787785 189.523041 
L 234.465561 186.381223 
L 235.143336 186.666843 
L 235.821112 185.238744 
L 236.498888 190.95114 
L 237.176664 189.523041 
L 237.854439 195.235438 
L 238.532215 190.094281 
L 239.209991 192.09362 
L 239.887766 189.808661 
L 240.565542 188.666182 
L 241.243318 192.09362 
L 241.921093 191.23676 
L 242.598869 194.664198 
L 243.95442 185.809983 
L 244.632196 192.66486 
L 245.309972 188.094942 
L 245.987747 185.524364 
L 246.665523 191.52238 
L 247.343299 181.525686 
L 248.021074 184.953124 
L 248.69885 197.234777 
L 249.376626 191.23676 
L 250.054401 190.665521 
L 250.732177 192.66486 
L 251.409953 186.381223 
L 252.087728 189.808661 
L 252.765504 192.37924 
L 254.121055 189.523041 
L 254.798831 195.235438 
L 255.476607 190.094281 
L 256.154382 192.09362 
L 256.832158 189.808661 
L 257.509934 188.666182 
L 258.187709 192.09362 
L 258.865485 191.23676 
L 259.543261 194.664198 
L 260.898812 185.809983 
L 261.576588 192.66486 
L 262.254363 188.094942 
L 262.932139 185.524364 
L 263.609915 190.95114 
L 264.28769 189.523041 
L 264.965466 195.235438 
L 265.643242 190.094281 
L 266.321017 192.09362 
L 266.998793 189.808661 
L 267.676569 188.666182 
L 268.354344 192.09362 
L 269.03212 191.23676 
L 269.709896 194.664198 
L 271.065447 185.809983 
L 271.743223 192.66486 
L 272.420998 188.094942 
L 273.098774 185.524364 
L 273.77655 191.52238 
L 274.454325 181.525686 
L 275.132101 184.953124 
L 275.809877 197.234777 
L 276.487652 191.23676 
L 277.165428 190.665521 
L 277.843204 192.66486 
L 278.520979 186.381223 
L 279.198755 189.808661 
L 279.876531 192.37924 
L 280.554306 183.810645 
L 281.232082 190.379901 
L 281.909858 191.52238 
L 282.587633 188.951802 
L 283.265409 194.664198 
L 283.943185 186.666843 
L 284.62096 175.813289 
L 285.298736 190.094281 
L 285.976512 192.09362 
L 286.654287 183.239405 
L 288.009839 193.236099 
L 288.687614 186.952463 
L 289.36539 183.239405 
L 290.043166 194.378579 
L 290.720941 184.381884 
L 291.398717 186.666843 
L 292.076493 192.37924 
L 292.754268 187.238083 
L 293.432044 185.238744 
L 294.10982 190.379901 
L 294.787595 182.096926 
L 295.465371 188.094942 
L 296.143147 188.094942 
L 296.820922 191.52238 
L 297.498698 189.808661 
L 298.176474 186.095603 
L 298.854249 190.665521 
L 299.532025 189.808661 
L 300.209801 187.523702 
L 300.887576 192.66486 
L 301.565352 192.66486 
L 302.243128 184.667504 
L 302.920903 190.094281 
L 303.598679 190.665521 
L 304.276455 198.091636 
L 304.95423 184.667504 
L 305.632006 189.808661 
L 306.309782 193.807339 
L 306.987557 183.239405 
L 307.665333 190.665521 
L 308.343109 191.23676 
L 309.020884 189.237421 
L 309.69866 186.381223 
L 310.376436 190.379901 
L 311.054211 189.808661 
L 311.731987 189.808661 
L 312.409763 188.094942 
L 313.087538 189.808661 
L 313.765314 184.096264 
L 314.44309 189.523041 
L 315.120865 191.23676 
L 315.798641 194.949818 
L 316.476417 189.237421 
L 317.154192 188.380562 
L 317.831968 190.95114 
L 318.509744 184.953124 
L 319.187519 199.805355 
L 319.865295 189.237421 
L 320.543071 186.666843 
L 321.220846 186.666843 
L 321.898622 185.238744 
L 322.576398 190.95114 
L 323.254173 187.238083 
L 323.931949 191.808 
L 324.609725 190.379901 
L 325.2875 190.379901 
L 325.965276 191.23676 
L 326.643052 190.665521 
L 327.320827 190.379901 
L 327.998603 188.951802 
L 328.676379 186.952463 
L 329.354154 186.095603 
L 330.03193 191.808 
L 330.709706 186.666843 
L 331.387481 189.808661 
L 332.065257 189.523041 
L 332.743033 193.521719 
L 333.420809 188.380562 
L 334.098584 191.808 
L 334.77636 188.666182 
L 335.454136 186.381223 
L 336.131911 187.809322 
L 337.487463 192.09362 
L 338.165238 187.809322 
L 338.843014 190.379901 
L 339.52079 187.809322 
L 340.198565 198.377256 
L 340.876341 190.95114 
L 341.554117 192.09362 
L 342.231892 191.52238 
L 342.909668 196.377917 
L 343.587444 189.237421 
L 344.265219 192.37924 
L 344.942995 186.952463 
L 345.620771 193.236099 
L 346.298546 186.381223 
L 346.976322 189.237421 
L 347.654098 186.952463 
L 348.331873 190.95114 
L 349.009649 192.37924 
L 349.687425 194.664198 
L 350.3652 188.951802 
L 351.042976 192.09362 
L 351.720752 186.381223 
L 352.398527 191.808 
L 353.076303 195.806678 
L 353.754079 186.381223 
L 354.431854 192.66486 
L 355.10963 182.668165 
L 355.787406 192.37924 
L 356.465181 186.952463 
L 357.142957 184.381884 
L 357.820733 191.52238 
L 358.498508 193.807339 
L 359.176284 194.949818 
L 359.85406 181.811306 
L 360.531835 194.664198 
L 361.209611 189.808661 
L 361.887387 194.949818 
L 362.565162 191.808 
L 363.242938 189.237421 
L 363.920714 192.37924 
L 364.598489 189.237421 
L 365.276265 187.238083 
L 365.954041 196.377917 
L 366.631816 186.095603 
L 367.309592 192.66486 
L 367.987368 190.665521 
L 368.665143 192.37924 
L 369.342919 187.238083 
L 370.69847 195.235438 
L 371.376246 187.809322 
L 372.054022 190.665521 
L 372.731797 186.095603 
L 373.409573 190.95114 
L 374.087349 188.094942 
L 374.765124 188.380562 
L 375.4429 195.235438 
L 376.120676 190.665521 
L 376.798451 186.952463 
L 377.476227 186.952463 
L 378.154003 188.094942 
L 378.831778 181.811306 
L 379.509554 190.95114 
L 380.18733 189.237421 
L 380.865105 195.806678 
L 381.542881 194.664198 
L 382.220657 190.094281 
L 383.576208 193.236099 
L 384.253984 193.236099 
L 384.931759 187.809322 
L 385.609535 188.666182 
L 386.287311 186.381223 
L 386.965086 190.95114 
L 387.642862 187.238083 
L 388.320638 196.377917 
L 388.998413 188.951802 
L 389.676189 195.806678 
L 391.03174 190.379901 
L 391.709516 188.094942 
L 392.387292 191.808 
L 393.065067 188.380562 
L 393.742843 187.809322 
L 394.420619 190.665521 
L 395.098394 191.52238 
L 395.77617 186.952463 
L 396.453946 186.095603 
L 397.131721 194.664198 
L 397.809497 187.809322 
L 398.487273 188.951802 
L 398.487273 188.951802 
" clip-path="url(#pff1fb9f861)" style="fill: none; stroke: #1f77b4; stroke-width: 0.5; stroke-linecap: round"/>
   </g>
   <g id="patch_3">
    <path d="M 57.6 307.584 
L 57.6 41.472 
" style="fill: none; stroke: #ffffff; stroke-width: 0.8; stroke-linejoin: miter; stroke-linecap: square"/>
   </g>
   <g id="patch_4">
    <path d="M 414.72 307.584 
L 414.72 41.472 
" style="fill: none; stroke: #ffffff; stroke-width: 0.8; stroke-linejoin: miter; stroke-linecap: square"/>
   </g>
   <g id="patch_5">
    <path d="M 57.6 307.584 
L 414.72 307.584 
" style="fill: none; stroke: #ffffff; stroke-width: 0.8; stroke-linejoin: miter; stroke-linecap: square"/>
   </g>
   <g id="patch_6">
    <path d="M 57.6 41.472 
L 414.72 41.472 
" style="fill: none; stroke: #ffffff; stroke-width: 0.8; stroke-linejoin: miter; stroke-linecap: square"/>
   </g>
   <g id="text_15">
    <!-- akurasi top-1 terhadap checkpoint -->
    <g style="fill: #262626" transform="translate(132.87375 35.472) scale(0.12 -0.12)">
     <defs>
      <path id="DejaVuSans-61" d="M 2194 1759 
Q 1497 1759 1228 1600 
Q 959 1441 959 1056 
Q 959 750 1161 570 
Q 1363 391 1709 391 
Q 2188 391 2477 730 
Q 2766 1069 2766 1631 
L 2766 1759 
L 2194 1759 
z
M 3341 1997 
L 3341 0 
L 2766 0 
L 2766 531 
Q 2569 213 2275 61 
Q 1981 -91 1556 -91 
Q 1019 -91 701 211 
Q 384 513 384 1019 
Q 384 1609 779 1909 
Q 1175 2209 1959 2209 
L 2766 2209 
L 2766 2266 
Q 2766 2663 2505 2880 
Q 2244 3097 1772 3097 
Q 1472 3097 1187 3025 
Q 903 2953 641 2809 
L 641 3341 
Q 956 3463 1253 3523 
Q 1550 3584 1831 3584 
Q 2591 3584 2966 3190 
Q 3341 2797 3341 1997 
z
" transform="scale(0.015625)"/>
      <path id="DejaVuSans-6b" d="M 581 4863 
L 1159 4863 
L 1159 1991 
L 2875 3500 
L 3609 3500 
L 1753 1863 
L 3688 0 
L 2938 0 
L 1159 1709 
L 1159 0 
L 581 0 
L 581 4863 
z
" transform="scale(0.015625)"/>
      <path id="DejaVuSans-75" d="M 544 1381 
L 544 3500 
L 1119 3500 
L 1119 1403 
Q 1119 906 1312 657 
Q 1506 409 1894 409 
Q 2359 409 2629 706 
Q 2900 1003 2900 1516 
L 2900 3500 
L 3475 3500 
L 3475 0 
L 2900 0 
L 2900 538 
Q 2691 219 2414 64 
Q 2138 -91 1772 -91 
Q 1169 -91 856 284 
Q 544 659 544 1381 
z
M 1991 3584 
L 1991 3584 
z
" transform="scale(0.015625)"/>
      <path id="DejaVuSans-72" d="M 2631 2963 
Q 2534 3019 2420 3045 
Q 2306 3072 2169 3072 
Q 1681 3072 1420 2755 
Q 1159 2438 1159 1844 
L 1159 0 
L 581 0 
L 581 3500 
L 1159 3500 
L 1159 2956 
Q 1341 3275 1631 3429 
Q 1922 3584 2338 3584 
Q 2397 3584 2469 3576 
Q 2541 3569 2628 3553 
L 2631 2963 
z
" transform="scale(0.015625)"/>
      <path id="DejaVuSans-73" d="M 2834 3397 
L 2834 2853 
Q 2591 2978 2328 3040 
Q 2066 3103 1784 3103 
Q 1356 3103 1142 2972 
Q 928 2841 928 2578 
Q 928 2378 1081 2264 
Q 1234 2150 1697 2047 
L 1894 2003 
Q 2506 1872 2764 1633 
Q 3022 1394 3022 966 
Q 3022 478 2636 193 
Q 2250 -91 1575 -91 
Q 1294 -91 989 -36 
Q 684 19 347 128 
L 347 722 
Q 666 556 975 473 
Q 1284 391 1588 391 
Q 1994 391 2212 530 
Q 2431 669 2431 922 
Q 2431 1156 2273 1281 
Q 2116 1406 1581 1522 
L 1381 1569 
Q 847 1681 609 1914 
Q 372 2147 372 2553 
Q 372 3047 722 3315 
Q 1072 3584 1716 3584 
Q 2034 3584 2315 3537 
Q 2597 3491 2834 3397 
z
" transform="scale(0.015625)"/>
      <path id="DejaVuSans-69" d="M 603 3500 
L 1178 3500 
L 1178 0 
L 603 0 
L 603 3500 
z
M 603 4863 
L 1178 4863 
L 1178 4134 
L 603 4134 
L 603 4863 
z
" transform="scale(0.015625)"/>
      <path id="DejaVuSans-20" transform="scale(0.015625)"/>
      <path id="DejaVuSans-74" d="M 1172 4494 
L 1172 3500 
L 2356 3500 
L 2356 3053 
L 1172 3053 
L 1172 1153 
Q 1172 725 1289 603 
Q 1406 481 1766 481 
L 2356 481 
L 2356 0 
L 1766 0 
Q 1100 0 847 248 
Q 594 497 594 1153 
L 594 3053 
L 172 3053 
L 172 3500 
L 594 3500 
L 594 4494 
L 1172 4494 
z
" transform="scale(0.015625)"/>
      <path id="DejaVuSans-2d" d="M 313 2009 
L 1997 2009 
L 1997 1497 
L 313 1497 
L 313 2009 
z
" transform="scale(0.015625)"/>
      <path id="DejaVuSans-64" d="M 2906 2969 
L 2906 4863 
L 3481 4863 
L 3481 0 
L 2906 0 
L 2906 525 
Q 2725 213 2448 61 
Q 2172 -91 1784 -91 
Q 1150 -91 751 415 
Q 353 922 353 1747 
Q 353 2572 751 3078 
Q 1150 3584 1784 3584 
Q 2172 3584 2448 3432 
Q 2725 3281 2906 2969 
z
M 947 1747 
Q 947 1113 1208 752 
Q 1469 391 1925 391 
Q 2381 391 2643 752 
Q 2906 1113 2906 1747 
Q 2906 2381 2643 2742 
Q 2381 3103 1925 3103 
Q 1469 3103 1208 2742 
Q 947 2381 947 1747 
z
" transform="scale(0.015625)"/>
      <path id="DejaVuSans-6e" d="M 3513 2113 
L 3513 0 
L 2938 0 
L 2938 2094 
Q 2938 2591 2744 2837 
Q 2550 3084 2163 3084 
Q 1697 3084 1428 2787 
Q 1159 2491 1159 1978 
L 1159 0 
L 581 0 
L 581 3500 
L 1159 3500 
L 1159 2956 
Q 1366 3272 1645 3428 
Q 1925 3584 2291 3584 
Q 2894 3584 3203 3211 
Q 3513 2838 3513 2113 
z
" transform="scale(0.015625)"/>
     </defs>
     <use xlink:href="#DejaVuSans-61"/>
     <use xlink:href="#DejaVuSans-6b" x="61.279297"/>
     <use xlink:href="#DejaVuSans-75" x="116.064453"/>
     <use xlink:href="#DejaVuSans-72" x="179.443359"/>
     <use xlink:href="#DejaVuSans-61" x="220.556641"/>
     <use xlink:href="#DejaVuSans-73" x="281.835938"/>
     <use xlink:href="#DejaVuSans-69" x="333.935547"/>
     <use xlink:href="#DejaVuSans-20" x="361.71875"/>
     <use xlink:href="#DejaVuSans-74" x="393.505859"/>
     <use xlink:href="#DejaVuSans-6f" x="432.714844"/>
     <use xlink:href="#DejaVuSans-70" x="493.896484"/>
     <use xlink:href="#DejaVuSans-2d" x="557.373047"/>
     <use xlink:href="#DejaVuSans-31" x="593.457031"/>
     <use xlink:href="#DejaVuSans-20" x="657.080078"/>
     <use xlink:href="#DejaVuSans-74" x="688.867188"/>
     <use xlink:href="#DejaVuSans-65" x="728.076172"/>
     <use xlink:href="#DejaVuSans-72" x="789.599609"/>
     <use xlink:href="#DejaVuSans-68" x="828.962891"/>
     <use xlink:href="#DejaVuSans-61" x="892.341797"/>
     <use xlink:href="#DejaVuSans-64" x="953.621094"/>
     <use xlink:href="#DejaVuSans-61" x="1017.097656"/>
     <use xlink:href="#DejaVuSans-70" x="1078.376953"/>
     <use xlink:href="#DejaVuSans-20" x="1141.853516"/>
     <use xlink:href="#DejaVuSans-63" x="1173.640625"/>
     <use xlink:href="#DejaVuSans-68" x="1228.621094"/>
     <use xlink:href="#DejaVuSans-65" x="1292"/>
     <use xlink:href="#DejaVuSans-63" x="1353.523438"/>
     <use xlink:href="#DejaVuSans-6b" x="1408.503906"/>
     <use xlink:href="#DejaVuSans-70" x="1466.414062"/>
     <use xlink:href="#DejaVuSans-6f" x="1529.890625"/>
     <use xlink:href="#DejaVuSans-69" x="1591.072266"/>
     <use xlink:href="#DejaVuSans-6e" x="1618.855469"/>
     <use xlink:href="#DejaVuSans-74" x="1682.234375"/>
    </g>
   </g>
   <g id="legend_1">
    <g id="patch_7">
     <path d="M 221.624687 64.42825 
L 407.72 64.42825 
Q 409.72 64.42825 409.72 62.42825 
L 409.72 48.472 
Q 409.72 46.472 407.72 46.472 
L 221.624687 46.472 
Q 219.624687 46.472 219.624687 48.472 
L 219.624687 62.42825 
Q 219.624687 64.42825 221.624687 64.42825 
z
" style="fill: #eaeaf2; opacity: 0.8; stroke: #cccccc; stroke-linejoin: miter"/>
    </g>
    <g id="line2d_2">
     <path d="M 223.624687 54.570437 
L 233.624687 54.570437 
L 243.624687 54.570437 
" style="fill: none; stroke: #1f77b4; stroke-width: 0.5; stroke-linecap: round"/>
    </g>
    <g id="text_16">
     <!-- best-79/top1-0d4624_acc/top1 -->
     <g style="fill: #262626" transform="translate(251.624687 58.070437) scale(0.1 -0.1)">
      <defs>
       <path id="DejaVuSans-62" d="M 3116 1747 
Q 3116 2381 2855 2742 
Q 2594 3103 2138 3103 
Q 1681 3103 1420 2742 
Q 1159 2381 1159 1747 
Q 1159 1113 1420 752 
Q 1681 391 2138 391 
Q 2594 391 2855 752 
Q 3116 1113 3116 1747 
z
M 1159 2969 
Q 1341 3281 1617 3432 
Q 1894 3584 2278 3584 
Q 2916 3584 3314 3078 
Q 3713 2572 3713 1747 
Q 3713 922 3314 415 
Q 2916 -91 2278 -91 
Q 1894 -91 1617 61 
Q 1341 213 1159 525 
L 1159 0 
L 581 0 
L 581 4863 
L 1159 4863 
L 1159 2969 
z
" transform="scale(0.015625)"/>
       <path id="DejaVuSans-37" d="M 525 4666 
L 3525 4666 
L 3525 4397 
L 1831 0 
L 1172 0 
L 2766 4134 
L 525 4134 
L 525 4666 
z
" transform="scale(0.015625)"/>
       <path id="DejaVuSans-39" d="M 703 97 
L 703 672 
Q 941 559 1184 500 
Q 1428 441 1663 441 
Q 2288 441 2617 861 
Q 2947 1281 2994 2138 
Q 2813 1869 2534 1725 
Q 2256 1581 1919 1581 
Q 1219 1581 811 2004 
Q 403 2428 403 3163 
Q 403 3881 828 4315 
Q 1253 4750 1959 4750 
Q 2769 4750 3195 4129 
Q 3622 3509 3622 2328 
Q 3622 1225 3098 567 
Q 2575 -91 1691 -91 
Q 1453 -91 1209 -44 
Q 966 3 703 97 
z
M 1959 2075 
Q 2384 2075 2632 2365 
Q 2881 2656 2881 3163 
Q 2881 3666 2632 3958 
Q 2384 4250 1959 4250 
Q 1534 4250 1286 3958 
Q 1038 3666 1038 3163 
Q 1038 2656 1286 2365 
Q 1534 2075 1959 2075 
z
" transform="scale(0.015625)"/>
       <path id="DejaVuSans-2f" d="M 1625 4666 
L 2156 4666 
L 531 -594 
L 0 -594 
L 1625 4666 
z
" transform="scale(0.015625)"/>
       <path id="DejaVuSans-5f" d="M 3263 -1063 
L 3263 -1509 
L -63 -1509 
L -63 -1063 
L 3263 -1063 
z
" transform="scale(0.015625)"/>
      </defs>
      <use xlink:href="#DejaVuSans-62"/>
      <use xlink:href="#DejaVuSans-65" x="63.476562"/>
      <use xlink:href="#DejaVuSans-73" x="125"/>
      <use xlink:href="#DejaVuSans-74" x="177.099609"/>
      <use xlink:href="#DejaVuSans-2d" x="216.308594"/>
      <use xlink:href="#DejaVuSans-37" x="252.392578"/>
      <use xlink:href="#DejaVuSans-39" x="316.015625"/>
      <use xlink:href="#DejaVuSans-2f" x="379.638672"/>
      <use xlink:href="#DejaVuSans-74" x="413.330078"/>
      <use xlink:href="#DejaVuSans-6f" x="452.539062"/>
      <use xlink:href="#DejaVuSans-70" x="513.720703"/>
      <use xlink:href="#DejaVuSans-31" x="577.197266"/>
      <use xlink:href="#DejaVuSans-2d" x="640.820312"/>
      <use xlink:href="#DejaVuSans-30" x="676.904297"/>
      <use xlink:href="#DejaVuSans-64" x="740.527344"/>
      <use xlink:href="#DejaVuSans-34" x="804.003906"/>
      <use xlink:href="#DejaVuSans-36" x="867.626953"/>
      <use xlink:href="#DejaVuSans-32" x="931.25"/>
      <use xlink:href="#DejaVuSans-34" x="994.873047"/>
      <use xlink:href="#DejaVuSans-5f" x="1058.496094"/>
      <use xlink:href="#DejaVuSans-61" x="1108.496094"/>
      <use xlink:href="#DejaVuSans-63" x="1169.775391"/>
      <use xlink:href="#DejaVuSans-63" x="1224.755859"/>
      <use xlink:href="#DejaVuSans-2f" x="1279.736328"/>
      <use xlink:href="#DejaVuSans-74" x="1313.427734"/>
      <use xlink:href="#DejaVuSans-6f" x="1352.636719"/>
      <use xlink:href="#DejaVuSans-70" x="1413.818359"/>
      <use xlink:href="#DejaVuSans-31" x="1477.294922"/>
     </g>
    </g>
   </g>
  </g>
 </g>
 <defs>
  <clipPath id="pff1fb9f861">
   <rect x="57.6" y="41.472" width="357.12" height="266.112"/>
  </clipPath>
 </defs>
</svg>
