<?xml version="1.0" encoding="utf-8" standalone="no"?>
<!DOCTYPE svg PUBLIC "-//W3C//DTD SVG 1.1//EN"
  "http://www.w3.org/Graphics/SVG/1.1/DTD/svg11.dtd">
<svg xmlns:xlink="http://www.w3.org/1999/xlink" width="460.8pt" height="345.6pt" viewBox="0 0 460.8 345.6" xmlns="http://www.w3.org/2000/svg" version="1.1">
 <metadata>
  <rdf:RDF xmlns:dc="http://purl.org/dc/elements/1.1/" xmlns:cc="http://creativecommons.org/ns#" xmlns:rdf="http://www.w3.org/1999/02/22-rdf-syntax-ns#">
   <cc:Work>
    <dc:type rdf:resource="http://purl.org/dc/dcmitype/StillImage"/>
    <dc:date>2024-05-02T07:56:08.279450</dc:date>
    <dc:format>image/svg+xml</dc:format>
    <dc:creator>
     <cc:Agent>
      <dc:title>Matplotlib v3.7.2, https://matplotlib.org/</dc:title>
     </cc:Agent>
    </dc:creator>
   </cc:Work>
  </rdf:RDF>
 </metadata>
 <defs>
  <style type="text/css">*{stroke-linejoin: round; stroke-linecap: butt}</style>
 </defs>
 <g id="figure_1">
  <g id="patch_1">
   <path d="M 0 345.6 
L 460.8 345.6 
L 460.8 0 
L 0 0 
z
" style="fill: #ffffff"/>
  </g>
  <g id="axes_1">
   <g id="patch_2">
    <path d="M 57.6 307.584 
L 414.72 307.584 
L 414.72 41.472 
L 57.6 41.472 
z
" style="fill: #eaeaf2"/>
   </g>
   <g id="matplotlib.axis_1">
    <g id="xtick_1">
     <g id="text_1">
      <!-- 0 -->
      <g style="fill: #262626" transform="translate(69.973702 322.182437) scale(0.1 -0.1)">
       <defs>
        <path id="DejaVuSans-30" d="M 2034 4250 
Q 1547 4250 1301 3770 
Q 1056 3291 1056 2328 
Q 1056 1369 1301 889 
Q 1547 409 2034 409 
Q 2525 409 2770 889 
Q 3016 1369 3016 2328 
Q 3016 3291 2770 3770 
Q 2525 4250 2034 4250 
z
M 2034 4750 
Q 2819 4750 3233 4129 
Q 3647 3509 3647 2328 
Q 3647 1150 3233 529 
Q 2819 -91 2034 -91 
Q 1250 -91 836 529 
Q 422 1150 422 2328 
Q 422 3509 836 4129 
Q 1250 4750 2034 4750 
z
" transform="scale(0.015625)"/>
       </defs>
       <use xlink:href="#DejaVuSans-30"/>
      </g>
     </g>
    </g>
    <g id="xtick_2">
     <g id="text_2">
      <!-- 100 -->
      <g style="fill: #262626" transform="translate(131.388769 322.182437) scale(0.1 -0.1)">
       <defs>
        <path id="DejaVuSans-31" d="M 794 531 
L 1825 531 
L 1825 4091 
L 703 3866 
L 703 4441 
L 1819 4666 
L 2450 4666 
L 2450 531 
L 3481 531 
L 3481 0 
L 794 0 
L 794 531 
z
" transform="scale(0.015625)"/>
       </defs>
       <use xlink:href="#DejaVuSans-31"/>
       <use xlink:href="#DejaVuSans-30" x="63.623047"/>
       <use xlink:href="#DejaVuSans-30" x="127.246094"/>
      </g>
     </g>
    </g>
    <g id="xtick_3">
     <g id="text_3">
      <!-- 200 -->
      <g style="fill: #262626" transform="translate(199.166335 322.182437) scale(0.1 -0.1)">
       <defs>
        <path id="DejaVuSans-32" d="M 1228 531 
L 3431 531 
L 3431 0 
L 469 0 
L 469 531 
Q 828 903 1448 1529 
Q 2069 2156 2228 2338 
Q 2531 2678 2651 2914 
Q 2772 3150 2772 3378 
Q 2772 3750 2511 3984 
Q 2250 4219 1831 4219 
Q 1534 4219 1204 4116 
Q 875 4013 500 3803 
L 500 4441 
Q 881 4594 1212 4672 
Q 1544 4750 1819 4750 
Q 2544 4750 2975 4387 
Q 3406 4025 3406 3419 
Q 3406 3131 3298 2873 
Q 3191 2616 2906 2266 
Q 2828 2175 2409 1742 
Q 1991 1309 1228 531 
z
" transform="scale(0.015625)"/>
       </defs>
       <use xlink:href="#DejaVuSans-32"/>
       <use xlink:href="#DejaVuSans-30" x="63.623047"/>
       <use xlink:href="#DejaVuSans-30" x="127.246094"/>
      </g>
     </g>
    </g>
    <g id="xtick_4">
     <g id="text_4">
      <!-- 300 -->
      <g style="fill: #262626" transform="translate(266.943902 322.182437) scale(0.1 -0.1)">
       <defs>
        <path id="DejaVuSans-33" d="M 2597 2516 
Q 3050 2419 3304 2112 
Q 3559 1806 3559 1356 
Q 3559 666 3084 287 
Q 2609 -91 1734 -91 
Q 1441 -91 1130 -33 
Q 819 25 488 141 
L 488 750 
Q 750 597 1062 519 
Q 1375 441 1716 441 
Q 2309 441 2620 675 
Q 2931 909 2931 1356 
Q 2931 1769 2642 2001 
Q 2353 2234 1838 2234 
L 1294 2234 
L 1294 2753 
L 1863 2753 
Q 2328 2753 2575 2939 
Q 2822 3125 2822 3475 
Q 2822 3834 2567 4026 
Q 2313 4219 1838 4219 
Q 1578 4219 1281 4162 
Q 984 4106 628 3988 
L 628 4550 
Q 988 4650 1302 4700 
Q 1616 4750 1894 4750 
Q 2613 4750 3031 4423 
Q 3450 4097 3450 3541 
Q 3450 3153 3228 2886 
Q 3006 2619 2597 2516 
z
" transform="scale(0.015625)"/>
       </defs>
       <use xlink:href="#DejaVuSans-33"/>
       <use xlink:href="#DejaVuSans-30" x="63.623047"/>
       <use xlink:href="#DejaVuSans-30" x="127.246094"/>
      </g>
     </g>
    </g>
    <g id="xtick_5">
     <g id="text_5">
      <!-- 400 -->
      <g style="fill: #262626" transform="translate(334.721469 322.182437) scale(0.1 -0.1)">
       <defs>
        <path id="DejaVuSans-34" d="M 2419 4116 
L 825 1625 
L 2419 1625 
L 2419 4116 
z
M 2253 4666 
L 3047 4666 
L 3047 1625 
L 3713 1625 
L 3713 1100 
L 3047 1100 
L 3047 0 
L 2419 0 
L 2419 1100 
L 313 1100 
L 313 1709 
L 2253 4666 
z
" transform="scale(0.015625)"/>
       </defs>
       <use xlink:href="#DejaVuSans-34"/>
       <use xlink:href="#DejaVuSans-30" x="63.623047"/>
       <use xlink:href="#DejaVuSans-30" x="127.246094"/>
      </g>
     </g>
    </g>
    <g id="xtick_6">
     <g id="text_6">
      <!-- 500 -->
      <g style="fill: #262626" transform="translate(402.499036 322.182437) scale(0.1 -0.1)">
       <defs>
        <path id="DejaVuSans-35" d="M 691 4666 
L 3169 4666 
L 3169 4134 
L 1269 4134 
L 1269 2991 
Q 1406 3038 1543 3061 
Q 1681 3084 1819 3084 
Q 2600 3084 3056 2656 
Q 3513 2228 3513 1497 
Q 3513 744 3044 326 
Q 2575 -91 1722 -91 
Q 1428 -91 1123 -41 
Q 819 9 494 109 
L 494 744 
Q 775 591 1075 516 
Q 1375 441 1709 441 
Q 2250 441 2565 725 
Q 2881 1009 2881 1497 
Q 2881 1984 2565 2268 
Q 2250 2553 1709 2553 
Q 1456 2553 1204 2497 
Q 953 2441 691 2322 
L 691 4666 
z
" transform="scale(0.015625)"/>
       </defs>
       <use xlink:href="#DejaVuSans-35"/>
       <use xlink:href="#DejaVuSans-30" x="63.623047"/>
       <use xlink:href="#DejaVuSans-30" x="127.246094"/>
      </g>
     </g>
    </g>
    <g id="text_7">
     <!-- epoch -->
     <g style="fill: #262626" transform="translate(220.931875 335.860562) scale(0.1 -0.1)">
      <defs>
       <path id="DejaVuSans-65" d="M 3597 1894 
L 3597 1613 
L 953 1613 
Q 991 1019 1311 708 
Q 1631 397 2203 397 
Q 2534 397 2845 478 
Q 3156 559 3463 722 
L 3463 178 
Q 3153 47 2828 -22 
Q 2503 -91 2169 -91 
Q 1331 -91 842 396 
Q 353 884 353 1716 
Q 353 2575 817 3079 
Q 1281 3584 2069 3584 
Q 2775 3584 3186 3129 
Q 3597 2675 3597 1894 
z
M 3022 2063 
Q 3016 2534 2758 2815 
Q 2500 3097 2075 3097 
Q 1594 3097 1305 2825 
Q 1016 2553 972 2059 
L 3022 2063 
z
" transform="scale(0.015625)"/>
       <path id="DejaVuSans-70" d="M 1159 525 
L 1159 -1331 
L 581 -1331 
L 581 3500 
L 1159 3500 
L 1159 2969 
Q 1341 3281 1617 3432 
Q 1894 3584 2278 3584 
Q 2916 3584 3314 3078 
Q 3713 2572 3713 1747 
Q 3713 922 3314 415 
Q 2916 -91 2278 -91 
Q 1894 -91 1617 61 
Q 1341 213 1159 525 
z
M 3116 1747 
Q 3116 2381 2855 2742 
Q 2594 3103 2138 3103 
Q 1681 3103 1420 2742 
Q 1159 2381 1159 1747 
Q 1159 1113 1420 752 
Q 1681 391 2138 391 
Q 2594 391 2855 752 
Q 3116 1113 3116 1747 
z
" transform="scale(0.015625)"/>
       <path id="DejaVuSans-6f" d="M 1959 3097 
Q 1497 3097 1228 2736 
Q 959 2375 959 1747 
Q 959 1119 1226 758 
Q 1494 397 1959 397 
Q 2419 397 2687 759 
Q 2956 1122 2956 1747 
Q 2956 2369 2687 2733 
Q 2419 3097 1959 3097 
z
M 1959 3584 
Q 2709 3584 3137 3096 
Q 3566 2609 3566 1747 
Q 3566 888 3137 398 
Q 2709 -91 1959 -91 
Q 1206 -91 779 398 
Q 353 888 353 1747 
Q 353 2609 779 3096 
Q 1206 3584 1959 3584 
z
" transform="scale(0.015625)"/>
       <path id="DejaVuSans-63" d="M 3122 3366 
L 3122 2828 
Q 2878 2963 2633 3030 
Q 2388 3097 2138 3097 
Q 1578 3097 1268 2742 
Q 959 2388 959 1747 
Q 959 1106 1268 751 
Q 1578 397 2138 397 
Q 2388 397 2633 464 
Q 2878 531 3122 666 
L 3122 134 
Q 2881 22 2623 -34 
Q 2366 -91 2075 -91 
Q 1284 -91 818 406 
Q 353 903 353 1747 
Q 353 2603 823 3093 
Q 1294 3584 2113 3584 
Q 2378 3584 2631 3529 
Q 2884 3475 3122 3366 
z
" transform="scale(0.015625)"/>
       <path id="DejaVuSans-68" d="M 3513 2113 
L 3513 0 
L 2938 0 
L 2938 2094 
Q 2938 2591 2744 2837 
Q 2550 3084 2163 3084 
Q 1697 3084 1428 2787 
Q 1159 2491 1159 1978 
L 1159 0 
L 581 0 
L 581 4863 
L 1159 4863 
L 1159 2956 
Q 1366 3272 1645 3428 
Q 1925 3584 2291 3584 
Q 2894 3584 3203 3211 
Q 3513 2838 3513 2113 
z
" transform="scale(0.015625)"/>
      </defs>
      <use xlink:href="#DejaVuSans-65"/>
      <use xlink:href="#DejaVuSans-70" x="61.523438"/>
      <use xlink:href="#DejaVuSans-6f" x="125"/>
      <use xlink:href="#DejaVuSans-63" x="186.181641"/>
      <use xlink:href="#DejaVuSans-68" x="241.162109"/>
     </g>
    </g>
   </g>
   <g id="matplotlib.axis_2">
    <g id="ytick_1">
     <g id="text_8">
      <!-- 0.0 -->
      <g style="fill: #262626" transform="translate(34.696875 302.778186) scale(0.1 -0.1)">
       <defs>
        <path id="DejaVuSans-2e" d="M 684 794 
L 1344 794 
L 1344 0 
L 684 0 
L 684 794 
z
" transform="scale(0.015625)"/>
       </defs>
       <use xlink:href="#DejaVuSans-30"/>
       <use xlink:href="#DejaVuSans-2e" x="63.623047"/>
       <use xlink:href="#DejaVuSans-30" x="95.410156"/>
      </g>
     </g>
    </g>
    <g id="ytick_2">
     <g id="text_9">
      <!-- 0.2 -->
      <g style="fill: #262626" transform="translate(34.696875 269.947461) scale(0.1 -0.1)">
       <use xlink:href="#DejaVuSans-30"/>
       <use xlink:href="#DejaVuSans-2e" x="63.623047"/>
       <use xlink:href="#DejaVuSans-32" x="95.410156"/>
      </g>
     </g>
    </g>
    <g id="ytick_3">
     <g id="text_10">
      <!-- 0.4 -->
      <g style="fill: #262626" transform="translate(34.696875 237.116736) scale(0.1 -0.1)">
       <use xlink:href="#DejaVuSans-30"/>
       <use xlink:href="#DejaVuSans-2e" x="63.623047"/>
       <use xlink:href="#DejaVuSans-34" x="95.410156"/>
      </g>
     </g>
    </g>
    <g id="ytick_4">
     <g id="text_11">
      <!-- 0.6 -->
      <g style="fill: #262626" transform="translate(34.696875 204.286011) scale(0.1 -0.1)">
       <defs>
        <path id="DejaVuSans-36" d="M 2113 2584 
Q 1688 2584 1439 2293 
Q 1191 2003 1191 1497 
Q 1191 994 1439 701 
Q 1688 409 2113 409 
Q 2538 409 2786 701 
Q 3034 994 3034 1497 
Q 3034 2003 2786 2293 
Q 2538 2584 2113 2584 
z
M 3366 4563 
L 3366 3988 
Q 3128 4100 2886 4159 
Q 2644 4219 2406 4219 
Q 1781 4219 1451 3797 
Q 1122 3375 1075 2522 
Q 1259 2794 1537 2939 
Q 1816 3084 2150 3084 
Q 2853 3084 3261 2657 
Q 3669 2231 3669 1497 
Q 3669 778 3244 343 
Q 2819 -91 2113 -91 
Q 1303 -91 875 529 
Q 447 1150 447 2328 
Q 447 3434 972 4092 
Q 1497 4750 2381 4750 
Q 2619 4750 2861 4703 
Q 3103 4656 3366 4563 
z
" transform="scale(0.015625)"/>
       </defs>
       <use xlink:href="#DejaVuSans-30"/>
       <use xlink:href="#DejaVuSans-2e" x="63.623047"/>
       <use xlink:href="#DejaVuSans-36" x="95.410156"/>
      </g>
     </g>
    </g>
    <g id="ytick_5">
     <g id="text_12">
      <!-- 0.8 -->
      <g style="fill: #262626" transform="translate(34.696875 171.455286) scale(0.1 -0.1)">
       <defs>
        <path id="DejaVuSans-38" d="M 2034 2216 
Q 1584 2216 1326 1975 
Q 1069 1734 1069 1313 
Q 1069 891 1326 650 
Q 1584 409 2034 409 
Q 2484 409 2743 651 
Q 3003 894 3003 1313 
Q 3003 1734 2745 1975 
Q 2488 2216 2034 2216 
z
M 1403 2484 
Q 997 2584 770 2862 
Q 544 3141 544 3541 
Q 544 4100 942 4425 
Q 1341 4750 2034 4750 
Q 2731 4750 3128 4425 
Q 3525 4100 3525 3541 
Q 3525 3141 3298 2862 
Q 3072 2584 2669 2484 
Q 3125 2378 3379 2068 
Q 3634 1759 3634 1313 
Q 3634 634 3220 271 
Q 2806 -91 2034 -91 
Q 1263 -91 848 271 
Q 434 634 434 1313 
Q 434 1759 690 2068 
Q 947 2378 1403 2484 
z
M 1172 3481 
Q 1172 3119 1398 2916 
Q 1625 2713 2034 2713 
Q 2441 2713 2670 2916 
Q 2900 3119 2900 3481 
Q 2900 3844 2670 4047 
Q 2441 4250 2034 4250 
Q 1625 4250 1398 4047 
Q 1172 3844 1172 3481 
z
" transform="scale(0.015625)"/>
       </defs>
       <use xlink:href="#DejaVuSans-30"/>
       <use xlink:href="#DejaVuSans-2e" x="63.623047"/>
       <use xlink:href="#DejaVuSans-38" x="95.410156"/>
      </g>
     </g>
    </g>
    <g id="ytick_6">
     <g id="text_13">
      <!-- 1.0 -->
      <g style="fill: #262626" transform="translate(34.696875 138.624561) scale(0.1 -0.1)">
       <use xlink:href="#DejaVuSans-31"/>
       <use xlink:href="#DejaVuSans-2e" x="63.623047"/>
       <use xlink:href="#DejaVuSans-30" x="95.410156"/>
      </g>
     </g>
    </g>
    <g id="ytick_7">
     <g id="text_14">
      <!-- 1.2 -->
      <g style="fill: #262626" transform="translate(34.696875 105.793836) scale(0.1 -0.1)">
       <use xlink:href="#DejaVuSans-31"/>
       <use xlink:href="#DejaVuSans-2e" x="63.623047"/>
       <use xlink:href="#DejaVuSans-32" x="95.410156"/>
      </g>
     </g>
    </g>
    <g id="ytick_8">
     <g id="text_15">
      <!-- 1.4 -->
      <g style="fill: #262626" transform="translate(34.696875 72.963111) scale(0.1 -0.1)">
       <use xlink:href="#DejaVuSans-31"/>
       <use xlink:href="#DejaVuSans-2e" x="63.623047"/>
       <use xlink:href="#DejaVuSans-34" x="95.410156"/>
      </g>
     </g>
    </g>
   </g>
   <g id="line2d_1">
    <path d="M 73.832727 53.568 
L 74.510503 74.160994 
L 75.188279 81.291743 
L 75.866054 98.776972 
L 76.54383 124.65894 
L 77.221606 157.719116 
L 77.899381 184.579267 
L 78.577157 186.685348 
L 79.254933 182.907601 
L 79.932708 187.68542 
L 80.610484 195.816499 
L 81.28826 187.380176 
L 81.966035 219.800742 
L 82.643811 197.445349 
L 83.321587 191.057188 
L 83.999362 224.284078 
L 84.677138 213.952543 
L 85.354914 222.088806 
L 86.032689 219.858512 
L 86.710465 232.824942 
L 87.388241 229.078483 
L 88.066016 220.275208 
L 88.743792 208.559518 
L 89.421568 221.869943 
L 90.099343 222.310726 
L 90.777119 221.686844 
L 91.454895 225.171767 
L 92.13267 202.226469 
L 92.810446 234.916711 
L 93.488222 230.570079 
L 94.165997 217.790044 
L 94.843773 219.290943 
L 95.521549 221.596919 
L 96.199324 238.131763 
L 96.8771 229.292383 
L 97.554876 233.302671 
L 98.232651 225.529867 
L 98.910427 224.901393 
L 99.588203 245.707207 
L 100.265978 250.232331 
L 100.943754 246.214354 
L 101.62153 233.180084 
L 102.299305 259.853166 
L 102.977081 225.518833 
L 103.654857 236.479147 
L 104.332632 220.008807 
L 105.010408 242.250914 
L 105.688184 248.55813 
L 106.365959 252.584739 
L 107.043735 230.490148 
L 107.721511 234.00255 
L 108.399286 235.962632 
L 109.077062 267.174678 
L 109.754838 241.813222 
L 110.432613 259.671937 
L 111.110389 239.939905 
L 111.788165 260.104271 
L 112.46594 251.942878 
L 113.143716 258.687432 
L 113.821492 249.642518 
L 114.499267 261.917611 
L 115.177043 245.818855 
L 115.854819 256.947872 
L 116.532594 255.414621 
L 117.21037 257.782052 
L 117.888146 258.208284 
L 118.565921 245.072471 
L 119.243697 249.370191 
L 119.921473 249.273212 
L 120.599248 231.559902 
L 121.277024 260.303917 
L 121.9548 246.001446 
L 122.632575 261.871122 
L 123.310351 259.165961 
L 123.988127 266.838247 
L 124.665902 259.863247 
L 125.343678 270.7794 
L 126.021454 276.119596 
L 126.699229 249.5715 
L 127.377005 263.263892 
L 128.054781 257.056836 
L 128.732556 267.279004 
L 129.410332 254.730796 
L 130.088108 251.574508 
L 130.765883 271.030403 
L 131.443659 264.212565 
L 132.121435 274.636013 
L 132.79921 257.162516 
L 133.476986 258.159546 
L 134.154762 270.898274 
L 134.832537 255.872988 
L 135.510313 254.55454 
L 136.188089 254.212101 
L 136.865864 262.422809 
L 137.54364 254.924729 
L 138.221416 268.375128 
L 138.899191 270.851791 
L 139.576967 271.251119 
L 140.254743 261.34207 
L 140.932519 254.662049 
L 141.610294 269.665495 
L 142.28807 269.753004 
L 142.965846 265.465554 
L 143.643621 267.263455 
L 144.321397 250.349616 
L 144.999173 257.912559 
L 145.676948 276.918916 
L 146.354724 259.815228 
L 147.0325 264.500696 
L 147.710275 277.469151 
L 148.388051 265.463685 
L 149.065827 274.390637 
L 149.743602 271.889957 
L 150.421378 253.759942 
L 151.099154 274.596814 
L 151.776929 268.613889 
L 152.454705 277.261559 
L 153.132481 264.823563 
L 153.810256 273.809909 
L 154.488032 275.009793 
L 155.165808 274.821023 
L 155.843583 271.469139 
L 156.521359 280.532605 
L 157.199135 274.675124 
L 157.87691 284.847088 
L 158.554686 276.115804 
L 159.232462 269.857437 
L 159.910237 282.681362 
L 160.588013 266.332111 
L 161.265789 277.181066 
L 161.943564 284.116427 
L 162.62134 278.110483 
L 163.299116 276.481807 
L 163.976891 281.930697 
L 164.654667 274.821015 
L 165.332443 274.676013 
L 166.010218 282.093647 
L 166.687994 275.877198 
L 168.043545 281.193006 
L 168.721321 276.800459 
L 170.076872 285.680053 
L 170.754648 273.315083 
L 171.432424 281.856136 
L 172.110199 275.15922 
L 172.787975 280.248879 
L 173.465751 275.166327 
L 174.143526 284.167259 
L 174.821302 281.57711 
L 175.499078 274.784446 
L 176.176853 279.638016 
L 176.854629 278.448586 
L 177.532405 269.647032 
L 178.21018 285.09524 
L 178.887956 281.512327 
L 179.565732 268.636745 
L 180.243507 281.343854 
L 180.921283 282.175037 
L 181.599059 281.24771 
L 182.276834 286.34438 
L 182.95461 279.786022 
L 183.632386 278.806548 
L 184.310161 279.256152 
L 184.987937 288.262339 
L 185.665713 287.275947 
L 186.343488 284.901461 
L 187.021264 278.643603 
L 187.69904 285.06652 
L 188.376815 281.099742 
L 189.054591 279.237051 
L 189.732367 282.677706 
L 190.410142 277.578333 
L 191.087918 289.85528 
L 191.765694 284.125183 
L 192.443469 280.469841 
L 193.121245 282.729486 
L 193.799021 279.126153 
L 194.476796 289.194081 
L 195.154572 282.578149 
L 195.832348 284.757007 
L 196.510123 281.548547 
L 197.187899 282.92584 
L 197.865675 287.35843 
L 198.54345 286.781001 
L 199.221226 287.817515 
L 199.899002 290.44577 
L 200.576777 282.233271 
L 201.254553 291.101485 
L 201.932329 288.848146 
L 202.610104 283.460597 
L 203.28788 284.07011 
L 203.965656 285.849397 
L 204.643431 288.892793 
L 205.998983 283.711668 
L 206.676758 287.620305 
L 208.03231 282.950356 
L 208.710085 290.218736 
L 209.387861 289.158788 
L 210.065637 280.603488 
L 210.743412 290.934346 
L 211.421188 292.171057 
L 212.098964 285.658995 
L 212.776739 287.292657 
L 213.454515 286.74917 
L 214.132291 288.278479 
L 214.810066 285.174726 
L 215.487842 289.496389 
L 216.165618 288.499279 
L 216.843393 285.86385 
L 217.521169 290.129271 
L 218.198945 290.44996 
L 218.87672 287.295126 
L 219.554496 292.646369 
L 220.232272 285.466492 
L 220.910047 285.700847 
L 221.587823 290.358786 
L 222.265599 289.05023 
L 222.943374 281.176395 
L 223.62115 286.757589 
L 224.298926 287.815005 
L 224.976701 292.235087 
L 225.654477 291.931757 
L 226.332253 280.192047 
L 227.010028 288.492807 
L 227.687804 291.674858 
L 228.36558 287.060796 
L 229.043355 290.550163 
L 229.721131 288.443513 
L 230.398907 283.46232 
L 231.076682 291.413254 
L 231.754458 291.120049 
L 232.432234 292.220856 
L 233.110009 289.23145 
L 233.787785 287.828134 
L 234.465561 287.828552 
L 235.143336 290.981564 
L 235.821112 284.517533 
L 236.498888 283.410142 
L 237.176664 290.428124 
L 238.532215 290.124901 
L 239.209991 287.897008 
L 239.887766 289.629322 
L 240.565542 290.348463 
L 241.243318 289.289994 
L 241.921093 289.528164 
L 242.598869 290.025348 
L 243.276645 289.050273 
L 243.95442 294.364764 
L 244.632196 295.488 
L 245.309972 292.543971 
L 245.987747 285.514808 
L 246.665523 295.390117 
L 247.343299 283.301981 
L 248.021074 287.501299 
L 248.69885 289.749235 
L 249.376626 288.204375 
L 250.054401 291.392093 
L 250.732177 292.426963 
L 251.409953 286.045425 
L 252.087728 289.850556 
L 252.765504 284.841042 
L 253.44328 283.410142 
L 254.121055 290.428124 
L 255.476607 290.124901 
L 256.154382 287.897008 
L 256.832158 289.629322 
L 257.509934 290.348463 
L 258.187709 289.289994 
L 258.865485 289.528164 
L 259.543261 290.025348 
L 260.221036 289.050273 
L 260.898812 294.364764 
L 261.576588 295.488 
L 262.254363 292.543971 
L 262.932139 285.514808 
L 263.609915 283.410142 
L 264.28769 290.428124 
L 265.643242 290.124901 
L 266.321017 287.897008 
L 266.998793 289.629322 
L 267.676569 290.348463 
L 268.354344 289.289994 
L 269.03212 289.528164 
L 269.709896 290.025348 
L 270.387671 289.050273 
L 271.065447 294.364764 
L 271.743223 295.488 
L 272.420998 292.543971 
L 273.098774 285.514808 
L 273.77655 295.390117 
L 274.454325 283.301981 
L 275.132101 287.501299 
L 275.809877 289.749235 
L 276.487652 288.204375 
L 277.165428 291.392093 
L 277.843204 292.426963 
L 278.520979 286.045425 
L 279.198755 289.850556 
L 279.876531 284.841042 
L 280.554306 293.467509 
L 281.232082 285.685053 
L 281.909858 287.930545 
L 283.265409 288.25792 
L 283.943185 291.697897 
L 284.62096 290.055561 
L 285.298736 288.906144 
L 285.976512 294.738197 
L 286.654287 289.632936 
L 287.332063 291.52139 
L 288.009839 291.343635 
L 288.687614 291.036765 
L 289.36539 288.709895 
L 290.043166 287.831024 
L 290.720941 292.697139 
L 292.076493 285.671659 
L 292.754268 290.937829 
L 293.432044 289.867994 
L 294.10982 288.22405 
L 294.787595 292.560624 
L 295.465371 292.803345 
L 296.143147 288.294033 
L 296.820922 294.24377 
L 297.498698 294.585755 
L 298.176474 290.230854 
L 298.854249 291.501311 
L 299.532025 289.458817 
L 300.209801 289.393618 
L 300.887576 286.723439 
L 301.565352 292.270654 
L 302.243128 290.060454 
L 302.920903 289.261132 
L 303.598679 291.611906 
L 304.276455 292.266252 
L 304.95423 289.257562 
L 305.632006 292.596789 
L 306.309782 287.522095 
L 306.987557 288.529628 
L 307.665333 292.627603 
L 308.343109 292.021609 
L 309.020884 283.901806 
L 309.69866 288.18561 
L 310.376436 288.327596 
L 311.054211 293.067589 
L 311.731987 292.472987 
L 312.409763 282.749931 
L 313.087538 289.106825 
L 313.765314 292.571434 
L 314.44309 287.57224 
L 315.120865 290.922655 
L 315.798641 288.997546 
L 316.476417 283.873973 
L 317.154192 291.532629 
L 317.831968 291.215186 
L 318.509744 292.258813 
L 319.187519 289.356431 
L 319.865295 287.877359 
L 320.543071 287.846622 
L 321.220846 290.983062 
L 321.898622 284.517533 
L 322.576398 285.846045 
L 323.254173 287.923424 
L 324.609725 293.280978 
L 325.2875 291.943187 
L 325.965276 289.703136 
L 327.320827 291.511974 
L 327.998603 293.415694 
L 328.676379 286.499697 
L 329.354154 292.452583 
L 330.03193 288.379608 
L 330.709706 289.039831 
L 331.387481 293.796559 
L 332.065257 292.266882 
L 332.743033 289.722742 
L 333.420809 289.421351 
L 334.098584 288.279969 
L 334.77636 290.941612 
L 335.454136 290.552724 
L 336.131911 289.853923 
L 336.809687 291.282996 
L 337.487463 293.784591 
L 338.165238 286.382436 
L 338.843014 293.118325 
L 339.52079 290.141353 
L 340.198565 293.115584 
L 340.876341 292.284226 
L 341.554117 291.900925 
L 342.231892 287.752178 
L 342.909668 291.633916 
L 343.587444 285.589177 
L 344.265219 282.925979 
L 344.942995 285.631464 
L 345.620771 288.929109 
L 346.298546 293.002912 
L 346.976322 287.280856 
L 347.654098 292.162438 
L 348.331873 294.786716 
L 349.009649 288.845783 
L 349.687425 286.615003 
L 351.042976 291.263708 
L 351.720752 289.248754 
L 352.398527 284.151887 
L 353.076303 293.625695 
L 353.754079 288.08834 
L 354.431854 291.409327 
L 355.10963 284.754006 
L 355.787406 290.615324 
L 356.465181 289.731745 
L 357.142957 289.097732 
L 357.820733 286.993013 
L 358.498508 289.332863 
L 359.176284 293.162943 
L 359.85406 291.377964 
L 360.531835 291.410627 
L 361.209611 288.387341 
L 361.887387 288.14961 
L 362.565162 289.130065 
L 363.242938 290.417572 
L 363.920714 289.169013 
L 364.598489 293.605275 
L 365.276265 295.208613 
L 366.631816 287.285391 
L 367.309592 290.671835 
L 367.987368 283.484279 
L 368.665143 287.099172 
L 369.342919 291.52947 
L 370.020695 284.935349 
L 370.69847 288.927839 
L 371.376246 287.429022 
L 372.054022 290.764302 
L 372.731797 288.572193 
L 373.409573 291.877283 
L 374.087349 287.918917 
L 374.765124 293.325108 
L 375.4429 289.511164 
L 376.120676 289.924173 
L 376.798451 285.211286 
L 377.476227 289.681821 
L 378.154003 292.914499 
L 378.831778 292.397595 
L 379.509554 286.548371 
L 380.18733 290.245622 
L 380.865105 290.282637 
L 381.542881 287.484441 
L 382.220657 293.286389 
L 382.898432 285.671415 
L 383.576208 290.321676 
L 384.253984 290.473681 
L 384.931759 290.781626 
L 385.609535 288.372779 
L 386.287311 292.804613 
L 386.965086 291.367597 
L 387.642862 292.581708 
L 388.320638 291.040731 
L 388.998413 288.749419 
L 389.676189 292.19652 
L 390.353965 289.513408 
L 391.03174 294.489644 
L 391.709516 290.605212 
L 392.387292 288.138295 
L 393.065067 288.597531 
L 393.742843 289.766728 
L 394.420619 289.122944 
L 395.098394 290.947705 
L 395.77617 287.182435 
L 396.453946 290.681883 
L 397.131721 292.139195 
L 397.809497 290.347749 
L 398.487273 290.345339 
L 398.487273 290.345339 
" clip-path="url(#pd11e99c7ff)" style="fill: none; stroke: #1f77b4; stroke-width: 0.5; stroke-linecap: round"/>
   </g>
   <g id="patch_3">
    <path d="M 57.6 307.584 
L 57.6 41.472 
" style="fill: none; stroke: #ffffff; stroke-width: 0.8; stroke-linejoin: miter; stroke-linecap: square"/>
   </g>
   <g id="patch_4">
    <path d="M 414.72 307.584 
L 414.72 41.472 
" style="fill: none; stroke: #ffffff; stroke-width: 0.8; stroke-linejoin: miter; stroke-linecap: square"/>
   </g>
   <g id="patch_5">
    <path d="M 57.6 307.584 
L 414.72 307.584 
" style="fill: none; stroke: #ffffff; stroke-width: 0.8; stroke-linejoin: miter; stroke-linecap: square"/>
   </g>
   <g id="patch_6">
    <path d="M 57.6 41.472 
L 414.72 41.472 
" style="fill: none; stroke: #ffffff; stroke-width: 0.8; stroke-linejoin: miter; stroke-linecap: square"/>
   </g>
   <g id="text_16">
    <!-- loss terhadap epoch -->
    <g style="fill: #262626" transform="translate(175.303125 35.472) scale(0.12 -0.12)">
     <defs>
      <path id="DejaVuSans-6c" d="M 603 4863 
L 1178 4863 
L 1178 0 
L 603 0 
L 603 4863 
z
" transform="scale(0.015625)"/>
      <path id="DejaVuSans-73" d="M 2834 3397 
L 2834 2853 
Q 2591 2978 2328 3040 
Q 2066 3103 1784 3103 
Q 1356 3103 1142 2972 
Q 928 2841 928 2578 
Q 928 2378 1081 2264 
Q 1234 2150 1697 2047 
L 1894 2003 
Q 2506 1872 2764 1633 
Q 3022 1394 3022 966 
Q 3022 478 2636 193 
Q 2250 -91 1575 -91 
Q 1294 -91 989 -36 
Q 684 19 347 128 
L 347 722 
Q 666 556 975 473 
Q 1284 391 1588 391 
Q 1994 391 2212 530 
Q 2431 669 2431 922 
Q 2431 1156 2273 1281 
Q 2116 1406 1581 1522 
L 1381 1569 
Q 847 1681 609 1914 
Q 372 2147 372 2553 
Q 372 3047 722 3315 
Q 1072 3584 1716 3584 
Q 2034 3584 2315 3537 
Q 2597 3491 2834 3397 
z
" transform="scale(0.015625)"/>
      <path id="DejaVuSans-20" transform="scale(0.015625)"/>
      <path id="DejaVuSans-74" d="M 1172 4494 
L 1172 3500 
L 2356 3500 
L 2356 3053 
L 1172 3053 
L 1172 1153 
Q 1172 725 1289 603 
Q 1406 481 1766 481 
L 2356 481 
L 2356 0 
L 1766 0 
Q 1100 0 847 248 
Q 594 497 594 1153 
L 594 3053 
L 172 3053 
L 172 3500 
L 594 3500 
L 594 4494 
L 1172 4494 
z
" transform="scale(0.015625)"/>
      <path id="DejaVuSans-72" d="M 2631 2963 
Q 2534 3019 2420 3045 
Q 2306 3072 2169 3072 
Q 1681 3072 1420 2755 
Q 1159 2438 1159 1844 
L 1159 0 
L 581 0 
L 581 3500 
L 1159 3500 
L 1159 2956 
Q 1341 3275 1631 3429 
Q 1922 3584 2338 3584 
Q 2397 3584 2469 3576 
Q 2541 3569 2628 3553 
L 2631 2963 
z
" transform="scale(0.015625)"/>
      <path id="DejaVuSans-61" d="M 2194 1759 
Q 1497 1759 1228 1600 
Q 959 1441 959 1056 
Q 959 750 1161 570 
Q 1363 391 1709 391 
Q 2188 391 2477 730 
Q 2766 1069 2766 1631 
L 2766 1759 
L 2194 1759 
z
M 3341 1997 
L 3341 0 
L 2766 0 
L 2766 531 
Q 2569 213 2275 61 
Q 1981 -91 1556 -91 
Q 1019 -91 701 211 
Q 384 513 384 1019 
Q 384 1609 779 1909 
Q 1175 2209 1959 2209 
L 2766 2209 
L 2766 2266 
Q 2766 2663 2505 2880 
Q 2244 3097 1772 3097 
Q 1472 3097 1187 3025 
Q 903 2953 641 2809 
L 641 3341 
Q 956 3463 1253 3523 
Q 1550 3584 1831 3584 
Q 2591 3584 2966 3190 
Q 3341 2797 3341 1997 
z
" transform="scale(0.015625)"/>
      <path id="DejaVuSans-64" d="M 2906 2969 
L 2906 4863 
L 3481 4863 
L 3481 0 
L 2906 0 
L 2906 525 
Q 2725 213 2448 61 
Q 2172 -91 1784 -91 
Q 1150 -91 751 415 
Q 353 922 353 1747 
Q 353 2572 751 3078 
Q 1150 3584 1784 3584 
Q 2172 3584 2448 3432 
Q 2725 3281 2906 2969 
z
M 947 1747 
Q 947 1113 1208 752 
Q 1469 391 1925 391 
Q 2381 391 2643 752 
Q 2906 1113 2906 1747 
Q 2906 2381 2643 2742 
Q 2381 3103 1925 3103 
Q 1469 3103 1208 2742 
Q 947 2381 947 1747 
z
" transform="scale(0.015625)"/>
     </defs>
     <use xlink:href="#DejaVuSans-6c"/>
     <use xlink:href="#DejaVuSans-6f" x="27.783203"/>
     <use xlink:href="#DejaVuSans-73" x="88.964844"/>
     <use xlink:href="#DejaVuSans-73" x="141.064453"/>
     <use xlink:href="#DejaVuSans-20" x="193.164062"/>
     <use xlink:href="#DejaVuSans-74" x="224.951172"/>
     <use xlink:href="#DejaVuSans-65" x="264.160156"/>
     <use xlink:href="#DejaVuSans-72" x="325.683594"/>
     <use xlink:href="#DejaVuSans-68" x="365.046875"/>
     <use xlink:href="#DejaVuSans-61" x="428.425781"/>
     <use xlink:href="#DejaVuSans-64" x="489.705078"/>
     <use xlink:href="#DejaVuSans-61" x="553.181641"/>
     <use xlink:href="#DejaVuSans-70" x="614.460938"/>
     <use xlink:href="#DejaVuSans-20" x="677.9375"/>
     <use xlink:href="#DejaVuSans-65" x="709.724609"/>
     <use xlink:href="#DejaVuSans-70" x="771.248047"/>
     <use xlink:href="#DejaVuSans-6f" x="834.724609"/>
     <use xlink:href="#DejaVuSans-63" x="895.90625"/>
     <use xlink:href="#DejaVuSans-68" x="950.886719"/>
    </g>
   </g>
   <g id="legend_1">
    <g id="patch_7">
     <path d="M 245.552812 64.42825 
L 407.72 64.42825 
Q 409.72 64.42825 409.72 62.42825 
L 409.72 48.472 
Q 409.72 46.472 407.72 46.472 
L 245.552812 46.472 
Q 243.552812 46.472 243.552812 48.472 
L 243.552812 62.42825 
Q 243.552812 64.42825 245.552812 64.42825 
z
" style="fill: #eaeaf2; opacity: 0.8; stroke: #cccccc; stroke-linejoin: miter"/>
    </g>
    <g id="line2d_2">
     <path d="M 247.552812 54.570437 
L 257.552812 54.570437 
L 267.552812 54.570437 
" style="fill: none; stroke: #1f77b4; stroke-width: 0.5; stroke-linecap: round"/>
    </g>
    <g id="text_17">
     <!-- best-79/top1-0d4624_loss -->
     <g style="fill: #262626" transform="translate(275.552812 58.070437) scale(0.1 -0.1)">
      <defs>
       <path id="DejaVuSans-62" d="M 3116 1747 
Q 3116 2381 2855 2742 
Q 2594 3103 2138 3103 
Q 1681 3103 1420 2742 
Q 1159 2381 1159 1747 
Q 1159 1113 1420 752 
Q 1681 391 2138 391 
Q 2594 391 2855 752 
Q 3116 1113 3116 1747 
z
M 1159 2969 
Q 1341 3281 1617 3432 
Q 1894 3584 2278 3584 
Q 2916 3584 3314 3078 
Q 3713 2572 3713 1747 
Q 3713 922 3314 415 
Q 2916 -91 2278 -91 
Q 1894 -91 1617 61 
Q 1341 213 1159 525 
L 1159 0 
L 581 0 
L 581 4863 
L 1159 4863 
L 1159 2969 
z
" transform="scale(0.015625)"/>
       <path id="DejaVuSans-2d" d="M 313 2009 
L 1997 2009 
L 1997 1497 
L 313 1497 
L 313 2009 
z
" transform="scale(0.015625)"/>
       <path id="DejaVuSans-37" d="M 525 4666 
L 3525 4666 
L 3525 4397 
L 1831 0 
L 1172 0 
L 2766 4134 
L 525 4134 
L 525 4666 
z
" transform="scale(0.015625)"/>
       <path id="DejaVuSans-39" d="M 703 97 
L 703 672 
Q 941 559 1184 500 
Q 1428 441 1663 441 
Q 2288 441 2617 861 
Q 2947 1281 2994 2138 
Q 2813 1869 2534 1725 
Q 2256 1581 1919 1581 
Q 1219 1581 811 2004 
Q 403 2428 403 3163 
Q 403 3881 828 4315 
Q 1253 4750 1959 4750 
Q 2769 4750 3195 4129 
Q 3622 3509 3622 2328 
Q 3622 1225 3098 567 
Q 2575 -91 1691 -91 
Q 1453 -91 1209 -44 
Q 966 3 703 97 
z
M 1959 2075 
Q 2384 2075 2632 2365 
Q 2881 2656 2881 3163 
Q 2881 3666 2632 3958 
Q 2384 4250 1959 4250 
Q 1534 4250 1286 3958 
Q 1038 3666 1038 3163 
Q 1038 2656 1286 2365 
Q 1534 2075 1959 2075 
z
" transform="scale(0.015625)"/>
       <path id="DejaVuSans-2f" d="M 1625 4666 
L 2156 4666 
L 531 -594 
L 0 -594 
L 1625 4666 
z
" transform="scale(0.015625)"/>
       <path id="DejaVuSans-5f" d="M 3263 -1063 
L 3263 -1509 
L -63 -1509 
L -63 -1063 
L 3263 -1063 
z
" transform="scale(0.015625)"/>
      </defs>
      <use xlink:href="#DejaVuSans-62"/>
      <use xlink:href="#DejaVuSans-65" x="63.476562"/>
      <use xlink:href="#DejaVuSans-73" x="125"/>
      <use xlink:href="#DejaVuSans-74" x="177.099609"/>
      <use xlink:href="#DejaVuSans-2d" x="216.308594"/>
      <use xlink:href="#DejaVuSans-37" x="252.392578"/>
      <use xlink:href="#DejaVuSans-39" x="316.015625"/>
      <use xlink:href="#DejaVuSans-2f" x="379.638672"/>
      <use xlink:href="#DejaVuSans-74" x="413.330078"/>
      <use xlink:href="#DejaVuSans-6f" x="452.539062"/>
      <use xlink:href="#DejaVuSans-70" x="513.720703"/>
      <use xlink:href="#DejaVuSans-31" x="577.197266"/>
      <use xlink:href="#DejaVuSans-2d" x="640.820312"/>
      <use xlink:href="#DejaVuSans-30" x="676.904297"/>
      <use xlink:href="#DejaVuSans-64" x="740.527344"/>
      <use xlink:href="#DejaVuSans-34" x="804.003906"/>
      <use xlink:href="#DejaVuSans-36" x="867.626953"/>
      <use xlink:href="#DejaVuSans-32" x="931.25"/>
      <use xlink:href="#DejaVuSans-34" x="994.873047"/>
      <use xlink:href="#DejaVuSans-5f" x="1058.496094"/>
      <use xlink:href="#DejaVuSans-6c" x="1108.496094"/>
      <use xlink:href="#DejaVuSans-6f" x="1136.279297"/>
      <use xlink:href="#DejaVuSans-73" x="1197.460938"/>
      <use xlink:href="#DejaVuSans-73" x="1249.560547"/>
     </g>
    </g>
   </g>
  </g>
 </g>
 <defs>
  <clipPath id="pd11e99c7ff">
   <rect x="57.6" y="41.472" width="357.12" height="266.112"/>
  </clipPath>
 </defs>
</svg>
