<?xml version="1.0" encoding="utf-8" standalone="no"?>
<!DOCTYPE svg PUBLIC "-//W3C//DTD SVG 1.1//EN"
  "http://www.w3.org/Graphics/SVG/1.1/DTD/svg11.dtd">
<svg xmlns:xlink="http://www.w3.org/1999/xlink" width="460.8pt" height="345.6pt" viewBox="0 0 460.8 345.6" xmlns="http://www.w3.org/2000/svg" version="1.1">
 <metadata>
  <rdf:RDF xmlns:dc="http://purl.org/dc/elements/1.1/" xmlns:cc="http://creativecommons.org/ns#" xmlns:rdf="http://www.w3.org/1999/02/22-rdf-syntax-ns#">
   <cc:Work>
    <dc:type rdf:resource="http://purl.org/dc/dcmitype/StillImage"/>
    <dc:date>2024-05-30T01:19:41.206657</dc:date>
    <dc:format>image/svg+xml</dc:format>
    <dc:creator>
     <cc:Agent>
      <dc:title>Matplotlib v3.7.2, https://matplotlib.org/</dc:title>
     </cc:Agent>
    </dc:creator>
   </cc:Work>
  </rdf:RDF>
 </metadata>
 <defs>
  <style type="text/css">*{stroke-linejoin: round; stroke-linecap: butt}</style>
 </defs>
 <g id="figure_1">
  <g id="patch_1">
   <path d="M 0 345.6 
L 460.8 345.6 
L 460.8 0 
L 0 0 
z
" style="fill: #ffffff"/>
  </g>
  <g id="axes_1">
   <g id="patch_2">
    <path d="M 57.6 307.584 
L 414.72 307.584 
L 414.72 41.472 
L 57.6 41.472 
z
" style="fill: #eaeaf2"/>
   </g>
   <g id="matplotlib.axis_1">
    <g id="xtick_1">
     <g id="text_1">
      <!-- 0 -->
      <g style="fill: #262626" transform="translate(70.482298 322.182437) scale(0.1 -0.1)">
       <defs>
        <path id="DejaVuSans-30" d="M 2034 4250 
Q 1547 4250 1301 3770 
Q 1056 3291 1056 2328 
Q 1056 1369 1301 889 
Q 1547 409 2034 409 
Q 2525 409 2770 889 
Q 3016 1369 3016 2328 
Q 3016 3291 2770 3770 
Q 2525 4250 2034 4250 
z
M 2034 4750 
Q 2819 4750 3233 4129 
Q 3647 3509 3647 2328 
Q 3647 1150 3233 529 
Q 2819 -91 2034 -91 
Q 1250 -91 836 529 
Q 422 1150 422 2328 
Q 422 3509 836 4129 
Q 1250 4750 2034 4750 
z
" transform="scale(0.015625)"/>
       </defs>
       <use xlink:href="#DejaVuSans-30"/>
      </g>
     </g>
    </g>
    <g id="xtick_2">
     <g id="text_2">
      <!-- 250 -->
      <g style="fill: #262626" transform="translate(106.414554 322.182437) scale(0.1 -0.1)">
       <defs>
        <path id="DejaVuSans-32" d="M 1228 531 
L 3431 531 
L 3431 0 
L 469 0 
L 469 531 
Q 828 903 1448 1529 
Q 2069 2156 2228 2338 
Q 2531 2678 2651 2914 
Q 2772 3150 2772 3378 
Q 2772 3750 2511 3984 
Q 2250 4219 1831 4219 
Q 1534 4219 1204 4116 
Q 875 4013 500 3803 
L 500 4441 
Q 881 4594 1212 4672 
Q 1544 4750 1819 4750 
Q 2544 4750 2975 4387 
Q 3406 4025 3406 3419 
Q 3406 3131 3298 2873 
Q 3191 2616 2906 2266 
Q 2828 2175 2409 1742 
Q 1991 1309 1228 531 
z
" transform="scale(0.015625)"/>
        <path id="DejaVuSans-35" d="M 691 4666 
L 3169 4666 
L 3169 4134 
L 1269 4134 
L 1269 2991 
Q 1406 3038 1543 3061 
Q 1681 3084 1819 3084 
Q 2600 3084 3056 2656 
Q 3513 2228 3513 1497 
Q 3513 744 3044 326 
Q 2575 -91 1722 -91 
Q 1428 -91 1123 -41 
Q 819 9 494 109 
L 494 744 
Q 775 591 1075 516 
Q 1375 441 1709 441 
Q 2250 441 2565 725 
Q 2881 1009 2881 1497 
Q 2881 1984 2565 2268 
Q 2250 2553 1709 2553 
Q 1456 2553 1204 2497 
Q 953 2441 691 2322 
L 691 4666 
z
" transform="scale(0.015625)"/>
       </defs>
       <use xlink:href="#DejaVuSans-32"/>
       <use xlink:href="#DejaVuSans-35" x="63.623047"/>
       <use xlink:href="#DejaVuSans-30" x="127.246094"/>
      </g>
     </g>
    </g>
    <g id="xtick_3">
     <g id="text_3">
      <!-- 500 -->
      <g style="fill: #262626" transform="translate(148.70931 322.182437) scale(0.1 -0.1)">
       <use xlink:href="#DejaVuSans-35"/>
       <use xlink:href="#DejaVuSans-30" x="63.623047"/>
       <use xlink:href="#DejaVuSans-30" x="127.246094"/>
      </g>
     </g>
    </g>
    <g id="xtick_4">
     <g id="text_4">
      <!-- 750 -->
      <g style="fill: #262626" transform="translate(191.004066 322.182437) scale(0.1 -0.1)">
       <defs>
        <path id="DejaVuSans-37" d="M 525 4666 
L 3525 4666 
L 3525 4397 
L 1831 0 
L 1172 0 
L 2766 4134 
L 525 4134 
L 525 4666 
z
" transform="scale(0.015625)"/>
       </defs>
       <use xlink:href="#DejaVuSans-37"/>
       <use xlink:href="#DejaVuSans-35" x="63.623047"/>
       <use xlink:href="#DejaVuSans-30" x="127.246094"/>
      </g>
     </g>
    </g>
    <g id="xtick_5">
     <g id="text_5">
      <!-- 1000 -->
      <g style="fill: #262626" transform="translate(230.117571 322.182437) scale(0.1 -0.1)">
       <defs>
        <path id="DejaVuSans-31" d="M 794 531 
L 1825 531 
L 1825 4091 
L 703 3866 
L 703 4441 
L 1819 4666 
L 2450 4666 
L 2450 531 
L 3481 531 
L 3481 0 
L 794 0 
L 794 531 
z
" transform="scale(0.015625)"/>
       </defs>
       <use xlink:href="#DejaVuSans-31"/>
       <use xlink:href="#DejaVuSans-30" x="63.623047"/>
       <use xlink:href="#DejaVuSans-30" x="127.246094"/>
       <use xlink:href="#DejaVuSans-30" x="190.869141"/>
      </g>
     </g>
    </g>
    <g id="xtick_6">
     <g id="text_6">
      <!-- 1250 -->
      <g style="fill: #262626" transform="translate(272.412327 322.182437) scale(0.1 -0.1)">
       <use xlink:href="#DejaVuSans-31"/>
       <use xlink:href="#DejaVuSans-32" x="63.623047"/>
       <use xlink:href="#DejaVuSans-35" x="127.246094"/>
       <use xlink:href="#DejaVuSans-30" x="190.869141"/>
      </g>
     </g>
    </g>
    <g id="xtick_7">
     <g id="text_7">
      <!-- 1500 -->
      <g style="fill: #262626" transform="translate(314.707083 322.182437) scale(0.1 -0.1)">
       <use xlink:href="#DejaVuSans-31"/>
       <use xlink:href="#DejaVuSans-35" x="63.623047"/>
       <use xlink:href="#DejaVuSans-30" x="127.246094"/>
       <use xlink:href="#DejaVuSans-30" x="190.869141"/>
      </g>
     </g>
    </g>
    <g id="xtick_8">
     <g id="text_8">
      <!-- 1750 -->
      <g style="fill: #262626" transform="translate(357.001839 322.182437) scale(0.1 -0.1)">
       <use xlink:href="#DejaVuSans-31"/>
       <use xlink:href="#DejaVuSans-37" x="63.623047"/>
       <use xlink:href="#DejaVuSans-35" x="127.246094"/>
       <use xlink:href="#DejaVuSans-30" x="190.869141"/>
      </g>
     </g>
    </g>
    <g id="xtick_9">
     <g id="text_9">
      <!-- 2000 -->
      <g style="fill: #262626" transform="translate(399.296595 322.182437) scale(0.1 -0.1)">
       <use xlink:href="#DejaVuSans-32"/>
       <use xlink:href="#DejaVuSans-30" x="63.623047"/>
       <use xlink:href="#DejaVuSans-30" x="127.246094"/>
       <use xlink:href="#DejaVuSans-30" x="190.869141"/>
      </g>
     </g>
    </g>
    <g id="text_10">
     <!-- epoch -->
     <g style="fill: #262626" transform="translate(220.931875 335.860562) scale(0.1 -0.1)">
      <defs>
       <path id="DejaVuSans-65" d="M 3597 1894 
L 3597 1613 
L 953 1613 
Q 991 1019 1311 708 
Q 1631 397 2203 397 
Q 2534 397 2845 478 
Q 3156 559 3463 722 
L 3463 178 
Q 3153 47 2828 -22 
Q 2503 -91 2169 -91 
Q 1331 -91 842 396 
Q 353 884 353 1716 
Q 353 2575 817 3079 
Q 1281 3584 2069 3584 
Q 2775 3584 3186 3129 
Q 3597 2675 3597 1894 
z
M 3022 2063 
Q 3016 2534 2758 2815 
Q 2500 3097 2075 3097 
Q 1594 3097 1305 2825 
Q 1016 2553 972 2059 
L 3022 2063 
z
" transform="scale(0.015625)"/>
       <path id="DejaVuSans-70" d="M 1159 525 
L 1159 -1331 
L 581 -1331 
L 581 3500 
L 1159 3500 
L 1159 2969 
Q 1341 3281 1617 3432 
Q 1894 3584 2278 3584 
Q 2916 3584 3314 3078 
Q 3713 2572 3713 1747 
Q 3713 922 3314 415 
Q 2916 -91 2278 -91 
Q 1894 -91 1617 61 
Q 1341 213 1159 525 
z
M 3116 1747 
Q 3116 2381 2855 2742 
Q 2594 3103 2138 3103 
Q 1681 3103 1420 2742 
Q 1159 2381 1159 1747 
Q 1159 1113 1420 752 
Q 1681 391 2138 391 
Q 2594 391 2855 752 
Q 3116 1113 3116 1747 
z
" transform="scale(0.015625)"/>
       <path id="DejaVuSans-6f" d="M 1959 3097 
Q 1497 3097 1228 2736 
Q 959 2375 959 1747 
Q 959 1119 1226 758 
Q 1494 397 1959 397 
Q 2419 397 2687 759 
Q 2956 1122 2956 1747 
Q 2956 2369 2687 2733 
Q 2419 3097 1959 3097 
z
M 1959 3584 
Q 2709 3584 3137 3096 
Q 3566 2609 3566 1747 
Q 3566 888 3137 398 
Q 2709 -91 1959 -91 
Q 1206 -91 779 398 
Q 353 888 353 1747 
Q 353 2609 779 3096 
Q 1206 3584 1959 3584 
z
" transform="scale(0.015625)"/>
       <path id="DejaVuSans-63" d="M 3122 3366 
L 3122 2828 
Q 2878 2963 2633 3030 
Q 2388 3097 2138 3097 
Q 1578 3097 1268 2742 
Q 959 2388 959 1747 
Q 959 1106 1268 751 
Q 1578 397 2138 397 
Q 2388 397 2633 464 
Q 2878 531 3122 666 
L 3122 134 
Q 2881 22 2623 -34 
Q 2366 -91 2075 -91 
Q 1284 -91 818 406 
Q 353 903 353 1747 
Q 353 2603 823 3093 
Q 1294 3584 2113 3584 
Q 2378 3584 2631 3529 
Q 2884 3475 3122 3366 
z
" transform="scale(0.015625)"/>
       <path id="DejaVuSans-68" d="M 3513 2113 
L 3513 0 
L 2938 0 
L 2938 2094 
Q 2938 2591 2744 2837 
Q 2550 3084 2163 3084 
Q 1697 3084 1428 2787 
Q 1159 2491 1159 1978 
L 1159 0 
L 581 0 
L 581 4863 
L 1159 4863 
L 1159 2956 
Q 1366 3272 1645 3428 
Q 1925 3584 2291 3584 
Q 2894 3584 3203 3211 
Q 3513 2838 3513 2113 
z
" transform="scale(0.015625)"/>
      </defs>
      <use xlink:href="#DejaVuSans-65"/>
      <use xlink:href="#DejaVuSans-70" x="61.523438"/>
      <use xlink:href="#DejaVuSans-6f" x="125"/>
      <use xlink:href="#DejaVuSans-63" x="186.181641"/>
      <use xlink:href="#DejaVuSans-68" x="241.162109"/>
     </g>
    </g>
   </g>
   <g id="matplotlib.axis_2">
    <g id="ytick_1">
     <g id="text_11">
      <!-- 0.0 -->
      <g style="fill: #262626" transform="translate(34.696875 299.629327) scale(0.1 -0.1)">
       <defs>
        <path id="DejaVuSans-2e" d="M 684 794 
L 1344 794 
L 1344 0 
L 684 0 
L 684 794 
z
" transform="scale(0.015625)"/>
       </defs>
       <use xlink:href="#DejaVuSans-30"/>
       <use xlink:href="#DejaVuSans-2e" x="63.623047"/>
       <use xlink:href="#DejaVuSans-30" x="95.410156"/>
      </g>
     </g>
    </g>
    <g id="ytick_2">
     <g id="text_12">
      <!-- 0.5 -->
      <g style="fill: #262626" transform="translate(34.696875 260.464767) scale(0.1 -0.1)">
       <use xlink:href="#DejaVuSans-30"/>
       <use xlink:href="#DejaVuSans-2e" x="63.623047"/>
       <use xlink:href="#DejaVuSans-35" x="95.410156"/>
      </g>
     </g>
    </g>
    <g id="ytick_3">
     <g id="text_13">
      <!-- 1.0 -->
      <g style="fill: #262626" transform="translate(34.696875 221.300207) scale(0.1 -0.1)">
       <use xlink:href="#DejaVuSans-31"/>
       <use xlink:href="#DejaVuSans-2e" x="63.623047"/>
       <use xlink:href="#DejaVuSans-30" x="95.410156"/>
      </g>
     </g>
    </g>
    <g id="ytick_4">
     <g id="text_14">
      <!-- 1.5 -->
      <g style="fill: #262626" transform="translate(34.696875 182.135647) scale(0.1 -0.1)">
       <use xlink:href="#DejaVuSans-31"/>
       <use xlink:href="#DejaVuSans-2e" x="63.623047"/>
       <use xlink:href="#DejaVuSans-35" x="95.410156"/>
      </g>
     </g>
    </g>
    <g id="ytick_5">
     <g id="text_15">
      <!-- 2.0 -->
      <g style="fill: #262626" transform="translate(34.696875 142.971088) scale(0.1 -0.1)">
       <use xlink:href="#DejaVuSans-32"/>
       <use xlink:href="#DejaVuSans-2e" x="63.623047"/>
       <use xlink:href="#DejaVuSans-30" x="95.410156"/>
      </g>
     </g>
    </g>
    <g id="ytick_6">
     <g id="text_16">
      <!-- 2.5 -->
      <g style="fill: #262626" transform="translate(34.696875 103.806528) scale(0.1 -0.1)">
       <use xlink:href="#DejaVuSans-32"/>
       <use xlink:href="#DejaVuSans-2e" x="63.623047"/>
       <use xlink:href="#DejaVuSans-35" x="95.410156"/>
      </g>
     </g>
    </g>
    <g id="ytick_7">
     <g id="text_17">
      <!-- 3.0 -->
      <g style="fill: #262626" transform="translate(34.696875 64.641968) scale(0.1 -0.1)">
       <defs>
        <path id="DejaVuSans-33" d="M 2597 2516 
Q 3050 2419 3304 2112 
Q 3559 1806 3559 1356 
Q 3559 666 3084 287 
Q 2609 -91 1734 -91 
Q 1441 -91 1130 -33 
Q 819 25 488 141 
L 488 750 
Q 750 597 1062 519 
Q 1375 441 1716 441 
Q 2309 441 2620 675 
Q 2931 909 2931 1356 
Q 2931 1769 2642 2001 
Q 2353 2234 1838 2234 
L 1294 2234 
L 1294 2753 
L 1863 2753 
Q 2328 2753 2575 2939 
Q 2822 3125 2822 3475 
Q 2822 3834 2567 4026 
Q 2313 4219 1838 4219 
Q 1578 4219 1281 4162 
Q 984 4106 628 3988 
L 628 4550 
Q 988 4650 1302 4700 
Q 1616 4750 1894 4750 
Q 2613 4750 3031 4423 
Q 3450 4097 3450 3541 
Q 3450 3153 3228 2886 
Q 3006 2619 2597 2516 
z
" transform="scale(0.015625)"/>
       </defs>
       <use xlink:href="#DejaVuSans-33"/>
       <use xlink:href="#DejaVuSans-2e" x="63.623047"/>
       <use xlink:href="#DejaVuSans-30" x="95.410156"/>
      </g>
     </g>
    </g>
   </g>
   <g id="line2d_1">
    <path d="M 73.832727 63.833723 
L 74.001906 53.568 
L 74.340264 115.411974 
L 74.509443 115.850854 
L 74.847801 117.172862 
L 75.01698 117.065177 
L 75.524518 117.758435 
L 75.862876 118.972407 
L 76.032055 118.831459 
L 76.201234 119.452924 
L 76.539592 118.340323 
L 76.708771 118.275539 
L 76.87795 118.364252 
L 77.047129 119.371315 
L 77.216308 119.267362 
L 77.385487 119.921262 
L 77.554666 119.973258 
L 77.723845 120.540259 
L 78.062203 118.493714 
L 78.56974 121.752427 
L 78.738919 119.628084 
L 78.908098 119.828587 
L 79.246456 127.910585 
L 79.415635 126.77303 
L 79.584814 121.973207 
L 79.753993 123.464223 
L 79.923172 123.288546 
L 80.092351 120.740288 
L 80.26153 126.010446 
L 80.430709 125.815947 
L 80.769067 140.192543 
L 81.107425 126.47023 
L 81.276604 129.117437 
L 81.445783 138.23808 
L 81.614962 140.820025 
L 81.784141 131.535973 
L 81.95332 132.92001 
L 82.291678 152.810802 
L 82.799216 160.839749 
L 82.968395 158.210396 
L 83.137574 152.137997 
L 83.306753 152.606729 
L 83.475932 157.10479 
L 83.645111 169.420897 
L 83.81429 166.029329 
L 83.983469 167.209665 
L 84.152648 175.344276 
L 84.321827 175.235745 
L 84.491006 172.220282 
L 84.829364 176.539607 
L 84.998543 177.072983 
L 85.336901 188.888968 
L 85.50608 190.53316 
L 85.675259 189.508974 
L 85.844438 187.607945 
L 86.013617 189.406102 
L 86.182796 194.020628 
L 86.351975 190.758054 
L 86.521154 190.791897 
L 87.028691 204.065582 
L 87.19787 210.319899 
L 87.367049 210.555447 
L 87.536228 212.295902 
L 87.705407 212.704716 
L 87.874586 211.398685 
L 88.212944 219.506936 
L 88.382123 217.476149 
L 88.551302 211.660427 
L 88.720481 209.79718 
L 88.88966 217.144548 
L 89.058839 219.54218 
L 89.397197 227.713697 
L 89.735555 230.53631 
L 90.073913 215.850999 
L 90.243093 216.704405 
L 90.412272 216.594132 
L 90.75063 223.809113 
L 90.919809 233.251321 
L 91.088988 234.666585 
L 91.258167 234.748365 
L 91.427346 233.225477 
L 91.596525 232.804969 
L 91.765704 238.851209 
L 92.104062 234.0306 
L 92.273241 234.348855 
L 92.611599 249.952135 
L 92.780778 248.007753 
L 92.949957 240.697889 
L 93.119136 238.597151 
L 93.457494 253.833218 
L 93.965031 258.980381 
L 94.13421 256.540217 
L 94.472568 259.223099 
L 94.641747 263.883806 
L 94.810926 261.103277 
L 94.980105 255.751182 
L 95.149284 255.648869 
L 95.318463 259.612662 
L 95.487642 255.869275 
L 95.826 260.278689 
L 95.995179 264.222371 
L 96.164358 264.068915 
L 96.333537 262.450731 
L 96.502716 266.935696 
L 96.671895 267.938247 
L 97.010253 273.107015 
L 97.179432 272.707209 
L 97.517791 232.642513 
L 97.856149 244.357778 
L 98.025328 245.933622 
L 98.871223 271.611777 
L 99.209581 230.424117 
L 99.37876 240.047258 
L 99.547939 256.540681 
L 100.055476 270.540671 
L 100.224655 270.535287 
L 100.393834 270.751375 
L 100.563013 270.560866 
L 100.732192 269.294795 
L 100.901371 271.105667 
L 101.239729 279.049586 
L 101.408908 279.788054 
L 101.578087 279.34359 
L 101.747266 279.623765 
L 102.085624 282.244522 
L 102.254803 281.810403 
L 102.593161 277.830858 
L 102.76234 278.59947 
L 102.931519 282.809744 
L 103.100698 283.851453 
L 103.269877 283.410704 
L 103.439056 284.851687 
L 103.608235 284.669436 
L 103.777414 282.269236 
L 104.115772 273.781244 
L 104.623309 283.526821 
L 105.300026 286.063079 
L 105.469205 286.174224 
L 105.638384 285.410087 
L 105.807563 285.301063 
L 106.145921 287.349296 
L 106.3151 286.836923 
L 106.484279 287.521751 
L 106.653458 286.757879 
L 106.822637 286.686656 
L 107.330174 288.919642 
L 107.499353 289.318106 
L 107.668532 288.69669 
L 108.00689 290.315171 
L 108.176069 288.79015 
L 108.345248 282.378424 
L 108.514427 257.155635 
L 108.683606 198.654532 
L 108.852785 191.64106 
L 109.191143 247.475343 
L 109.529501 270.166441 
L 110.206217 282.614163 
L 110.375396 284.225079 
L 110.544575 284.50238 
L 110.882933 286.144078 
L 111.052112 286.617065 
L 111.221291 287.487704 
L 111.39047 287.217959 
L 111.559649 286.604468 
L 111.728828 286.498316 
L 111.898007 286.550527 
L 112.067187 288.418347 
L 112.743903 289.539046 
L 112.913082 290.073791 
L 113.082261 290.091155 
L 113.25144 289.182481 
L 113.420619 289.7979 
L 113.589798 289.521419 
L 113.758977 289.760413 
L 113.928156 290.223196 
L 114.097335 291.145359 
L 114.266514 291.255749 
L 114.435693 291.092947 
L 114.604872 291.222893 
L 114.774051 290.981995 
L 114.94323 290.031648 
L 115.112409 287.444413 
L 115.281588 279.510594 
L 115.619946 286.134615 
L 115.958304 279.964399 
L 116.296662 285.438155 
L 116.465841 286.602853 
L 116.63502 289.047709 
L 117.142557 290.298182 
L 117.480915 291.841405 
L 117.650094 292.232069 
L 117.819273 292.309937 
L 117.988452 292.111135 
L 118.157631 290.86529 
L 118.32681 290.681702 
L 119.172705 292.83443 
L 119.341885 292.784152 
L 119.511064 292.952359 
L 119.680243 293.526388 
L 119.849422 293.429457 
L 120.18778 293.718171 
L 120.356959 293.749748 
L 120.695317 293.29651 
L 120.864496 293.120342 
L 121.372033 290.140482 
L 121.87957 292.352578 
L 122.048749 292.802295 
L 122.217928 292.550355 
L 122.556286 293.453637 
L 122.725465 291.622692 
L 123.063823 253.832899 
L 123.233002 260.765721 
L 123.402181 260.593944 
L 123.909718 281.029099 
L 124.248076 287.741716 
L 124.417255 287.813532 
L 124.586434 288.619914 
L 124.755613 288.629472 
L 124.924792 289.35192 
L 125.26315 288.593114 
L 125.601508 289.21513 
L 125.770687 286.936415 
L 125.939866 273.881449 
L 126.109045 269.429632 
L 126.447403 282.8708 
L 126.785762 287.781385 
L 126.954941 287.980899 
L 127.12412 286.859638 
L 127.293299 286.797759 
L 127.462478 286.010157 
L 127.800836 288.437707 
L 127.970015 290.169113 
L 128.139194 290.195693 
L 128.308373 291.949898 
L 128.646731 292.155837 
L 128.81591 293.005241 
L 129.661805 293.67504 
L 129.830984 293.790836 
L 130.000163 293.751158 
L 130.338521 294.222754 
L 130.5077 293.983547 
L 130.676879 294.324104 
L 130.846058 294.185017 
L 131.015237 294.276032 
L 131.184416 293.986714 
L 131.691953 294.453332 
L 132.030311 293.936737 
L 132.19949 294.17007 
L 132.876206 294.332523 
L 133.045385 294.45457 
L 133.214564 294.276881 
L 133.552922 294.40192 
L 134.06046 294.661255 
L 134.229639 294.53261 
L 134.567997 294.597097 
L 135.075534 294.364125 
L 135.244713 294.606129 
L 135.413892 294.593319 
L 135.583071 294.297335 
L 136.090608 294.551542 
L 136.259787 294.294887 
L 136.428966 294.299975 
L 136.936503 294.718854 
L 137.105682 294.662047 
L 137.274861 294.901058 
L 137.951577 294.101658 
L 138.459114 293.152129 
L 138.628293 293.319412 
L 138.797472 294.171798 
L 139.305009 294.820029 
L 139.643367 294.763713 
L 139.812546 294.444937 
L 139.981725 294.435243 
L 140.320083 294.81876 
L 140.489262 294.594726 
L 140.82762 294.799812 
L 140.996799 294.672762 
L 141.165978 294.82759 
L 141.335158 294.733164 
L 141.504337 294.507337 
L 141.673516 294.518628 
L 141.842695 294.909087 
L 142.011874 294.80173 
L 142.181053 294.853163 
L 142.350232 294.736695 
L 142.68859 294.883771 
L 143.365306 294.296296 
L 143.534485 294.616184 
L 143.872843 294.634621 
L 144.042022 294.757829 
L 144.211201 294.45193 
L 144.549559 294.777418 
L 145.564633 294.969228 
L 145.902991 294.986291 
L 146.07217 295.026005 
L 146.241349 294.893058 
L 146.918065 295.036955 
L 147.087244 294.850941 
L 147.256423 294.924534 
L 147.594781 294.630268 
L 147.933139 294.901814 
L 148.102318 294.878396 
L 148.271497 294.722891 
L 148.440676 294.77857 
L 148.779035 295.008883 
L 149.117393 295.037511 
L 149.455751 294.628371 
L 149.62493 294.831042 
L 149.794109 294.707705 
L 150.132467 294.930035 
L 150.470825 294.836846 
L 150.640004 293.998282 
L 150.809183 285.251691 
L 151.147541 212.622923 
L 151.31672 171.029352 
L 151.485899 179.87981 
L 151.824257 243.082953 
L 152.500973 273.223907 
L 153.346868 286.570228 
L 153.685226 287.718071 
L 153.854405 289.136091 
L 154.023584 289.540522 
L 154.192763 289.436014 
L 154.531121 287.657681 
L 155.207837 291.715052 
L 155.377016 292.091087 
L 155.546195 292.981098 
L 155.715374 293.145042 
L 155.884554 293.138937 
L 156.222912 293.487781 
L 156.56127 293.026093 
L 156.730449 292.414511 
L 156.899628 292.743314 
L 157.068807 292.810902 
L 157.745523 293.808587 
L 158.083881 294.135623 
L 158.25306 294.016873 
L 158.422239 294.362418 
L 158.591418 294.325204 
L 158.760597 294.430088 
L 159.268134 293.807931 
L 159.606492 294.489299 
L 159.775671 294.515844 
L 160.114029 294.684861 
L 160.790745 294.423965 
L 160.959924 294.465863 
L 161.129103 294.6705 
L 161.298282 294.460975 
L 161.63664 294.426644 
L 161.805819 294.366054 
L 162.144177 294.56979 
L 162.313356 294.390804 
L 162.482535 294.654915 
L 162.651714 294.426666 
L 163.49761 294.750287 
L 163.835968 294.231165 
L 164.005147 294.725825 
L 164.512684 294.713065 
L 164.681863 294.820894 
L 164.851042 294.649 
L 165.020221 294.687006 
L 165.1894 294.514192 
L 165.696937 294.718642 
L 166.035295 294.995074 
L 166.373653 294.790907 
L 166.542832 294.683807 
L 166.712011 294.909697 
L 167.050369 294.839752 
L 167.388727 294.505839 
L 167.727085 292.83136 
L 167.896264 294.04548 
L 168.065443 293.944431 
L 168.234622 293.430199 
L 168.403801 292.198553 
L 168.57298 281.202224 
L 168.911338 231.490263 
L 169.080517 213.220373 
L 169.249696 219.223655 
L 169.588054 263.259852 
L 169.926412 276.091319 
L 170.095591 278.101846 
L 170.26477 278.368506 
L 170.772308 279.69232 
L 171.110666 282.910333 
L 171.279845 284.817542 
L 171.449024 284.04022 
L 171.618203 285.433238 
L 171.787382 285.594987 
L 171.956561 288.374795 
L 172.12574 288.987707 
L 172.464098 292.566515 
L 172.633277 292.979764 
L 172.802456 292.864496 
L 173.140814 293.25483 
L 173.479172 293.814305 
L 173.986709 294.107778 
L 174.494246 294.064487 
L 175.001783 294.485894 
L 175.170962 294.481799 
L 175.50932 294.166401 
L 175.847678 294.338518 
L 176.016857 294.341639 
L 176.186036 294.111008 
L 176.355215 294.174037 
L 176.524394 294.466735 
L 177.031931 294.190012 
L 177.370289 294.274713 
L 177.539468 294.61871 
L 178.892901 294.701128 
L 179.569617 294.676106 
L 179.738796 294.929351 
L 179.907975 294.564798 
L 180.077154 293.356151 
L 180.246333 271.340091 
L 180.415512 224.544442 
L 180.584691 217.746953 
L 180.923049 257.123156 
L 181.261407 254.272872 
L 181.430586 259.900138 
L 181.768944 279.198146 
L 182.107302 285.090784 
L 182.614839 288.797085 
L 182.784018 288.800487 
L 182.953197 288.066264 
L 183.291555 289.155715 
L 183.460734 287.383763 
L 183.629913 287.213596 
L 183.799092 287.645839 
L 184.306629 290.357708 
L 184.475808 290.064844 
L 184.644987 291.526245 
L 184.814166 291.810418 
L 185.490883 294.043739 
L 185.829241 293.779411 
L 185.99842 293.859444 
L 186.167599 294.173597 
L 186.844315 294.286105 
L 187.182673 294.093538 
L 187.351852 293.966369 
L 187.521031 294.02378 
L 187.69021 294.296052 
L 187.859389 294.051176 
L 188.197747 294.274148 
L 188.366926 293.788142 
L 188.705284 294.093048 
L 189.043642 294.66994 
L 189.212821 294.395294 
L 189.382 294.51895 
L 189.551179 294.391728 
L 189.720358 294.632866 
L 190.227895 294.471084 
L 190.397074 294.532463 
L 190.566253 294.737612 
L 190.904611 294.79055 
L 191.07379 294.926539 
L 191.242969 294.684812 
L 191.750506 294.848221 
L 191.919685 294.994266 
L 192.258043 294.583468 
L 192.427223 294.790267 
L 192.596402 294.730083 
L 192.93476 294.919841 
L 193.442297 294.808105 
L 193.611476 294.961152 
L 193.780655 294.834695 
L 194.119013 294.888038 
L 194.288192 295.070519 
L 194.795729 294.448498 
L 194.964908 294.685696 
L 195.134087 294.726783 
L 195.472445 294.985401 
L 195.979982 294.959666 
L 196.149161 294.788886 
L 196.487519 294.84287 
L 196.825877 295.037123 
L 197.333414 294.919357 
L 197.502593 294.839592 
L 197.840951 295.02271 
L 198.01013 294.915015 
L 198.179309 295.114667 
L 198.517667 295.107878 
L 198.686846 294.822387 
L 199.025204 295.016242 
L 199.194383 294.759024 
L 199.363562 294.148227 
L 199.701921 292.681463 
L 199.8711 293.734303 
L 200.040279 293.894483 
L 200.209458 294.335762 
L 200.547816 294.589297 
L 200.716995 294.900931 
L 201.055353 294.989831 
L 201.224532 295.012061 
L 201.56289 294.927999 
L 201.901248 295.050779 
L 202.239606 294.935234 
L 202.408785 295.052514 
L 202.577964 294.946025 
L 202.916322 295.173242 
L 203.423859 294.801043 
L 203.931396 295.172289 
L 204.438933 294.930257 
L 204.608112 295.15742 
L 204.94647 295.071819 
L 205.284828 295.055461 
L 205.454007 294.855089 
L 205.623186 295.11082 
L 205.961544 295.066949 
L 206.299902 295.250143 
L 206.469081 295.061873 
L 206.63826 295.062338 
L 206.807439 295.180209 
L 207.314977 294.971831 
L 207.484156 295.081293 
L 207.822514 294.895906 
L 208.160872 292.411415 
L 208.49923 294.340553 
L 208.837588 294.582377 
L 209.345125 294.999834 
L 210.021841 295.108497 
L 210.698557 294.999466 
L 211.544452 295.167834 
L 211.88281 295.084144 
L 212.051989 294.97544 
L 212.390347 295.061124 
L 212.559526 294.990366 
L 213.067063 295.242631 
L 214.420496 295.077903 
L 214.589675 295.233716 
L 215.943107 295.136328 
L 216.281465 295.110022 
L 216.450644 295.21799 
L 216.789002 294.970117 
L 216.958181 295.141009 
L 217.296539 295.049454 
L 217.465718 295.147172 
L 217.804076 295.029898 
L 217.973255 295.209369 
L 218.142434 295.151481 
L 218.311613 295.227623 
L 218.81915 295.082882 
L 219.157508 295.240989 
L 219.834224 295.259307 
L 220.680119 295.250864 
L 220.849298 295.05861 
L 221.018477 295.262289 
L 221.695194 295.231023 
L 222.033552 294.813855 
L 222.541089 295.127982 
L 222.710268 294.320502 
L 222.879447 291.85086 
L 223.217805 268.550391 
L 223.386984 256.391144 
L 223.556163 263.326318 
L 223.725342 254.247571 
L 224.0637 278.464767 
L 224.571237 290.04185 
L 224.740416 291.568519 
L 224.909595 291.746182 
L 225.247953 292.707986 
L 225.586311 293.642531 
L 225.924669 294.536429 
L 226.093848 294.596265 
L 226.263027 294.471506 
L 227.44728 294.893222 
L 228.123996 294.659096 
L 228.293175 294.830323 
L 228.631533 294.649476 
L 229.30825 295.025848 
L 229.646608 294.838201 
L 229.815787 294.995395 
L 230.154145 294.893047 
L 230.323324 295.030109 
L 230.661682 295.010062 
L 230.830861 295.110572 
L 231.169219 294.948256 
L 231.338398 295.04647 
L 231.676756 294.909643 
L 232.184293 295.151528 
L 232.353472 295.21625 
L 232.69183 295.141085 
L 233.030188 295.148203 
L 233.706904 295.124307 
L 233.876083 295.095634 
L 234.214441 295.254862 
L 234.38362 295.058579 
L 234.721978 294.959853 
L 234.891157 294.867265 
L 235.229515 294.997348 
L 235.567873 295.134315 
L 236.07541 295.246515 
L 236.413769 295.204228 
L 236.582948 295.141568 
L 236.752127 294.876128 
L 237.259664 295.179804 
L 237.428843 295.133986 
L 237.598022 295.205265 
L 237.93638 295.101907 
L 238.951454 295.215529 
L 239.120633 295.074773 
L 239.458991 295.284399 
L 239.966528 295.084046 
L 241.489139 295.218351 
L 241.658318 295.166796 
L 241.996676 295.28443 
L 242.335034 295.131412 
L 242.673392 295.299821 
L 242.842571 295.207382 
L 243.350108 295.335216 
L 243.688467 295.278883 
L 243.857646 295.331384 
L 244.196004 295.243366 
L 244.534362 295.363729 
L 245.041899 295.327856 
L 245.380257 295.366346 
L 246.056973 295.268665 
L 246.395331 295.315446 
L 248.087121 295.343485 
L 249.271374 295.313277 
L 249.609732 295.266234 
L 250.117269 295.322343 
L 250.455627 295.378871 
L 250.793986 295.257158 
L 251.132344 295.380152 
L 251.978239 295.342696 
L 252.147418 295.255291 
L 252.654955 295.377273 
L 252.993313 295.347078 
L 253.331671 295.319623 
L 253.670029 295.21741 
L 254.008387 294.888643 
L 254.346745 294.884132 
L 254.515924 295.215396 
L 256.376893 295.318837 
L 256.546072 295.217445 
L 256.715251 295.368262 
L 257.053609 295.350378 
L 257.222788 295.36807 
L 257.561146 295.157031 
L 257.730325 295.253753 
L 257.899504 295.147262 
L 258.068683 295.179272 
L 258.407042 295.403594 
L 258.576221 295.386832 
L 258.7454 295.161175 
L 259.252937 295.320625 
L 259.591295 295.192773 
L 259.760474 294.900541 
L 259.929653 295.205104 
L 260.268011 295.102105 
L 260.775548 295.278096 
L 260.944727 295.331629 
L 261.283085 295.279859 
L 261.621443 295.190706 
L 261.790622 295.17298 
L 262.12898 295.35053 
L 262.805696 295.014946 
L 262.974875 294.865032 
L 263.313233 293.587087 
L 263.482412 292.201453 
L 263.651591 291.870197 
L 263.82077 286.664479 
L 264.159128 252.282709 
L 264.328307 249.040147 
L 264.835844 286.422106 
L 265.174202 291.798482 
L 265.68174 294.038706 
L 265.850919 294.3759 
L 266.189277 294.457692 
L 266.527635 294.680795 
L 266.696814 294.68135 
L 266.865993 294.834933 
L 267.204351 294.630521 
L 267.37353 294.745278 
L 267.542709 294.64823 
L 268.557783 295.116236 
L 268.726962 295.183761 
L 269.234499 294.949769 
L 269.742036 294.950376 
L 269.911215 295.0622 
L 270.926289 294.83284 
L 271.264647 294.367819 
L 271.433826 294.130215 
L 271.603005 294.276515 
L 271.941363 294.809784 
L 272.110542 294.832381 
L 272.4489 295.05453 
L 273.125617 294.997338 
L 273.294796 295.169973 
L 273.463975 295.073051 
L 273.633154 293.994277 
L 273.971512 287.912182 
L 274.30987 290.782857 
L 274.986586 293.968736 
L 275.494123 294.623171 
L 276.340018 294.995787 
L 277.524271 295.198472 
L 277.862629 295.112472 
L 278.708524 295.263521 
L 279.38524 295.231861 
L 279.892777 295.200577 
L 280.400315 295.287393 
L 280.738673 295.303859 
L 281.077031 295.262326 
L 281.24621 295.087048 
L 281.753747 295.287774 
L 282.599642 295.162183 
L 282.938 295.166556 
L 283.276358 295.016917 
L 283.445537 295.032739 
L 283.614716 295.201042 
L 283.783895 295.097179 
L 284.968148 295.224204 
L 285.306506 295.163004 
L 286.152401 295.231661 
L 286.32158 295.20433 
L 286.659938 295.302967 
L 286.998296 295.294329 
L 287.167475 295.384399 
L 287.675013 295.084568 
L 288.013371 295.30811 
L 288.859266 295.305768 
L 289.028445 295.185279 
L 289.705161 295.413794 
L 290.551056 295.343967 
L 292.242846 295.376896 
L 292.581204 295.242906 
L 292.750383 295.147146 
L 293.088741 295.323831 
L 293.596278 295.242899 
L 293.934636 295.294362 
L 294.103815 295.389114 
L 294.442173 295.271907 
L 295.11889 295.333079 
L 297.318217 295.319817 
L 297.656575 295.265135 
L 297.994933 295.40743 
L 298.164112 295.454256 
L 298.840828 295.228905 
L 299.010007 295.335904 
L 299.179186 295.040349 
L 299.348365 294.201846 
L 299.517544 294.487401 
L 299.686723 294.523235 
L 300.19426 295.04131 
L 301.040155 295.223056 
L 301.547692 295.263569 
L 301.88605 295.054125 
L 302.05523 295.109637 
L 302.224409 295.290902 
L 302.562767 295.323714 
L 303.070304 295.387347 
L 303.577841 295.262616 
L 303.74702 295.113569 
L 304.423736 295.314921 
L 304.762094 294.954795 
L 304.931273 295.022785 
L 305.269631 295.356066 
L 305.777168 295.411387 
L 310.175823 295.391901 
L 310.514181 295.209915 
L 311.190897 295.37275 
L 311.529255 295.308894 
L 311.698434 295.117899 
L 312.37515 295.284061 
L 312.713508 295.116571 
L 312.882687 295.321458 
L 314.405298 295.397402 
L 314.743656 295.396231 
L 314.912835 295.320276 
L 315.420372 295.416824 
L 315.927909 295.353642 
L 317.788879 295.383403 
L 317.958058 295.340546 
L 318.296416 292.268332 
L 318.465595 293.348633 
L 318.634774 293.272029 
L 318.803953 293.048036 
L 318.973132 287.378697 
L 319.142311 261.269676 
L 319.480669 248.112233 
L 319.649848 255.329158 
L 319.988206 278.127838 
L 320.495743 288.327022 
L 320.664922 290.649103 
L 321.172459 290.717626 
L 321.341638 291.931472 
L 321.849175 291.17725 
L 322.356712 294.44625 
L 322.525891 294.684826 
L 322.864249 294.711085 
L 323.033428 294.906762 
L 323.371786 294.829337 
L 323.540965 295.031661 
L 323.710144 294.921624 
L 324.55604 295.199706 
L 324.894398 295.218694 
L 325.063577 294.985981 
L 325.571114 295.095958 
L 325.740293 294.974107 
L 326.755367 295.287436 
L 327.262904 295.203434 
L 327.601262 295.188297 
L 328.954694 295.300586 
L 329.462231 295.248144 
L 329.800589 295.340329 
L 330.477305 295.187452 
L 330.984842 295.337883 
L 331.661559 295.322955 
L 332.338275 295.275562 
L 332.845812 295.275494 
L 333.691707 295.304994 
L 334.030065 295.03114 
L 334.199244 295.137003 
L 334.368423 295.09975 
L 334.537602 294.547288 
L 334.706781 294.439841 
L 334.87596 294.631233 
L 335.045139 294.628496 
L 335.552676 295.217904 
L 335.891034 295.217066 
L 337.244466 295.324012 
L 338.25954 295.409517 
L 338.597899 295.35605 
L 339.951331 295.397523 
L 340.289689 295.342425 
L 340.797226 295.407481 
L 341.135584 295.401894 
L 341.8123 295.481095 
L 341.981479 295.357686 
L 342.319837 295.328933 
L 342.489016 295.271659 
L 342.658195 295.375015 
L 342.827374 295.236535 
L 344.011627 295.384659 
L 344.349985 295.311631 
L 344.688343 295.411486 
L 345.365059 295.355278 
L 345.703417 295.429849 
L 346.718492 295.421025 
L 347.564387 295.446989 
L 349.256177 295.424446 
L 350.609609 295.428566 
L 351.793862 295.14864 
L 351.963041 294.988719 
L 352.301399 293.602708 
L 352.470578 292.595667 
L 352.639757 292.312281 
L 352.978115 285.847854 
L 353.485653 292.224808 
L 353.824011 294.321308 
L 354.331548 294.999653 
L 354.669906 295.101025 
L 354.839085 295.196086 
L 355.177443 295.219968 
L 356.361696 295.324826 
L 356.700054 295.21068 
L 357.715128 295.353119 
L 358.053486 295.249494 
L 358.222665 295.237786 
L 358.391844 295.391956 
L 358.899381 295.366965 
L 359.406918 295.396237 
L 360.252813 295.234997 
L 360.760351 295.31127 
L 362.113783 295.36507 
L 362.452141 295.24823 
L 362.62132 295.379412 
L 364.143931 295.303766 
L 370.234376 295.379517 
L 370.572734 295.274866 
L 370.741913 295.396057 
L 371.587808 295.388129 
L 372.095345 295.454343 
L 372.433703 295.436593 
L 372.772061 295.399572 
L 374.463851 295.474582 
L 374.971389 295.424695 
L 375.648105 295.426633 
L 379.87758 295.378025 
L 380.215938 295.336851 
L 380.554296 295.425482 
L 382.584445 295.417512 
L 382.922803 295.421391 
L 383.091982 295.353392 
L 383.599519 295.435596 
L 385.291309 295.446328 
L 385.629667 295.380176 
L 386.137204 295.465188 
L 386.81392 295.415056 
L 388.674889 295.29968 
L 389.351605 295.025207 
L 389.689964 295.313222 
L 390.36668 295.175437 
L 390.535859 295.32983 
L 390.874217 295.334508 
L 391.550933 295.443101 
L 392.05847 295.346278 
L 392.227649 295.034212 
L 392.396828 293.668082 
L 392.566007 293.449392 
L 392.904365 291.704795 
L 393.073544 264.937657 
L 393.242723 203.216831 
L 393.411902 186.706379 
L 394.088618 259.068599 
L 394.596155 278.428244 
L 394.765334 283.170456 
L 394.934513 283.778402 
L 395.272871 286.944787 
L 395.44205 285.39646 
L 395.611229 282.785701 
L 395.949587 290.034198 
L 396.118766 291.291778 
L 396.287945 291.335155 
L 396.457124 285.510531 
L 396.795482 266.635153 
L 396.964662 270.939992 
L 397.30302 285.316333 
L 397.472199 287.574003 
L 397.641378 288.174974 
L 397.979736 286.831905 
L 398.148915 288.566291 
L 398.318094 289.054431 
L 398.487273 290.962657 
L 398.487273 290.962657 
" clip-path="url(#p7ee200dcf7)" style="fill: none; stroke: #1f77b4; stroke-width: 0.5; stroke-linecap: round"/>
   </g>
   <g id="patch_3">
    <path d="M 57.6 307.584 
L 57.6 41.472 
" style="fill: none; stroke: #ffffff; stroke-width: 0.8; stroke-linejoin: miter; stroke-linecap: square"/>
   </g>
   <g id="patch_4">
    <path d="M 414.72 307.584 
L 414.72 41.472 
" style="fill: none; stroke: #ffffff; stroke-width: 0.8; stroke-linejoin: miter; stroke-linecap: square"/>
   </g>
   <g id="patch_5">
    <path d="M 57.6 307.584 
L 414.72 307.584 
" style="fill: none; stroke: #ffffff; stroke-width: 0.8; stroke-linejoin: miter; stroke-linecap: square"/>
   </g>
   <g id="patch_6">
    <path d="M 57.6 41.472 
L 414.72 41.472 
" style="fill: none; stroke: #ffffff; stroke-width: 0.8; stroke-linejoin: miter; stroke-linecap: square"/>
   </g>
   <g id="text_18">
    <!-- loss terhadap epoch -->
    <g style="fill: #262626" transform="translate(175.303125 35.472) scale(0.12 -0.12)">
     <defs>
      <path id="DejaVuSans-6c" d="M 603 4863 
L 1178 4863 
L 1178 0 
L 603 0 
L 603 4863 
z
" transform="scale(0.015625)"/>
      <path id="DejaVuSans-73" d="M 2834 3397 
L 2834 2853 
Q 2591 2978 2328 3040 
Q 2066 3103 1784 3103 
Q 1356 3103 1142 2972 
Q 928 2841 928 2578 
Q 928 2378 1081 2264 
Q 1234 2150 1697 2047 
L 1894 2003 
Q 2506 1872 2764 1633 
Q 3022 1394 3022 966 
Q 3022 478 2636 193 
Q 2250 -91 1575 -91 
Q 1294 -91 989 -36 
Q 684 19 347 128 
L 347 722 
Q 666 556 975 473 
Q 1284 391 1588 391 
Q 1994 391 2212 530 
Q 2431 669 2431 922 
Q 2431 1156 2273 1281 
Q 2116 1406 1581 1522 
L 1381 1569 
Q 847 1681 609 1914 
Q 372 2147 372 2553 
Q 372 3047 722 3315 
Q 1072 3584 1716 3584 
Q 2034 3584 2315 3537 
Q 2597 3491 2834 3397 
z
" transform="scale(0.015625)"/>
      <path id="DejaVuSans-20" transform="scale(0.015625)"/>
      <path id="DejaVuSans-74" d="M 1172 4494 
L 1172 3500 
L 2356 3500 
L 2356 3053 
L 1172 3053 
L 1172 1153 
Q 1172 725 1289 603 
Q 1406 481 1766 481 
L 2356 481 
L 2356 0 
L 1766 0 
Q 1100 0 847 248 
Q 594 497 594 1153 
L 594 3053 
L 172 3053 
L 172 3500 
L 594 3500 
L 594 4494 
L 1172 4494 
z
" transform="scale(0.015625)"/>
      <path id="DejaVuSans-72" d="M 2631 2963 
Q 2534 3019 2420 3045 
Q 2306 3072 2169 3072 
Q 1681 3072 1420 2755 
Q 1159 2438 1159 1844 
L 1159 0 
L 581 0 
L 581 3500 
L 1159 3500 
L 1159 2956 
Q 1341 3275 1631 3429 
Q 1922 3584 2338 3584 
Q 2397 3584 2469 3576 
Q 2541 3569 2628 3553 
L 2631 2963 
z
" transform="scale(0.015625)"/>
      <path id="DejaVuSans-61" d="M 2194 1759 
Q 1497 1759 1228 1600 
Q 959 1441 959 1056 
Q 959 750 1161 570 
Q 1363 391 1709 391 
Q 2188 391 2477 730 
Q 2766 1069 2766 1631 
L 2766 1759 
L 2194 1759 
z
M 3341 1997 
L 3341 0 
L 2766 0 
L 2766 531 
Q 2569 213 2275 61 
Q 1981 -91 1556 -91 
Q 1019 -91 701 211 
Q 384 513 384 1019 
Q 384 1609 779 1909 
Q 1175 2209 1959 2209 
L 2766 2209 
L 2766 2266 
Q 2766 2663 2505 2880 
Q 2244 3097 1772 3097 
Q 1472 3097 1187 3025 
Q 903 2953 641 2809 
L 641 3341 
Q 956 3463 1253 3523 
Q 1550 3584 1831 3584 
Q 2591 3584 2966 3190 
Q 3341 2797 3341 1997 
z
" transform="scale(0.015625)"/>
      <path id="DejaVuSans-64" d="M 2906 2969 
L 2906 4863 
L 3481 4863 
L 3481 0 
L 2906 0 
L 2906 525 
Q 2725 213 2448 61 
Q 2172 -91 1784 -91 
Q 1150 -91 751 415 
Q 353 922 353 1747 
Q 353 2572 751 3078 
Q 1150 3584 1784 3584 
Q 2172 3584 2448 3432 
Q 2725 3281 2906 2969 
z
M 947 1747 
Q 947 1113 1208 752 
Q 1469 391 1925 391 
Q 2381 391 2643 752 
Q 2906 1113 2906 1747 
Q 2906 2381 2643 2742 
Q 2381 3103 1925 3103 
Q 1469 3103 1208 2742 
Q 947 2381 947 1747 
z
" transform="scale(0.015625)"/>
     </defs>
     <use xlink:href="#DejaVuSans-6c"/>
     <use xlink:href="#DejaVuSans-6f" x="27.783203"/>
     <use xlink:href="#DejaVuSans-73" x="88.964844"/>
     <use xlink:href="#DejaVuSans-73" x="141.064453"/>
     <use xlink:href="#DejaVuSans-20" x="193.164062"/>
     <use xlink:href="#DejaVuSans-74" x="224.951172"/>
     <use xlink:href="#DejaVuSans-65" x="264.160156"/>
     <use xlink:href="#DejaVuSans-72" x="325.683594"/>
     <use xlink:href="#DejaVuSans-68" x="365.046875"/>
     <use xlink:href="#DejaVuSans-61" x="428.425781"/>
     <use xlink:href="#DejaVuSans-64" x="489.705078"/>
     <use xlink:href="#DejaVuSans-61" x="553.181641"/>
     <use xlink:href="#DejaVuSans-70" x="614.460938"/>
     <use xlink:href="#DejaVuSans-20" x="677.9375"/>
     <use xlink:href="#DejaVuSans-65" x="709.724609"/>
     <use xlink:href="#DejaVuSans-70" x="771.248047"/>
     <use xlink:href="#DejaVuSans-6f" x="834.724609"/>
     <use xlink:href="#DejaVuSans-63" x="895.90625"/>
     <use xlink:href="#DejaVuSans-68" x="950.886719"/>
    </g>
   </g>
   <g id="legend_1">
    <g id="patch_7">
     <path d="M 239.190313 64.42825 
L 407.72 64.42825 
Q 409.72 64.42825 409.72 62.42825 
L 409.72 48.472 
Q 409.72 46.472 407.72 46.472 
L 239.190313 46.472 
Q 237.190313 46.472 237.190313 48.472 
L 237.190313 62.42825 
Q 237.190313 64.42825 239.190313 64.42825 
z
" style="fill: #eaeaf2; opacity: 0.8; stroke: #cccccc; stroke-linejoin: miter"/>
    </g>
    <g id="line2d_2">
     <path d="M 241.190313 54.570437 
L 251.190313 54.570437 
L 261.190313 54.570437 
" style="fill: none; stroke: #1f77b4; stroke-width: 0.5; stroke-linecap: round"/>
    </g>
    <g id="text_19">
     <!-- best-260/top1-0d8642_loss -->
     <g style="fill: #262626" transform="translate(269.190313 58.070437) scale(0.1 -0.1)">
      <defs>
       <path id="DejaVuSans-62" d="M 3116 1747 
Q 3116 2381 2855 2742 
Q 2594 3103 2138 3103 
Q 1681 3103 1420 2742 
Q 1159 2381 1159 1747 
Q 1159 1113 1420 752 
Q 1681 391 2138 391 
Q 2594 391 2855 752 
Q 3116 1113 3116 1747 
z
M 1159 2969 
Q 1341 3281 1617 3432 
Q 1894 3584 2278 3584 
Q 2916 3584 3314 3078 
Q 3713 2572 3713 1747 
Q 3713 922 3314 415 
Q 2916 -91 2278 -91 
Q 1894 -91 1617 61 
Q 1341 213 1159 525 
L 1159 0 
L 581 0 
L 581 4863 
L 1159 4863 
L 1159 2969 
z
" transform="scale(0.015625)"/>
       <path id="DejaVuSans-2d" d="M 313 2009 
L 1997 2009 
L 1997 1497 
L 313 1497 
L 313 2009 
z
" transform="scale(0.015625)"/>
       <path id="DejaVuSans-36" d="M 2113 2584 
Q 1688 2584 1439 2293 
Q 1191 2003 1191 1497 
Q 1191 994 1439 701 
Q 1688 409 2113 409 
Q 2538 409 2786 701 
Q 3034 994 3034 1497 
Q 3034 2003 2786 2293 
Q 2538 2584 2113 2584 
z
M 3366 4563 
L 3366 3988 
Q 3128 4100 2886 4159 
Q 2644 4219 2406 4219 
Q 1781 4219 1451 3797 
Q 1122 3375 1075 2522 
Q 1259 2794 1537 2939 
Q 1816 3084 2150 3084 
Q 2853 3084 3261 2657 
Q 3669 2231 3669 1497 
Q 3669 778 3244 343 
Q 2819 -91 2113 -91 
Q 1303 -91 875 529 
Q 447 1150 447 2328 
Q 447 3434 972 4092 
Q 1497 4750 2381 4750 
Q 2619 4750 2861 4703 
Q 3103 4656 3366 4563 
z
" transform="scale(0.015625)"/>
       <path id="DejaVuSans-2f" d="M 1625 4666 
L 2156 4666 
L 531 -594 
L 0 -594 
L 1625 4666 
z
" transform="scale(0.015625)"/>
       <path id="DejaVuSans-38" d="M 2034 2216 
Q 1584 2216 1326 1975 
Q 1069 1734 1069 1313 
Q 1069 891 1326 650 
Q 1584 409 2034 409 
Q 2484 409 2743 651 
Q 3003 894 3003 1313 
Q 3003 1734 2745 1975 
Q 2488 2216 2034 2216 
z
M 1403 2484 
Q 997 2584 770 2862 
Q 544 3141 544 3541 
Q 544 4100 942 4425 
Q 1341 4750 2034 4750 
Q 2731 4750 3128 4425 
Q 3525 4100 3525 3541 
Q 3525 3141 3298 2862 
Q 3072 2584 2669 2484 
Q 3125 2378 3379 2068 
Q 3634 1759 3634 1313 
Q 3634 634 3220 271 
Q 2806 -91 2034 -91 
Q 1263 -91 848 271 
Q 434 634 434 1313 
Q 434 1759 690 2068 
Q 947 2378 1403 2484 
z
M 1172 3481 
Q 1172 3119 1398 2916 
Q 1625 2713 2034 2713 
Q 2441 2713 2670 2916 
Q 2900 3119 2900 3481 
Q 2900 3844 2670 4047 
Q 2441 4250 2034 4250 
Q 1625 4250 1398 4047 
Q 1172 3844 1172 3481 
z
" transform="scale(0.015625)"/>
       <path id="DejaVuSans-34" d="M 2419 4116 
L 825 1625 
L 2419 1625 
L 2419 4116 
z
M 2253 4666 
L 3047 4666 
L 3047 1625 
L 3713 1625 
L 3713 1100 
L 3047 1100 
L 3047 0 
L 2419 0 
L 2419 1100 
L 313 1100 
L 313 1709 
L 2253 4666 
z
" transform="scale(0.015625)"/>
       <path id="DejaVuSans-5f" d="M 3263 -1063 
L 3263 -1509 
L -63 -1509 
L -63 -1063 
L 3263 -1063 
z
" transform="scale(0.015625)"/>
      </defs>
      <use xlink:href="#DejaVuSans-62"/>
      <use xlink:href="#DejaVuSans-65" x="63.476562"/>
      <use xlink:href="#DejaVuSans-73" x="125"/>
      <use xlink:href="#DejaVuSans-74" x="177.099609"/>
      <use xlink:href="#DejaVuSans-2d" x="216.308594"/>
      <use xlink:href="#DejaVuSans-32" x="252.392578"/>
      <use xlink:href="#DejaVuSans-36" x="316.015625"/>
      <use xlink:href="#DejaVuSans-30" x="379.638672"/>
      <use xlink:href="#DejaVuSans-2f" x="443.261719"/>
      <use xlink:href="#DejaVuSans-74" x="476.953125"/>
      <use xlink:href="#DejaVuSans-6f" x="516.162109"/>
      <use xlink:href="#DejaVuSans-70" x="577.34375"/>
      <use xlink:href="#DejaVuSans-31" x="640.820312"/>
      <use xlink:href="#DejaVuSans-2d" x="704.443359"/>
      <use xlink:href="#DejaVuSans-30" x="740.527344"/>
      <use xlink:href="#DejaVuSans-64" x="804.150391"/>
      <use xlink:href="#DejaVuSans-38" x="867.626953"/>
      <use xlink:href="#DejaVuSans-36" x="931.25"/>
      <use xlink:href="#DejaVuSans-34" x="994.873047"/>
      <use xlink:href="#DejaVuSans-32" x="1058.496094"/>
      <use xlink:href="#DejaVuSans-5f" x="1122.119141"/>
      <use xlink:href="#DejaVuSans-6c" x="1172.119141"/>
      <use xlink:href="#DejaVuSans-6f" x="1199.902344"/>
      <use xlink:href="#DejaVuSans-73" x="1261.083984"/>
      <use xlink:href="#DejaVuSans-73" x="1313.183594"/>
     </g>
    </g>
   </g>
  </g>
 </g>
 <defs>
  <clipPath id="p7ee200dcf7">
   <rect x="57.6" y="41.472" width="357.12" height="266.112"/>
  </clipPath>
 </defs>
</svg>
