<?xml version="1.0" encoding="utf-8" standalone="no"?>
<!DOCTYPE svg PUBLIC "-//W3C//DTD SVG 1.1//EN"
  "http://www.w3.org/Graphics/SVG/1.1/DTD/svg11.dtd">
<svg xmlns:xlink="http://www.w3.org/1999/xlink" width="460.8pt" height="345.6pt" viewBox="0 0 460.8 345.6" xmlns="http://www.w3.org/2000/svg" version="1.1">
 <metadata>
  <rdf:RDF xmlns:dc="http://purl.org/dc/elements/1.1/" xmlns:cc="http://creativecommons.org/ns#" xmlns:rdf="http://www.w3.org/1999/02/22-rdf-syntax-ns#">
   <cc:Work>
    <dc:type rdf:resource="http://purl.org/dc/dcmitype/StillImage"/>
    <dc:date>2024-05-20T08:05:30.014692</dc:date>
    <dc:format>image/svg+xml</dc:format>
    <dc:creator>
     <cc:Agent>
      <dc:title>Matplotlib v3.7.2, https://matplotlib.org/</dc:title>
     </cc:Agent>
    </dc:creator>
   </cc:Work>
  </rdf:RDF>
 </metadata>
 <defs>
  <style type="text/css">*{stroke-linejoin: round; stroke-linecap: butt}</style>
 </defs>
 <g id="figure_1">
  <g id="patch_1">
   <path d="M 0 345.6 
L 460.8 345.6 
L 460.8 0 
L 0 0 
z
" style="fill: #ffffff"/>
  </g>
  <g id="axes_1">
   <g id="patch_2">
    <path d="M 57.6 307.584 
L 414.72 307.584 
L 414.72 41.472 
L 57.6 41.472 
z
" style="fill: #eaeaf2"/>
   </g>
   <g id="matplotlib.axis_1">
    <g id="xtick_1">
     <g id="text_1">
      <!-- 0 -->
      <g style="fill: #262626" transform="translate(70.126995 322.182437) scale(0.1 -0.1)">
       <defs>
        <path id="DejaVuSans-30" d="M 2034 4250 
Q 1547 4250 1301 3770 
Q 1056 3291 1056 2328 
Q 1056 1369 1301 889 
Q 1547 409 2034 409 
Q 2525 409 2770 889 
Q 3016 1369 3016 2328 
Q 3016 3291 2770 3770 
Q 2525 4250 2034 4250 
z
M 2034 4750 
Q 2819 4750 3233 4129 
Q 3647 3509 3647 2328 
Q 3647 1150 3233 529 
Q 2819 -91 2034 -91 
Q 1250 -91 836 529 
Q 422 1150 422 2328 
Q 422 3509 836 4129 
Q 1250 4750 2034 4750 
z
" transform="scale(0.015625)"/>
       </defs>
       <use xlink:href="#DejaVuSans-30"/>
      </g>
     </g>
    </g>
    <g id="xtick_2">
     <g id="text_2">
      <!-- 100 -->
      <g style="fill: #262626" transform="translate(116.212725 322.182437) scale(0.1 -0.1)">
       <defs>
        <path id="DejaVuSans-31" d="M 794 531 
L 1825 531 
L 1825 4091 
L 703 3866 
L 703 4441 
L 1819 4666 
L 2450 4666 
L 2450 531 
L 3481 531 
L 3481 0 
L 794 0 
L 794 531 
z
" transform="scale(0.015625)"/>
       </defs>
       <use xlink:href="#DejaVuSans-31"/>
       <use xlink:href="#DejaVuSans-30" x="63.623047"/>
       <use xlink:href="#DejaVuSans-30" x="127.246094"/>
      </g>
     </g>
    </g>
    <g id="xtick_3">
     <g id="text_3">
      <!-- 200 -->
      <g style="fill: #262626" transform="translate(168.660956 322.182437) scale(0.1 -0.1)">
       <defs>
        <path id="DejaVuSans-32" d="M 1228 531 
L 3431 531 
L 3431 0 
L 469 0 
L 469 531 
Q 828 903 1448 1529 
Q 2069 2156 2228 2338 
Q 2531 2678 2651 2914 
Q 2772 3150 2772 3378 
Q 2772 3750 2511 3984 
Q 2250 4219 1831 4219 
Q 1534 4219 1204 4116 
Q 875 4013 500 3803 
L 500 4441 
Q 881 4594 1212 4672 
Q 1544 4750 1819 4750 
Q 2544 4750 2975 4387 
Q 3406 4025 3406 3419 
Q 3406 3131 3298 2873 
Q 3191 2616 2906 2266 
Q 2828 2175 2409 1742 
Q 1991 1309 1228 531 
z
" transform="scale(0.015625)"/>
       </defs>
       <use xlink:href="#DejaVuSans-32"/>
       <use xlink:href="#DejaVuSans-30" x="63.623047"/>
       <use xlink:href="#DejaVuSans-30" x="127.246094"/>
      </g>
     </g>
    </g>
    <g id="xtick_4">
     <g id="text_4">
      <!-- 300 -->
      <g style="fill: #262626" transform="translate(221.109186 322.182437) scale(0.1 -0.1)">
       <defs>
        <path id="DejaVuSans-33" d="M 2597 2516 
Q 3050 2419 3304 2112 
Q 3559 1806 3559 1356 
Q 3559 666 3084 287 
Q 2609 -91 1734 -91 
Q 1441 -91 1130 -33 
Q 819 25 488 141 
L 488 750 
Q 750 597 1062 519 
Q 1375 441 1716 441 
Q 2309 441 2620 675 
Q 2931 909 2931 1356 
Q 2931 1769 2642 2001 
Q 2353 2234 1838 2234 
L 1294 2234 
L 1294 2753 
L 1863 2753 
Q 2328 2753 2575 2939 
Q 2822 3125 2822 3475 
Q 2822 3834 2567 4026 
Q 2313 4219 1838 4219 
Q 1578 4219 1281 4162 
Q 984 4106 628 3988 
L 628 4550 
Q 988 4650 1302 4700 
Q 1616 4750 1894 4750 
Q 2613 4750 3031 4423 
Q 3450 4097 3450 3541 
Q 3450 3153 3228 2886 
Q 3006 2619 2597 2516 
z
" transform="scale(0.015625)"/>
       </defs>
       <use xlink:href="#DejaVuSans-33"/>
       <use xlink:href="#DejaVuSans-30" x="63.623047"/>
       <use xlink:href="#DejaVuSans-30" x="127.246094"/>
      </g>
     </g>
    </g>
    <g id="xtick_5">
     <g id="text_5">
      <!-- 400 -->
      <g style="fill: #262626" transform="translate(273.557416 322.182437) scale(0.1 -0.1)">
       <defs>
        <path id="DejaVuSans-34" d="M 2419 4116 
L 825 1625 
L 2419 1625 
L 2419 4116 
z
M 2253 4666 
L 3047 4666 
L 3047 1625 
L 3713 1625 
L 3713 1100 
L 3047 1100 
L 3047 0 
L 2419 0 
L 2419 1100 
L 313 1100 
L 313 1709 
L 2253 4666 
z
" transform="scale(0.015625)"/>
       </defs>
       <use xlink:href="#DejaVuSans-34"/>
       <use xlink:href="#DejaVuSans-30" x="63.623047"/>
       <use xlink:href="#DejaVuSans-30" x="127.246094"/>
      </g>
     </g>
    </g>
    <g id="xtick_6">
     <g id="text_6">
      <!-- 500 -->
      <g style="fill: #262626" transform="translate(326.005646 322.182437) scale(0.1 -0.1)">
       <defs>
        <path id="DejaVuSans-35" d="M 691 4666 
L 3169 4666 
L 3169 4134 
L 1269 4134 
L 1269 2991 
Q 1406 3038 1543 3061 
Q 1681 3084 1819 3084 
Q 2600 3084 3056 2656 
Q 3513 2228 3513 1497 
Q 3513 744 3044 326 
Q 2575 -91 1722 -91 
Q 1428 -91 1123 -41 
Q 819 9 494 109 
L 494 744 
Q 775 591 1075 516 
Q 1375 441 1709 441 
Q 2250 441 2565 725 
Q 2881 1009 2881 1497 
Q 2881 1984 2565 2268 
Q 2250 2553 1709 2553 
Q 1456 2553 1204 2497 
Q 953 2441 691 2322 
L 691 4666 
z
" transform="scale(0.015625)"/>
       </defs>
       <use xlink:href="#DejaVuSans-35"/>
       <use xlink:href="#DejaVuSans-30" x="63.623047"/>
       <use xlink:href="#DejaVuSans-30" x="127.246094"/>
      </g>
     </g>
    </g>
    <g id="xtick_7">
     <g id="text_7">
      <!-- 600 -->
      <g style="fill: #262626" transform="translate(378.453877 322.182437) scale(0.1 -0.1)">
       <defs>
        <path id="DejaVuSans-36" d="M 2113 2584 
Q 1688 2584 1439 2293 
Q 1191 2003 1191 1497 
Q 1191 994 1439 701 
Q 1688 409 2113 409 
Q 2538 409 2786 701 
Q 3034 994 3034 1497 
Q 3034 2003 2786 2293 
Q 2538 2584 2113 2584 
z
M 3366 4563 
L 3366 3988 
Q 3128 4100 2886 4159 
Q 2644 4219 2406 4219 
Q 1781 4219 1451 3797 
Q 1122 3375 1075 2522 
Q 1259 2794 1537 2939 
Q 1816 3084 2150 3084 
Q 2853 3084 3261 2657 
Q 3669 2231 3669 1497 
Q 3669 778 3244 343 
Q 2819 -91 2113 -91 
Q 1303 -91 875 529 
Q 447 1150 447 2328 
Q 447 3434 972 4092 
Q 1497 4750 2381 4750 
Q 2619 4750 2861 4703 
Q 3103 4656 3366 4563 
z
" transform="scale(0.015625)"/>
       </defs>
       <use xlink:href="#DejaVuSans-36"/>
       <use xlink:href="#DejaVuSans-30" x="63.623047"/>
       <use xlink:href="#DejaVuSans-30" x="127.246094"/>
      </g>
     </g>
    </g>
    <g id="text_8">
     <!-- epoch -->
     <g style="fill: #262626" transform="translate(220.931875 335.860562) scale(0.1 -0.1)">
      <defs>
       <path id="DejaVuSans-65" d="M 3597 1894 
L 3597 1613 
L 953 1613 
Q 991 1019 1311 708 
Q 1631 397 2203 397 
Q 2534 397 2845 478 
Q 3156 559 3463 722 
L 3463 178 
Q 3153 47 2828 -22 
Q 2503 -91 2169 -91 
Q 1331 -91 842 396 
Q 353 884 353 1716 
Q 353 2575 817 3079 
Q 1281 3584 2069 3584 
Q 2775 3584 3186 3129 
Q 3597 2675 3597 1894 
z
M 3022 2063 
Q 3016 2534 2758 2815 
Q 2500 3097 2075 3097 
Q 1594 3097 1305 2825 
Q 1016 2553 972 2059 
L 3022 2063 
z
" transform="scale(0.015625)"/>
       <path id="DejaVuSans-70" d="M 1159 525 
L 1159 -1331 
L 581 -1331 
L 581 3500 
L 1159 3500 
L 1159 2969 
Q 1341 3281 1617 3432 
Q 1894 3584 2278 3584 
Q 2916 3584 3314 3078 
Q 3713 2572 3713 1747 
Q 3713 922 3314 415 
Q 2916 -91 2278 -91 
Q 1894 -91 1617 61 
Q 1341 213 1159 525 
z
M 3116 1747 
Q 3116 2381 2855 2742 
Q 2594 3103 2138 3103 
Q 1681 3103 1420 2742 
Q 1159 2381 1159 1747 
Q 1159 1113 1420 752 
Q 1681 391 2138 391 
Q 2594 391 2855 752 
Q 3116 1113 3116 1747 
z
" transform="scale(0.015625)"/>
       <path id="DejaVuSans-6f" d="M 1959 3097 
Q 1497 3097 1228 2736 
Q 959 2375 959 1747 
Q 959 1119 1226 758 
Q 1494 397 1959 397 
Q 2419 397 2687 759 
Q 2956 1122 2956 1747 
Q 2956 2369 2687 2733 
Q 2419 3097 1959 3097 
z
M 1959 3584 
Q 2709 3584 3137 3096 
Q 3566 2609 3566 1747 
Q 3566 888 3137 398 
Q 2709 -91 1959 -91 
Q 1206 -91 779 398 
Q 353 888 353 1747 
Q 353 2609 779 3096 
Q 1206 3584 1959 3584 
z
" transform="scale(0.015625)"/>
       <path id="DejaVuSans-63" d="M 3122 3366 
L 3122 2828 
Q 2878 2963 2633 3030 
Q 2388 3097 2138 3097 
Q 1578 3097 1268 2742 
Q 959 2388 959 1747 
Q 959 1106 1268 751 
Q 1578 397 2138 397 
Q 2388 397 2633 464 
Q 2878 531 3122 666 
L 3122 134 
Q 2881 22 2623 -34 
Q 2366 -91 2075 -91 
Q 1284 -91 818 406 
Q 353 903 353 1747 
Q 353 2603 823 3093 
Q 1294 3584 2113 3584 
Q 2378 3584 2631 3529 
Q 2884 3475 3122 3366 
z
" transform="scale(0.015625)"/>
       <path id="DejaVuSans-68" d="M 3513 2113 
L 3513 0 
L 2938 0 
L 2938 2094 
Q 2938 2591 2744 2837 
Q 2550 3084 2163 3084 
Q 1697 3084 1428 2787 
Q 1159 2491 1159 1978 
L 1159 0 
L 581 0 
L 581 4863 
L 1159 4863 
L 1159 2956 
Q 1366 3272 1645 3428 
Q 1925 3584 2291 3584 
Q 2894 3584 3203 3211 
Q 3513 2838 3513 2113 
z
" transform="scale(0.015625)"/>
      </defs>
      <use xlink:href="#DejaVuSans-65"/>
      <use xlink:href="#DejaVuSans-70" x="61.523438"/>
      <use xlink:href="#DejaVuSans-6f" x="125"/>
      <use xlink:href="#DejaVuSans-63" x="186.181641"/>
      <use xlink:href="#DejaVuSans-68" x="241.162109"/>
     </g>
    </g>
   </g>
   <g id="matplotlib.axis_2">
    <g id="ytick_1">
     <g id="text_9">
      <!-- 0.5 -->
      <g style="fill: #262626" transform="translate(34.696875 255.140724) scale(0.1 -0.1)">
       <defs>
        <path id="DejaVuSans-2e" d="M 684 794 
L 1344 794 
L 1344 0 
L 684 0 
L 684 794 
z
" transform="scale(0.015625)"/>
       </defs>
       <use xlink:href="#DejaVuSans-30"/>
       <use xlink:href="#DejaVuSans-2e" x="63.623047"/>
       <use xlink:href="#DejaVuSans-35" x="95.410156"/>
      </g>
     </g>
    </g>
    <g id="ytick_2">
     <g id="text_10">
      <!-- 1.0 -->
      <g style="fill: #262626" transform="translate(34.696875 196.067756) scale(0.1 -0.1)">
       <use xlink:href="#DejaVuSans-31"/>
       <use xlink:href="#DejaVuSans-2e" x="63.623047"/>
       <use xlink:href="#DejaVuSans-30" x="95.410156"/>
      </g>
     </g>
    </g>
    <g id="ytick_3">
     <g id="text_11">
      <!-- 1.5 -->
      <g style="fill: #262626" transform="translate(34.696875 136.994788) scale(0.1 -0.1)">
       <use xlink:href="#DejaVuSans-31"/>
       <use xlink:href="#DejaVuSans-2e" x="63.623047"/>
       <use xlink:href="#DejaVuSans-35" x="95.410156"/>
      </g>
     </g>
    </g>
    <g id="ytick_4">
     <g id="text_12">
      <!-- 2.0 -->
      <g style="fill: #262626" transform="translate(34.696875 77.92182) scale(0.1 -0.1)">
       <use xlink:href="#DejaVuSans-32"/>
       <use xlink:href="#DejaVuSans-2e" x="63.623047"/>
       <use xlink:href="#DejaVuSans-30" x="95.410156"/>
      </g>
     </g>
    </g>
   </g>
   <g id="line2d_1">
    <path d="M 73.832727 53.568 
L 74.881692 81.218471 
L 75.406174 95.792725 
L 76.979621 150.682249 
L 77.504103 174.195466 
L 78.028586 179.666354 
L 78.553068 207.963824 
L 79.07755 222.777041 
L 79.602033 230.00936 
L 80.126515 223.392609 
L 80.650997 243.341084 
L 81.17548 243.332651 
L 81.699962 245.40219 
L 82.224444 254.352234 
L 83.273409 266.129887 
L 83.797891 270.861158 
L 84.322373 264.976584 
L 84.846856 274.249239 
L 85.371338 275.927332 
L 85.89582 279.072931 
L 86.420303 278.19784 
L 86.944785 279.096057 
L 87.469267 280.70802 
L 87.993749 284.657194 
L 88.518232 283.073713 
L 89.042714 284.607498 
L 89.567196 283.95034 
L 90.091679 284.070048 
L 90.616161 287.534827 
L 91.140643 287.973591 
L 91.665126 286.586804 
L 92.189608 287.64961 
L 93.238572 288.405981 
L 93.763055 285.51573 
L 94.812019 289.411562 
L 95.336502 289.321999 
L 96.385466 289.745365 
L 96.909949 290.650595 
L 97.434431 290.622858 
L 97.958913 290.843276 
L 98.483396 287.438351 
L 99.007878 290.548157 
L 99.53236 290.196622 
L 100.056842 291.060105 
L 100.581325 290.861092 
L 101.105807 289.585908 
L 101.630289 290.757202 
L 102.679254 291.761435 
L 103.203736 291.618314 
L 103.728219 291.12834 
L 104.252701 291.808896 
L 104.777183 291.768563 
L 105.301665 292.295535 
L 105.826148 292.06881 
L 106.35063 292.507132 
L 106.875112 292.022436 
L 107.399595 292.04588 
L 107.924077 292.688665 
L 108.448559 292.266268 
L 108.973042 292.686707 
L 109.497524 292.646753 
L 110.022006 291.711828 
L 110.546488 246.329471 
L 111.595453 284.762061 
L 112.119935 288.941069 
L 112.644418 288.61559 
L 113.1689 290.984277 
L 113.693382 291.52445 
L 114.217865 291.628194 
L 114.742347 292.070983 
L 115.266829 291.98894 
L 115.791311 292.092784 
L 116.315794 292.672077 
L 116.840276 292.883158 
L 117.364758 292.213623 
L 117.889241 292.825416 
L 118.938205 292.816949 
L 119.462688 293.121397 
L 119.98717 293.142046 
L 120.511652 292.813856 
L 121.036135 293.30315 
L 121.560617 292.791553 
L 122.085099 293.397745 
L 122.609581 293.440177 
L 123.134064 292.939062 
L 123.658546 293.563409 
L 124.183028 293.464682 
L 124.707511 293.768276 
L 125.231993 293.30224 
L 125.756475 242.679428 
L 126.280958 286.127913 
L 126.80544 291.493477 
L 127.329922 292.227075 
L 128.378887 292.82674 
L 128.903369 293.447218 
L 129.427851 293.378602 
L 129.952334 292.802868 
L 131.001298 293.944225 
L 131.525781 293.421572 
L 132.050263 293.651967 
L 132.574745 294.027273 
L 133.62371 293.907656 
L 134.148192 294.082153 
L 134.672674 293.916337 
L 135.197157 294.115534 
L 135.721639 294.449003 
L 136.770604 293.693822 
L 137.295086 294.126142 
L 137.819568 294.377718 
L 138.344051 294.008435 
L 139.393015 294.066723 
L 139.917497 294.476423 
L 140.44198 294.158799 
L 140.966462 294.394499 
L 141.490944 294.143683 
L 142.015427 294.059512 
L 142.539909 294.373068 
L 144.113356 294.001047 
L 144.637838 294.516265 
L 145.686803 294.603389 
L 146.211285 294.439923 
L 147.26025 294.474569 
L 147.784732 293.790551 
L 148.833697 294.649573 
L 149.358179 294.359063 
L 149.882661 294.466459 
L 150.407143 294.903948 
L 151.456108 294.379655 
L 152.505073 294.693848 
L 153.554037 294.543886 
L 154.07852 294.329005 
L 154.603002 294.507909 
L 155.127484 293.914634 
L 155.651967 294.564307 
L 156.176449 294.373214 
L 156.700931 282.03994 
L 157.225413 233.286941 
L 157.749896 269.969746 
L 158.274378 281.183113 
L 158.79886 285.994157 
L 159.323343 288.419293 
L 159.847825 289.196546 
L 160.89679 291.054861 
L 161.945754 292.514091 
L 162.470236 292.3801 
L 162.994719 292.406963 
L 163.519201 292.566785 
L 164.043683 293.174 
L 164.568166 293.383498 
L 165.092648 293.881329 
L 165.61713 292.622651 
L 166.141613 293.874151 
L 167.190577 294.313487 
L 167.715059 293.772691 
L 168.239542 294.347248 
L 168.764024 294.505388 
L 169.288506 294.458536 
L 169.812989 293.974746 
L 170.337471 294.486293 
L 170.861953 293.384316 
L 171.386436 293.168115 
L 171.910918 293.487794 
L 172.4354 294.225142 
L 172.959883 294.141778 
L 173.484365 294.764492 
L 174.008847 294.566123 
L 174.533329 294.557051 
L 175.057812 294.81202 
L 175.582294 294.252293 
L 176.106776 294.884274 
L 176.631259 294.692707 
L 177.155741 293.967153 
L 177.680223 294.686582 
L 178.204706 294.18445 
L 178.729188 294.537089 
L 179.25367 294.223292 
L 179.778152 294.520405 
L 180.302635 294.42343 
L 180.827117 294.170507 
L 181.351599 294.655233 
L 181.876082 294.719076 
L 182.400564 294.464362 
L 183.449529 295.006303 
L 183.974011 294.938689 
L 184.498493 294.560108 
L 185.022975 102.140776 
L 185.547458 260.080863 
L 186.07194 284.018855 
L 186.596422 288.637403 
L 187.120905 291.057954 
L 187.645387 291.45581 
L 188.169869 292.57439 
L 188.694352 293.262637 
L 189.218834 292.873813 
L 189.743316 292.8588 
L 191.316763 293.928221 
L 192.365728 294.249775 
L 192.89021 294.092202 
L 193.414692 294.33139 
L 193.939175 294.22675 
L 194.463657 294.262085 
L 194.988139 293.689085 
L 195.512622 294.450279 
L 196.037104 294.502306 
L 197.086068 294.436263 
L 197.610551 136.731298 
L 198.135033 268.689901 
L 198.659515 283.784899 
L 199.183998 289.779099 
L 199.70848 290.766397 
L 200.232962 292.224708 
L 200.757445 292.164981 
L 201.281927 292.732473 
L 201.806409 293.04249 
L 202.330891 293.71888 
L 202.855374 293.809419 
L 203.379856 293.720007 
L 203.904338 293.746936 
L 204.428821 292.252985 
L 204.953303 294.185347 
L 205.477785 294.365663 
L 206.002268 294.67534 
L 206.52675 293.743449 
L 208.100197 294.681056 
L 208.624679 294.429636 
L 209.149161 294.546175 
L 209.673644 294.147675 
L 210.198126 294.503999 
L 211.247091 294.637302 
L 211.771573 294.464754 
L 212.296055 293.410407 
L 212.820538 294.53921 
L 213.34502 294.784456 
L 213.869502 294.87179 
L 214.393984 294.643321 
L 214.918467 294.859964 
L 215.442949 294.550575 
L 217.016396 295.017805 
L 218.065361 295.105543 
L 218.589843 295.111929 
L 219.114325 294.944785 
L 219.638807 295.081274 
L 220.16329 294.862984 
L 220.687772 294.986267 
L 221.212254 294.686747 
L 221.736737 294.977383 
L 222.261219 294.906722 
L 223.310184 295.139233 
L 223.834666 294.142642 
L 224.359148 214.84435 
L 224.88363 276.079432 
L 225.408113 286.327678 
L 226.457077 292.003128 
L 226.98156 292.78839 
L 228.030524 293.61231 
L 228.555007 293.009254 
L 229.079489 293.727599 
L 230.128454 293.55145 
L 230.652936 294.449244 
L 231.7019 294.1083 
L 232.226383 294.342989 
L 232.750865 294.422735 
L 233.275347 294.65024 
L 234.324312 294.642312 
L 234.848794 294.510815 
L 236.422241 294.563452 
L 236.946723 294.275356 
L 237.471206 294.830186 
L 237.995688 294.66992 
L 238.52017 294.651343 
L 239.044653 294.855736 
L 240.093617 294.811857 
L 240.6181 294.886009 
L 241.142582 294.675097 
L 241.667064 295.014433 
L 242.191546 294.781932 
L 242.716029 294.976294 
L 243.240511 294.961556 
L 243.764993 295.156069 
L 244.289476 294.719114 
L 244.813958 175.38196 
L 245.33844 285.184783 
L 245.862923 291.687159 
L 246.387405 293.401173 
L 246.911887 293.640085 
L 247.43637 293.580554 
L 247.960852 294.436815 
L 248.485334 294.034076 
L 249.009816 294.481692 
L 249.534299 294.341619 
L 250.058781 294.567022 
L 251.632228 294.816312 
L 252.15671 294.268678 
L 252.681193 294.676749 
L 253.205675 294.88938 
L 254.254639 294.83145 
L 254.779122 294.823827 
L 255.303604 295.080258 
L 255.828086 294.784762 
L 256.877051 295.041222 
L 257.401533 295.05641 
L 257.926016 295.188975 
L 258.97498 294.997033 
L 259.499462 295.089428 
L 260.023945 295.299093 
L 260.548427 294.945186 
L 261.597392 295.054885 
L 262.121874 294.989934 
L 262.646356 295.190608 
L 263.170839 295.038671 
L 263.695321 295.128796 
L 264.219803 294.562749 
L 264.744286 294.990026 
L 265.268768 295.030258 
L 265.79325 295.220232 
L 266.317732 295.026178 
L 266.842215 295.228809 
L 267.366697 295.180572 
L 268.415662 294.500536 
L 268.940144 294.453701 
L 269.464626 295.093017 
L 269.989109 294.812325 
L 270.513591 293.609176 
L 271.038073 294.60544 
L 271.562555 294.677878 
L 272.087038 294.980256 
L 272.61152 294.65498 
L 273.136002 294.985828 
L 273.660485 295.073687 
L 274.184967 282.805854 
L 274.709449 294.370197 
L 275.758414 294.720531 
L 276.282896 295.179436 
L 276.807378 294.646231 
L 277.856343 295.129813 
L 278.380825 294.931087 
L 278.905308 295.272348 
L 279.42979 295.302016 
L 279.954272 295.082309 
L 281.003237 295.133182 
L 282.052201 295.196489 
L 282.576684 295.023648 
L 283.101166 295.200541 
L 283.625648 295.129403 
L 284.150131 295.234984 
L 284.674613 295.161008 
L 285.723578 295.201538 
L 286.24806 294.973539 
L 286.772542 294.968768 
L 287.297025 295.370558 
L 287.821507 295.368421 
L 288.870471 295.069437 
L 289.394954 295.086781 
L 289.919436 295.455336 
L 290.968401 294.936804 
L 292.541848 295.090546 
L 293.06633 290.996965 
L 293.590812 252.528237 
L 294.115294 285.727176 
L 294.639777 288.512045 
L 295.164259 292.929698 
L 296.737706 294.162419 
L 297.262188 294.13998 
L 297.786671 294.372039 
L 298.311153 294.742732 
L 298.835635 294.37843 
L 299.360117 294.630711 
L 299.8846 294.444395 
L 300.409082 294.390079 
L 301.458047 295.054072 
L 301.982529 294.278485 
L 302.507011 294.914499 
L 303.031494 294.866164 
L 303.555976 295.069727 
L 305.129423 294.986304 
L 305.653905 295.006694 
L 306.178387 295.275399 
L 306.70287 294.49203 
L 307.227352 295.077245 
L 307.751834 295.2313 
L 308.800799 295.137524 
L 309.325281 294.867952 
L 309.849764 295.013099 
L 310.898728 294.918024 
L 311.42321 295.19027 
L 311.947693 295.063387 
L 312.472175 295.32205 
L 312.996657 295.35141 
L 313.52114 295.182746 
L 314.045622 294.864019 
L 314.570104 294.952213 
L 315.094587 295.172309 
L 315.619069 294.961037 
L 316.668033 295.122614 
L 317.192516 294.821788 
L 317.716998 294.274094 
L 318.24148 295.345694 
L 318.765963 295.054087 
L 319.814927 295.285991 
L 320.33941 295.31126 
L 320.863892 295.488 
L 321.388374 295.418378 
L 322.437339 294.776232 
L 322.961821 295.197996 
L 323.486303 295.119451 
L 324.010786 295.266509 
L 324.535268 294.967455 
L 325.05975 295.140721 
L 325.584233 295.10749 
L 326.108715 295.212488 
L 326.633197 238.481403 
L 327.15768 285.380047 
L 327.682162 290.761203 
L 328.206644 292.631334 
L 328.731126 293.146013 
L 329.255609 293.883292 
L 329.780091 294.283502 
L 330.304573 294.328212 
L 330.829056 293.663726 
L 331.353538 294.076544 
L 331.87802 292.842306 
L 332.402503 294.304711 
L 332.926985 294.728961 
L 333.451467 294.772561 
L 333.975949 294.987226 
L 334.500432 294.353926 
L 335.024914 294.917436 
L 335.549396 294.790833 
L 336.073879 294.824997 
L 336.598361 295.053725 
L 337.122843 294.99773 
L 337.647326 295.082093 
L 338.69629 294.880126 
L 339.220773 294.979204 
L 339.745255 294.627905 
L 340.269737 295.100725 
L 341.843184 294.945047 
L 342.367666 294.237994 
L 342.892149 294.784341 
L 343.416631 295.054372 
L 344.465596 295.011172 
L 344.990078 294.602152 
L 345.51456 289.41845 
L 346.039042 264.237469 
L 346.563525 291.450651 
L 347.088007 293.174726 
L 347.612489 293.906946 
L 348.136972 294.34368 
L 348.661454 293.93904 
L 349.185936 294.624473 
L 349.710419 294.543968 
L 350.234901 294.916289 
L 350.759383 295.043023 
L 351.283865 294.801067 
L 351.808348 294.73658 
L 352.33283 295.070026 
L 352.857312 295.139848 
L 353.381795 294.961605 
L 354.430759 294.97837 
L 354.955242 295.294678 
L 355.479724 295.038137 
L 356.004206 294.628054 
L 356.528689 295.151064 
L 357.053171 295.108399 
L 357.577653 294.91408 
L 358.102135 294.998987 
L 358.626618 295.232101 
L 360.200065 294.704449 
L 360.724547 295.305585 
L 361.249029 294.839264 
L 363.346958 295.401579 
L 363.871441 294.988704 
L 364.395923 295.213742 
L 364.920405 295.020783 
L 365.444888 295.32128 
L 365.96937 295.148787 
L 366.493852 295.303088 
L 367.018335 295.118086 
L 367.542817 295.27759 
L 368.067299 294.998787 
L 368.591781 295.283839 
L 369.116264 295.283782 
L 369.640746 295.165535 
L 371.214193 295.372988 
L 371.738675 295.183298 
L 372.263158 294.42382 
L 372.78764 295.169449 
L 373.312122 295.368195 
L 374.361087 295.058062 
L 374.885569 295.175588 
L 375.410051 294.250878 
L 375.934534 255.157376 
L 376.459016 289.514205 
L 376.983498 292.645591 
L 377.507981 293.258608 
L 378.032463 294.100764 
L 378.556945 294.366918 
L 379.60591 294.561103 
L 380.130392 294.679091 
L 380.654874 294.984042 
L 381.179357 294.773379 
L 381.703839 295.035841 
L 382.228321 295.125312 
L 382.752804 294.930953 
L 383.277286 294.999071 
L 383.801768 294.714697 
L 385.375215 295.174012 
L 385.899697 294.921017 
L 386.42418 294.830819 
L 386.948662 294.926209 
L 387.473144 295.175588 
L 387.997627 295.073089 
L 390.620038 295.381241 
L 391.669003 295.023804 
L 392.717967 295.089374 
L 393.24245 295.371218 
L 393.766932 295.043834 
L 395.340379 295.280108 
L 395.864861 294.921125 
L 396.389344 295.18299 
L 396.913826 294.876763 
L 397.96279 295.378849 
L 398.487273 295.482022 
L 398.487273 295.482022 
" clip-path="url(#p845e9109ad)" style="fill: none; stroke: #1f77b4; stroke-width: 0.5; stroke-linecap: round"/>
   </g>
   <g id="patch_3">
    <path d="M 57.6 307.584 
L 57.6 41.472 
" style="fill: none; stroke: #ffffff; stroke-width: 0.8; stroke-linejoin: miter; stroke-linecap: square"/>
   </g>
   <g id="patch_4">
    <path d="M 414.72 307.584 
L 414.72 41.472 
" style="fill: none; stroke: #ffffff; stroke-width: 0.8; stroke-linejoin: miter; stroke-linecap: square"/>
   </g>
   <g id="patch_5">
    <path d="M 57.6 307.584 
L 414.72 307.584 
" style="fill: none; stroke: #ffffff; stroke-width: 0.8; stroke-linejoin: miter; stroke-linecap: square"/>
   </g>
   <g id="patch_6">
    <path d="M 57.6 41.472 
L 414.72 41.472 
" style="fill: none; stroke: #ffffff; stroke-width: 0.8; stroke-linejoin: miter; stroke-linecap: square"/>
   </g>
   <g id="text_13">
    <!-- loss terhadap epoch -->
    <g style="fill: #262626" transform="translate(175.303125 35.472) scale(0.12 -0.12)">
     <defs>
      <path id="DejaVuSans-6c" d="M 603 4863 
L 1178 4863 
L 1178 0 
L 603 0 
L 603 4863 
z
" transform="scale(0.015625)"/>
      <path id="DejaVuSans-73" d="M 2834 3397 
L 2834 2853 
Q 2591 2978 2328 3040 
Q 2066 3103 1784 3103 
Q 1356 3103 1142 2972 
Q 928 2841 928 2578 
Q 928 2378 1081 2264 
Q 1234 2150 1697 2047 
L 1894 2003 
Q 2506 1872 2764 1633 
Q 3022 1394 3022 966 
Q 3022 478 2636 193 
Q 2250 -91 1575 -91 
Q 1294 -91 989 -36 
Q 684 19 347 128 
L 347 722 
Q 666 556 975 473 
Q 1284 391 1588 391 
Q 1994 391 2212 530 
Q 2431 669 2431 922 
Q 2431 1156 2273 1281 
Q 2116 1406 1581 1522 
L 1381 1569 
Q 847 1681 609 1914 
Q 372 2147 372 2553 
Q 372 3047 722 3315 
Q 1072 3584 1716 3584 
Q 2034 3584 2315 3537 
Q 2597 3491 2834 3397 
z
" transform="scale(0.015625)"/>
      <path id="DejaVuSans-20" transform="scale(0.015625)"/>
      <path id="DejaVuSans-74" d="M 1172 4494 
L 1172 3500 
L 2356 3500 
L 2356 3053 
L 1172 3053 
L 1172 1153 
Q 1172 725 1289 603 
Q 1406 481 1766 481 
L 2356 481 
L 2356 0 
L 1766 0 
Q 1100 0 847 248 
Q 594 497 594 1153 
L 594 3053 
L 172 3053 
L 172 3500 
L 594 3500 
L 594 4494 
L 1172 4494 
z
" transform="scale(0.015625)"/>
      <path id="DejaVuSans-72" d="M 2631 2963 
Q 2534 3019 2420 3045 
Q 2306 3072 2169 3072 
Q 1681 3072 1420 2755 
Q 1159 2438 1159 1844 
L 1159 0 
L 581 0 
L 581 3500 
L 1159 3500 
L 1159 2956 
Q 1341 3275 1631 3429 
Q 1922 3584 2338 3584 
Q 2397 3584 2469 3576 
Q 2541 3569 2628 3553 
L 2631 2963 
z
" transform="scale(0.015625)"/>
      <path id="DejaVuSans-61" d="M 2194 1759 
Q 1497 1759 1228 1600 
Q 959 1441 959 1056 
Q 959 750 1161 570 
Q 1363 391 1709 391 
Q 2188 391 2477 730 
Q 2766 1069 2766 1631 
L 2766 1759 
L 2194 1759 
z
M 3341 1997 
L 3341 0 
L 2766 0 
L 2766 531 
Q 2569 213 2275 61 
Q 1981 -91 1556 -91 
Q 1019 -91 701 211 
Q 384 513 384 1019 
Q 384 1609 779 1909 
Q 1175 2209 1959 2209 
L 2766 2209 
L 2766 2266 
Q 2766 2663 2505 2880 
Q 2244 3097 1772 3097 
Q 1472 3097 1187 3025 
Q 903 2953 641 2809 
L 641 3341 
Q 956 3463 1253 3523 
Q 1550 3584 1831 3584 
Q 2591 3584 2966 3190 
Q 3341 2797 3341 1997 
z
" transform="scale(0.015625)"/>
      <path id="DejaVuSans-64" d="M 2906 2969 
L 2906 4863 
L 3481 4863 
L 3481 0 
L 2906 0 
L 2906 525 
Q 2725 213 2448 61 
Q 2172 -91 1784 -91 
Q 1150 -91 751 415 
Q 353 922 353 1747 
Q 353 2572 751 3078 
Q 1150 3584 1784 3584 
Q 2172 3584 2448 3432 
Q 2725 3281 2906 2969 
z
M 947 1747 
Q 947 1113 1208 752 
Q 1469 391 1925 391 
Q 2381 391 2643 752 
Q 2906 1113 2906 1747 
Q 2906 2381 2643 2742 
Q 2381 3103 1925 3103 
Q 1469 3103 1208 2742 
Q 947 2381 947 1747 
z
" transform="scale(0.015625)"/>
     </defs>
     <use xlink:href="#DejaVuSans-6c"/>
     <use xlink:href="#DejaVuSans-6f" x="27.783203"/>
     <use xlink:href="#DejaVuSans-73" x="88.964844"/>
     <use xlink:href="#DejaVuSans-73" x="141.064453"/>
     <use xlink:href="#DejaVuSans-20" x="193.164062"/>
     <use xlink:href="#DejaVuSans-74" x="224.951172"/>
     <use xlink:href="#DejaVuSans-65" x="264.160156"/>
     <use xlink:href="#DejaVuSans-72" x="325.683594"/>
     <use xlink:href="#DejaVuSans-68" x="365.046875"/>
     <use xlink:href="#DejaVuSans-61" x="428.425781"/>
     <use xlink:href="#DejaVuSans-64" x="489.705078"/>
     <use xlink:href="#DejaVuSans-61" x="553.181641"/>
     <use xlink:href="#DejaVuSans-70" x="614.460938"/>
     <use xlink:href="#DejaVuSans-20" x="677.9375"/>
     <use xlink:href="#DejaVuSans-65" x="709.724609"/>
     <use xlink:href="#DejaVuSans-70" x="771.248047"/>
     <use xlink:href="#DejaVuSans-6f" x="834.724609"/>
     <use xlink:href="#DejaVuSans-63" x="895.90625"/>
     <use xlink:href="#DejaVuSans-68" x="950.886719"/>
    </g>
   </g>
   <g id="legend_1">
    <g id="patch_7">
     <path d="M 239.190313 64.42825 
L 407.72 64.42825 
Q 409.72 64.42825 409.72 62.42825 
L 409.72 48.472 
Q 409.72 46.472 407.72 46.472 
L 239.190313 46.472 
Q 237.190313 46.472 237.190313 48.472 
L 237.190313 62.42825 
Q 237.190313 64.42825 239.190313 64.42825 
z
" style="fill: #eaeaf2; opacity: 0.8; stroke: #cccccc; stroke-linejoin: miter"/>
    </g>
    <g id="line2d_2">
     <path d="M 241.190313 54.570437 
L 251.190313 54.570437 
L 261.190313 54.570437 
" style="fill: none; stroke: #1f77b4; stroke-width: 0.5; stroke-linecap: round"/>
    </g>
    <g id="text_14">
     <!-- best-200/top1-0d7671_loss -->
     <g style="fill: #262626" transform="translate(269.190313 58.070437) scale(0.1 -0.1)">
      <defs>
       <path id="DejaVuSans-62" d="M 3116 1747 
Q 3116 2381 2855 2742 
Q 2594 3103 2138 3103 
Q 1681 3103 1420 2742 
Q 1159 2381 1159 1747 
Q 1159 1113 1420 752 
Q 1681 391 2138 391 
Q 2594 391 2855 752 
Q 3116 1113 3116 1747 
z
M 1159 2969 
Q 1341 3281 1617 3432 
Q 1894 3584 2278 3584 
Q 2916 3584 3314 3078 
Q 3713 2572 3713 1747 
Q 3713 922 3314 415 
Q 2916 -91 2278 -91 
Q 1894 -91 1617 61 
Q 1341 213 1159 525 
L 1159 0 
L 581 0 
L 581 4863 
L 1159 4863 
L 1159 2969 
z
" transform="scale(0.015625)"/>
       <path id="DejaVuSans-2d" d="M 313 2009 
L 1997 2009 
L 1997 1497 
L 313 1497 
L 313 2009 
z
" transform="scale(0.015625)"/>
       <path id="DejaVuSans-2f" d="M 1625 4666 
L 2156 4666 
L 531 -594 
L 0 -594 
L 1625 4666 
z
" transform="scale(0.015625)"/>
       <path id="DejaVuSans-37" d="M 525 4666 
L 3525 4666 
L 3525 4397 
L 1831 0 
L 1172 0 
L 2766 4134 
L 525 4134 
L 525 4666 
z
" transform="scale(0.015625)"/>
       <path id="DejaVuSans-5f" d="M 3263 -1063 
L 3263 -1509 
L -63 -1509 
L -63 -1063 
L 3263 -1063 
z
" transform="scale(0.015625)"/>
      </defs>
      <use xlink:href="#DejaVuSans-62"/>
      <use xlink:href="#DejaVuSans-65" x="63.476562"/>
      <use xlink:href="#DejaVuSans-73" x="125"/>
      <use xlink:href="#DejaVuSans-74" x="177.099609"/>
      <use xlink:href="#DejaVuSans-2d" x="216.308594"/>
      <use xlink:href="#DejaVuSans-32" x="252.392578"/>
      <use xlink:href="#DejaVuSans-30" x="316.015625"/>
      <use xlink:href="#DejaVuSans-30" x="379.638672"/>
      <use xlink:href="#DejaVuSans-2f" x="443.261719"/>
      <use xlink:href="#DejaVuSans-74" x="476.953125"/>
      <use xlink:href="#DejaVuSans-6f" x="516.162109"/>
      <use xlink:href="#DejaVuSans-70" x="577.34375"/>
      <use xlink:href="#DejaVuSans-31" x="640.820312"/>
      <use xlink:href="#DejaVuSans-2d" x="704.443359"/>
      <use xlink:href="#DejaVuSans-30" x="740.527344"/>
      <use xlink:href="#DejaVuSans-64" x="804.150391"/>
      <use xlink:href="#DejaVuSans-37" x="867.626953"/>
      <use xlink:href="#DejaVuSans-36" x="931.25"/>
      <use xlink:href="#DejaVuSans-37" x="994.873047"/>
      <use xlink:href="#DejaVuSans-31" x="1058.496094"/>
      <use xlink:href="#DejaVuSans-5f" x="1122.119141"/>
      <use xlink:href="#DejaVuSans-6c" x="1172.119141"/>
      <use xlink:href="#DejaVuSans-6f" x="1199.902344"/>
      <use xlink:href="#DejaVuSans-73" x="1261.083984"/>
      <use xlink:href="#DejaVuSans-73" x="1313.183594"/>
     </g>
    </g>
   </g>
  </g>
 </g>
 <defs>
  <clipPath id="p845e9109ad">
   <rect x="57.6" y="41.472" width="357.12" height="266.112"/>
  </clipPath>
 </defs>
</svg>
